<svg xmlns="http://www.w3.org/2000/svg" width="71.794" height="70" viewBox="0 0 71.794 70">
  <path id="github-brands" d="M24.013,64.364c0,.289-.333.521-.753.521-.478.043-.811-.188-.811-.521,0-.289.333-.521.753-.521C23.637,63.8,24.013,64.031,24.013,64.364Zm-4.5-.651c-.1.289.188.622.622.709a.679.679,0,0,0,.9-.289c.087-.289-.188-.622-.622-.753a.743.743,0,0,0-.9.333Zm6.4-.246c-.42.1-.709.376-.666.709.043.289.42.478.854.376s.709-.376.666-.666S26.329,63.423,25.909,63.466ZM35.434,8C15.357,8,0,23.242,0,43.318A36.289,36.289,0,0,0,24.534,77.941c1.853.333,2.5-.811,2.5-1.751,0-.9-.043-5.848-.043-8.887,0,0-10.132,2.171-12.26-4.313,0,0-1.65-4.212-4.024-5.3,0,0-3.315-2.273.232-2.229A7.64,7.64,0,0,1,16.53,59.2c3.17,5.587,8.482,3.98,10.552,3.025A8.045,8.045,0,0,1,29.4,57.344c-8.091-.9-16.255-2.07-16.255-15.994,0-3.981,1.1-5.978,3.416-8.526A13.676,13.676,0,0,1,16.935,23c3.025-.941,9.987,3.908,9.987,3.908a34.195,34.195,0,0,1,18.18,0S52.065,22.04,55.09,23a13.669,13.669,0,0,1,.376,9.828c2.316,2.562,3.734,4.559,3.734,8.526,0,13.968-8.526,15.082-16.617,15.994,1.332,1.143,2.461,3.315,2.461,6.716,0,4.878-.043,10.914-.043,12.1,0,.941.666,2.084,2.5,1.751C61.98,73.107,71.794,59.37,71.794,43.318,71.794,23.242,55.51,8,35.434,8ZM14.069,57.923c-.188.145-.145.478.1.753.232.232.565.333.753.145.188-.145.145-.478-.1-.753C14.59,57.836,14.257,57.735,14.069,57.923ZM12.506,56.75c-.1.188.043.42.333.565a.431.431,0,0,0,.622-.1c.1-.188-.043-.42-.333-.565C12.839,56.562,12.607,56.606,12.506,56.75ZM17.2,61.9c-.232.188-.145.622.188.9.333.333.753.376.941.145.188-.188.1-.622-.188-.9C17.818,61.715,17.384,61.672,17.2,61.9Zm-1.65-2.128c-.232.145-.232.521,0,.854s.622.478.811.333a.66.66,0,0,0,0-.9c-.2-.333-.579-.478-.811-.289Z" transform="translate(0 -8)" fill="#fff"/>
</svg>
