<svg xmlns="http://www.w3.org/2000/svg" width="70.016" height="70" viewBox="0 0 70.016 70">
  <path id="instagram-brands_3_" data-name="instagram-brands (3)" d="M34.941,48.878A17.947,17.947,0,1,0,52.888,66.825,17.919,17.919,0,0,0,34.941,48.878Zm0,29.615A11.668,11.668,0,1,1,46.609,66.825,11.689,11.689,0,0,1,34.941,78.493ZM57.808,48.144a4.186,4.186,0,1,1-4.186-4.186A4.176,4.176,0,0,1,57.808,48.144Zm11.887,4.249c-.266-5.607-1.546-10.575-5.654-14.667-4.092-4.092-9.059-5.373-14.667-5.654-5.779-.328-23.1-.328-28.881,0C14.9,32.337,9.933,33.617,5.825,37.71S.452,46.769.171,52.377c-.328,5.779-.328,23.1,0,28.881.266,5.607,1.546,10.575,5.654,14.667s9.059,5.373,14.667,5.654c5.779.328,23.1.328,28.881,0,5.607-.266,10.575-1.546,14.667-5.654,4.092-4.092,5.373-9.059,5.654-14.667C70.023,75.478,70.023,58.172,69.695,52.392ZM62.228,87.459a11.813,11.813,0,0,1-6.654,6.654c-4.608,1.828-15.542,1.406-20.634,1.406s-16.042.406-20.634-1.406a11.813,11.813,0,0,1-6.654-6.654C5.825,82.851,6.247,71.917,6.247,66.825S5.841,50.783,7.653,46.191a11.813,11.813,0,0,1,6.654-6.654c4.608-1.828,15.542-1.406,20.634-1.406s16.042-.406,20.634,1.406a11.813,11.813,0,0,1,6.654,6.654c1.828,4.608,1.406,15.542,1.406,20.634S64.056,82.866,62.228,87.459Z" transform="translate(0.075 -31.825)" fill="#fff"/>
</svg>
