<svg xmlns="http://www.w3.org/2000/svg" width="26.15" height="26.15" viewBox="0 0 26.15 26.15"><path d="M18.032,93.075l7.434-7.434a2.337,2.337,0,0,0,0-3.3l-1.652-1.652a2.337,2.337,0,0,0-3.3,0l-7.434,7.434L5.641,80.684a2.337,2.337,0,0,0-3.3,0L.684,82.336a2.337,2.337,0,0,0,0,3.3l7.434,7.434L.684,100.509a2.337,2.337,0,0,0,0,3.3l1.652,1.652a2.337,2.337,0,0,0,3.3,0l7.434-7.434,7.434,7.434a2.337,2.337,0,0,0,3.3,0l1.652-1.652a2.337,2.337,0,0,0,0-3.3Z" transform="translate(0 -80)" fill="#6c63ff"/></svg>