<svg width="530" height="499" viewBox="0 0 530 499" fill="none" xmlns="http://www.w3.org/2000/svg">
<g id="AboutMeIllustration.inline">
<g id="desk">
<path id="Path 495" d="M384.3 282.868V420.559L407.332 458.094L409.085 460.949H499.962L501.798 282.867L384.3 282.868Z" fill="#E6E6E6"/>
<path id="Path 496" opacity="0.1" d="M384.3 282.868V420.559L407.332 458.094L408.745 282.868H384.3Z" fill="black"/>
<path id="Path 497" d="M164.91 279.195V416.887L141.878 454.422L140.125 457.276H49.2491L47.4101 279.195H164.91Z" fill="#E6E6E6"/>
<path id="Path 498" opacity="0.1" d="M164.91 279.195V416.887L141.878 454.422L140.465 279.195H164.91Z" fill="black"/>
<path id="Path 499" d="M529.335 276.442V284.703H35.4801V272.77L81.3801 248.903H488.946L529.335 276.442Z" fill="#E6E6E6"/>
<path id="Path 500" opacity="0.1" d="M529.335 276.442V284.703H35.4801V272.77L529.335 276.442Z" fill="black"/>
<path id="Path 501" d="M106.162 317.75H84.1301L74.9491 311.324H116.259L106.162 317.75Z" fill="#3F3D56"/>
<path id="Path 502" d="M106.162 344.37H84.1301L74.9511 337.944H116.259L106.162 344.37Z" fill="#3F3D56"/>
<path id="Path 503" d="M106.162 382.006H84.1301L74.9511 375.58H116.259L106.162 382.006Z" fill="#3F3D56"/>
<path id="Path 504" d="M106.162 419.642H84.1301L74.9511 413.216H116.259L106.162 419.642Z" fill="#3F3D56"/>
<path id="Path 505" d="M443.048 321.421H465.079L474.26 314.995H432.951L443.048 321.421Z" fill="#3F3D56"/>
<path id="Path 506" d="M443.048 348.042H465.079L474.26 341.616H432.951L443.048 348.042Z" fill="#3F3D56"/>
<path id="Path 507" d="M443.048 385.678H465.079L474.26 379.252H432.951L443.048 385.678Z" fill="#3F3D56"/>
<path id="Path 508" d="M443.048 423.312H465.079L474.26 416.887H432.951L443.048 423.312Z" fill="#3F3D56"/>
</g>
<g id="computer">
<path id="Path 509" d="M458.051 89.6764H272.582C271.661 89.6763 270.749 89.8576 269.898 90.2101C269.047 90.5626 268.273 91.0794 267.622 91.7308C266.971 92.3822 266.454 93.1556 266.101 94.0068C265.749 94.8579 265.568 95.7702 265.568 96.6914V221.627C265.568 222.549 265.75 223.461 266.102 224.312C266.455 225.163 266.971 225.936 267.623 226.587C268.274 227.239 269.048 227.755 269.899 228.108C270.75 228.46 271.662 228.642 272.583 228.641H342.983L340.345 245.482C340.345 245.482 325.271 253.49 335.87 253.726C346.469 253.962 396.402 253.726 396.402 253.726C396.402 253.726 406.059 253.726 390.749 245.247L388.268 228.642H458.046C458.967 228.642 459.879 228.461 460.73 228.108C461.582 227.756 462.355 227.239 463.006 226.588C463.657 225.936 464.174 225.163 464.527 224.312C464.879 223.461 465.06 222.549 465.06 221.627V96.6904C465.06 95.7692 464.879 94.857 464.526 94.0059C464.174 93.1548 463.657 92.3814 463.006 91.7301C462.354 91.0787 461.581 90.5621 460.73 90.2097C459.879 89.8574 458.966 89.6761 458.045 89.6764H458.051Z" fill="#3F3D56"/>
<path id="Rectangle 132" d="M458.353 97.0953H272.281V201.201H458.353V97.0953Z" fill="#F2F2F2"/>
<path id="Ellipse 123" d="M365.317 94.9764C365.968 94.9764 366.495 94.449 366.495 93.7984C366.495 93.1478 365.968 92.6204 365.317 92.6204C364.667 92.6204 364.139 93.1478 364.139 93.7984C364.139 94.449 364.667 94.9764 365.317 94.9764Z" fill="#F2F2F2"/>
<path id="Ellipse 124" d="M365.316 223.577C367.788 223.577 369.791 221.574 369.791 219.102C369.791 216.631 367.788 214.627 365.316 214.627C362.845 214.627 360.841 216.631 360.841 219.102C360.841 221.574 362.845 223.577 365.316 223.577Z" fill="#F2F2F2"/>
<path id="Path 510" d="M358.343 266.444V268.8H231.624V266.915L231.798 266.444L234.921 257.965H355.752L358.343 266.444Z" fill="#3F3D56"/>
<path id="Path 511" d="M407.108 264.138C406.877 265.125 406.008 266.166 404.037 267.15C396.971 270.683 382.604 266.208 382.604 266.208C382.604 266.208 371.534 264.324 371.534 259.378C371.845 259.166 372.169 258.973 372.504 258.801C375.475 257.229 385.325 253.351 402.79 258.965C404.077 259.369 405.226 260.123 406.11 261.141C406.502 261.527 406.797 261.999 406.971 262.521C407.145 263.043 407.193 263.598 407.11 264.141L407.108 264.138Z" fill="#3F3D56"/>
<path id="Path 512" opacity="0.1" d="M407.108 264.138C398.459 267.452 390.75 267.699 382.839 262.204C379.847 259.994 376.224 258.802 372.504 258.804C375.475 257.232 385.325 253.354 402.79 258.968C404.077 259.372 405.226 260.126 406.11 261.144C406.502 261.53 406.797 262.002 406.971 262.524C407.145 263.045 407.193 263.601 407.11 264.144L407.108 264.138Z" fill="black"/>
<path id="Ellipse 125" d="M396.264 262.204C397.955 262.204 399.326 261.783 399.326 261.262C399.326 260.742 397.955 260.32 396.264 260.32C394.573 260.32 393.202 260.742 393.202 261.262C393.202 261.783 394.573 262.204 396.264 262.204Z" fill="#F2F2F2"/>
<path id="Path 513" opacity="0.1" d="M358.343 266.444V268.8H231.624V266.915L231.798 266.444H358.343Z" fill="black"/>
<g id="Group 13">
<path id="Rectangle 55" d="M347.706 131.287H325.561V136.618H347.706V131.287Z" fill="#6C63FF"/>
<path id="Rectangle 56" d="M424.392 131.287H416.6V136.618H424.392V131.287Z" fill="#6C63FF"/>
<path id="Rectangle 57" d="M439.975 131.287H432.183V136.618H439.975V131.287Z" fill="#6C63FF"/>
<path id="Rectangle 58" d="M408.398 131.287H355.497V136.618H408.398V131.287Z" fill="#6C63FF"/>
<path id="Rectangle 59" d="M319.82 165.734H297.675V171.065H319.82V165.734Z" fill="#6C63FF"/>
<path id="Rectangle 60" d="M396.506 165.734H388.714V171.065H396.506V165.734Z" fill="#6C63FF"/>
<path id="Rectangle 61" d="M412.089 165.734H404.297V171.065H412.089V165.734Z" fill="#6C63FF"/>
<path id="Rectangle 62" d="M380.512 165.734H327.611V171.065H380.512V165.734Z" fill="#6C63FF"/>
<path id="Rectangle 63" d="M411.269 143.179H389.124V148.51H411.269V143.179Z" fill="#6C63FF"/>
<path id="Rectangle 64" d="M441.205 143.179H419.06V148.51H441.205V143.179Z" fill="#6C63FF"/>
<path id="Rectangle 66" d="M305.467 143.179H297.675V148.51H305.467V143.179Z" fill="#6C63FF"/>
<path id="Rectangle 67" d="M321.05 143.179H313.258V148.51H321.05V143.179Z" fill="#6C63FF"/>
<path id="Rectangle 68" d="M381.743 143.179H328.842V148.51H381.743V143.179Z" fill="#6C63FF"/>
<path id="Rectangle 69" d="M365.34 154.662H343.195V159.993H365.34V154.662Z" fill="#6C63FF"/>
<path id="Rectangle 70" d="M335.403 154.662H313.258V159.993H335.403V154.662Z" fill="#6C63FF"/>
<path id="Rectangle 71" d="M305.467 154.662H297.675V159.993H305.467V154.662Z" fill="#6C63FF"/>
<path id="Rectangle 73" d="M441.205 154.662H433.413V159.993H441.205V154.662Z" fill="#6C63FF"/>
<path id="Rectangle 74" d="M425.621 154.662H372.72V159.993H425.621V154.662Z" fill="#6C63FF"/>
</g>
</g>
<g id="human">
<path id="Path 514" d="M70.4561 0.0213616C69.1699 -0.0842494 67.882 0.203457 66.7631 0.846359C65.7004 1.75215 64.8474 2.87816 64.2631 4.14636C61.5623 8.88984 57.9061 13.021 53.5261 16.2784C50.3341 18.6174 46.2751 21.5334 46.8261 25.8444C47.1142 27.2682 47.6402 28.6333 48.3821 29.8824C51.3271 35.8274 59.3631 40.4214 58.5731 47.2044C61.4991 42.3044 57.5851 39.8844 60.5111 34.9864C61.9041 32.6534 64.3251 30.0204 66.4291 31.4864C67.1291 31.9764 67.5961 32.8564 68.3291 33.2864C70.0791 34.3134 71.9411 32.3504 73.4901 30.9594C78.8321 26.1594 86.4281 27.4204 93.0751 28.9144C96.2131 29.6194 99.6601 30.5454 101.515 33.5444C103.954 37.4874 99.1981 41.7444 97.9961 46.2054C97.898 46.5852 97.8933 46.9832 97.9826 47.3652C98.0718 47.7473 98.2522 48.102 98.5085 48.3991C98.7647 48.6962 99.089 48.9269 99.4538 49.0713C99.8186 49.2157 100.213 49.2696 100.603 49.2284C102.598 49.0284 104.96 48.8704 105.078 47.9954C107.587 48.0844 110.662 47.8004 111.737 45.1874C112.066 44.152 112.24 43.0736 112.252 41.9874C112.647 37.5984 114.51 33.5934 115.744 29.4164C116.978 25.2394 117.515 20.3434 115.432 16.6394C114.689 15.4071 113.769 14.29 112.703 13.3234C100.877 1.89036 85.3381 0.00436164 70.4561 0.0213616Z" fill="#2F2E41"/>
<path id="Path 515" d="M61.1341 55.7734C61.1341 55.7734 63.7041 77.1934 54.2801 78.9064C44.8561 80.6194 62.8481 109.75 62.8481 109.75L105.683 114.891L95.4021 80.6194C95.4021 80.6194 88.5481 78.0494 92.8321 60.9134C97.1161 43.7774 61.1341 55.7734 61.1341 55.7734Z" fill="#FFB8B8"/>
<path id="Path 516" d="M35.0021 423.763L38.4291 470.887H56.4211L51.2811 423.763H35.0021Z" fill="#FFB8B8"/>
<path id="Path 517" d="M166.945 334.657L169.515 374.069L189.222 365.501L181.513 332.946L166.945 334.657Z" fill="#FFB8B8"/>
<path id="Path 518" d="M22.1501 243.838C22.1501 243.838 23.0071 293.532 28.1501 309.811C33.2931 326.09 32.4341 326.947 31.5771 329.517C30.7201 332.087 29.8631 330.374 29.8631 334.658C29.8631 338.942 28.1491 406.628 29.8631 412.625C31.5771 418.622 24.7221 428.904 29.8631 429.761C35.0041 430.618 58.9941 429.761 59.8511 424.62C60.7081 419.479 52.9971 417.766 56.4241 414.339C59.8511 410.912 64.9921 340.655 64.9921 340.655L76.9921 291.818L99.2681 266.118H146.383L160.948 322.666C160.948 322.666 154.948 338.945 159.234 338.945C163.52 338.945 189.222 344.086 189.222 325.236C189.222 306.386 180.654 250.696 178.94 248.982C177.226 247.268 179.797 241.271 177.226 238.701C174.655 236.131 144.668 218.138 133.526 214.711C122.384 211.284 106.763 207.205 106.763 207.205L22.1501 243.838Z" fill="#2F2E41"/>
<path id="Path 519" d="M189.226 358.648C189.226 358.648 176.374 354.364 170.377 367.216C164.38 380.068 166.95 383.495 166.95 383.495C166.95 383.495 186.656 390.349 190.083 386.922C191.574 385.431 196.309 384.913 201.183 384.804C208.606 384.637 210.583 374.136 203.57 371.69C203.361 371.618 203.149 371.554 202.935 371.5C196.078 369.785 189.226 358.648 189.226 358.648Z" fill="#2F2E41"/>
<path id="Ellipse 126" d="M80.4121 69.9103C94.608 69.9103 106.116 58.4022 106.116 44.2063C106.116 30.0104 94.608 18.5023 80.4121 18.5023C66.2162 18.5023 54.7081 30.0104 54.7081 44.2063C54.7081 58.4022 66.2162 69.9103 80.4121 69.9103Z" fill="#FFB8B8"/>
<path id="Path 520" d="M46.9971 89.6154C46.9971 89.6154 88.9801 98.1834 99.2611 84.4744C109.542 70.7654 113.827 123.035 113.827 123.035L118.968 177.869L111.257 207.857C111.257 207.857 70.9881 240.415 58.1361 242.985C45.2841 245.555 25.5781 247.269 25.5781 247.269C25.5781 247.269 31.5781 152.169 31.5781 150.452C31.5781 148.735 46.9971 89.6154 46.9971 89.6154Z" fill="#6C63FF"/>
<path id="Path 521" d="M59.7651 73.5473C59.7651 73.5473 50.4241 68.1963 47.8541 73.3373C45.2841 78.4783 21.2941 91.3293 18.7241 91.3293C16.1541 91.3293 23.8651 162.442 20.4381 171.011C17.0111 179.58 0.732095 242.124 10.1561 247.265C19.5801 252.406 12.7261 242.124 22.1561 254.976C31.5861 267.828 77.8471 267.828 80.4181 262.687C82.9891 257.546 59.8551 218.987 64.1391 183.005C68.4231 147.023 75.2771 97.3263 69.2801 90.4723C63.2831 83.6183 59.7651 73.5473 59.7651 73.5473Z" fill="#2F2E41"/>
<path id="Path 522" d="M90.6931 79.3344L91.8861 75.2274C91.8861 75.2274 127.534 87.0454 129.248 94.7564C130.962 102.467 130.105 156.445 124.107 160.729C118.109 165.013 109.542 171.867 115.539 182.149C121.536 192.431 128.391 203.569 133.532 204.425C138.673 205.281 148.097 211.279 145.532 217.277C142.967 223.275 112.117 212.136 112.117 212.136C112.117 212.136 91.5541 196.714 92.4111 172.724C93.2681 148.734 90.6931 79.3344 90.6931 79.3344Z" fill="#2F2E41"/>
<path id="Path 523" d="M120.681 180.435L100.118 218.99C100.118 218.99 70.1301 249.834 87.2661 253.262C104.402 256.69 113.826 224.988 113.826 224.988L136.103 193.288L120.681 180.435Z" fill="#FFB8B8"/>
<path id="Path 524" d="M71.7071 6.7474C70.671 6.67062 69.6333 6.87189 68.7011 7.3304C67.8583 7.94596 67.1638 8.742 66.6681 9.6604C64.3827 13.098 61.4036 16.0195 57.9221 18.2374C55.3221 19.8904 52.0221 21.9514 52.4641 24.9984C52.7056 26.0201 53.1352 26.988 53.7311 27.8524C56.1365 32.0965 57.0942 37.0086 56.4591 41.8454L63.6041 31.4594C64.7381 29.8104 66.7041 27.9494 68.4211 28.9854C68.9941 29.3324 69.3711 29.9534 69.9681 30.2584C71.3931 30.9844 72.9081 29.5964 74.1681 28.6134C78.5161 25.2244 84.7001 26.1134 90.1111 27.1684C92.6661 27.6684 95.4721 28.3214 96.9821 30.4414C99.4921 33.9644 96.8711 39.0544 98.3361 43.1244C98.7457 42.8375 99.0935 42.4713 99.3591 42.0476C99.6246 41.6238 99.8025 41.1511 99.8821 40.6574C101.925 40.7204 104.428 40.5194 105.303 38.6724C105.569 37.9488 105.711 37.1854 105.723 36.4144C106.044 33.3144 107.561 30.4814 108.565 27.5294C109.569 24.5774 110.006 21.1164 108.311 18.4984C107.691 17.6114 106.942 16.8214 106.09 16.1544C96.4721 8.0684 83.8221 6.7344 71.7071 6.7474Z" fill="#2F2E41"/>
<path id="Path 525" d="M120.681 91.3293L128.664 93.4483C128.664 93.4483 147.242 141.023 142.958 173.581C138.674 206.139 136.104 199.281 136.104 199.281C136.104 199.281 129.25 183.859 113.827 187.281L120.681 91.3293Z" fill="#2F2E41"/>
<path id="Path 526" d="M36.1891 464.659C34.1231 467.467 34.5371 471.48 32.7071 474.447C31.1211 477.019 28.1311 478.367 26.1461 480.647C25.5129 481.404 24.9483 482.216 24.4591 483.073C22.6181 486.156 21.1221 490.108 22.9351 493.208C24.3931 495.702 27.4591 496.676 30.2701 497.34C33.8231 498.18 37.5151 498.851 41.1101 498.21C44.7051 497.569 48.2171 495.368 49.4991 491.949C49.752 491.09 50.0525 490.245 50.3991 489.418C52.3471 485.583 58.4581 485.541 60.4521 481.729C61.8521 479.061 60.5651 475.837 59.2831 473.113L55.3671 464.794C54.0671 462.033 48.8001 463.621 46.0531 462.959C42.4681 462.097 38.7661 461.145 36.1891 464.659Z" fill="#2F2E41"/>
<path id="Path 527" d="M7.58713 197.572L43.5721 253.263C43.5721 253.263 65.8481 281.537 72.7031 268.685C79.5581 255.833 48.7131 234.413 48.7131 234.413L25.5801 191.574L7.58713 197.572Z" fill="#FFB8B8"/>
<path id="Path 528" d="M25.5781 93.0423L18.7241 91.3293C18.7241 91.3293 5.01511 95.6133 1.58811 113.605C-1.83889 131.597 0.731111 203.568 5.01511 204.424C9.29911 205.28 26.1731 191.893 28.8741 194.731C31.5751 197.569 23.0071 183.004 25.5741 175.293C28.1411 167.582 25.5781 93.0423 25.5781 93.0423Z" fill="#2F2E41"/>
</g>
</g>
</svg>
