<svg width="504" id="svg" height="411" viewBox="0 0 504 411" fill="none" xmlns="http://www.w3.org/2000/svg">
<g id="undraw work time lhoj">
<g id="background">
<g id="Group 75">
<path id="Path 993" opacity="0.1" d="M447.092 82.1685H490.022C489.929 81.6525 489.822 81.1365 489.722 80.6205H447.092V23.9015C444.225 22.0348 441.301 20.2735 438.319 18.6175V80.6175H359.88V0.173462C358.451 0.245462 357.016 0.343461 355.586 0.467461C354.156 0.591461 352.598 0.746462 351.107 0.916462V80.6165H239.125L238.857 80.3225L299.865 13.3835C294.219 15.2105 288.584 17.0885 282.949 18.9315L238.089 68.1575V31.3575C235.168 31.9701 232.244 32.5308 229.316 33.0395V69.8595L198.646 36.1835C194.652 36.2795 190.658 36.2381 186.663 36.0595L226.997 80.3205L226.729 80.6145H119.391V22.2505C116.47 21.4355 113.544 20.6245 110.618 19.8405V80.6205H11.976L11.945 82.1685H110.629V134.805H15.635C15.723 135.321 15.81 135.837 15.903 136.353H110.629V186.41H31.71C31.958 186.926 32.211 187.442 32.469 187.958H110.63V239.183C113.563 239.665 116.488 240.167 119.403 240.69V187.96H229.32V297.36C232.169 298.577 235.101 299.589 238.093 300.389V187.958H351.107V313.651C354.018 314.704 356.942 315.704 359.88 316.651V187.958H438.319V329.058C441.262 328.843 444.191 328.464 447.092 327.923V187.958H481.399C481.299 187.442 481.213 186.926 481.126 186.41H447.065V136.353H487.265C487.389 135.837 487.513 135.321 487.631 134.805H447.092V82.1685ZM438.319 82.1685V134.805H359.88V82.1685H438.319ZM351.107 134.805H238.093V82.1685H351.107V134.805ZM119.402 82.1685H227.772L229.32 83.5775V134.805H119.402V82.1685ZM119.402 186.41V136.353H229.32V186.41H119.402ZM238.093 186.41V136.353H351.107V186.41H238.093ZM438.32 186.41H359.88V136.353H438.319L438.32 186.41Z" fill="white"/>
<path id="Path 994" opacity="0.1" d="M399.606 45.9205H398.925C399.165 45.7819 399.367 45.5857 399.512 45.3497C399.657 45.1136 399.741 44.8451 399.756 44.5685V44.5685C399.756 43.5055 398.45 42.6335 396.856 42.6335H376.524C374.929 42.6335 373.619 43.5055 373.619 44.5685C373.619 45.6365 374.93 46.5085 376.524 46.5085H377.205C376.965 46.6473 376.764 46.8436 376.619 47.0796C376.474 47.3156 376.39 47.5839 376.374 47.8605C376.374 48.7685 377.324 49.5375 378.593 49.7445H372.731C371.131 49.7445 369.826 50.6165 369.826 51.6795C369.826 52.7425 371.132 53.6195 372.731 53.6195H393.068C394.668 53.6195 395.973 52.7475 395.973 51.6795C395.973 50.7715 395.023 50.0075 393.749 49.8015H399.606C401.201 49.8015 402.506 48.9295 402.506 47.8615C402.506 46.7935 401.206 45.9205 399.606 45.9205Z" fill="white"/>
<path id="Path 995" opacity="0.1" d="M179.172 64.3795H178.491C178.729 64.2392 178.93 64.0426 179.075 63.8069C179.22 63.5712 179.305 63.3036 179.322 63.0275V63.0275C179.322 61.9595 178.016 61.0875 176.417 61.0875H156.079C154.479 61.0875 153.174 61.9595 153.174 63.0275C153.174 64.0905 154.48 64.9625 156.079 64.9625H156.755C156.517 65.103 156.317 65.2997 156.173 65.5355C156.029 65.7712 155.945 66.0387 155.929 66.3145C155.929 67.2275 156.879 67.9915 158.148 68.1985H152.296C150.696 68.1985 149.391 69.0705 149.391 70.1385C149.391 71.2065 150.697 72.0735 152.296 72.0735H172.631C174.231 72.0735 175.536 71.2015 175.536 70.1385C175.536 69.2255 174.581 68.4615 173.312 68.2545H179.169C180.764 68.2545 182.069 67.3825 182.069 66.3145C182.069 65.2465 180.767 64.3795 179.172 64.3795Z" fill="white"/>
<path id="Path 996" opacity="0.1" d="M430.807 143.366H430.126C430.365 143.226 430.565 143.03 430.71 142.794C430.855 142.558 430.94 142.291 430.957 142.014V142.014C430.957 140.951 429.651 140.079 428.052 140.079H407.714C406.114 140.079 404.809 140.951 404.809 142.014C404.809 143.077 406.115 143.949 407.714 143.949H408.39C408.152 144.09 407.952 144.286 407.808 144.522C407.664 144.758 407.58 145.026 407.564 145.301C407.564 146.209 408.513 146.978 409.783 147.185H403.926C402.331 147.185 401.026 148.057 401.026 149.12C401.026 150.183 402.332 151.06 403.926 151.06H424.269C425.864 151.06 427.174 150.188 427.174 149.12C427.174 148.212 426.219 147.448 424.95 147.242H430.807C432.402 147.242 433.707 146.37 433.707 145.302C433.707 144.234 432.402 143.366 430.807 143.366Z" fill="white"/>
<path id="Path 992" opacity="0.1" d="M486.246 293.551C482.938 301.524 478.598 309.167 472.524 315.029C465.124 322.171 455.933 326.067 446.092 327.929C443.191 328.47 440.262 328.849 437.319 329.064C429.524 329.571 421.699 329.36 413.942 328.434C395.235 326.392 376.785 322.445 358.88 316.653C355.939 315.704 353.014 314.704 350.107 313.653C345.72 312.081 341.373 310.394 337.066 308.591C319.52 301.258 301.381 291.907 282.716 294.807C273.67 296.216 265.17 300.484 256.103 301.753C249.74 302.589 243.273 302.13 237.092 300.401C234.1 299.601 231.168 298.589 228.319 297.372C221.898 294.581 215.789 291.121 210.092 287.051C196.417 277.494 184.145 265.645 169.747 257.368C153.873 248.239 136.302 243.899 118.4 240.668C115.486 240.142 112.562 239.639 109.627 239.161C101.344 237.793 93.041 236.529 84.857 235.033C76.972 233.578 68.947 231.797 62.084 227.421C57.184 224.299 53.069 219.974 49.291 215.421C42.3227 206.978 36.3456 197.763 31.477 187.957C31.219 187.441 30.966 186.925 30.718 186.409C23.1633 170.534 17.8437 153.688 14.911 136.352C14.818 135.836 14.73 135.32 14.643 134.804C11.7745 117.412 10.5391 99.7898 10.953 82.1674L10.984 80.6195C11.184 71.9035 11.727 63.2195 12.532 54.6675C13.11 48.6505 13.884 42.4065 17.001 37.3485C20.118 32.2905 25.196 29.0485 30.253 26.3415C52.619 14.4365 74.04 11.1235 98.077 16.8925C101.937 17.8165 105.777 18.8125 109.626 19.8445C112.552 20.6285 115.478 21.4395 118.399 22.2545C138.595 27.8805 158.736 33.8685 179.608 35.6685C181.624 35.8438 183.642 35.9771 185.661 36.0685C189.655 36.2545 193.649 36.2958 197.644 36.1925C207.933 35.9038 218.186 34.8482 228.318 33.0345C231.251 32.5285 234.176 31.9678 237.091 31.3525C249.683 28.7255 262.161 25.2215 274.437 21.3465C276.945 20.5551 279.45 19.7501 281.951 18.9315C287.586 17.0895 293.222 15.2105 298.867 13.3835C315.721 7.91845 332.658 2.92845 350.105 0.915455C351.598 0.746788 353.091 0.59712 354.584 0.466453C356.013 0.342453 357.448 0.244455 358.878 0.172455C386.237 -1.15825 413.418 5.23313 437.317 18.6165C440.296 20.2711 443.221 22.0325 446.09 23.9005C450.071 26.4911 453.929 29.2778 457.665 32.2605C465.323 38.3755 472.491 45.3375 477.951 53.7025C483.197 61.9193 486.847 71.0509 488.711 80.6195C488.819 81.1355 488.923 81.6514 489.011 82.1674C491.927 97.6954 491.018 114.348 487.747 129.907C487.401 131.538 487.035 133.174 486.653 134.807C486.534 135.323 486.411 135.839 486.287 136.355C482.757 151.068 478.247 165.739 479.424 180.782C479.574 182.676 479.811 184.554 480.124 186.412C480.212 186.928 480.299 187.444 480.397 187.96C482.697 200.232 487.931 211.874 491.069 224.027C496.958 247.12 495.268 271.494 486.246 293.551V293.551Z" fill="white"/>
</g>
<g id=" flowerpot">
<path id="Path 1085" d="M474.511 289.934C474.511 289.934 478.19 294.749 472.811 302.02C467.432 309.291 463.011 315.437 464.786 319.958C464.786 319.958 472.909 306.458 479.514 306.267C486.119 306.076 481.798 298.044 474.511 289.934Z" fill="white"/>
<path id="Path 1086" opacity="0.1" d="M474.512 289.934C474.83 290.399 475.082 290.907 475.26 291.441C481.711 299.022 485.148 306.092 478.95 306.267C473.175 306.432 466.25 316.753 464.588 319.367C464.645 319.568 464.711 319.766 464.788 319.96C464.788 319.96 472.911 306.46 479.516 306.269C486.121 306.078 481.798 298.044 474.512 289.934Z" fill="black"/>
<path id="Path 1087" d="M481.355 296.069C481.355 297.762 481.164 299.169 480.932 299.169C480.7 299.169 480.504 297.791 480.504 296.069C480.504 294.347 480.741 295.169 480.979 295.169C481.217 295.169 481.355 294.377 481.355 296.069Z" fill="#FFD037"/>
<path id="Path 1088" d="M483.702 298.093C482.216 298.903 480.915 299.393 480.802 299.187C480.689 298.981 481.802 298.155 483.289 297.345C484.776 296.535 484.189 297.128 484.321 297.345C484.453 297.562 485.193 297.282 483.702 298.093Z" fill="#FFD037"/>
<path id="Path 1089" d="M455.062 289.934C455.062 289.934 451.377 294.749 456.762 302.02C462.147 309.291 466.562 315.437 464.787 319.958C464.787 319.958 456.67 306.458 450.059 306.267C443.448 306.076 447.791 298.044 455.062 289.934Z" fill="white"/>
<path id="Path 1090" opacity="0.1" d="M455.062 289.934C454.74 290.398 454.487 290.906 454.309 291.441C447.864 299.022 444.427 306.092 450.624 306.267C456.399 306.432 463.324 316.753 464.98 319.367C464.926 319.569 464.859 319.767 464.78 319.96C464.78 319.96 456.663 306.46 450.052 306.269C443.441 306.078 447.791 298.044 455.062 289.934Z" fill="black"/>
<path id="Path 1091" d="M448.219 296.069C448.219 297.762 448.405 299.169 448.642 299.169C448.879 299.169 449.065 297.791 449.065 296.069C449.065 294.347 448.828 295.169 448.596 295.169C448.364 295.169 448.219 294.377 448.219 296.069Z" fill="#FFD037"/>
<path id="Path 1092" d="M445.866 298.093C447.357 298.903 448.653 299.393 448.766 299.187C448.879 298.981 447.734 298.155 446.273 297.345C444.812 296.535 445.373 297.128 445.241 297.345C445.109 297.562 444.38 297.282 445.866 298.093Z" fill="#FFD037"/>
<path id="Ellipse 254" opacity="0.1" d="M464.784 356.794C486.045 356.794 503.281 354.149 503.281 350.885C503.281 347.622 486.045 344.976 464.784 344.976C443.523 344.976 426.287 347.622 426.287 350.885C426.287 354.149 443.523 356.794 464.784 356.794Z" fill="#6C63FF"/>
<path id="Path 1093" d="M484.6 313.466L484.414 314.973L484.156 317.094L484.048 317.982L483.79 320.103L483.682 320.991L483.424 323.112L480.477 347.263C480.214 349.42 476.689 351.097 472.437 351.097H457.13C452.878 351.097 449.363 349.42 449.1 347.263L446.148 323.112L445.89 320.991L445.782 320.103L445.519 317.982L445.411 317.094L445.153 314.973L444.972 313.466C444.822 312.248 446.727 311.216 449.131 311.216H480.44C482.83 311.216 484.749 312.248 484.6 313.466Z" fill="#65617D"/>
<path id="Path 1094" d="M484.414 314.973L484.156 317.094H445.416L445.158 314.973H484.414Z" fill="#9D9CB5"/>
<path id="Path 1095" d="M484.048 317.981L483.79 320.107H445.783L445.52 317.981H484.048Z" fill="#9D9CB5"/>
<path id="Path 1096" d="M483.681 320.99L483.423 323.116H446.149L445.891 320.99H483.681Z" fill="#9D9CB5"/>
</g>
</g>
<g id="foreground">
<g id="foregroundContent">
<g id="Group 77">
<path id="Ellipse 244" opacity="0.1" d="M302.471 401.256C314.27 401.256 323.835 399.789 323.835 397.979C323.835 396.17 314.27 394.702 302.471 394.702C290.672 394.702 281.107 396.17 281.107 397.979C281.107 399.789 290.672 401.256 302.471 401.256Z" fill="#6C63FF"/>
<path id="Ellipse 243" opacity="0.1" d="M355.103 370.897C366.902 370.897 376.467 369.43 376.467 367.62C376.467 365.811 366.902 364.343 355.103 364.343C343.304 364.343 333.739 365.811 333.739 367.62C333.739 369.43 343.304 370.897 355.103 370.897Z" fill="#6C63FF"/>
<path id="Ellipse 245" opacity="0.1" d="M116.188 341.988C127.987 341.988 137.552 340.521 137.552 338.711C137.552 336.902 127.987 335.434 116.188 335.434C104.389 335.434 94.824 336.902 94.824 338.711C94.824 340.521 104.389 341.988 116.188 341.988Z" fill="#6C63FF"/>
<path id="Ellipse 246" opacity="0.1" d="M122.546 425.808C190.226 425.808 245.092 413.982 245.092 399.392C245.092 384.803 190.226 372.976 122.546 372.976C54.8657 372.976 0 384.803 0 399.392C0 413.982 54.8657 425.808 122.546 425.808Z" fill="#6C63FF"/>
<path id="Path 997" d="M117.324 310.364L355.103 337.085V344.666L116.72 317.037L117.324 310.364Z" fill="#EAECF0"/>
<path id="Path 998" d="M116.962 338.531H112.452V226.507L115.698 227.493L115.734 230.852L116.962 338.531Z" fill="#EAECF0"/>
<path id="Path 999" d="M118.949 336.724L116.962 338.53L115.734 230.852L115.698 227.493H118.046L118.077 231.054L118.949 336.724Z" fill="#D3DAE1"/>
<path id="Path 1000" d="M47.905 333.834L113.717 310.906V313.073L47.905 335.821V333.834Z" fill="#D3DAE1"/>
<path id="Path 1001" d="M49.082 341.054L47.905 335.821L113.717 313.074V317.584L49.082 341.054Z" fill="#EAECF0"/>
<path id="Path 1002" d="M355.103 219.37V367.414H351.671L351.495 230.078L351.49 225.686L355.103 219.37Z" fill="#EAECF0"/>
<path id="Path 1003" d="M357.626 218.647V366.147L355.103 367.411V219.369L357.626 218.647Z" fill="#D3DAE1"/>
<path id="Path 1004" d="M302.471 364.167L351.63 336.693L355.103 338.711L302.471 367.411V364.167Z" fill="#D3DAE1"/>
<path id="Path 1005" d="M304.009 373.555L302.471 367.411L355.103 338.711V344.666L304.009 373.555Z" fill="#EAECF0"/>
<path id="Path 1006" d="M296.604 243.02L296.785 399.372H301.662L300.94 241.214L296.604 243.02Z" fill="#EAECF0"/>
<path id="Path 1007" d="M304.009 239.769V398.108L301.661 399.372L300.939 241.214L301.228 241.08L304.009 239.769Z" fill="#D3DAE1"/>
<path id="Path 1008" d="M47.275 364.348H43.116L41.697 224.489L41.676 222.079H45.65L45.681 224.83L47.275 364.348Z" fill="#EAECF0"/>
<path id="Path 1009" d="M50.16 363.265L47.275 364.349L45.681 224.83L45.65 222.079H48.72L48.746 225.098L50.16 363.265Z" fill="#D3DAE1"/>
<path id="Path 1010" opacity="0.1" d="M301.228 241.08L304.01 239.769V245.91L301.301 246.81L301.228 241.08Z" fill="black"/>
<path id="Path 1011" opacity="0.1" d="M357.627 218.647V228.034L355.103 228.88L351.496 230.08L351.491 225.688L355.103 219.372L357.627 218.647Z" fill="black"/>
<path id="Path 1012" d="M357.627 200.591V226.591L301.3 245.37L300.939 217.57L357.627 200.591Z" fill="#D48A9B"/>
<path id="Path 1013" d="M40.954 198.785L114.981 184.707L357.627 200.591L300.939 217.564L40.954 198.785Z" fill="#EFC6CD"/>
<path id="Path 1014" opacity="0.1" d="M48.716 222.079L48.742 225.098L45.677 224.83L41.693 224.489L41.672 222.079H48.716Z" fill="black"/>
<path id="Path 1015" opacity="0.1" d="M118.077 231.053L115.734 230.853L112.452 230.574V226.507L115.698 227.493H118.042L118.077 231.053Z" fill="black"/>
<path id="Path 1016" d="M40.954 198.784V222.984L301.3 245.37L300.939 217.57L40.954 198.784Z" fill="#D48A9B"/>
<path id="Path 1017" d="M247.377 227.554H213.377V215.215L247.377 217.609V227.554Z" fill="#D48A9B"/>
<path id="Path 1018" opacity="0.1" d="M247.377 227.554H213.377V215.215L247.377 217.609V227.554Z" fill="black"/>
<path id="Path 1019" opacity="0.1" d="M167.695 212.511V232.011L298.229 241.94V221.175L247.316 218.285L242.259 222.8L221.498 221.361L214.098 215.942L167.695 212.511Z" fill="black"/>
<path id="Path 1020" d="M166.972 211.784V231.284L297.506 241.213V220.454L246.593 217.564L241.541 222.079L220.775 220.634L213.375 215.216L166.972 211.784Z" fill="white"/>
<path id="Path 1021" d="M86.453 206.551L117.323 208.718L116.962 218.528H96.805L83.321 213.228L86.453 206.551Z" fill="#D48A9B"/>
<path id="Path 1022" opacity="0.1" d="M86.453 206.551L117.323 208.718L116.962 218.528H96.805L83.321 213.228L86.453 206.551Z" fill="black"/>
<path id="Path 1023" opacity="0.1" d="M45.288 203.842V221.357L163.728 230.744V212.144L118.047 209.444L113.176 213.051L94.758 211.972L87.177 207.272L45.288 203.842Z" fill="black"/>
<path id="Path 1024" d="M44.566 203.119V220.634L163.006 230.021V211.427L117.325 208.718L112.454 212.33L94.036 211.246L86.455 206.546L44.566 203.119Z" fill="white"/>
<path id="Path 1025" opacity="0.1" d="M49.876 335.14L50.686 334.861L50.278 340.62L49.878 340.764L49.876 335.14Z" fill="black"/>
<path id="Path 1026" opacity="0.1" d="M298.245 203.186L314.845 204.275L287.334 212.511L273.323 211.494L298.245 203.186Z" fill="black"/>
<path id="Path 1027" d="M298.245 202.464L314.845 203.553L287.336 211.784L273.325 210.773L298.245 202.464Z" fill="white"/>
<path id="Path 1028" d="M296.258 204.327C296.913 204.048 297.61 204.575 298.322 204.709C298.722 204.786 299.132 204.709 299.53 204.786C300.345 204.894 301.156 205.441 301.93 205.163" fill="#D3DAE1"/>
<path id="Path 1029" d="M295.401 204.827C296.051 204.543 296.753 205.07 297.465 205.204C297.865 205.281 298.275 205.204 298.678 205.281C299.493 205.389 300.298 205.936 301.072 205.658" fill="#D3DAE1"/>
<path id="Path 1030" d="M293.44 205.818C294.095 205.539 294.797 206.066 295.504 206.2C295.904 206.277 296.314 206.2 296.717 206.277C297.532 206.385 298.337 206.932 299.111 206.654" fill="#D3DAE1"/>
<path id="Ellipse 247" d="M25.803 385.285C28.4794 385.285 30.649 383.116 30.649 380.439C30.649 377.763 28.4794 375.593 25.803 375.593C23.1266 375.593 20.957 377.763 20.957 380.439C20.957 383.116 23.1266 385.285 25.803 385.285Z" fill="#535461"/>
<path id="Ellipse 248" d="M34.472 404.239C37.1484 404.239 39.318 402.07 39.318 399.393C39.318 396.717 37.1484 394.547 34.472 394.547C31.7956 394.547 29.626 396.717 29.626 399.393C29.626 402.07 31.7956 404.239 34.472 404.239Z" fill="#535461"/>
<path id="Ellipse 249" d="M120.926 407.671C123.602 407.671 125.772 405.502 125.772 402.825C125.772 400.149 123.602 397.979 120.926 397.979C118.25 397.979 116.08 400.149 116.08 402.825C116.08 405.502 118.25 407.671 120.926 407.671Z" fill="#535461"/>
<path id="Ellipse 250" d="M140.241 382.937C142.917 382.937 145.087 380.768 145.087 378.091C145.087 375.415 142.917 373.245 140.241 373.245C137.565 373.245 135.395 375.415 135.395 378.091C135.395 380.768 137.565 382.937 140.241 382.937Z" fill="#535461"/>
<path id="Rectangle 279" d="M85.566 294.862H79.497V332.776H85.566V294.862Z" fill="#535461"/>
<path id="Rectangle 280" opacity="0.1" d="M85.566 326.635H79.497V332.776H85.566V326.635Z" fill="black"/>
<path id="Rectangle 281" d="M86.738 328.08H78.326V370.148H86.738V328.08Z" fill="#3A3768"/>
<path id="Path 1031" d="M139.194 369.875L84.121 367.62V376.481H148.034C147.399 374.617 146.215 372.989 144.637 371.81C143.059 370.631 141.162 369.956 139.194 369.875V369.875Z" fill="#3A3768"/>
<path id="Path 1032" d="M29.048 369.875L84.121 367.62V376.481H20.208C20.8429 374.617 22.027 372.988 23.6048 371.81C25.1826 370.631 27.0801 369.957 29.048 369.876V369.875Z" fill="#3A3768"/>
<path id="Path 1033" d="M78.326 368.523L34.359 390.197C32.4993 391.12 30.9341 392.544 29.84 394.308C28.7458 396.072 28.166 398.106 28.166 400.182V400.843L79.516 378.457L86.741 377.915L129.441 405.178C129.713 403.163 129.429 401.112 128.618 399.247C127.807 397.382 126.501 395.775 124.841 394.599L86.741 367.625L78.326 368.523Z" fill="#3A3768"/>
<path id="Path 1034" opacity="0.1" d="M85.566 294.857V298.944C84.5027 298.989 83.419 299.011 82.315 299.011C81.36 299.011 80.421 299.011 79.497 298.959V294.859L85.566 294.857Z" fill="black"/>
<path id="Ellipse 251" d="M82.314 297.567C94.6802 297.567 104.705 294.635 104.705 291.018C104.705 287.402 94.6802 284.469 82.314 284.469C69.9478 284.469 59.923 287.402 59.923 291.018C59.923 294.635 69.9478 297.567 82.314 297.567Z" fill="#3A3768"/>
<path id="Path 1035" opacity="0.1" d="M104.51 291.018C104.488 291.383 104.393 291.739 104.228 292.064C104.064 292.39 103.835 292.679 103.555 292.912C100.789 295.606 92.238 297.556 82.124 297.556C72.231 297.556 63.846 295.678 60.878 293.082C60.5491 292.841 60.2761 292.532 60.0774 292.176C59.8788 291.82 59.7593 291.425 59.727 291.018C59.727 287.406 69.754 284.469 82.127 284.469C94.5 284.469 104.51 287.4 104.51 291.018Z" fill="black"/>
<path id="Path 1036" opacity="0.1" d="M104.701 291.017C104.679 291.382 104.584 291.738 104.419 292.063C104.255 292.389 104.026 292.678 103.746 292.911C100.897 292.199 98.926 291.611 98.926 291.611C98.926 291.611 79.187 292.711 61.069 293.092C60.7401 292.851 60.4671 292.542 60.2684 292.186C60.0698 291.83 59.9503 291.435 59.918 291.028C59.918 287.416 69.945 284.479 82.318 284.479C94.691 284.479 104.701 287.4 104.701 291.017Z" fill="black"/>
<path id="Path 1037" d="M25.802 204.766C25.802 204.766 33.207 224.99 32.846 237.086C32.485 249.182 26.705 271.928 26.705 271.928C26.705 271.928 20.93 290.346 35.736 291.971C50.542 293.596 98.926 290.887 98.926 290.887C98.926 290.887 116.988 296.3 122.757 293.952C125.083 292.825 127.062 291.09 128.485 288.931C129.327 287.781 129.926 286.472 130.246 285.082C130.566 283.693 130.599 282.253 130.344 280.85C130.089 279.448 129.551 278.112 128.763 276.924C127.975 275.736 126.953 274.721 125.76 273.94C123.065 272.26 120.129 271.001 117.054 270.204C116.407 270.029 115.738 269.947 115.067 269.961L51.98 271.205C51.98 271.205 44.941 270.121 46.205 263.082C47.469 256.043 49.632 234.374 49.632 234.374C49.632 234.374 49.993 208.014 37.355 200.614C24.717 193.214 25.802 204.766 25.802 204.766Z" fill="#3A3768"/>
<path id="Path 1038" opacity="0.1" d="M25.802 204.703C25.802 204.703 33.207 224.922 32.846 237.018C32.485 249.114 26.705 271.867 26.705 271.867C26.705 271.867 20.93 290.28 35.736 291.905C50.542 293.53 98.926 290.816 98.926 290.816C98.926 290.816 116.988 296.235 122.757 293.916C125.081 292.785 127.059 291.052 128.485 288.895C129.328 287.745 129.927 286.434 130.247 285.044C130.567 283.654 130.6 282.213 130.346 280.81C130.091 279.406 129.553 278.07 128.764 276.881C127.976 275.692 126.954 274.676 125.76 273.895C123.062 272.22 120.127 270.96 117.054 270.159C116.407 269.983 115.737 269.903 115.067 269.922L51.98 271.145C51.98 271.145 44.941 270.061 46.205 263.017C47.469 255.973 49.632 234.317 49.632 234.317C49.632 234.317 49.993 207.957 37.355 200.552C24.717 193.147 25.802 204.703 25.802 204.703Z" fill="black"/>
<path id="Path 1039" d="M27.248 204.042C27.248 204.042 34.653 224.266 34.292 236.362C33.931 248.458 28.151 271.205 28.151 271.205C28.151 271.205 22.376 289.623 37.177 291.248C51.978 292.873 100.367 290.164 100.367 290.164C100.367 290.164 118.429 295.577 124.203 293.264C126.529 292.133 128.507 290.397 129.931 288.238C130.773 287.088 131.372 285.779 131.692 284.389C132.012 283 132.045 281.56 131.79 280.157C131.535 278.755 130.997 277.419 130.209 276.231C129.421 275.043 128.399 274.028 127.206 273.247C124.512 271.558 121.576 270.29 118.5 269.485C117.853 269.31 117.184 269.228 116.513 269.242L53.426 270.486C53.426 270.486 46.387 269.402 47.651 262.363C48.915 255.324 51.078 233.655 51.078 233.655C51.078 233.655 51.439 207.295 38.801 199.895C26.163 192.495 27.248 204.042 27.248 204.042Z" fill="#3A3768"/>
<path id="Path 1040" d="M155.351 377.889V384.415C155.351 384.415 186.536 384.978 193.404 384.978C200.272 384.978 209.727 381.603 210.289 378.899C210.851 376.195 202.409 373.945 199.256 373.837C196.103 373.729 195.995 372.485 191.938 370.343C189.652 369.135 186.179 365.631 183.588 362.809C181.588 360.631 180.12 358.861 180.12 358.861C180.12 358.861 163.343 358.526 158.503 361.225C157.32 362.015 156.464 363.207 156.093 364.579C154.35 369.622 155.351 377.889 155.351 377.889Z" fill="#434175"/>
<path id="Path 1041" opacity="0.1" d="M156.094 364.58C159.613 363.357 180.204 362.88 183.594 362.81C181.594 360.632 180.126 358.862 180.126 358.862C180.126 358.862 163.349 358.527 158.509 361.226C157.323 362.014 156.465 363.206 156.094 364.58V364.58Z" fill="black"/>
<path id="Path 1042" d="M65.626 260.467L67.442 261.567L68.123 261.98L70.77 263.569C84.92 272.099 123.515 295.213 125.631 295.048C126.183 295.002 127.845 294.754 130.141 294.377C130.75 294.277 131.405 294.177 132.092 294.057C140.932 292.586 155.624 289.929 157.265 289.196C159.515 288.164 159.065 292.684 158.165 296.514C157.265 300.344 156.591 318.704 157.603 321.057C158.615 323.41 158.166 327.25 158.166 327.25L156.819 347.85L157.719 352.226C157.719 352.226 154.679 354.703 155.919 356.163C157.159 357.623 156.033 363.935 156.033 363.935C159.645 362.583 184.065 362.135 184.065 362.135C184.065 362.135 183.033 353.125 183.952 350.988C184.871 348.851 184.179 336.126 184.179 336.126C184.179 336.126 184.741 326.445 183.73 324.195C182.719 321.945 184.065 307.532 184.065 307.532C184.065 307.532 184.965 298.976 185.19 281.523C185.415 264.07 175.282 263.513 175.282 263.513C175.282 263.513 173.935 263.405 171.882 263.213C167.872 262.826 161.182 262.093 156.715 261.149C155.8 260.957 154.895 260.716 154.006 260.427C148.489 258.549 129.917 258.476 126.877 259.827C124.93 260.612 122.755 260.612 120.808 259.827V259.827L118.445 255.998L95.863 257.923L93.474 258.129L71.243 260.023L69.695 260.157L65.626 260.467Z" fill="#565387"/>
<path id="Path 1043" opacity="0.1" d="M156.141 277.734C162.7 280.934 168.96 269.596 171.875 263.202C167.865 262.815 161.175 262.082 156.708 261.138C153.772 266.048 149.85 274.674 156.141 277.734Z" fill="black"/>
<path id="Path 1044" d="M136.438 201.138C136.574 201.912 136.843 202.656 137.233 203.338C139.658 208.251 146.682 218.365 146.682 218.365C148.771 219.673 150.535 221.437 151.843 223.525C153.757 226.792 154.32 234.445 154.32 234.445C154.32 234.445 158.598 251.445 160.62 253.812C161.652 254.994 161.183 255.696 160.481 256.103C159.042 256.905 157.823 258.048 156.931 259.432C153.979 264.174 149.268 273.592 155.899 276.823C164.904 281.215 173.352 258.199 173.352 258.199C173.352 258.199 171.659 241.876 171.21 239.064C170.761 236.252 168.057 224.651 168.057 224.651C168.057 224.651 166.142 219.697 165.017 216.208C163.892 212.719 160.517 208.663 160.517 208.663C160.517 208.663 154.433 196.505 152.745 194.704C151.961 193.868 150.861 192.815 149.912 191.928C148.812 190.896 147.905 190.091 147.905 190.091C147.905 190.091 136.325 198.444 136.438 201.138Z" fill="#EE8E9E"/>
<path id="Path 1045" d="M60.109 376.537L80.596 385.656C80.596 385.656 107.147 386.219 111.796 384.98C116.445 383.741 115.408 378.566 109.319 377.549C103.23 376.532 101.78 373.839 99.751 372.6C98.383 371.764 93.527 366.361 90.519 362.94C89.069 361.294 88.042 360.102 88.042 360.102C88.042 360.102 84.099 349.631 73.18 351.995C71.1836 352.431 69.344 353.403 67.86 354.807C61.972 360.257 61.46 371.037 61.46 371.037L60.109 376.537Z" fill="#434175"/>
<path id="Path 1046" opacity="0.1" d="M68.123 261.979L70.77 263.568C84.92 272.098 123.515 295.212 125.631 295.047C126.183 295.001 127.845 294.753 130.141 294.376C130.75 294.276 131.405 294.176 132.092 294.056L132.169 293.927C133.304 291.947 134.172 289.825 134.749 287.616C137.112 278.611 125.403 271.742 125.403 271.742L122.926 269.817C120.114 265.08 99.848 260.6 99.848 260.6L97.237 258.82L95.837 257.881L95.471 257.638L92.302 255.507L76.431 256.628L71.714 259.657L71.198 259.977L69.474 261.107L68.123 261.979Z" fill="black"/>
<path id="Path 1047" opacity="0.1" d="M67.855 354.806C72.164 369.715 90.164 364.843 90.164 364.843L90.505 362.954C89.055 361.308 88.028 360.116 88.028 360.116C88.028 360.116 84.085 349.645 73.166 352.009C71.1745 352.443 69.3387 353.411 67.856 354.809L67.855 354.806Z" fill="black"/>
<path id="Path 1048" d="M63.149 287.148C69.791 287.148 86.887 295.142 86.887 295.142C90.376 297.842 95.102 296.942 95.102 296.942C95.102 296.942 86.788 305.385 87.021 308.878C87.254 312.371 82.289 318.11 82.289 318.11L66.978 348.392C68.108 369.892 90.169 363.93 90.169 363.93L91.069 358.862C92.421 358.186 94.449 351.431 94.449 351.431C94.449 351.431 94.449 348.731 95.796 347.943C97.143 347.155 99.961 339.043 99.961 339.043C99.961 339.043 106.04 328.799 105.699 327.453C105.358 326.107 110.091 319.238 110.091 319.238C110.091 319.238 118.085 311.358 117.744 309.949C117.403 308.54 124.174 301.331 124.174 301.331C126.622 299.438 128.655 297.064 130.15 294.354C131.284 292.375 132.152 290.255 132.73 288.048C134.63 280.792 127.41 274.925 124.525 272.917C123.825 272.432 123.385 272.174 123.385 272.174L120.908 270.249C119.628 268.092 114.741 265.986 109.787 264.34C106.216 263.148 102.614 262.188 100.307 261.615C98.759 261.238 97.83 261.027 97.83 261.027L95.219 259.272L94.3 258.653L93.459 258.091L90.285 255.96L83.225 256.476L74.411 257.1L69.699 260.134L67.449 261.579L58.649 267.256C58.649 267.256 58.417 269.418 58.349 272.329V273.015C58.231 278.865 58.866 287.148 63.149 287.148Z" fill="#565387"/>
<path id="Path 1049" d="M97.033 161.054L99.407 169.497C99.407 169.497 103.577 184.024 104.026 185.035C104.475 186.046 115.379 196.295 115.849 196.517C116.319 196.739 122.243 200.129 122.243 200.129C122.243 200.129 122.713 181.551 122.243 176.153C122.204 174.966 122.303 173.778 122.537 172.613C123.581 167.462 124.931 162.376 126.578 157.384C127.837 153.374 128.885 150.371 128.885 150.371C128.885 150.371 102.541 149.241 103.444 151.831C103.741 153.239 103.706 154.696 103.344 156.088C102.797 158.788 101.667 161.496 100.965 161.288C100.279 161.132 99.5782 161.054 98.875 161.056C97.915 161.02 97.033 161.054 97.033 161.054Z" fill="#EE8E9E"/>
<path id="Path 1050" opacity="0.1" d="M103.354 156.082C106.571 158.767 110.567 160.343 114.75 160.577C118.933 160.811 123.08 159.691 126.576 157.382C127.835 153.372 128.883 150.369 128.883 150.369C128.883 150.369 102.539 149.239 103.442 151.829C103.748 153.234 103.718 154.691 103.354 156.082Z" fill="black"/>
<path id="Path 1051" d="M96.357 140.455C96.3776 144.937 97.9501 149.273 100.807 152.726C103.664 156.179 107.629 158.535 112.027 159.395C116.426 160.254 120.986 159.563 124.933 157.439C128.879 155.315 131.968 151.89 133.674 147.746C135.379 143.601 135.597 138.994 134.289 134.708C132.981 130.421 130.228 126.72 126.499 124.234C122.77 121.749 118.295 120.631 113.835 121.073C109.376 121.514 105.206 123.487 102.037 126.655C100.23 128.47 98.7978 130.622 97.8232 132.99C96.8486 135.358 96.3503 137.895 96.357 140.455V140.455Z" fill="#EE8E9E"/>
<path id="Path 1052" opacity="0.1" d="M97.033 161.056L99.407 169.499C99.407 169.499 103.577 184.026 104.026 185.037C104.475 186.048 115.379 196.297 115.849 196.519C116.319 196.741 122.243 200.131 122.243 200.131C122.243 200.131 122.713 181.553 122.243 176.155C122.204 174.968 122.303 173.78 122.537 172.615L120.989 178.854L121.103 191.354L122.003 192.03L119.98 195.07V192.815C119.98 192.815 112.755 185.838 111.646 182.907C110.537 179.976 106.486 174.681 106.486 174.681C106.486 174.681 101.842 166.94 101.759 165.573C101.671 164.541 99.731 162.085 98.879 161.063C97.915 161.02 97.033 161.056 97.033 161.056Z" fill="black"/>
<path id="Path 1053" opacity="0.1" d="M136.438 201.137C136.574 201.911 136.843 202.655 137.233 203.337C139.695 203.089 148.07 201.521 149.928 191.943C148.828 190.911 147.921 190.106 147.921 190.106C147.921 190.106 136.325 198.443 136.438 201.137Z" fill="black"/>
<path id="Path 1054" opacity="0.1" d="M58.324 272.982C60.595 271.372 62.757 269.182 64.047 268.575C65.8131 267.505 67.4392 266.218 68.888 264.746C68.888 264.746 69.631 264.23 70.772 263.569C72.862 262.346 76.289 260.569 78.91 260.354C81.258 260.154 89.071 259.654 95.21 259.275L103.224 258.759C103.224 258.759 110.542 256.179 113.695 257.859C115.953 258.986 118.332 259.852 120.786 260.439C120.786 260.439 120.786 260.191 120.786 259.768L118.423 255.939L93.451 258.07L90.277 255.939L74.403 257.064L69.691 260.098L65.625 260.444L67.441 261.544L58.641 267.22C58.641 267.22 58.376 269.736 58.324 272.982Z" fill="black"/>
<path id="Path 1055" d="M55.027 273.978C56.22 273.623 57.3382 273.053 58.327 272.296V272.296C60.592 270.696 62.75 268.503 64.034 267.896C65.8001 266.826 67.4262 265.539 68.875 264.067C68.875 264.067 74.846 260.011 78.897 259.675C79.997 259.582 82.313 259.422 85.09 259.242L94.281 258.654L99.049 258.354L103.214 258.101C103.214 258.101 110.532 255.521 113.685 257.201C115.943 258.328 118.322 259.194 120.776 259.781C120.776 259.781 120.89 251.901 121.808 248.634C122.726 245.367 123.944 239.402 123.944 239.402C123.944 239.402 124.976 231.186 125.972 227.471C126.968 223.756 130.926 203.041 132.954 201.671C134.982 200.301 136.102 202.703 136.102 202.703C136.102 202.703 149.612 202.476 149.839 187.619C149.839 187.619 143.533 181.313 143.084 179.739C142.635 178.165 136.67 172.308 136.67 172.308C136.67 172.308 133.29 166.002 129.445 165.888C127.638 165.783 125.824 165.84 124.027 166.058L120.776 179.284L120.89 191.784L121.79 192.46L119.762 195.499V193.285C119.762 193.285 112.537 186.303 111.433 183.377C110.329 180.451 106.273 175.146 106.273 175.146C106.273 175.146 101.659 167.405 101.546 166.038C101.433 164.671 98.279 161.068 98.279 161.068C97.643 160.992 97 160.992 96.364 161.068C96.0801 161.087 95.7955 161.046 95.528 160.949C93.71 160.37 91.7749 160.26 89.903 160.629C86.012 161.439 80.103 162.915 78.467 164.685C75.99 167.385 72.388 169.98 68.332 181.235L90.17 189.109L88.302 192.665L70.922 225.692C70.922 225.692 70.344 226.631 69.565 227.854C68.533 229.443 67.196 231.523 66.304 232.664C64.728 234.696 65.178 241.109 65.178 241.109C65.178 241.109 64.843 244.148 63.718 245.279C62.593 246.41 62.81 250.563 62.81 250.563L59.884 261.483C59.884 261.483 57.184 263.96 57.184 265.095C57.184 266.23 55.048 269.373 55.048 269.373C55.048 269.373 51.778 274.762 55.027 273.978Z" fill="#DFE5EE"/>
<path id="Path 1056" opacity="0.1" d="M69.558 227.859C69.7086 228.48 69.8241 229.109 69.904 229.743C69.904 229.743 78.796 250.571 79.92 251.809C80.266 252.191 81.577 254.064 83.22 256.453L85.104 259.235C88.504 264.287 92.329 270.026 92.329 270.026L100.658 277.344C100.658 277.344 118.782 278.794 124.541 272.911C123.841 272.426 123.401 272.168 123.401 272.168L120.924 270.243C119.644 268.086 114.757 265.98 109.803 264.334C105.241 264.365 101.51 264.734 101.51 264.734L100.323 261.607L99.084 258.346L92.768 241.791C92.768 241.791 88.707 220.855 87.355 219.838C86.003 218.821 86.323 215.673 86.323 215.673C86.323 215.673 88.8 206.781 87.897 205.543C86.994 204.305 89.363 195.181 89.363 195.181C89.1279 194.292 88.7626 193.441 88.279 192.658L70.898 225.686C70.898 225.686 70.337 226.62 69.558 227.859Z" fill="black"/>
<path id="Path 1057" d="M89.601 194.496C89.601 194.496 87.238 203.615 88.141 204.853C89.044 206.091 86.562 214.983 86.562 214.983C86.562 214.983 86.227 218.136 87.594 219.147C88.961 220.158 93.007 241.1 93.007 241.1L101.728 264.069C101.728 264.069 129.022 261.369 126.209 269.921C123.396 278.473 100.876 276.676 100.876 276.676L92.543 269.359C92.543 269.359 81.283 252.359 80.158 251.122C79.033 249.885 70.143 229.055 70.143 229.055C70.143 229.055 69.694 224.89 67.78 222.749C65.866 220.608 67.331 216.995 67.331 216.995C67.331 216.995 64.968 189.763 67.445 186.502C69.922 183.241 87.021 184.701 89.601 194.496Z" fill="#EE8E9E"/>
<path id="Path 1058" opacity="0.1" d="M170.327 282.08C170.327 282.08 163.227 284.449 161.332 287.824C159.437 291.199 170.327 282.08 170.327 282.08Z" fill="black"/>
<path id="Path 1059" opacity="0.1" d="M166.72 274.654C166.498 274.989 157.008 284.511 157.601 286.812C158.194 289.113 166.72 274.654 166.72 274.654Z" fill="black"/>
<path id="Path 1060" opacity="0.1" d="M114.599 281.409C114.599 281.409 104.015 286.399 103.112 288.572C102.209 290.745 114.599 281.409 114.599 281.409Z" fill="black"/>
<path id="Path 1061" opacity="0.1" d="M113.923 287.823C113.923 287.823 104.371 291.874 103.086 292.891C101.801 293.908 113.923 287.823 113.923 287.823Z" fill="black"/>
<path id="Path 1062" opacity="0.1" d="M109.533 296.493C109.533 296.493 105.301 299.646 102.969 297.169C100.637 294.692 109.533 296.493 109.533 296.493Z" fill="black"/>
<path id="Path 1063" opacity="0.1" d="M125.404 214.307C125.177 214.648 111.104 239.975 107.389 241.89C103.674 243.805 125.404 214.307 125.404 214.307Z" fill="black"/>
<path id="Path 1064" opacity="0.1" d="M124.729 223.88C124.729 224.443 110.992 253.811 108.729 254.162C106.466 254.513 124.729 223.88 124.729 223.88Z" fill="black"/>
<path id="Path 1065" opacity="0.1" d="M72.489 242.793C72.489 242.793 65.863 256.959 63.283 257.793C60.703 258.627 72.489 242.793 72.489 242.793Z" fill="black"/>
<path id="Path 1066" opacity="0.1" d="M71.364 236.487C71.364 236.487 69.078 241.441 67.69 241.441C66.302 241.441 71.364 236.487 71.364 236.487Z" fill="black"/>
<path id="Path 1067" opacity="0.1" d="M96.356 140.455C96.3544 142.783 96.7721 145.093 97.589 147.272C97.5166 144.744 97.9664 142.228 98.9104 139.882C99.8543 137.535 101.272 135.408 103.075 133.635C104.878 131.861 107.028 130.478 109.39 129.573C111.751 128.667 114.274 128.259 116.801 128.372C117.745 128.413 118.865 128.635 119.247 129.492C119.397 129.952 119.475 130.433 119.479 130.916C119.763 133.104 121.979 134.472 124.067 135.184C126.155 135.896 128.474 136.35 129.986 137.955C131.369 139.426 131.761 141.536 132.442 143.441C132.825 144.609 133.476 145.67 134.342 146.541C135.223 143.863 135.513 141.026 135.19 138.225C134.868 135.424 133.941 132.727 132.475 130.319C131.008 127.911 129.037 125.85 126.696 124.279C124.356 122.707 121.702 121.663 118.918 121.217C116.134 120.771 113.287 120.935 110.572 121.696C107.858 122.458 105.341 123.8 103.196 125.63C101.051 127.459 99.3284 129.732 98.1475 132.292C96.9665 134.852 96.3553 137.638 96.356 140.457V140.455Z" fill="black"/>
<path id="Path 1068" d="M132.737 122.823C131.137 120.65 128.299 119.897 125.837 118.803C122.786 117.421 120.093 115.357 117.965 112.771C115.837 110.184 114.33 107.144 113.56 103.884C112.577 105.33 112.116 107.068 112.252 108.811C112.389 110.554 113.116 112.198 114.313 113.472C109.829 113.172 104.874 112.651 101.835 109.344C101.144 111.728 103.213 114.437 102.083 116.644C101.113 118.544 98.471 118.708 96.763 119.998C94.941 121.35 94.338 123.798 94.224 126.067C94.11 128.336 94.348 130.655 93.677 132.822C93.161 134.468 92.129 135.98 92.026 137.699C92.0144 138.98 92.297 140.246 92.852 141.399C94.1258 144.472 95.8511 147.337 97.971 149.899C97.3939 147.15 97.4531 144.306 98.1441 141.583C98.835 138.86 100.139 136.332 101.957 134.191C103.776 132.049 106.059 130.352 108.634 129.229C111.208 128.106 114.006 127.586 116.812 127.709C117.756 127.75 118.876 127.977 119.258 128.834C119.409 129.294 119.487 129.775 119.49 130.258C119.774 132.441 121.99 133.808 124.078 134.521C126.166 135.234 128.485 135.692 129.997 137.292C131.38 138.763 131.772 140.873 132.453 142.778C133.134 144.683 134.453 146.678 136.453 146.906C137.037 144.098 137.252 141.225 137.093 138.36C136.783 135.29 134.719 133.55 133.993 130.877C133.208 128.08 134.694 125.485 132.737 122.823Z" fill="#603556"/>
<path id="Path 1069" opacity="0.1" d="M75.668 177.384L68.578 181.662C68.578 181.662 66.55 188.525 64.966 189.403C64.966 189.403 79.152 181.523 89.845 199.647C89.845 199.647 89.51 197.284 90.97 196.159C92.43 195.034 92.095 190.193 92.095 190.193C92.4887 189.426 92.8334 188.635 93.127 187.824C94.105 185.373 88.817 171.191 75.668 177.384Z" fill="black"/>
<path id="Path 1070" d="M75.42 176.93L68.32 181.208C68.32 181.208 66.292 188.077 64.708 188.98C64.708 188.98 78.894 181.095 89.587 199.224C89.587 199.224 89.252 196.861 90.717 195.736C92.182 194.611 91.842 189.765 91.842 189.765C92.2383 189.002 92.583 188.212 92.874 187.402C93.879 184.923 88.569 170.737 75.42 176.93Z" fill="#DFE5EE"/>
<g id="Group 74" opacity="0.1">
<path id="Path 1071" opacity="0.1" d="M102.415 115.02C102.389 113.183 101.295 111.16 101.827 109.343L101.92 109.443C102.048 111.319 103.091 113.296 102.415 115.02Z" fill="black"/>
<path id="Path 1072" opacity="0.1" d="M94.442 124.707C94.4924 126.76 94.3629 128.813 94.055 130.843C94.225 129.269 94.132 127.649 94.215 126.059C94.2491 125.306 94.3474 124.556 94.509 123.819C94.478 124.129 94.452 124.412 94.442 124.707Z" fill="black"/>
<path id="Path 1073" opacity="0.1" d="M92.017 137.69C92.0465 137.281 92.121 136.876 92.239 136.482C92.2583 137.714 92.5416 138.926 93.07 140.038C94.2356 142.851 95.7809 145.49 97.663 147.882C97.7247 148.559 97.8248 149.231 97.963 149.895C95.8431 147.333 94.1177 144.468 92.844 141.395C92.2879 140.24 92.0049 138.973 92.017 137.69V137.69Z" fill="black"/>
<path id="Path 1074" opacity="0.1" d="M114.532 112.12C114.098 112.094 113.655 112.063 113.216 112.027C112.233 110.256 111.965 108.174 112.468 106.211C112.373 107.286 112.508 108.369 112.864 109.388C113.22 110.407 113.788 111.338 114.532 112.12V112.12Z" fill="black"/>
<path id="Path 1075" opacity="0.1" d="M102.167 132.829C103.999 130.705 106.286 129.019 108.858 127.897C111.429 126.775 114.22 126.246 117.024 126.347C117.968 126.393 119.088 126.615 119.475 127.472C119.623 127.933 119.701 128.413 119.707 128.896C119.991 131.079 122.207 132.452 124.295 133.159C126.383 133.866 128.695 134.33 130.209 135.935C131.597 137.406 131.989 139.516 132.67 141.415C133.351 143.314 134.662 145.306 136.664 145.543L136.447 146.895C134.44 146.678 133.124 144.686 132.447 142.767C131.77 140.848 131.374 138.752 129.991 137.281C128.479 135.681 126.157 135.217 124.072 134.51C121.987 133.803 119.772 132.446 119.484 130.247C119.481 129.764 119.403 129.283 119.252 128.823C118.98 128.437 118.61 128.129 118.181 127.931C117.751 127.733 117.277 127.653 116.806 127.698C112.42 127.494 108.106 128.871 104.649 131.578C101.192 134.286 98.8219 138.145 97.97 142.452C98.4181 138.909 99.8749 135.569 102.167 132.829Z" fill="black"/>
</g>
<path id="Path 1076" d="M222.83 175.253V195.446L203.509 193.898V175.253H222.83Z" fill="#3A3768"/>
<path id="Path 1077" opacity="0.1" d="M222.83 193.794V195.445L203.509 193.897V192.246L222.83 193.794Z" fill="black"/>
<path id="Path 1078" d="M228.733 196.896L198.678 195.348C198.678 194.568 198.988 193.82 199.54 193.268C200.091 192.716 200.84 192.406 201.62 192.406L225.792 193.954C226.572 193.955 227.32 194.265 227.872 194.816C228.423 195.368 228.733 196.116 228.733 196.896V196.896Z" fill="#3A3768"/>
<path id="Path 1079" d="M265.439 180.801L161.481 177.701C161.065 177.702 160.654 177.621 160.27 177.462C159.886 177.303 159.537 177.07 159.243 176.776C158.949 176.483 158.716 176.134 158.557 175.75C158.399 175.366 158.317 174.954 158.318 174.538V113.128C158.318 112.713 158.4 112.302 158.559 111.919C158.718 111.535 158.951 111.187 159.245 110.894C159.539 110.6 159.887 110.368 160.271 110.209C160.655 110.051 161.066 109.97 161.481 109.97L265.439 113.07C266.277 113.07 267.081 113.403 267.674 113.995C268.267 114.587 268.601 115.39 268.602 116.228V177.638C268.602 178.054 268.52 178.465 268.361 178.849C268.202 179.233 267.969 179.581 267.676 179.875C267.382 180.169 267.033 180.402 266.649 180.561C266.266 180.72 265.854 180.801 265.439 180.801V180.801Z" fill="#3A3768"/>
</g>
<g id="Group 76">
<path id="Ellipse 252" d="M213.345 115.944C213.858 115.944 214.274 115.533 214.274 115.025C214.274 114.518 213.858 114.106 213.345 114.106C212.832 114.106 212.416 114.518 212.416 115.025C212.416 115.533 212.832 115.944 213.345 115.944Z" fill="white"/>
<path id="Path 1081" opacity="0.1" d="M222.81 179.077L203.551 178.767V179.422H222.81V179.077Z" fill="black"/>
<path id="Path 1082" opacity="0.1" d="M187.738 198.077L214.113 199.806L208.493 207.882L179.493 204.782L187.738 198.077Z" fill="black"/>
<path id="Path 1083" d="M187.222 197.561L213.597 199.29L207.977 207.366L178.977 204.266L187.222 197.561Z" fill="#3A3768"/>
<path id="Path 1084" d="M188.389 198.16L211.389 199.56L206.489 206.14L181.2 203.62L188.389 198.16Z" fill="#D5E1F4"/>
<path id="Ellipse 253" opacity="0.1" d="M455.892 416.988C474.189 416.988 489.022 414.713 489.022 411.905C489.022 409.098 474.189 406.822 455.892 406.822C437.595 406.822 422.762 409.098 422.762 411.905C422.762 414.713 437.595 416.988 455.892 416.988Z" fill="#6C63FF"/>
</g>
</g>
<g id="screen">
<path id="Path 1080" d="M259.948 173.572L165.718 170.703V119.432L259.948 122.301V173.572Z" fill="white"/>
</g>
</g>
</g>
</svg>
