<svg width="679" id="svg" height="476" viewBox="0 0 679 476" fill="none" xmlns="http://www.w3.org/2000/svg">
<g id="undraw web developer p3e5">
<g id="extra">
<path id="Path 378" d="M544.533 442.625C540.133 459.385 524.709 469.859 524.709 469.859C524.709 469.859 516.422 453.159 520.824 436.399C525.226 419.639 540.648 409.165 540.648 409.165C540.648 409.165 548.934 425.864 544.533 442.625Z" fill="#3F3D56"/>
<path id="Path 379" d="M537.857 439.08C525.53 451.259 524.151 469.851 524.151 469.851C524.151 469.851 542.758 468.697 555.085 456.518C567.412 444.339 568.791 425.747 568.791 425.747C568.791 425.747 550.182 426.901 537.857 439.08Z" fill="white"/>
<path id="Rectangle 104" d="M649.715 469.113H471.385V470.373H649.715V469.113Z" fill="#3F3D56"/>
</g>
<g id="foreground">
<path id="Path 380" d="M91.203 379.223H114.418L171.627 356.837C171.627 356.837 212.254 340.255 208.937 371.761C205.62 403.267 199.817 445.552 199.817 445.552C199.817 445.552 181.576 437.261 171.627 439.752C161.678 442.243 168.311 389.176 168.311 389.176C168.311 389.176 87.058 428.144 79.595 423.17C72.132 418.196 70.475 383.37 70.475 383.37L91.203 379.223Z" fill="#2F2E41"/>
<path id="Path 381" opacity="0.1" d="M91.203 379.223H114.418L171.627 356.837C171.627 356.837 212.254 340.255 208.937 371.761C205.62 403.267 199.817 445.552 199.817 445.552C199.817 445.552 181.576 437.261 171.627 439.752C161.678 442.243 168.311 389.176 168.311 389.176C168.311 389.176 87.058 428.144 79.595 423.17C72.132 418.196 70.475 383.37 70.475 383.37L91.203 379.223Z" fill="black"/>
<path id="Path 382" d="M127.778 306.522L155.878 346.888L221.378 401.61C221.378 401.61 281.899 415.702 273.608 425.655C265.317 435.608 214.741 415.702 214.741 415.702C214.741 415.702 139.291 360.98 136.804 356.835C134.317 352.69 106.954 313.724 106.954 313.724L127.778 306.522Z" fill="#A0616A"/>
<path id="Path 383" opacity="0.1" d="M127.778 306.522L155.878 346.888L221.378 401.61C221.378 401.61 281.899 415.702 273.608 425.655C265.317 435.608 214.741 415.702 214.741 415.702C214.741 415.702 139.291 360.98 136.804 356.835C134.317 352.69 106.954 313.724 106.954 313.724L127.778 306.522Z" fill="black"/>
<path id="Path 384" d="M111.102 273.926L129.343 309.578C129.343 309.578 125.197 326.989 118.565 328.648C111.933 330.307 83.7419 307.091 83.7419 307.091L111.102 273.926Z" fill="#D0CDE1"/>
<path id="Path 385" opacity="0.1" d="M111.102 273.926L129.343 309.578C129.343 309.578 125.197 326.989 118.565 328.648C111.933 330.307 83.7419 307.091 83.7419 307.091L111.102 273.926Z" fill="black"/>
<path id="Path 386" d="M333.629 360.764L339.017 382.99C339.077 383.238 339.068 383.497 338.99 383.74L314.549 460.12C314.452 460.422 314.254 460.681 313.989 460.855C313.724 461.029 313.407 461.107 313.092 461.076C312.776 461.045 312.481 460.907 312.255 460.684C312.029 460.462 311.885 460.169 311.849 459.854L308.468 430.099C308.445 429.901 308.466 429.701 308.527 429.512L330.962 360.66C331.055 360.373 331.24 360.123 331.487 359.95C331.735 359.777 332.032 359.69 332.334 359.701C332.636 359.712 332.926 359.822 333.16 360.013C333.394 360.204 333.56 360.466 333.631 360.76L333.629 360.764Z" fill="#2F2E41"/>
<path id="Path 387" d="M331.646 362.641L336.62 381.711L315.063 451.357L310.093 429.799L331.646 362.641Z" fill="#F2F2F2"/>
<path id="Path 388" d="M223.032 466.281C223.861 468.768 309.26 465.452 310.089 464.623C310.812 463.585 311.423 462.473 311.913 461.307C312.692 459.649 313.405 457.991 313.405 457.991L310.089 431.144L225.519 428.144C225.519 428.144 223.405 450.895 222.974 461.309C222.827 462.964 222.847 464.63 223.032 466.281V466.281Z" fill="#2F2E41"/>
<path id="Path 389" opacity="0.1" d="M299.311 434.775L300.969 457.99H263.659V434.775H299.311Z" fill="black"/>
<path id="Path 390" opacity="0.1" d="M251.222 442.236L251.444 442.192L250.392 452.186H229.665V442.236H251.222Z" fill="black"/>
<path id="Path 391" opacity="0.1" d="M223.032 466.281C223.861 468.768 309.26 465.452 310.089 464.623C310.812 463.585 311.423 462.473 311.913 461.307H222.974C222.827 462.963 222.847 464.629 223.032 466.281V466.281Z" fill="black"/>
<path id="Ellipse 101" d="M123.538 262.318C144.144 262.318 160.848 245.614 160.848 225.008C160.848 204.402 144.144 187.698 123.538 187.698C102.932 187.698 86.228 204.402 86.228 225.008C86.228 245.614 102.932 262.318 123.538 262.318Z" fill="#A0616A"/>
<path id="Path 392" d="M121.052 258.173C121.052 258.173 108.617 279.73 106.127 291.338C103.637 302.946 68.817 268.123 68.817 268.123L64.257 256.101C64.257 256.101 97.007 240.762 94.52 228.326C92.033 215.89 121.052 258.173 121.052 258.173Z" fill="#A0616A"/>
<path id="Path 393" d="M127.684 322.843L161.678 367.615L242.931 428.141C242.931 428.141 301.798 440.578 288.531 449.698C275.264 458.818 237.126 441.407 237.126 441.407C237.126 441.407 155.047 397.464 137.633 379.221C120.219 360.978 87.886 330.303 87.886 330.303L127.684 322.843Z" fill="#A0616A"/>
<path id="Path 394" d="M82.082 392.49L92.031 408.243L151.41 389.562C157.842 387.483 164.649 386.826 171.361 387.635C178.072 388.445 184.528 390.703 190.281 394.252C200.645 400.781 207.281 411.145 192.354 426.484C162.506 457.161 142.607 440.579 142.607 440.579C142.607 440.579 42.285 487.838 25.702 464.623C9.11896 441.408 8.29095 429.8 8.29095 429.8C8.29095 429.8 72.133 390.002 82.082 392.49Z" fill="#2F2E41"/>
<path id="Path 395" d="M206.45 447.211C206.45 447.211 232.982 464.623 201.475 472.911C169.968 481.199 146.753 469.595 146.753 469.595C146.753 469.595 119.392 469.595 119.392 455.5C119.392 441.405 128.512 439.747 128.512 439.747L156.702 443.893C156.702 443.893 190.697 434.775 206.45 447.211Z" fill="#D0CDE1"/>
<path id="Path 396" d="M154.145 215.622C156.684 216.754 159.203 218.094 161.963 218.422C164.723 218.75 167.863 217.787 169.174 215.332C169.784 213.953 170.065 212.452 169.993 210.946C170.093 206.393 169.764 201.471 166.878 197.946C165.042 195.704 162.361 194.29 160.461 192.102C159.184 190.463 158.095 188.685 157.217 186.802C153.517 179.86 148.048 173.187 140.441 171.186C137.226 170.495 133.932 170.243 130.649 170.437L111.494 170.707C108.391 170.607 105.289 170.941 102.279 171.699C96.114 173.563 91.625 178.748 87.513 183.706C84.3216 187.321 81.4858 191.234 79.045 195.393C75.7378 201.566 74.0667 208.484 74.191 215.486C74.1654 217.282 74.3975 219.073 74.88 220.803C75.4444 222.39 76.1436 223.925 76.97 225.393C80.562 232.448 82.695 241.261 78.65 248.067C85.677 245.196 92.63 241.433 97.266 235.422C99.34 232.733 100.966 229.585 103.73 227.612C106.494 225.639 110.997 225.467 112.77 228.364C113.379 229.536 113.693 230.838 113.684 232.159C113.813 234.333 113.81 236.591 114.732 238.559C115.654 240.527 117.849 242.124 119.945 241.534C123.555 240.517 123.209 234.977 125.99 232.46C128.102 230.549 131.359 230.914 134.072 230.046C137.233 229.035 139.604 226.297 140.956 223.266C141.983 220.966 141.968 214.934 143.912 213.686C146.343 212.128 151.886 214.615 154.145 215.622Z" fill="#2F2E41"/>
<path id="Path 397" d="M61.295 252.167C62.9735 251.719 64.7407 251.724 66.417 252.18C71.739 253.609 83.67 257.391 86.229 263.147C89.545 270.609 101.153 282.217 101.153 282.217C101.153 282.217 116.906 297.97 113.59 308.749C110.274 319.528 97.832 331.964 97.832 331.964C97.832 331.964 101.148 383.369 84.566 396.635C67.984 409.901 61.351 400.781 61.351 413.217C61.351 425.653 9.94597 464.617 -0.00402832 440.578C-0.00402832 440.578 4.97097 395.806 3.31197 380.053C1.68197 364.526 4.07497 267.658 61.295 252.167Z" fill="#D0CDE1"/>
<path id="Path 398" d="M87.886 273.098C87.886 273.098 138.462 310.408 129.342 326.161C129.342 326.161 98.665 341.085 92.032 340.256C85.399 339.427 59.696 310.408 53.064 307.92C46.432 305.432 43.114 260.659 87.886 273.098Z" fill="#D0CDE1"/>
</g>
<g id="background">
<path id="Path 399" d="M652.152 96.437H422.623V48.408H652.152V96.437ZM423.634 95.426H651.14V49.419H423.634V95.426Z" fill="#3F3D56"/>
<path id="Rectangle 97" d="M635.467 58.014H406.95V105.032H635.467V58.014Z" fill="white"/>
<path id="Path 493" d="M262.494 6.06702C263.194 6.06702 263.878 6.27458 264.46 6.66345C265.042 7.05232 265.496 7.60503 265.764 8.2517C266.031 8.89837 266.102 9.60994 265.965 10.2964C265.828 10.9829 265.491 11.6135 264.996 12.1085C264.501 12.6034 263.871 12.9405 263.184 13.077C262.498 13.2136 261.786 13.1435 261.14 12.8756C260.493 12.6078 259.94 12.1542 259.551 11.5722C259.163 10.9902 258.955 10.306 258.955 9.60602C258.955 8.66742 259.328 7.76726 259.992 7.10357C260.655 6.43987 261.555 6.06702 262.494 6.06702V6.06702Z" fill="white"/>
<path id="Ellipse 104" d="M274.628 13.145C276.582 13.145 278.167 11.5606 278.167 9.60602C278.167 7.65148 276.582 6.06702 274.628 6.06702C272.673 6.06702 271.089 7.65148 271.089 9.60602C271.089 11.5606 272.673 13.145 274.628 13.145Z" fill="white"/>
<path id="Ellipse 105" d="M286.762 13.145C288.716 13.145 290.301 11.5606 290.301 9.60602C290.301 7.65148 288.716 6.06702 286.762 6.06702C284.807 6.06702 283.223 7.65148 283.223 9.60602C283.223 11.5606 284.807 13.145 286.762 13.145Z" fill="white"/>
<path id="Path 400" d="M678.07 277.051H252.383V0H678.071L678.07 277.051ZM253.396 276.04H677.059V1.014H253.396V276.04Z" fill="#3F3D56"/>
<path id="Rectangle 98" d="M677.566 15.336H252.889V16.347H677.566V15.336Z" fill="#3F3D56"/>
<path id="Path 401" d="M263.506 12.134C262.706 12.134 261.924 11.8968 261.259 11.4523C260.593 11.0078 260.075 10.3761 259.769 9.63697C259.463 8.89784 259.383 8.08452 259.539 7.29987C259.695 6.51522 260.08 5.79447 260.646 5.22876C261.211 4.66306 261.932 4.27781 262.717 4.12173C263.501 3.96565 264.315 4.04576 265.054 4.35192C265.793 4.65807 266.425 5.17653 266.869 5.84172C267.314 6.50692 267.551 7.28898 267.551 8.08901C267.551 9.16181 267.125 10.1907 266.366 10.9493C265.608 11.7078 264.579 12.134 263.506 12.134ZM263.506 5.05601C262.906 5.05601 262.32 5.2339 261.821 5.56717C261.322 5.90044 260.933 6.37413 260.704 6.92833C260.474 7.48254 260.414 8.09238 260.531 8.68072C260.648 9.26907 260.937 9.80949 261.361 10.2337C261.785 10.6578 262.326 10.9467 262.914 11.0637C263.503 11.1808 264.112 11.1207 264.667 10.8911C265.221 10.6616 265.695 10.2728 266.028 9.77405C266.361 9.27528 266.539 8.68888 266.539 8.08901C266.539 7.28461 266.219 6.51315 265.651 5.94436C265.082 5.37556 264.31 5.05601 263.506 5.05601V5.05601Z" fill="#3F3D56"/>
<path id="Path 402" d="M275.639 12.134C274.839 12.134 274.057 11.8968 273.392 11.4523C272.726 11.0078 272.208 10.3761 271.902 9.63697C271.596 8.89784 271.516 8.08452 271.672 7.29987C271.828 6.51522 272.213 5.79447 272.779 5.22876C273.344 4.66306 274.065 4.27781 274.85 4.12173C275.634 3.96565 276.448 4.04576 277.187 4.35192C277.926 4.65807 278.558 5.17653 279.002 5.84172C279.447 6.50692 279.684 7.28898 279.684 8.08901C279.684 9.16181 279.258 10.1907 278.499 10.9493C277.741 11.7078 276.712 12.134 275.639 12.134ZM275.639 5.05601C275.039 5.05601 274.453 5.2339 273.954 5.56717C273.455 5.90044 273.066 6.37413 272.837 6.92833C272.607 7.48254 272.547 8.09238 272.664 8.68072C272.781 9.26907 273.07 9.80949 273.494 10.2337C273.918 10.6578 274.459 10.9467 275.047 11.0637C275.636 11.1808 276.245 11.1207 276.8 10.8911C277.354 10.6616 277.828 10.2728 278.161 9.77405C278.494 9.27528 278.672 8.68888 278.672 8.08901C278.672 7.28461 278.352 6.51315 277.784 5.94436C277.215 5.37556 276.443 5.05601 275.639 5.05601V5.05601Z" fill="#3F3D56"/>
<path id="Path 403" d="M287.773 12.134C286.973 12.1342 286.191 11.8971 285.525 11.4527C284.86 11.0083 284.341 10.3766 284.035 9.63742C283.729 8.89825 283.649 8.08486 283.805 7.30011C283.961 6.51537 284.346 5.79453 284.912 5.22876C285.477 4.663 286.198 4.27773 286.983 4.12168C287.768 3.96564 288.581 4.04583 289.32 4.35211C290.059 4.65839 290.691 5.177 291.136 5.84235C291.58 6.5077 291.817 7.2899 291.817 8.09001C291.817 9.16246 291.391 10.1909 290.632 10.9493C289.874 11.7076 288.845 12.1337 287.773 12.134V12.134ZM287.773 5.05601C287.173 5.05601 286.587 5.23389 286.088 5.56716C285.589 5.90043 285.2 6.37412 284.971 6.92833C284.741 7.48254 284.681 8.09237 284.798 8.68072C284.915 9.26906 285.204 9.80949 285.628 10.2337C286.052 10.6578 286.593 10.9467 287.181 11.0637C287.77 11.1808 288.379 11.1207 288.934 10.8911C289.488 10.6616 289.962 10.2728 290.295 9.77405C290.628 9.27528 290.806 8.68888 290.806 8.08901C290.806 7.2846 290.486 6.51315 289.918 5.94435C289.349 5.37556 288.577 5.05601 287.773 5.05601Z" fill="#3F3D56"/>
<path id="Rectangle 99" d="M386.726 15.842H385.715V276.938H386.726V15.842Z" fill="#3F3D56"/>
<path id="Rectangle 100" d="M508.317 144.213H433.998V154.324H508.317V144.213Z" fill="#F2F2F2"/>
<path id="Rectangle 101" d="M625.104 144.213H550.785V154.324H625.104V144.213Z" fill="#F2F2F2"/>
<path id="Path 404" d="M512.867 149.774H437.537V138.652H512.866L512.867 149.774ZM438.548 148.763H511.856V139.663H438.548V148.763Z" fill="#3F3D56"/>
<path id="Rectangle 102" d="M508.317 222.576H433.998V232.687H508.317V222.576Z" fill="#F2F2F2"/>
<path id="Path 405" d="M512.867 228.137H437.537V217.015H512.866L512.867 228.137ZM438.548 227.126H511.856V218.026H438.548V227.126Z" fill="#3F3D56"/>
<path id="Rectangle 103" d="M625.356 182.383H434.251V192.494H625.356V182.383Z" fill="#F2F2F2"/>
<path id="Path 406" d="M629.908 188.956H437.79V177.835H629.906L629.908 188.956ZM438.801 187.945H628.895V178.845H438.801V187.945Z" fill="#3F3D56"/>
<path id="Path 407" d="M629.65 149.774H554.324V138.652H629.65V149.774ZM555.331 148.763H628.638V139.663H555.338L555.331 148.763Z" fill="#3F3D56"/>
<path id="Path 408" d="M320.781 179.878C312.555 179.878 304.515 177.439 297.675 172.869C290.836 168.299 285.506 161.804 282.358 154.204C279.21 146.605 278.386 138.243 279.991 130.175C281.596 122.108 285.557 114.697 291.373 108.881C297.189 103.065 304.6 99.1039 312.667 97.4992C320.735 95.8944 329.097 96.718 336.696 99.8658C344.296 103.014 350.791 108.344 355.361 115.183C359.931 122.023 362.37 130.064 362.37 138.289C362.37 149.319 357.988 159.897 350.189 167.697C342.389 175.496 331.811 179.878 320.781 179.878V179.878ZM320.781 97.96C312.805 97.96 305.007 100.325 298.375 104.757C291.743 109.188 286.574 115.487 283.522 122.856C280.469 130.225 279.671 138.334 281.227 146.157C282.783 153.98 286.624 161.166 292.264 166.806C297.904 172.446 305.09 176.287 312.913 177.843C320.736 179.399 328.845 178.601 336.214 175.548C343.583 172.496 349.882 167.327 354.313 160.695C358.745 154.063 361.11 146.265 361.11 138.289C361.111 132.993 360.068 127.748 358.041 122.855C356.015 117.961 353.044 113.515 349.299 109.77C345.554 106.024 341.108 103.053 336.215 101.026C331.322 98.9993 326.077 97.956 320.781 97.956V97.96Z" fill="#3F3D56"/>
<path id="Ellipse 102" d="M313.85 190.591C336.471 190.591 354.809 172.253 354.809 149.632C354.809 127.011 336.471 108.673 313.85 108.673C291.229 108.673 272.891 127.011 272.891 149.632C272.891 172.253 291.229 190.591 313.85 190.591Z" fill="#F2F2F2"/>
<path id="Rectangle 375" opacity="0.3" d="M678 0.671997H253V276.672H678V0.671997Z" fill="white"/>
</g>
</g>
</svg>
