<svg width="611" id="svg" height="507" viewBox="0 0 611 507" fill="none" xmlns="http://www.w3.org/2000/svg">
<g id="Frame">
<g clip-path="url(#clip0)">
<g id="foreground">
<path id="Path 2173" d="M1 2.02301L228.89 94.056V408.135L1 504.55V2.02301Z" fill="#3F3D56" stroke="#3F3D56" stroke-width="2" stroke-miterlimit="10"/>
<path id="Ellipse 397" d="M228.276 77.471C231.468 77.471 234.056 74.8832 234.056 71.691C234.056 68.4988 231.468 65.911 228.276 65.911C225.084 65.911 222.496 68.4988 222.496 71.691C222.496 74.8832 225.084 77.471 228.276 77.471Z" fill="#F1F1F1"/>
<path id="Ellipse 395" d="M114.382 32.355C121.467 32.355 127.211 26.6113 127.211 19.526C127.211 12.4408 121.467 6.69702 114.382 6.69702C107.297 6.69702 101.553 12.4408 101.553 19.526C101.553 26.6113 107.297 32.355 114.382 32.355Z" fill="#F1F1F1"/>
<path id="Ellipse 396" d="M173.503 55.441C177.973 55.441 181.596 51.8176 181.596 47.348C181.596 42.8784 177.973 39.255 173.503 39.255C169.033 39.255 165.41 42.8784 165.41 47.348C165.41 51.8176 169.033 55.441 173.503 55.441Z" fill="#F1F1F1"/>
<path id="Path 2175" opacity="0.2" d="M66.737 200.642V238.623L198.213 229.857V228.397L69.659 235.697V200.637L66.737 200.642Z" fill="black"/>
<path id="Path 2174" d="M66.737 200.642V238.623L198.213 229.857V200.642H66.737Z" fill="#6C63FF"/>
<path id="Line 73" d="M209.899 340.937L46.286 378.919" stroke="white" stroke-width="2" stroke-miterlimit="10"/>
<path id="Line 74" d="M209.899 316.103L46.286 340.937" stroke="white" stroke-width="2" stroke-miterlimit="10"/>
<path id="Line 75" d="M209.899 289.808L46.286 307.338" stroke="white" stroke-width="2" stroke-miterlimit="10"/>
</g>
<path id="Ellipse 401" d="M313.173 462.664C351.106 462.664 381.857 459.161 381.857 454.839C381.857 450.517 351.106 447.014 313.173 447.014C275.24 447.014 244.489 450.517 244.489 454.839C244.489 459.161 275.24 462.664 313.173 462.664Z" fill="#F1F1F1"/>
<path id="Path 2169" d="M380.467 407.874H230V93.5H380.467V407.874Z" fill="#F1F1F1"/>
<g id="extra">
<path id="Ellipse 398" d="M500.16 32.355C507.245 32.355 512.989 26.6113 512.989 19.526C512.989 12.4408 507.245 6.69702 500.16 6.69702C493.075 6.69702 487.331 12.4408 487.331 19.526C487.331 26.6113 493.075 32.355 500.16 32.355Z" fill="#F1F1F1"/>
<path id="Ellipse 399" d="M441.039 55.441C445.509 55.441 449.132 51.8176 449.132 47.348C449.132 42.8784 445.509 39.255 441.039 39.255C436.569 39.255 432.946 42.8784 432.946 47.348C432.946 51.8176 436.569 55.441 441.039 55.441Z" fill="#F1F1F1"/>
<path id="Ellipse 400" d="M386.265 77.471C389.457 77.471 392.045 74.8832 392.045 71.691C392.045 68.4988 389.457 65.911 386.265 65.911C383.073 65.911 380.485 68.4988 380.485 71.691C380.485 74.8832 383.073 77.471 386.265 77.471Z" fill="#F1F1F1"/>
<path id="Path 2170" d="M609.698 2.02301L381.807 94.056V408.135L609.698 504.55V2.02301Z" fill="#3F3D56" stroke="#3F3D56" stroke-width="2" stroke-miterlimit="10"/>
<path id="Line 72" d="M400.799 289.808L564.412 307.338" stroke="white" stroke-width="2" stroke-miterlimit="10"/>
<path id="Line 70" d="M400.799 340.937L564.412 378.919" stroke="white" stroke-width="2" stroke-miterlimit="10"/>
<path id="Line 71" d="M400.799 316.103L564.412 340.937" stroke="white" stroke-width="2" stroke-miterlimit="10"/>
<path id="Path 2171" d="M543.962 200.642V238.623L412.485 229.857V200.642H543.962Z" fill="#6C63FF"/>
<path id="Path 2172" opacity="0.2" d="M543.962 200.642V238.623L412.485 229.857V228.397L541.038 235.697V200.637L543.962 200.642Z" fill="black"/>
</g>
<path id="Line 76" d="M250.123 119.485L364.419 120.891" stroke="#3F3D56" stroke-width="2" stroke-miterlimit="10"/>
<path id="Path 2176" d="M254.738 125.328L255.716 124.304L250.666 119.494L255.833 114.808L254.881 113.761L248.589 119.469L254.738 125.328Z" fill="#3F3D56"/>
<path id="Path 2177" d="M359.661 126.619L358.709 125.571L363.875 120.887L358.825 116.075L359.802 115.052L365.951 120.913L359.661 126.619Z" fill="#3F3D56"/>
<path id="Ellipse 402" d="M307.271 129.752C312.553 129.752 316.835 125.47 316.835 120.188C316.835 114.906 312.553 110.624 307.271 110.624C301.989 110.624 297.707 114.906 297.707 120.188C297.707 125.47 301.989 129.752 307.271 129.752Z" fill="#3F3D56"/>
<g id="background">
<path id="Path 2178" d="M294.481 423.975C294.481 423.975 291.873 435.275 292.742 439.625C293.611 443.975 293.611 453.536 293.611 453.536H296.219V443.106C296.219 443.106 303.174 446.584 304.913 451.8C306.652 457.016 324.913 455.278 325.779 453.539C326.645 451.8 317.085 448.322 317.085 448.322L309.26 424.848L294.481 423.975Z" fill="#2F2E41"/>
<path id="Path 2179" d="M288.395 321.383C288.395 321.383 292.742 337.033 292.742 343.119C292.742 349.205 289.264 427.453 292.742 427.453C296.22 427.453 310.131 429.192 311 425.714C311.869 422.236 309.261 390.068 311 386.59C312.739 383.112 324.911 309.212 324.041 308.342C323.171 307.472 292.742 304.864 288.395 321.383Z" fill="#2F2E41"/>
<path id="Path 2180" d="M286.656 306.602C286.656 306.602 278.831 327.468 285.787 327.468C292.743 327.468 297.087 321.382 302.306 323.121C307.525 324.86 323.172 303.121 323.172 303.121L286.656 306.602Z" fill="#3F3D56"/>
<path id="Ellipse 403" d="M319.26 219.225C326.943 219.225 333.171 212.997 333.171 205.314C333.171 197.631 326.943 191.403 319.26 191.403C311.577 191.403 305.349 197.631 305.349 205.314C305.349 212.997 311.577 219.225 319.26 219.225Z" fill="#FFB9B9"/>
<path id="Path 2181" d="M326.215 209.662C326.215 209.662 320.129 229.662 321.868 232.267C323.607 234.872 305.349 231.397 305.349 231.397C305.349 231.397 311.435 214.878 310.566 211.397C309.697 207.916 326.215 209.662 326.215 209.662Z" fill="#FFB9B9"/>
<path id="Path 2182" d="M316.217 223.138C316.217 223.138 308.392 220.53 305.784 223.138C303.176 225.746 293.612 287.475 287.526 293.561C281.44 299.647 277.093 308.341 282.309 309.211C287.525 310.081 330.127 315.297 331.866 312.689C333.605 310.081 333.166 284.433 332.301 278.347C331.436 272.261 324.911 224.007 316.217 223.138Z" fill="#6C63FF"/>
<path id="Path 2183" d="M309.261 309.21L312.738 317.905L320.563 311.819L319.694 305.733L309.261 309.21Z" fill="#FFB9B9"/>
<path id="Path 2184" opacity="0.1" d="M305.348 237.483C305.348 237.483 304.913 226.615 299.697 240.526C294.481 254.437 283.178 272.695 292.742 286.605C302.306 300.515 302.57 306.585 307.087 306.167C311.604 305.749 325.78 310.949 325.78 309.21C325.78 307.471 309.261 280.518 309.261 280.518C308.833 278.021 309.003 275.458 309.759 273.04C310.514 270.622 311.833 268.417 313.606 266.608C319.694 260.523 316.651 240.092 305.348 237.483Z" fill="black"/>
<path id="Path 2185" d="M311 226.615C311 226.615 301.436 224.876 296.22 238.787C291.004 252.698 279.701 270.956 289.265 284.866C298.829 298.776 303.704 312.655 308.222 312.237C312.74 311.819 322.303 309.21 322.303 307.471C322.303 305.732 305.784 278.78 305.784 278.78C305.356 276.283 305.527 273.719 306.282 271.301C307.038 268.883 308.357 266.678 310.131 264.869C316.217 258.784 322.303 229.223 311 226.615Z" fill="#6C63FF"/>
<path id="Path 2186" d="M314.948 184.498C307.795 183.487 300.742 188.02 296.786 194.065C292.83 200.11 291.396 207.427 290.354 214.576C290.145 216.736 289.651 218.859 288.883 220.889C287.154 224.86 283.239 227.859 282.601 232.143C282.201 234.853 283.208 237.543 283.735 240.232C285.135 247.373 283.06 254.883 279.252 261.084C277.552 263.852 275.074 266.649 271.827 266.748L278.627 267.803C277.477 270.318 275.486 272.353 272.996 273.557C281.097 272.541 288.574 268.682 294.097 262.669C299.62 256.656 302.83 248.878 303.155 240.72C303.255 238.256 303.134 235.613 304.472 233.542C305.63 231.751 307.65 230.757 309.486 229.672C315.794 225.943 321.065 219.761 321.908 212.481C322.278 209.281 321.79 206.081 321.663 202.881C321.53 199.511 327.188 197.237 327.951 194.011C329.113 189.109 319.45 185.134 314.948 184.498Z" fill="#2F2E41"/>
</g>
</g>
</g>
<defs>
<clipPath id="clip0">
<rect width="610.698" height="506.06" fill="white"/>
</clipPath>
</defs>
</svg>
