<svg width="883" height="480" viewBox="0 0 883 480" fill="none" xmlns="http://www.w3.org/2000/svg">
<g id="404pageillustration.inline">
<g id="fill">
<path id="Ellipse 55" d="M444.128 479.892C683.429 479.892 877.421 467.049 877.421 451.207C877.421 435.365 683.429 422.522 444.128 422.522C204.827 422.522 10.835 435.365 10.835 451.207C10.835 467.049 204.827 479.892 444.128 479.892Z" fill="#F2F2F2"/>
<path id="Path 211" d="M427.522 137.183C356.922 137.183 306.24 182.475 306.24 288.156C306.24 407.928 356.927 439.633 427.522 439.633C498.117 439.633 551.822 404.909 551.822 288.156C551.823 163.352 498.117 137.183 427.522 137.183ZM427.986 399.876C379.086 399.876 353.545 371.19 353.545 288.233C353.545 215.033 380.136 176.433 429.032 176.433C477.928 176.433 504.519 201.788 504.519 288.233C504.519 369.099 476.882 399.876 427.987 399.876H427.986Z" fill="#2F2E41"/>
<path id="Path 212" d="M255.911 355.022H226.723V269.071C226.723 266.811 226.278 264.573 225.413 262.484C224.548 260.396 223.28 258.498 221.681 256.9C220.083 255.301 218.185 254.033 216.096 253.168C214.008 252.303 211.77 251.858 209.509 251.858H202.67C198.105 251.858 193.727 253.672 190.499 256.9C187.271 260.128 185.457 264.506 185.457 269.071V355.022H103.128C101.434 355.022 99.7694 354.585 98.2948 353.752C96.8202 352.919 95.5859 351.719 94.7116 350.268C93.8374 348.817 93.3528 347.166 93.3051 345.473C93.2573 343.78 93.6479 342.103 94.439 340.605L181.576 175.683C182.662 173.627 183.321 171.372 183.512 169.055C183.703 166.737 183.422 164.405 182.686 162.199C181.951 159.993 180.776 157.958 179.233 156.219C177.69 154.479 175.81 153.07 173.707 152.077L168.563 149.648C164.569 147.762 160.002 147.484 155.808 148.87C151.615 150.257 148.114 153.203 146.032 157.098L39.757 355.904C37.9477 359.289 37.0008 363.067 37 366.904V366.904C36.9995 369.97 37.6029 373.006 38.7757 375.838C39.9485 378.671 41.6678 381.244 43.8354 383.412C46.0029 385.58 48.5763 387.299 51.4086 388.473C54.2408 389.646 57.2764 390.25 60.342 390.25H185.457V444.599C185.457 447.309 185.99 449.992 187.027 452.496C188.064 454.999 189.584 457.274 191.5 459.19C193.416 461.106 195.69 462.626 198.194 463.663C200.697 464.7 203.38 465.233 206.09 465.233V465.233C208.8 465.233 211.483 464.7 213.986 463.663C216.489 462.626 218.764 461.106 220.68 459.19C222.596 457.274 224.115 455 225.152 452.496C226.189 449.993 226.723 447.31 226.723 444.6V390.25H255.911C258.224 390.25 260.515 389.795 262.652 388.909C264.79 388.024 266.731 386.726 268.367 385.09C270.003 383.454 271.3 381.512 272.185 379.375C273.07 377.238 273.525 374.947 273.525 372.633V372.633C273.525 367.962 271.669 363.482 268.366 360.179C265.062 356.876 260.582 355.021 255.911 355.021V355.022Z" fill="#6C63FF"/>
<path id="Path 213" d="M804.449 356.094H775.261V270.143C775.261 265.578 773.448 261.2 770.22 257.972C766.992 254.744 762.614 252.93 758.049 252.93H751.21C746.645 252.93 742.267 254.744 739.039 257.972C735.811 261.2 733.997 265.578 733.997 270.143V356.094H651.667C649.973 356.094 648.308 355.656 646.834 354.823C645.359 353.99 644.125 352.79 643.251 351.34C642.376 349.889 641.892 348.237 641.844 346.544C641.796 344.851 642.187 343.175 642.978 341.677L730.115 176.754C731.201 174.698 731.86 172.443 732.051 170.125C732.241 167.808 731.961 165.475 731.225 163.269C730.49 161.063 729.315 159.029 727.772 157.289C726.229 155.55 724.349 154.141 722.246 153.148L717.102 150.719C713.108 148.833 708.541 148.554 704.347 149.941C700.154 151.328 696.653 154.273 694.571 158.169L588.297 356.976C586.488 360.36 585.541 364.139 585.541 367.976V367.976C585.54 371.042 586.144 374.078 587.317 376.91C588.49 379.743 590.209 382.316 592.377 384.484C594.545 386.652 597.118 388.372 599.951 389.545C602.783 390.718 605.819 391.321 608.885 391.321H733.996V445.671C733.996 448.381 734.529 451.064 735.566 453.567C736.603 456.071 738.123 458.345 740.039 460.261C741.955 462.177 744.229 463.697 746.733 464.734C749.236 465.771 751.919 466.305 754.629 466.305V466.305C757.339 466.305 760.022 465.771 762.525 464.734C765.028 463.698 767.303 462.178 769.219 460.262C771.135 458.346 772.655 456.071 773.691 453.568C774.728 451.065 775.262 448.382 775.262 445.672V391.322H804.45C806.763 391.322 809.054 390.866 811.191 389.981C813.329 389.096 815.27 387.798 816.906 386.162C818.542 384.526 819.839 382.584 820.724 380.447C821.609 378.309 822.064 376.018 822.064 373.705C822.064 369.034 820.208 364.554 816.905 361.251C813.601 357.948 809.121 356.092 804.45 356.092L804.449 356.094Z" fill="#6C63FF"/>
<path id="Ellipse 60" d="M395.092 280.196C402.804 280.196 409.056 272.105 409.056 262.125C409.056 252.145 402.804 244.054 395.092 244.054C387.38 244.054 381.128 252.145 381.128 262.125C381.128 272.105 387.38 280.196 395.092 280.196Z" fill="#2F2E41"/>
<path id="Ellipse 61" d="M471.073 280.606C478.785 280.606 485.037 272.515 485.037 262.535C485.037 252.555 478.785 244.464 471.073 244.464C463.361 244.464 457.109 252.555 457.109 262.535C457.109 272.515 463.361 280.606 471.073 280.606Z" fill="#2F2E41"/>
<path id="Path 250" d="M460.394 315.926C460.394 324.091 448.994 330.711 434.93 330.711C420.866 330.711 409.467 324.091 409.467 315.926C409.467 308.854 418.018 302.94 429.444 301.494C431.263 301.254 433.096 301.136 434.931 301.141C438.005 301.131 441.071 301.462 444.073 302.127C453.618 304.254 460.394 309.634 460.394 315.926Z" fill="#2F2E41"/>
<path id="Ellipse 62" d="M398.378 276.089C406.09 276.089 412.342 267.998 412.342 258.018C412.342 248.038 406.09 239.947 398.378 239.947C390.666 239.947 384.414 248.038 384.414 258.018C384.414 267.998 390.666 276.089 398.378 276.089Z" stroke="#3F3D56" stroke-miterlimit="10"/>
<path id="Ellipse 63" d="M474.358 276.499C482.07 276.499 488.322 268.408 488.322 258.428C488.322 248.448 482.07 240.357 474.358 240.357C466.646 240.357 460.394 248.448 460.394 258.428C460.394 268.408 466.646 276.499 474.358 276.499Z" stroke="#3F3D56" stroke-miterlimit="10"/>
<path id="Ellipse 64" d="M438.217 326.604C452.28 326.604 463.681 319.985 463.681 311.819C463.681 303.653 452.28 297.034 438.217 297.034C424.154 297.034 412.753 303.653 412.753 311.819C412.753 319.985 424.154 326.604 438.217 326.604Z" stroke="#3F3D56" stroke-miterlimit="10"/>
<path id="Path 251" d="M444.376 303.358C444.383 304.391 443.995 305.387 443.292 306.144C442.96 306.506 442.556 306.796 442.107 306.995C441.657 307.194 441.172 307.298 440.68 307.3H432.47C431.457 307.266 430.499 306.832 429.806 306.093C429.112 305.354 428.74 304.37 428.77 303.357C428.766 302.556 429 301.772 429.444 301.105C431.261 300.85 433.095 300.725 434.93 300.73C438.008 300.72 441.077 301.073 444.072 301.781C444.275 302.282 444.378 302.818 444.376 303.358Z" fill="white"/>
<path id="Ellipse 65" d="M398.378 257.196C400.646 257.196 402.485 255.357 402.485 253.089C402.485 250.821 400.646 248.982 398.378 248.982C396.11 248.982 394.271 250.821 394.271 253.089C394.271 255.357 396.11 257.196 398.378 257.196Z" fill="white"/>
<path id="Ellipse 66" d="M474.769 257.196C477.037 257.196 478.876 255.357 478.876 253.089C478.876 250.821 477.037 248.982 474.769 248.982C472.501 248.982 470.662 250.821 470.662 253.089C470.662 255.357 472.501 257.196 474.769 257.196Z" fill="white"/>
<path id="Ellipse 67" opacity="0.3" d="M478.876 295.802C481.144 295.802 482.983 293.963 482.983 291.695C482.983 289.427 481.144 287.588 478.876 287.588C476.608 287.588 474.769 289.427 474.769 291.695C474.769 293.963 476.608 295.802 478.876 295.802Z" fill="#6C63FF"/>
<path id="Ellipse 68" opacity="0.3" d="M378.664 295.802C380.932 295.802 382.771 293.963 382.771 291.695C382.771 289.427 380.932 287.588 378.664 287.588C376.396 287.588 374.557 289.427 374.557 291.695C374.557 293.963 376.396 295.802 378.664 295.802Z" fill="#6C63FF"/>
</g>
<g id="human">
<path id="Ellipse 56" d="M387.038 25.588C392.891 25.588 397.635 20.8435 397.635 14.991C397.635 9.13842 392.891 4.39398 387.038 4.39398C381.185 4.39398 376.441 9.13842 376.441 14.991C376.441 20.8435 381.185 25.588 387.038 25.588Z" fill="#2F2E41"/>
<path id="Ellipse 57" d="M412.885 77.024C429.301 77.024 442.609 59.7816 442.609 38.512C442.609 17.2424 429.301 0 412.885 0C396.469 0 383.161 17.2424 383.161 38.512C383.161 59.7816 396.469 77.024 412.885 77.024Z" fill="#2F2E41"/>
<path id="Path 217" opacity="0.1" d="M412.886 65.392C397.996 65.392 385.663 51.206 383.499 32.692C383.274 34.6222 383.161 36.5638 383.162 38.507C383.162 59.776 396.47 77.019 412.886 77.019C429.302 77.019 442.61 59.777 442.61 38.507C442.611 36.5638 442.498 34.6222 442.273 32.692C440.108 51.207 427.775 65.392 412.886 65.392Z" fill="black"/>
<path id="Path 218" d="M473.369 151.294C472.731 153.917 469.978 156.018 466.93 157.486C460.521 160.572 452.617 161.493 444.949 161.802C442.993 161.921 441.03 161.885 439.08 161.694C435.301 161.328 431.755 159.699 429.017 157.068C428.822 156.941 428.662 156.766 428.552 156.56C428.443 156.354 428.387 156.123 428.391 155.89C428.394 155.657 428.457 155.428 428.573 155.226C428.689 155.023 428.854 154.853 429.053 154.732C433.135 150.248 439.947 147.499 446.809 145.519C452.009 144.019 461.086 140.13 466.761 140.655C472.258 141.163 474.175 147.982 473.369 151.294Z" fill="#3F3D56"/>
<path id="Path 219" opacity="0.1" d="M473.369 151.294C472.731 153.917 469.978 156.018 466.93 157.486C460.521 160.572 452.617 161.493 444.949 161.802C442.993 161.921 441.03 161.885 439.08 161.694C435.301 161.328 431.755 159.699 429.017 157.068C428.822 156.941 428.662 156.766 428.552 156.56C428.443 156.354 428.387 156.123 428.391 155.89C428.394 155.657 428.457 155.428 428.573 155.226C428.689 155.023 428.854 154.853 429.053 154.732C433.135 150.248 439.947 147.499 446.809 145.519C452.009 144.019 461.086 140.13 466.761 140.655C472.258 141.163 474.175 147.982 473.369 151.294Z" fill="black"/>
<path id="Path 220" d="M391.887 131.69C389.93 135.524 389.576 139.978 390.902 144.073C392.251 148.137 394.775 151.709 398.155 154.338C406.447 160.985 417.855 161.899 428.485 161.807C437.798 161.726 447.098 161.088 456.335 159.898C459.432 159.623 462.475 158.916 465.375 157.797C467.133 157.092 468.728 156.034 470.061 154.688C471.395 153.343 472.438 151.738 473.126 149.973C474.361 146.401 473.484 142.028 470.552 139.644C467.975 137.55 464.422 137.262 461.108 137.062L442.144 135.922C444.018 134.022 446.512 132.953 448.794 131.575C451.821 129.746 453.832 126.675 456.033 123.907C459.424 119.854 463.114 116.06 467.072 112.558C467.689 116.099 469.929 119.006 472.565 121.449C475.201 123.892 478.24 125.859 480.979 128.185C487.615 133.819 492.393 141.465 499.372 146.667C504.173 145.406 508.661 143.165 512.554 140.086L509.842 135.173C509.616 134.667 509.264 134.228 508.82 133.897C508.052 133.425 507.062 133.668 506.171 133.534C503.788 133.177 502.748 130.426 501.813 128.205C499.246 122.105 494.332 117.379 490.134 112.267C487.036 108.493 484.288 104.446 481.923 100.174C480.65 97.5517 479.103 95.0712 477.309 92.774C475.396 90.579 472.714 88.853 469.803 88.847C467.23 88.842 464.857 90.147 462.645 91.462C455.908 95.464 449.425 99.8805 443.235 104.686C439.996 107.201 436.776 109.858 432.976 111.4C431.376 112.049 429.69 112.493 428.155 113.283C425.466 114.667 423.426 117.008 421.229 119.083C413.266 126.652 402.859 131.124 391.887 131.69V131.69Z" fill="#3F3D56"/>
<path id="Path 221" d="M431.542 78.936C431.454 81.202 430.972 83.4354 430.118 85.536C429.685 86.5834 429.041 87.5304 428.226 88.3179C427.41 89.1053 426.442 89.7164 425.38 90.113C423.872 90.517 422.292 90.5683 420.761 90.263C419.426 90.1236 418.14 89.6854 416.998 88.981C416.152 88.3068 415.452 87.4686 414.938 86.5167C414.425 85.5649 414.109 84.519 414.01 83.442C413.687 81.31 413.832 79.131 413.625 76.983C413.424 75.2483 413.094 73.5309 412.638 71.845C412.498 71.284 412.356 70.726 412.217 70.168C412.078 69.61 411.946 69.051 411.817 68.493C411.703 67.968 411.597 67.441 411.507 66.911C411.432 66.464 411.365 66.011 411.316 65.562C411.271 64.2211 411.048 62.8921 410.652 61.61C410.281 60.7787 409.816 59.9923 409.267 59.266C409.032 58.93 408.804 58.594 408.595 58.245C407.989 57.3385 407.707 56.2539 407.795 55.167C407.82 54.9989 407.86 54.8335 407.916 54.673C407.937 54.611 407.96 54.549 407.986 54.49C408.218 54.4268 408.432 54.3077 408.608 54.1432C408.784 53.9787 408.917 53.7737 408.996 53.546C409.085 53.0571 409.043 52.5534 408.874 52.086C408.681 51.4327 408.417 50.8026 408.086 50.207C407.869 49.814 407.132 49.107 407.127 48.656C407.117 47.756 408.885 47.022 409.601 46.666C411.786 45.5719 414.223 45.0777 416.662 45.234C417.448 45.219 418.227 45.3821 418.941 45.7111C419.655 46.0402 420.286 46.5266 420.785 47.134C421.56 48.315 421.457 49.845 421.785 51.218C421.82 51.4174 421.905 51.6048 422.031 51.763C422.2 51.9167 422.412 52.0142 422.638 52.042C423.021 52.1183 423.413 52.1342 423.801 52.089C423.902 52.0807 424.002 52.066 424.101 52.045C424.705 51.9337 425.276 51.6872 425.771 51.324C426.092 51.2387 426.415 51.169 426.74 51.115C426.753 51.1136 426.766 51.1109 426.779 51.107C428.074 55.193 428.242 59.574 429.302 63.736C429.968 65.767 430.431 67.8588 430.685 69.981C430.693 70.074 430.695 70.17 430.698 70.265C430.714 70.95 430.659 71.64 430.688 72.322C430.697 72.6292 430.73 72.9352 430.788 73.237C430.904 73.7223 431.048 74.2005 431.22 74.669L431.228 74.692C431.277 74.842 431.328 74.992 431.362 75.147C431.39 75.258 431.416 75.367 431.437 75.478V75.486C431.634 76.6253 431.67 77.7868 431.542 78.936Z" fill="#FBBEBE"/>
<path id="Ellipse 58" d="M413.403 52.211C421.825 52.211 428.653 45.3833 428.653 36.961C428.653 28.5387 421.825 21.711 413.403 21.711C404.981 21.711 398.153 28.5387 398.153 36.961C398.153 45.3833 404.981 52.211 413.403 52.211Z" fill="#FBBEBE"/>
<path id="Path 222" d="M510.219 120.048C509.777 115.888 508.299 111.905 505.919 108.464C506.314 110.816 506.711 113.167 507.108 115.518C506.614 115.661 506.09 115.657 505.598 115.506C505.107 115.355 504.67 115.064 504.342 114.668C503.7 113.866 503.209 112.954 502.892 111.977C501.159 107.678 498.894 103.612 496.149 99.877C486.441 99.068 476.849 95.044 468.307 90.352C459.765 85.66 451.776 80.042 443.349 75.152C441.888 74.2691 440.367 73.4918 438.795 72.826C436.159 71.769 433.195 71.221 430.695 69.978C430.527 69.895 430.359 69.807 430.195 69.717C429.629 69.4099 429.094 69.0507 428.595 68.644C428.326 68.4264 428.071 68.1927 427.83 67.944C426.583 66.4932 425.594 64.8392 424.907 63.054C423.566 60.087 423.087 56.507 421.749 53.54C422.364 52.9649 423.056 52.477 423.804 52.09V52.09C423.913 52.033 424.021 51.979 424.132 51.927C424.662 51.6783 425.213 51.4775 425.778 51.327C426.099 51.2417 426.422 51.172 426.747 51.118C426.76 51.1166 426.773 51.114 426.786 51.11C428.296 50.8641 429.843 50.9865 431.296 51.467C433.373 52.3225 435.297 53.5077 436.996 54.977C439.898 57.0213 442.681 59.2288 445.332 61.589C446.805 63 448.149 64.551 449.732 65.833C451.049 66.8493 452.437 67.7693 453.886 68.586C462.459 73.6933 471.034 78.7997 479.609 83.905C482.509 85.634 485.417 87.363 488.255 89.193C492.566 91.974 496.722 94.988 500.876 97.999C503.324 99.7723 505.771 101.546 508.217 103.321C509.02 103.833 509.724 104.484 510.298 105.244C510.805 106.107 511.12 107.069 511.221 108.064C511.836 112.082 511.493 116.188 510.219 120.048V120.048Z" fill="#FBBEBE"/>
<path id="Path 223" d="M435.323 90.403C434.294 95.017 429.632 97.803 427.194 101.858C424.165 106.888 425.4 112.734 426.538 118.495L420.301 123.869C419.153 124.854 418.001 125.844 416.77 126.715C414.968 127.922 413.086 129.003 411.135 129.951L405.614 132.792C403.905 133.754 402.093 134.522 400.214 135.082C396.588 136.013 392.737 135.361 389.149 134.282C388.726 134.171 388.319 134.005 387.939 133.788C387.715 133.654 387.52 133.478 387.365 133.268C387.011 132.634 386.883 131.898 387.001 131.182C387.365 125.144 388.841 119.233 390.312 113.366C391.098 109.846 392.155 106.392 393.473 103.035C394.766 100.158 396.252 97.3728 397.921 94.697C399.763 91.3304 401.946 88.1615 404.434 85.24C405.646 84.1157 406.665 82.8011 407.453 81.348C408.371 79.254 408.016 76.853 408.203 74.574C408.345 72.8613 408.8 71.1891 409.544 69.64V69.64C409.942 68.8054 410.422 68.0122 410.976 67.272L411.728 69.022C411.893 69.4047 412.057 69.7863 412.219 70.167C412.431 70.6583 412.641 71.1477 412.85 71.635C413.45 73.035 414.05 74.435 414.65 75.835C415.299 77.5971 416.224 79.245 417.39 80.717C417.923 81.4708 418.642 82.0734 419.478 82.4662C420.313 82.8589 421.236 83.0283 422.157 82.9577C423.077 82.8872 423.964 82.5792 424.73 82.0638C425.496 81.5484 426.115 80.8432 426.527 80.017C427.396 78.4747 428.025 76.8094 428.393 75.078C428.904 72.9697 428.974 70.7788 428.6 68.642C427.977 64.527 426.227 60.325 424.956 56.502C424.438 55.2278 424.138 53.8756 424.069 52.502C424.072 52.3476 424.087 52.1937 424.116 52.042L424.139 51.923C424.669 51.6743 425.22 51.4735 425.785 51.323C426.106 51.2377 426.429 51.168 426.754 51.114C427.873 57.1726 428.994 63.231 430.117 69.289C430.143 69.431 430.171 69.573 430.197 69.718C430.357 70.586 430.52 71.455 430.697 72.318C430.86 73.104 431.036 73.887 431.232 74.665L431.24 74.688C431.307 74.952 431.377 75.213 431.449 75.474V75.482C431.649 76.195 431.87 76.904 432.121 77.601C433.648 81.803 436.298 86.038 435.323 90.403Z" fill="#6C63FF"/>
<path id="Path 224" d="M497.21 155.24C497.162 156.129 497.333 157.016 497.71 157.822C498.664 159.566 500.954 159.963 502.936 160.122C514.511 161.073 526.157 160.718 537.653 159.064C538.277 159.021 538.882 158.834 539.42 158.516C541.054 157.37 540.047 154.577 538.262 153.683C536.477 152.789 534.362 153.004 532.401 152.617C530.456 152.127 528.603 151.324 526.916 150.238C522.945 147.956 519.031 145.577 515.176 143.102C512.876 141.628 510.176 140.055 507.586 140.929C500.585 143.301 497.164 147.686 497.21 155.24Z" fill="#3F3D56"/>
<path id="Path 225" d="M411.879 68.168C411.861 68.277 411.843 68.383 411.82 68.488C411.792 68.664 411.758 68.842 411.72 69.018C411.4 70.659 411.007 72.293 410.554 73.918C409.313 78.402 407.654 82.818 406.002 87.162C401.577 98.8187 397.152 110.476 392.725 122.135C391.608 125.071 390.494 128.01 389.225 130.887C388.801 131.846 388.364 132.813 387.93 133.787C386.242 137.211 385.048 140.858 384.384 144.617C383.921 147.067 383.868 149.576 384.226 152.043C384.419 153.277 384.912 154.444 385.661 155.442C386.411 156.44 387.395 157.239 388.526 157.768C389.658 158.21 391.279 158.802 390.969 159.978C390.801 160.624 390.069 160.94 389.408 161.048C388.538 161.187 387.648 161.132 386.801 160.888C385.954 160.644 385.171 160.217 384.508 159.637C383.27 158.537 382.319 156.83 380.672 156.647C379.532 156.523 378.483 157.205 377.439 157.683C373.179 159.629 368.217 158.267 363.739 156.883C364.091 155.071 365.91 153.877 367.717 153.515C369.548 153.305 371.395 153.254 373.235 153.36C373.825 153.391 374.411 153.241 374.912 152.928C375.36 152.514 375.674 151.976 375.812 151.382C376.999 147.864 377.882 144.251 378.451 140.582C379.045 136.749 379.294 132.856 380.141 129.07C380.8 126.116 381.818 123.255 382.692 120.355C384.381 114.384 385.768 108.332 386.848 102.221C387.394 99.6821 387.785 97.1124 388.019 94.526C388.166 92.381 388.097 90.226 388.303 88.088C388.65 85.3073 389.23 82.5606 390.037 79.877C390.828 76.9483 391.618 74.0217 392.407 71.097C393.578 66.768 394.834 62.27 397.801 58.905C398.832 57.7203 400.094 56.7599 401.511 56.0831C402.928 55.4064 404.469 55.0279 406.038 54.971C406.626 54.9704 407.213 55.0338 407.788 55.16C407.888 55.183 407.979 55.207 408.075 55.232C408.701 55.3957 409.302 55.6443 409.861 55.971C410.776 55.389 411.241 55.594 411.849 56.491C412.382 57.4401 412.633 58.5213 412.573 59.608C412.627 62.4773 412.395 65.3449 411.879 68.168V68.168Z" fill="#FBBEBE"/>
<path id="Path 226" d="M412.885 71.595L412.846 71.634L412.637 71.843L410.559 73.918L409.541 69.64L406.049 54.975C406.637 54.9744 407.224 55.0377 407.799 55.164C407.824 54.9959 407.864 54.8305 407.92 54.67L408.085 55.236L409.269 59.263L411.51 66.908L411.88 68.167L412.885 71.595Z" fill="#6C63FF"/>
<path id="Path 227" d="M426.072 24.809C426.07 26.1669 425.801 27.5112 425.279 28.765C424.758 30.0188 423.994 31.1575 423.032 32.116C422.684 32.4648 422.31 32.7877 421.915 33.082C420.131 34.4264 417.959 35.1541 415.725 35.155H403.325C401.958 35.1684 400.603 34.9109 399.336 34.3972C398.07 33.8835 396.918 33.1239 395.946 32.1623C394.975 31.2006 394.204 30.056 393.678 28.7947C393.152 27.5333 392.881 26.1802 392.881 24.8135C392.881 23.4468 393.152 22.0937 393.678 20.8323C394.204 19.5709 394.975 18.4264 395.946 17.4647C396.918 16.5031 398.07 15.7435 399.336 15.2298C400.603 14.7161 401.958 14.4586 403.325 14.472H415.725C418.465 14.4791 421.091 15.5701 423.03 17.5069C424.969 19.4436 426.062 22.0687 426.072 24.809Z" fill="#2F2E41"/>
<path id="Ellipse 59" d="M437.698 25.588C443.551 25.588 448.295 20.8435 448.295 14.991C448.295 9.13842 443.551 4.39398 437.698 4.39398C431.845 4.39398 427.101 9.13842 427.101 14.991C427.101 20.8435 431.845 25.588 437.698 25.588Z" fill="#2F2E41"/>
<path id="Path 228" opacity="0.1" d="M437.439 4.39396C437.309 4.39396 437.18 4.39897 437.051 4.40397C439.795 4.50013 442.394 5.65769 444.301 7.63273C446.208 9.60777 447.274 12.246 447.274 14.9915C447.274 17.7369 446.208 20.3752 444.301 22.3502C442.394 24.3252 439.795 25.4828 437.051 25.579C437.18 25.579 437.309 25.589 437.439 25.589C438.852 25.6226 440.257 25.3733 441.572 24.8559C442.887 24.3385 444.086 23.5633 445.097 22.5759C446.108 21.5886 446.911 20.409 447.46 19.1066C448.009 17.8042 448.291 16.4052 448.291 14.992C448.291 13.5787 448.009 12.1798 447.46 10.8773C446.911 9.57492 446.108 8.39535 445.097 7.408C444.086 6.42065 442.887 5.64547 441.572 5.12803C440.257 4.61059 438.852 4.36135 437.439 4.39497V4.39396Z" fill="black"/>
<path id="Path 229" opacity="0.1" d="M387.038 4.39396C387.168 4.39396 387.297 4.39897 387.426 4.40397C384.682 4.50013 382.083 5.65769 380.176 7.63273C378.269 9.60777 377.203 12.246 377.203 14.9915C377.203 17.7369 378.269 20.3752 380.176 22.3502C382.083 24.3252 384.682 25.4828 387.426 25.579C387.297 25.579 387.168 25.589 387.038 25.589C385.625 25.6226 384.22 25.3733 382.905 24.8559C381.59 24.3385 380.391 23.5633 379.38 22.5759C378.369 21.5886 377.566 20.409 377.017 19.1066C376.468 17.8042 376.186 16.4052 376.186 14.992C376.186 13.5787 376.468 12.1798 377.017 10.8773C377.566 9.57492 378.369 8.39535 379.38 7.408C380.391 6.42065 381.59 5.64547 382.905 5.12803C384.22 4.61059 385.625 4.36135 387.038 4.39497V4.39396Z" fill="black"/>
<path id="Path 231" d="M501.99 109.867C501.99 109.867 504.661 117.567 507.107 115.515L505.158 105.453L501.99 109.867Z" fill="#FBBEBE"/>
<path id="Path 230" opacity="0.1" d="M421.915 33.082C420.131 34.4264 417.959 35.154 415.725 35.155H403.325C401.091 35.154 398.919 34.4264 397.135 33.082H421.915Z" fill="black"/>
</g>
<g id="leafs">
<path id="Path 232" d="M827.088 344.622C829.577 345.529 832.243 345.846 834.876 345.547C837.509 345.247 840.036 344.341 842.258 342.898C844.48 341.455 846.336 339.515 847.68 337.232C849.025 334.948 849.82 332.384 850.003 329.741C850.187 327.098 849.754 324.448 848.738 322.001C847.722 319.554 846.152 317.376 844.151 315.64C842.149 313.904 839.772 312.656 837.206 311.996C834.64 311.335 831.956 311.28 829.365 311.835L829.793 320.635L825.63 313.094C821.544 315.014 818.388 318.477 816.854 322.723C816.31 324.21 815.979 325.767 815.871 327.347C815.608 331.054 816.561 334.747 818.585 337.864C820.609 340.981 823.594 343.354 827.088 344.622V344.622Z" fill="#57B894"/>
<path id="Path 233" d="M847.688 446.677C846.218 439.194 852.588 432.56 858.876 428.247C865.164 423.934 872.516 419.698 874.662 412.38C877.746 401.863 868.562 392.231 861.408 383.925C856.103 377.761 851.546 370.99 847.835 363.753C846.222 360.91 845.123 357.805 844.589 354.581C844.025 349.919 845.523 345.281 847.032 340.833C852.059 326.02 857.433 311.33 863.155 296.764" stroke="#3F3D56" stroke-miterlimit="10"/>
<path id="Path 234" d="M827.786 342.357C830.275 343.264 832.941 343.581 835.574 343.282C838.207 342.982 840.734 342.076 842.956 340.633C845.178 339.19 847.034 337.25 848.378 334.967C849.723 332.683 850.518 330.119 850.701 327.476C850.885 324.833 850.452 322.183 849.436 319.736C848.42 317.289 846.85 315.111 844.849 313.375C842.847 311.639 840.47 310.391 837.904 309.731C835.338 309.07 832.654 309.015 830.063 309.57L830.491 318.37L826.328 310.829C822.242 312.749 819.086 316.212 817.552 320.458C817.008 321.945 816.677 323.502 816.569 325.082C816.306 328.789 817.259 332.482 819.283 335.599C821.307 338.716 824.292 341.089 827.786 342.357V342.357Z" stroke="#3F3D56" stroke-miterlimit="10"/>
<path id="Path 235" d="M845.594 293.727C846.57 291.033 848.208 288.628 850.358 286.734C852.507 284.839 855.099 283.516 857.894 282.886L859.302 291.251L861.912 282.465C865.535 282.519 869.048 283.723 871.942 285.903C874.836 288.083 876.963 291.127 878.015 294.594C879.067 298.062 878.99 301.774 877.794 305.195C876.599 308.615 874.347 311.568 871.365 313.626C868.382 315.683 864.823 316.74 861.2 316.643C857.578 316.546 854.08 315.3 851.212 313.086C848.344 310.872 846.254 307.803 845.243 304.323C844.233 300.843 844.354 297.132 845.59 293.726L845.594 293.727Z" fill="#57B894"/>
<path id="Path 236" d="M846.53 290.705C847.506 288.011 849.144 285.606 851.294 283.712C853.443 281.817 856.035 280.494 858.83 279.864L860.238 288.229L862.848 279.443C866.471 279.497 869.984 280.701 872.878 282.881C875.772 285.061 877.899 288.105 878.951 291.572C880.003 295.04 879.926 298.752 878.73 302.173C877.535 305.593 875.283 308.546 872.301 310.603C869.318 312.661 865.759 313.718 862.137 313.621C858.514 313.524 855.017 312.278 852.148 310.064C849.28 307.85 847.19 304.781 846.179 301.301C845.169 297.821 845.29 294.11 846.526 290.704L846.53 290.705Z" stroke="#3F3D56" stroke-miterlimit="10"/>
<path id="Path 237" d="M858.4 384.094C862.346 385.524 866.68 385.453 870.577 383.893C874.473 382.333 877.66 379.395 879.53 375.637C881.399 371.879 881.821 367.565 880.714 363.516C879.607 359.468 877.05 355.968 873.529 353.683L871.524 360.434L870.102 351.97C870.088 351.964 870.074 351.958 870.059 351.954C865.797 350.408 861.095 350.618 856.988 352.539C852.881 354.459 849.706 357.932 848.16 362.195C846.613 366.457 846.824 371.158 848.744 375.265C850.665 379.372 854.138 382.548 858.4 384.094V384.094Z" fill="#57B894"/>
<path id="Path 239" d="M840.608 412.484C841.287 416.345 843.272 419.855 846.231 422.425C849.191 424.996 852.944 426.47 856.861 426.602C860.779 426.734 864.623 425.515 867.748 423.149C870.874 420.783 873.09 417.415 874.027 413.608C874.964 409.802 874.563 405.789 872.892 402.243C871.222 398.697 868.382 395.834 864.851 394.133C861.319 392.432 857.31 391.997 853.496 392.9C849.682 393.804 846.294 395.992 843.902 399.097L851.519 410.561L841.112 404.476C840.305 407.066 840.132 409.813 840.608 412.484V412.484Z" fill="#57B894"/>
<path id="Path 240" d="M841.306 410.219C841.985 414.08 843.97 417.59 846.929 420.16C849.889 422.731 853.642 424.205 857.559 424.337C861.477 424.469 865.321 423.25 868.446 420.884C871.572 418.518 873.789 415.15 874.725 411.343C875.662 407.537 875.261 403.524 873.59 399.978C871.92 396.433 869.08 393.569 865.549 391.868C862.017 390.167 858.008 389.731 854.194 390.635C850.38 391.539 846.993 393.727 844.6 396.832L852.217 408.296L841.81 402.211C841.003 404.801 840.83 407.548 841.306 410.219Z" stroke="#3F3D56" stroke-miterlimit="10"/>
<path id="Path 238" d="M859.221 381.034C863.167 382.465 867.502 382.394 871.399 380.834C875.296 379.275 878.483 376.336 880.352 372.578C882.222 368.82 882.644 364.505 881.537 360.457C880.43 356.408 877.872 352.907 874.351 350.623L872.346 357.374L870.924 348.91C870.91 348.903 870.896 348.898 870.881 348.893C866.619 347.347 861.917 347.557 857.81 349.478C853.703 351.398 850.528 354.871 848.981 359.134C847.435 363.396 847.646 368.097 849.566 372.204C851.487 376.311 854.96 379.487 859.222 381.033L859.221 381.034Z" stroke="#3F3D56" stroke-miterlimit="10"/>
</g>
<g id="contur">
<path id="Path 242" d="M20.972 453.317C20.006 448.4 24.19 444.042 28.323 441.208C32.456 438.374 37.284 435.591 38.694 430.783C40.721 423.873 34.684 417.545 29.986 412.083C26.5005 408.033 23.5073 403.584 21.069 398.83C20.0089 396.963 19.2868 394.923 18.936 392.804C18.566 389.741 19.55 386.693 20.536 383.772C23.8387 374.039 27.3697 364.387 31.129 354.818" stroke="#3F3D56" stroke-miterlimit="10"/>
<path id="Path 244" d="M19.599 352.826C20.2406 351.056 21.3174 349.476 22.7301 348.231C24.1429 346.986 25.8461 346.117 27.683 345.704L28.608 351.204L30.323 345.432C32.7036 345.467 35.0115 346.258 36.9133 347.69C38.8152 349.123 40.2126 351.122 40.904 353.401C41.5953 355.679 41.5447 358.118 40.7595 360.366C39.9743 362.613 38.4951 364.553 36.5355 365.906C34.5759 367.258 32.2372 367.952 29.8572 367.889C27.4771 367.825 25.1789 367.007 23.2942 365.552C21.4095 364.097 20.0359 362.081 19.3717 359.795C18.7075 357.508 18.7871 355.07 19.599 352.832V352.826Z" fill="#57B894"/>
<path id="Path 245" d="M20.216 350.844C20.8576 349.074 21.9344 347.494 23.3471 346.249C24.7599 345.004 26.4631 344.135 28.3 343.722L29.225 349.222L30.94 343.444C33.3206 343.479 35.6285 344.27 37.5303 345.702C39.4322 347.135 40.8296 349.134 41.521 351.413C42.2123 353.691 42.1617 356.13 41.3765 358.378C40.5913 360.625 39.1121 362.565 37.1525 363.918C35.1929 365.27 32.8542 365.964 30.4742 365.901C28.0941 365.837 25.7959 365.019 23.9112 363.564C22.0265 362.109 20.6529 360.093 19.9887 357.807C19.3245 355.52 19.4041 353.082 20.216 350.844V350.844Z" stroke="#3F3D56" stroke-miterlimit="10"/>
<path id="Path 246" d="M28.013 412.201C30.6054 413.14 33.4527 413.093 36.0125 412.068C38.5722 411.043 40.6656 409.113 41.8937 406.644C43.1219 404.175 43.399 401.341 42.6723 398.681C41.9455 396.022 40.2658 393.722 37.953 392.221L36.636 396.657L35.702 391.096L35.673 391.085C34.2865 390.582 32.8145 390.357 31.3411 390.423C29.8676 390.489 28.4216 390.844 27.0856 391.469C25.7495 392.094 24.5496 392.976 23.5543 394.064C22.5591 395.153 21.7879 396.427 21.285 397.813C20.782 399.2 20.5571 400.671 20.623 402.145C20.6889 403.618 21.0444 405.064 21.6691 406.4C22.2939 407.736 23.1757 408.936 24.2641 409.932C25.3526 410.927 26.6265 411.698 28.013 412.201V412.201Z" fill="#57B894"/>
<path id="Path 214" d="M272.019 346.029H242.831V260.078C242.831 257.818 242.386 255.579 241.521 253.491C240.656 251.402 239.388 249.505 237.789 247.907C236.191 246.308 234.294 245.04 232.205 244.175C230.117 243.31 227.878 242.865 225.618 242.865H218.779C216.519 242.865 214.28 243.31 212.192 244.175C210.104 245.04 208.206 246.308 206.608 247.907C205.009 249.505 203.741 251.402 202.876 253.491C202.011 255.579 201.566 257.818 201.566 260.078V346.029H119.236C117.542 346.029 115.877 345.591 114.403 344.758C112.928 343.925 111.694 342.725 110.82 341.275C109.945 339.824 109.461 338.172 109.413 336.479C109.365 334.786 109.756 333.11 110.547 331.612L197.683 166.693C198.769 164.637 199.428 162.382 199.619 160.064C199.81 157.747 199.529 155.414 198.793 153.208C198.058 151.002 196.883 148.968 195.34 147.228C193.797 145.489 191.917 144.08 189.814 143.087L184.67 140.658C180.676 138.772 176.109 138.493 171.916 139.88C167.722 141.266 164.221 144.212 162.139 148.108L55.865 346.911C54.0557 350.295 53.1088 354.073 53.108 357.911V357.911C53.1075 360.976 53.7108 364.012 54.8834 366.844C56.0561 369.676 57.7751 372.25 59.9423 374.417C62.1096 376.585 64.6826 378.305 67.5145 379.478C70.3464 380.652 73.3817 381.256 76.447 381.256H201.564V435.606C201.564 441.078 203.738 446.326 207.607 450.196C211.477 454.065 216.725 456.239 222.197 456.239C227.669 456.239 232.917 454.065 236.787 450.196C240.656 446.326 242.83 441.078 242.83 435.606V381.256H272.018C274.331 381.256 276.622 380.8 278.759 379.915C280.896 379.03 282.837 377.733 284.473 376.097C286.109 374.461 287.406 372.52 288.291 370.383C289.176 368.246 289.632 365.955 289.632 363.642V363.642C289.632 358.971 287.776 354.491 284.473 351.188C281.17 347.885 276.69 346.029 272.019 346.029Z" stroke="#3F3D56" stroke-miterlimit="10"/>
<path id="Path 215" d="M819.546 346.029H790.358V260.078C790.358 257.818 789.913 255.579 789.048 253.491C788.183 251.402 786.915 249.505 785.316 247.907C783.718 246.308 781.82 245.04 779.732 244.175C777.644 243.31 775.405 242.865 773.145 242.865H766.302C764.042 242.865 761.803 243.31 759.715 244.175C757.626 245.04 755.729 246.308 754.131 247.907C752.532 249.505 751.264 251.402 750.399 253.491C749.534 255.579 749.089 257.818 749.089 260.078V346.029H666.759C665.065 346.029 663.401 345.591 661.926 344.758C660.452 343.925 659.217 342.725 658.343 341.274C657.469 339.824 656.985 338.172 656.937 336.479C656.889 334.786 657.28 333.109 658.071 331.612L745.212 166.693C746.298 164.637 746.957 162.382 747.148 160.064C747.338 157.747 747.058 155.414 746.322 153.208C745.587 151.002 744.412 148.968 742.869 147.228C741.326 145.489 739.446 144.08 737.343 143.087L732.199 140.658C728.205 138.772 723.638 138.493 719.444 139.88C715.251 141.266 711.75 144.212 709.668 148.108L603.393 346.911C601.584 350.295 600.637 354.073 600.636 357.911V357.911C600.636 364.101 603.095 370.038 607.472 374.416C611.85 378.793 617.787 381.252 623.977 381.252H749.093V435.602C749.093 441.074 751.267 446.322 755.136 450.192C759.006 454.061 764.254 456.235 769.726 456.235C775.198 456.235 780.446 454.061 784.316 450.192C788.185 446.322 790.359 441.074 790.359 435.602V381.252H819.547C824.218 381.252 828.698 379.396 832.001 376.093C835.304 372.789 837.16 368.309 837.16 363.638C837.16 361.325 836.704 359.035 835.819 356.898C834.934 354.761 833.636 352.819 832 351.183C830.365 349.548 828.423 348.25 826.286 347.365C824.149 346.48 821.858 346.025 819.545 346.025L819.546 346.029Z" stroke="#3F3D56" stroke-miterlimit="10"/>
<path id="Path 216" d="M443.625 128.125C373.025 128.125 322.343 173.417 322.343 279.098C322.343 398.87 373.03 430.575 443.625 430.575C514.22 430.575 567.925 395.851 567.925 279.098C567.926 154.294 514.22 128.125 443.625 128.125ZM444.089 390.818C395.189 390.818 369.648 362.132 369.648 279.175C369.648 205.975 396.239 167.375 445.135 167.375C494.031 167.375 520.622 192.73 520.622 279.175C520.622 360.041 492.986 390.818 444.09 390.818H444.089Z" stroke="#3F3D56" stroke-miterlimit="10"/>
<path id="Path 241" d="M7.438 386.27C9.07271 386.865 10.8232 387.071 12.5515 386.874C14.2797 386.677 15.9386 386.081 17.3972 385.133C18.8558 384.185 20.0744 382.912 20.9569 381.413C21.8394 379.914 22.3616 378.23 22.4824 376.495C22.6033 374.76 22.3194 373.02 21.6532 371.413C20.987 369.806 19.9567 368.376 18.6435 367.235C17.3303 366.094 15.7701 365.274 14.0858 364.839C12.4016 364.404 10.6393 364.367 8.938 364.729L9.219 370.51L6.484 365.555C3.7994 366.816 1.72547 369.092 0.717997 371.882C0.360243 372.859 0.142748 373.882 0.0719969 374.92C-0.100659 377.356 0.525405 379.782 1.85533 381.83C3.18525 383.878 5.14654 385.437 7.442 386.27H7.438Z" fill="#57B894"/>
<path id="Path 243" d="M7.90002 384.778C9.53473 385.373 11.2852 385.579 13.0135 385.382C14.7418 385.185 16.4006 384.589 17.8592 383.641C19.3179 382.693 20.5364 381.42 21.4189 379.921C22.3014 378.422 22.8236 376.738 22.9444 375.003C23.0653 373.268 22.7814 371.528 22.1152 369.921C21.4491 368.314 20.4188 366.884 19.1056 365.743C17.7923 364.602 16.2321 363.782 14.5479 363.347C12.8636 362.912 11.1014 362.875 9.40002 363.237L9.68102 369.018L6.94602 364.064C4.26155 365.325 2.18762 367.6 1.18002 370.39C0.822267 371.367 0.604776 372.39 0.534025 373.428C0.361594 375.864 0.987765 378.289 2.31767 380.337C3.64758 382.385 5.60874 383.944 7.90402 384.777L7.90002 384.778Z" stroke="#3F3D56" stroke-miterlimit="10"/>
<path id="Path 247" d="M28.548 410.191C31.1404 411.13 33.9877 411.083 36.5475 410.058C39.1073 409.033 41.2006 407.103 42.4288 404.634C43.6569 402.165 43.934 399.331 43.2073 396.671C42.4806 394.012 40.8008 391.712 38.488 390.211L37.171 394.647L36.237 389.086L36.208 389.075C34.8215 388.572 33.3495 388.347 31.8761 388.413C30.4027 388.479 28.9566 388.834 27.6206 389.459C26.2845 390.084 25.0846 390.966 24.0894 392.054C23.0941 393.143 22.323 394.417 21.82 395.803C21.3171 397.189 21.0921 398.661 21.158 400.135C21.2239 401.608 21.5794 403.054 22.2042 404.39C22.8289 405.726 23.7107 406.926 24.7992 407.922C25.8877 408.917 27.1615 409.688 28.548 410.191V410.191Z" stroke="#3F3D56" stroke-miterlimit="10"/>
<path id="Path 248" d="M16.321 430.853C16.7677 433.389 18.0729 435.695 20.0176 437.383C21.9623 439.071 24.4283 440.039 27.0021 440.125C29.5759 440.211 32.101 439.41 34.154 437.855C36.207 436.3 37.6631 434.087 38.2781 431.586C38.893 429.086 38.6295 426.449 37.5316 424.12C36.4338 421.79 34.5684 419.909 32.2483 418.792C29.9281 417.674 27.2943 417.388 24.7884 417.982C22.2825 418.576 20.057 420.013 18.485 422.053L23.485 429.585L16.647 425.585C16.1174 427.289 16.0056 429.096 16.321 430.853Z" fill="#57B894"/>
<path id="Path 249" d="M16.782 429.365C17.2287 431.901 18.5339 434.207 20.4786 435.895C22.4233 437.583 24.8893 438.551 27.4631 438.637C30.0369 438.723 32.562 437.922 34.615 436.367C36.6681 434.812 38.1241 432.599 38.7391 430.098C39.354 427.598 39.0905 424.961 37.9926 422.632C36.8948 420.302 35.0294 418.421 32.7092 417.304C30.3891 416.186 27.7553 415.9 25.2494 416.494C22.7435 417.088 20.518 418.525 18.946 420.565L23.946 428.097L17.108 424.097C16.5784 425.801 16.4666 427.608 16.782 429.365V429.365Z" stroke="#3F3D56" stroke-miterlimit="10"/>
</g>
</g>
</svg>
