<svg width="723" id="svg" height="467" viewBox="0 0 723 467" fill="none" xmlns="http://www.w3.org/2000/svg">
<g id="undraw portfolio website lidw">
<g id="foreground">
<path id="Path 298" d="M634.917 174.625C617.648 174.626 600.767 169.506 586.408 159.912C572.049 150.319 560.858 136.683 554.248 120.729C547.639 104.775 545.91 87.2192 549.278 70.2821C552.647 53.345 560.962 37.7871 573.172 25.5759C585.383 13.3646 600.94 5.0485 617.877 1.67911C634.814 -1.69028 652.37 0.0384073 668.324 6.64657C684.279 13.2547 697.915 24.4456 707.51 38.8039C717.104 53.1623 722.225 70.0432 722.225 87.312C722.225 110.468 713.027 132.676 696.654 149.05C680.28 165.424 658.073 174.624 634.917 174.625V174.625ZM634.917 1.36502C617.918 1.36502 601.301 6.40578 587.167 15.8499C573.033 25.294 562.017 38.7172 555.511 54.4221C549.006 70.1271 547.304 87.4084 550.62 104.081C553.937 120.753 562.123 136.067 574.143 148.087C586.163 160.107 601.477 168.293 618.149 171.61C634.822 174.926 652.103 173.224 667.808 166.719C683.513 160.213 696.936 149.197 706.38 135.063C715.824 120.929 720.865 104.312 720.865 87.313C720.865 64.5182 711.81 42.657 695.691 26.5386C679.573 10.4202 657.712 1.36502 634.917 1.36502V1.36502Z" fill="#3F3D56"/>
<path id="Ellipse 79" d="M635.207 131.404C659.42 131.404 679.049 111.775 679.049 87.562C679.049 63.3488 659.42 43.72 635.207 43.72C610.994 43.72 591.365 63.3488 591.365 87.562C591.365 111.775 610.994 131.404 635.207 131.404Z" fill="#F2F2F2"/>
<path id="Ellipse 80" d="M695.213 43.618C704.976 43.618 712.891 35.7033 712.891 25.94C712.891 16.1767 704.976 8.26202 695.213 8.26202C685.45 8.26202 677.535 16.1767 677.535 25.94C677.535 35.7033 685.45 43.618 695.213 43.618Z" fill="#6C63FF"/>
</g>
<g id="extra">
<path id="Rectangle 77" d="M638.099 87.665H43.822V423.902H638.099V87.665Z" fill="#3F3D56"/>
<path id="Ellipse 81" d="M63.742 108.382C68.1426 108.382 71.71 104.815 71.71 100.414C71.71 96.0134 68.1426 92.446 63.742 92.446C59.3414 92.446 55.774 96.0134 55.774 100.414C55.774 104.815 59.3414 108.382 63.742 108.382Z" fill="#6C63FF"/>
<path id="Ellipse 82" d="M88.442 108.382C92.8426 108.382 96.41 104.815 96.41 100.414C96.41 96.0134 92.8426 92.446 88.442 92.446C84.0414 92.446 80.474 96.0134 80.474 100.414C80.474 104.815 84.0414 108.382 88.442 108.382Z" fill="#6C63FF"/>
<path id="Ellipse 83" d="M113.142 108.382C117.543 108.382 121.11 104.815 121.11 100.414C121.11 96.0134 117.543 92.446 113.142 92.446C108.741 92.446 105.174 96.0134 105.174 100.414C105.174 104.815 108.741 108.382 113.142 108.382Z" fill="#6C63FF"/>
<path id="Rectangle 79" d="M137.044 212.758H121.109V228.693H137.044V212.758Z" fill="#6C63FF"/>
<path id="Rectangle 80" d="M564.065 351.396H548.13V367.331H564.065V351.396Z" fill="white"/>
<path id="Rectangle 81" d="M512.483 240.592L500.102 250.615L510.125 262.997L522.507 252.973L512.483 240.592Z" fill="#6C63FF"/>
<path id="Path 299" d="M509.933 457.365H9.56104V188.058H11.154V455.773H509.933V457.365Z" fill="#3F3D56"/>
<path id="Path 300" d="M470.313 466.923C468.264 466.923 466.262 466.316 464.558 465.177C462.855 464.039 461.527 462.421 460.743 460.529C459.959 458.636 459.754 456.554 460.154 454.544C460.554 452.535 461.54 450.689 462.989 449.241C464.437 447.792 466.283 446.806 468.292 446.406C470.301 446.006 472.384 446.212 474.277 446.995C476.17 447.779 477.787 449.107 478.925 450.81C480.064 452.514 480.671 454.516 480.671 456.565C480.671 459.312 479.58 461.947 477.637 463.889C475.695 465.832 473.06 466.923 470.313 466.923V466.923ZM470.313 447.8C468.58 447.8 466.885 448.314 465.444 449.277C464.003 450.24 462.88 451.609 462.216 453.21C461.553 454.811 461.379 456.573 461.717 458.273C462.055 459.973 462.89 461.535 464.116 462.761C465.341 463.986 466.903 464.821 468.603 465.159C470.303 465.498 472.065 465.324 473.666 464.661C475.268 463.998 476.636 462.875 477.599 461.434C478.563 459.993 479.077 458.298 479.077 456.565C479.077 454.241 478.154 452.011 476.51 450.368C474.867 448.724 472.637 447.8 470.313 447.8V447.8Z" fill="#3F3D56"/>
<path id="Path 301" d="M10.358 188.855C8.30939 188.855 6.30677 188.248 4.60341 187.109C2.90004 185.971 1.57243 184.354 0.788461 182.461C0.00448805 180.568 -0.200635 178.486 0.199031 176.476C0.598696 174.467 1.5852 172.621 3.03379 171.173C4.48239 169.724 6.328 168.738 8.33726 168.338C10.3465 167.938 12.4292 168.144 14.3218 168.927C16.2145 169.711 17.8322 171.039 18.9704 172.742C20.1085 174.446 20.716 176.448 20.716 178.497C20.716 181.244 19.6247 183.879 17.6822 185.821C15.7397 187.764 13.1051 188.855 10.358 188.855V188.855ZM10.358 169.733C8.62465 169.733 6.93022 170.247 5.48899 171.21C4.04776 172.173 2.92445 173.542 2.26112 175.143C1.5978 176.745 1.42424 178.507 1.7624 180.207C2.10056 181.907 2.93525 183.468 4.16092 184.694C5.38659 185.92 6.94818 186.754 8.64823 187.093C10.3483 187.431 12.1104 187.257 13.7118 186.594C15.3133 185.931 16.682 184.807 17.645 183.366C18.608 181.925 19.122 180.23 19.122 178.497C19.122 176.173 18.1987 173.944 16.5551 172.3C14.9115 170.656 12.6824 169.733 10.358 169.733Z" fill="#3F3D56"/>
<path id="Path 302" d="M146.872 403.983L139.757 423.902H123.766V403.584C124.945 378.095 139.247 366.112 139.693 365.745C128.945 376.111 130.14 411.945 130.14 411.945C137.311 380.871 143.685 380.074 143.685 380.074C139.829 385.866 137.837 412.216 137.717 413.857C138.195 408.32 146.872 403.983 146.872 403.983Z" fill="#F2F2F2"/>
<path id="Path 303" d="M593.638 406.691V423.901H581.344L575.312 407.001C575.312 407.001 582.188 410.443 582.571 414.833C582.471 413.479 580.898 392.633 577.838 388.046C577.838 388.046 582.898 388.675 588.586 413.32C588.586 413.32 589.526 384.899 581.009 376.677C581.368 376.972 592.702 386.47 593.638 406.691Z" fill="#F2F2F2"/>
</g>
<g id="background">
<path id="Path 304" d="M399.371 356.97H379.992L379.862 355.381L378.45 337.666V337.659L376.983 319.242L385.926 281.254L393.526 288.854V325.054C393.526 325.054 397.994 331.759 397.1 333.546C396.206 335.333 395.313 335.333 396.206 336.67C397.099 338.007 397.993 338.907 397.1 339.801C396.665 340.382 396.43 341.088 396.43 341.814C396.43 342.539 396.665 343.245 397.1 343.826C397.994 344.72 399.781 346.057 398.437 347.4C397.093 348.743 395.313 347.843 397.1 352.762C397.428 353.671 397.839 354.548 398.328 355.381C398.646 355.929 398.995 356.46 399.371 356.97V356.97Z" fill="#D0CDE1"/>
<path id="Path 305" d="M343.115 234.548L340.434 261.364L367.697 265.386L369.708 249.967L371.72 234.548H343.115Z" fill="#FFB9B9"/>
<path id="Path 306" opacity="0.1" d="M343.115 234.548L340.434 261.364L367.697 265.386L369.708 249.967L371.72 234.548H343.115Z" fill="black"/>
<path id="Ellipse 84" d="M357.897 243.264C369.745 243.264 379.35 233.659 379.35 221.811C379.35 209.963 369.745 200.358 357.897 200.358C346.049 200.358 336.444 209.963 336.444 221.811C336.444 233.659 346.049 243.264 357.897 243.264Z" fill="#FFB9B9"/>
<path id="Path 307" d="M309.764 356.97C309.689 356.813 309.607 356.649 309.525 356.47C309.368 356.136 309.198 355.77 309.013 355.379C307.826 352.732 306.373 348.967 307.213 347.841C308.557 346.054 309 344.267 308.107 343.373C307.214 342.479 304.533 344.267 307.213 342.029C309.893 339.791 310.787 341.135 309.894 338.455C309.001 335.775 307.213 337.118 309 335.774C310.787 334.43 312.131 334.88 311.237 333.543C310.343 332.206 308.556 332.199 310.343 331.306C312.13 330.413 313.474 331.306 313.024 329.069C312.574 326.832 312.13 327.732 313.024 326.838C313.867 324.99 314.578 323.086 315.152 321.138C318.187 312.059 323.303 295.313 323.303 294.651C323.303 293.757 316.154 265.606 316.154 265.606L313.024 263.819C313.024 263.819 299.17 273.205 294.702 294.219C290.234 315.233 287.102 320.59 287.102 320.59C287.102 320.59 282.634 321.484 285.758 324.608C288.882 327.732 288.889 327.289 286.208 329.076C283.527 330.863 281.74 327.289 283.527 330.863C285.314 334.437 287.545 333.551 285.758 335.781C283.971 338.011 280.847 338.018 282.634 339.806C284.421 341.594 280.847 345.618 283.077 347.406C285.307 349.194 286.208 349.637 286.208 352.768C286.209 353.645 286.279 354.521 286.419 355.387C286.496 355.923 286.605 356.453 286.746 356.976C286.846 357.392 286.946 357.706 287.019 357.904L309.764 356.97Z" fill="#D0CDE1"/>
<path id="Path 308" d="M309.951 356.969H311.772L311.872 356.335L309.716 356.471L301.878 356.971L287.212 357.899L309.951 356.969Z" fill="#3F3D56"/>
<path id="Path 309" d="M313.864 338.018L309.846 324.164L309.737 321.149L307.609 263.818L333.98 254.439L338.448 250.858C338.448 250.858 339.342 240.578 340.685 239.685C341.169 239.364 341.947 239.74 342.977 240.613C344.785 242.148 347.377 245.213 350.515 248.628C355.433 253.99 365.715 253.096 368.837 251.309C369.239 251.075 369.656 250.867 370.085 250.688C372.329 249.76 373.305 250.415 373.305 250.415C375.542 252.202 370.181 258.015 370.181 258.015C370.181 258.015 371.968 262.033 383.581 266.057C395.194 270.081 397.442 288.857 397.442 288.857C397.442 288.857 383.581 326.394 384.031 329.075C384.413 331.375 382.831 336.299 382.367 337.663V337.67C382.292 337.888 382.244 338.018 382.244 338.018L383.26 355.385L383.36 356.974H315.754C315.553 356.421 315.3 355.889 314.997 355.385C314.922 355.262 314.84 355.133 314.758 355.003C310.739 348.737 313.864 338.018 313.864 338.018Z" fill="#D0CDE1"/>
<path id="Path 310" d="M336.26 224.558C334.958 222.495 334.47 220.021 334.889 217.618C335.401 215.575 335.603 213.466 335.489 211.363C336.448 208.246 337.652 205.209 339.089 202.281C340.889 199.025 340.032 197.654 345.689 196.626C351.346 195.598 349.031 188.226 363.939 196.198C364.442 196.9 365.142 197.438 365.95 197.743C366.758 198.048 367.638 198.107 368.48 197.912C371.565 197.312 372.68 201.596 372.68 201.596C372.68 201.596 374.736 200.396 375.508 202.11C376.28 203.824 381.778 201.081 381.778 212.649C381.778 224.217 375.521 234.549 375.521 234.549C375.521 234.549 375.98 215.092 365.783 213.121C355.586 211.15 344.619 205.41 341.963 212.778C340.527 216.913 338.613 220.867 336.26 224.558V224.558Z" fill="#2F2E41"/>
<path id="Ellipse 85" d="M374.065 229.186C375.176 229.186 376.076 227.985 376.076 226.504C376.076 225.023 375.176 223.822 374.065 223.822C372.954 223.822 372.054 225.023 372.054 226.504C372.054 227.985 372.954 229.186 374.065 229.186Z" fill="#FFB9B9"/>
<path id="Path 311" d="M197.353 172.12V356.97H490.566V172.12H197.353ZM488.976 355.38H198.949V173.716H488.976V355.38Z" fill="white"/>
<path id="Rectangle 78" opacity="0.1" d="M451.005 184.871H200.022V356.974H451.005V184.871Z" fill="black"/>
</g>
</g>
</svg>
