<svg width="888" height="445" viewBox="0 0 888 445" fill="none" xmlns="http://www.w3.org/2000/svg">
<g id="Frame">
<g clip-path="url(#clip0)">
<g id="fill">
<g id="Group 1">
<path id="Rectangle 423" d="M853.169 29.395H458.131V226.914H853.169V29.395Z" fill="#E6E6E6"/>
</g>
<g id="?">
<path id="Path 2243" d="M687.83 162.29C687.819 166.013 686.519 169.617 684.15 172.488C681.781 175.36 678.49 177.322 674.837 178.04C671.184 178.759 667.395 178.189 664.115 176.428C660.835 174.668 658.267 171.825 656.847 168.383C655.427 164.942 655.244 161.115 656.328 157.554C657.412 153.992 659.697 150.917 662.794 148.851C665.891 146.784 669.608 145.855 673.312 146.221C677.017 146.587 680.48 148.225 683.113 150.857C684.612 152.359 685.801 154.142 686.61 156.104C687.42 158.066 687.834 160.168 687.83 162.29V162.29Z" fill="#6C63FF"/>
<path id="Path 2244" opacity="0.3" d="M687.83 162.29C687.819 166.013 686.519 169.617 684.15 172.488C681.781 175.36 678.49 177.322 674.837 178.04C671.184 178.759 667.395 178.189 664.115 176.428C660.835 174.668 658.267 171.825 656.847 168.383C655.427 164.942 655.244 161.115 656.328 157.554C657.412 153.992 659.697 150.917 662.794 148.851C665.891 146.784 669.608 145.855 673.312 146.221C677.017 146.587 680.48 148.225 683.113 150.857C684.612 152.359 685.801 154.142 686.61 156.104C687.42 158.066 687.834 160.168 687.83 162.29V162.29Z" fill="black"/>
<path id="Path 2245" d="M717.08 80.88C717.11 86.1579 716.023 91.3824 713.89 96.21C712.966 98.288 711.858 100.279 710.58 102.16C707.931 105.989 704.753 109.423 701.14 112.36C700.52 112.88 699.84 113.42 698.93 114.12C697.79 114.97 696.52 115.86 695.06 116.82C692.482 118.487 690.001 120.3 687.63 122.25C686.224 123.346 685.004 124.663 684.02 126.15C682.79 128.3 682.17 132.46 682.17 138.52V139.52H655.21V134.84C655.21 131.18 655.3 128.1 655.47 125.42C655.592 122.991 655.846 120.571 656.23 118.17C656.494 116.058 657.131 114.01 658.11 112.12C659.88 109.17 664.15 105.16 671.15 99.86C671.45 99.64 671.75 99.41 672.06 99.18C672.35 98.98 672.63 98.77 672.92 98.55C675.345 96.8276 677.578 94.8495 679.58 92.65C680.165 91.9649 680.706 91.2435 681.2 90.49L681.33 90.29C682.898 87.5131 683.666 84.3566 683.55 81.17C683.558 80.3638 683.504 79.5581 683.39 78.76C683.079 75.6468 681.634 72.7568 679.33 70.64C676.83 68.3486 673.607 67.0043 670.22 66.84C669.79 66.8 669.39 66.79 668.98 66.79C667.386 66.7811 665.798 66.9692 664.25 67.35C661.349 68.0656 658.747 69.6748 656.81 71.95C655.784 73.1616 654.91 74.495 654.21 75.92C651.848 81.3701 650.337 87.1509 649.73 93.06L649.63 94.11L624.25 87.35V76.16C624.37 75.71 624.5 75.26 624.64 74.82C626.26 69.2079 628.842 63.9195 632.27 59.19C633.735 57.183 635.386 55.3182 637.2 53.62C637.63 53.19 638.1 52.77 638.57 52.36C641.624 49.7088 645.017 47.4758 648.66 45.72L648.98 45.57C655.88 42.3808 663.409 40.7815 671.01 40.89C671.8 40.89 672.73 40.9 673.65 40.95C681.204 41.1415 688.617 43.0316 695.34 46.48C698.359 48.0428 701.188 49.9488 703.77 52.16C711.015 58.0659 715.681 66.5574 716.78 75.84C716.98 77.5125 717.081 79.1955 717.08 80.88V80.88Z" fill="#6C63FF"/>
<path id="Path 2246" opacity="0.3" d="M717.08 80.88C717.11 86.1579 716.023 91.3824 713.89 96.21C712.966 98.288 711.858 100.279 710.58 102.16C707.931 105.989 704.753 109.423 701.14 112.36C700.52 112.88 699.84 113.42 698.93 114.12C697.79 114.97 696.52 115.86 695.06 116.82C692.482 118.487 690.001 120.3 687.63 122.25C686.224 123.346 685.004 124.663 684.02 126.15C682.79 128.3 682.17 132.46 682.17 138.52V139.52H655.21V134.84C655.21 131.18 655.3 128.1 655.47 125.42C655.592 122.991 655.846 120.571 656.23 118.17C656.494 116.058 657.131 114.01 658.11 112.12C659.88 109.17 664.15 105.16 671.15 99.86C671.45 99.64 671.75 99.41 672.06 99.18C672.35 98.98 672.63 98.77 672.92 98.55C675.345 96.8276 677.578 94.8495 679.58 92.65C680.165 91.9649 680.706 91.2435 681.2 90.49L681.33 90.29C682.898 87.5131 683.666 84.3566 683.55 81.17C683.558 80.3638 683.504 79.5581 683.39 78.76C683.079 75.6468 681.634 72.7568 679.33 70.64C676.83 68.3486 673.607 67.0043 670.22 66.84C669.79 66.8 669.39 66.79 668.98 66.79C667.386 66.7811 665.798 66.9692 664.25 67.35C661.349 68.0656 658.747 69.6748 656.81 71.95C655.784 73.1616 654.91 74.495 654.21 75.92C651.848 81.3701 650.337 87.1509 649.73 93.06L649.63 94.11L624.25 87.35V76.16C624.37 75.71 624.5 75.26 624.64 74.82C626.26 69.2079 628.842 63.9195 632.27 59.19C633.735 57.183 635.386 55.3182 637.2 53.62C637.63 53.19 638.1 52.77 638.57 52.36C641.624 49.7088 645.017 47.4758 648.66 45.72L648.98 45.57C655.88 42.3808 663.409 40.7815 671.01 40.89C671.8 40.89 672.73 40.9 673.65 40.95C681.204 41.1415 688.617 43.0316 695.34 46.48C698.359 48.0428 701.188 49.9488 703.77 52.16C711.015 58.0659 715.681 66.5574 716.78 75.84C716.98 77.5125 717.081 79.1955 717.08 80.88V80.88Z" fill="black"/>
<path id="Path 2247" d="M676.83 162.29C676.819 166.013 675.519 169.617 673.15 172.488C670.781 175.36 667.49 177.322 663.837 178.04C660.184 178.759 656.395 178.189 653.115 176.428C649.835 174.668 647.267 171.825 645.847 168.383C644.427 164.942 644.244 161.115 645.328 157.554C646.412 153.992 648.697 150.917 651.794 148.851C654.891 146.784 658.608 145.855 662.312 146.221C666.017 146.587 669.48 148.225 672.113 150.857C673.612 152.359 674.801 154.142 675.61 156.104C676.42 158.066 676.834 160.168 676.83 162.29V162.29Z" fill="#6C63FF"/>
<path id="Path 2248" d="M706.08 80.88C706.11 86.1579 705.023 91.3824 702.89 96.21C701.966 98.288 700.858 100.279 699.58 102.16C696.931 105.989 693.753 109.423 690.14 112.36C689.52 112.88 688.84 113.42 687.93 114.12C686.79 114.97 685.52 115.86 684.06 116.82C681.482 118.487 679.001 120.3 676.63 122.25C675.224 123.346 674.004 124.663 673.02 126.15C671.79 128.3 671.17 132.46 671.17 138.52V139.52H644.21V134.84C644.21 131.18 644.3 128.1 644.47 125.42C644.592 122.991 644.846 120.571 645.23 118.17C645.494 116.058 646.131 114.01 647.11 112.12C648.88 109.17 653.15 105.16 660.15 99.86C660.45 99.64 660.75 99.41 661.06 99.18C661.35 98.98 661.63 98.77 661.92 98.55C664.345 96.8276 666.578 94.8495 668.58 92.65C669.165 91.9649 669.706 91.2435 670.2 90.49L670.33 90.29C671.898 87.5132 672.666 84.3566 672.55 81.17C672.558 80.3638 672.504 79.5581 672.39 78.76C672.079 75.6468 670.634 72.7568 668.33 70.64C665.83 68.3486 662.607 67.0042 659.22 66.84C658.79 66.8 658.39 66.79 657.98 66.79C656.386 66.7811 654.798 66.9692 653.25 67.35C650.349 68.0656 647.747 69.6748 645.81 71.95C644.784 73.1616 643.91 74.495 643.21 75.92C641.41 79.51 640.24 84.27 639.73 90.06L639.63 91.11L611.09 87.04L611.23 86.05C611.731 82.2482 612.537 78.4928 613.64 74.82C615.26 69.2079 617.842 63.9195 621.27 59.19C622.735 57.183 624.386 55.3182 626.2 53.62C626.63 53.19 627.1 52.77 627.57 52.36C630.624 49.7088 634.017 47.4759 637.66 45.72L637.98 45.57C644.88 42.3808 652.409 40.7814 660.01 40.89C660.8 40.89 661.73 40.9 662.65 40.95C670.204 41.1415 677.617 43.0316 684.34 46.48C687.359 48.0428 690.188 49.9488 692.77 52.16C700.015 58.0659 704.681 66.5574 705.78 75.84C705.98 77.5125 706.081 79.1955 706.08 80.88V80.88Z" fill="#6C63FF"/>
</g>
</g>
<g id="leafs">
<path id="Path 2213" d="M412.711 406.048L422.067 403.348C423.727 399.05 425.144 394.662 426.31 390.205L421.916 390.045L426.706 388.664C428.093 383.137 428.661 379.388 428.661 379.388C428.661 379.388 409.685 385.04 395.395 396.069L393.632 408.439L391.945 398.928C390.39 400.308 388.924 401.785 387.554 403.349C373.797 419.166 367.81 436.481 374.182 442.024C380.554 447.567 396.873 439.238 410.63 423.424C414.89 418.287 418.336 412.526 420.85 406.344L412.711 406.048Z" fill="#E6E6E6"/>
<path id="Path 2214" d="M58.235 349.692L52.902 328.658C43.4459 324.649 33.7712 321.177 23.924 318.258L23.251 328.033L20.521 317.263C8.30897 313.776 0.000976562 312.24 0.000976562 312.24C0.000976562 312.24 11.223 354.914 34.76 387.54L62.186 392.358L40.879 395.43C43.8411 398.993 47.0244 402.367 50.41 405.53C84.65 437.312 122.787 451.894 135.591 438.099C148.395 424.304 131.018 387.357 96.778 355.575C86.163 345.722 72.829 337.815 59.478 331.593L58.235 349.692Z" fill="#E6E6E6"/>
<path id="Path 2215" d="M108.95 326.849L115.257 306.086C109.235 297.767 102.75 289.794 95.83 282.205L90.201 290.225L93.43 279.594C84.778 270.294 78.461 264.687 78.461 264.687C78.461 264.687 66.009 307.018 69.295 347.113L90.283 365.413L70.45 357.033C71.1438 361.614 72.1251 366.148 73.388 370.606C86.271 415.512 111.38 447.706 129.472 442.517C147.564 437.328 151.786 396.717 138.903 351.811C134.909 337.89 127.581 324.229 119.372 312.002L108.95 326.849Z" fill="#E6E6E6"/>
</g>
<g id="human">
<path id="Path 2216" d="M194.275 413.765L196.475 423.676L211.891 422.576L210.791 411.565L194.275 413.765Z" fill="#FFB8B8"/>
<path id="Path 2217" d="M155.735 413.765L153.535 423.676L138.118 422.576L139.218 411.565L155.735 413.765Z" fill="#FFB8B8"/>
<path id="Ellipse 405" d="M151.33 92.229C162.885 92.229 172.252 82.8619 172.252 71.307C172.252 59.7521 162.885 50.385 151.33 50.385C139.775 50.385 130.408 59.7521 130.408 71.307C130.408 82.8619 139.775 92.229 151.33 92.229Z" fill="#FFB8B8"/>
<path id="Path 2218" d="M138.116 76.812L132.611 102.139L160.139 110.948L159.039 79.015L138.116 76.812Z" fill="#FFB8B8"/>
<path id="Path 2219" d="M148.027 105.442L134.173 94.953C134.173 94.953 131.51 91.127 130.409 94.431C129.308 97.735 119.397 109.848 119.397 109.848L127.105 200.143L185.466 201.243C185.466 201.243 162.661 95.984 159.75 99.612C156.839 103.24 149.128 103.24 148.027 105.442Z" fill="#D0CDE1"/>
<path id="Path 2220" d="M159.589 92.779C159.589 92.779 155.189 97.179 157.389 100.487C159.589 103.795 157.94 109.916 160.142 110.432C162.344 110.948 157.942 148.387 164.542 158.298C171.142 168.209 167.842 193.535 167.842 197.94C167.842 202.345 174.449 228.772 174.449 228.772C174.449 228.772 196.472 230.972 196.472 225.472C196.472 219.972 188.764 181.426 188.764 181.426L195.371 113.155C195.371 113.155 195.371 106.548 187.663 104.346C179.955 102.144 164.539 96.638 164.539 96.638L159.589 92.779Z" fill="#2F2E41"/>
<path id="Path 2221" d="M190.972 172.613H185.466C185.466 172.613 156.836 174.813 159.038 162.703C161.24 150.593 183.263 159.403 183.263 159.403L189.87 162.703L190.972 172.613Z" fill="#FFB8B8"/>
<path id="Path 2222" d="M135.05 90.927C135.05 90.927 126.006 96.633 124.905 98.835C123.804 101.037 98.477 113.15 98.477 121.959C98.477 130.768 106.185 140.679 106.185 140.679L116.095 237.579C116.095 237.579 132.612 243.085 133.713 238.679C134.814 234.273 139.219 137.373 137.013 132.968C134.807 128.563 134.813 99.933 134.813 99.933L135.05 90.927Z" fill="#2F2E41"/>
<path id="Path 2223" d="M106.183 250.795L105.083 257.402C105.083 257.402 106.183 279.425 114.993 278.324C123.803 277.223 118.293 255.2 118.293 255.2L117.193 250.8L106.183 250.795Z" fill="#FFB8B8"/>
<path id="Path 2224" d="M119.397 194.636C119.397 194.636 120.497 293.736 126.004 325.673C131.511 357.61 133.712 412.664 133.712 412.664C133.712 412.664 148.027 414.864 150.229 415.964C152.431 417.064 157.937 413.764 157.937 413.764L159.037 250.793L179.959 324.57C179.959 324.57 183.259 413.763 189.869 415.97C196.479 418.177 216.297 413.77 216.297 413.77C216.297 413.77 208.589 328.981 206.387 325.678C204.185 322.375 198.679 225.473 189.87 207.855L186.57 195.742C186.57 195.742 123.801 197.939 119.397 194.636Z" fill="#2F2E41"/>
<path id="Path 2225" d="M197.579 419.271C197.579 419.271 192.073 414.871 192.073 418.171C192.073 421.471 186.567 441.846 193.173 441.846C199.779 441.846 243.826 445.7 242.725 436.891C241.624 428.082 215.125 414.015 215.125 414.015C215.125 414.015 205.284 417.07 204.183 418.171C203.082 419.272 197.579 419.271 197.579 419.271Z" fill="#2F2E41"/>
<path id="Path 2226" d="M152.431 419.271C152.431 419.271 157.937 414.871 157.937 418.171C157.937 421.471 163.443 441.846 156.837 441.846C150.231 441.846 106.184 445.7 107.285 436.891C108.386 428.082 134.885 414.015 134.885 414.015C134.885 414.015 144.726 417.07 145.827 418.171C146.928 419.272 152.431 419.271 152.431 419.271Z" fill="#2F2E41"/>
<path id="Path 2227" d="M187.668 112.049L195.376 113.149L210.792 157.195C210.792 157.195 215.192 179.218 208.592 182.522C201.992 185.826 189.515 185.18 189.515 185.18L187.67 160.499L193.176 161.599L187.67 150.587L187.668 112.049Z" fill="#2F2E41"/>
<path id="Path 2228" d="M103.981 117.555L98.475 121.955C98.475 121.955 92.969 178.114 94.075 183.62C95.181 189.126 101.783 256.296 101.783 256.296L120.503 251.896L107.289 118.656L103.981 117.555Z" fill="#2F2E41"/>
<path id="Path 2229" d="M128.184 56.105C128.184 56.105 122.093 48.378 128.184 44.514V46.446C128.184 46.446 141.237 31.957 149.069 35.821L156.031 33.889V35.821L160.382 33.889L159.512 36.789H165.603L162.992 38.721C162.992 38.721 183.006 37.755 170.824 52.244C170.824 52.244 176.615 60.931 171.109 65.764C171.109 65.764 166.473 55.142 160.382 58.04C158.732 58.8966 156.87 59.261 155.019 59.0898C153.168 58.9185 151.405 58.2188 149.94 57.074C149.94 57.074 137.757 56.108 139.498 61.904C141.239 67.7 140.368 69.631 140.368 69.631C140.368 69.631 136.017 72.531 136.887 74.461C137.757 76.391 137.757 82.188 137.757 82.188C137.757 82.188 133.406 75.427 131.666 76.388C129.926 77.349 120.35 67.691 128.184 56.105Z" fill="#2F2E41"/>
<path id="Path 2230" d="M366.909 125.259L320.609 126.409L314.376 71.2H366.909V125.259Z" fill="#2F2E41"/>
<path id="Path 2231" d="M317.898 196.829L300.997 314.005C300.997 314.005 286.35 355.695 285.223 375.976L280.716 405.271L300.997 409.778L322.405 327.528L351.7 253.165L348.319 338.795L341.559 408.651L361.84 412.031L374.234 323.021L387.75 257.672C387.75 257.672 397.89 201.336 382.116 195.703L317.898 196.829Z" fill="#2F2E41"/>
<path id="Path 2232" d="M299.641 398.08L297.386 425.505C297.386 425.505 321.521 439.458 313.777 442.163C306.033 444.868 295.434 441.388 293.266 440.773C290.977 440.124 286.702 439.089 283.466 438.322C281.969 437.979 280.621 437.166 279.62 436.001C278.619 434.836 278.018 433.381 277.904 431.85L277.898 431.75C277.698 428.375 285.316 399.05 285.316 399.05L299.641 398.08Z" fill="#2F2E41"/>
<path id="Path 2233" d="M358.25 398.766L360.15 424.988C360.15 424.988 387.633 435.199 380.55 439.333C373.467 443.467 362.397 442.077 360.15 441.888C356.01 441.539 345.707 441.188 345.707 441.188C345.707 441.188 343.807 442.837 342.966 439.562C342.125 436.287 344.081 407.03 344.081 407.03L358.25 398.766Z" fill="#2F2E41"/>
<path id="Ellipse 406" d="M341.559 102.186C353.382 102.186 362.967 92.6013 362.967 80.778C362.967 68.9547 353.382 59.37 341.559 59.37C329.736 59.37 320.151 68.9547 320.151 80.778C320.151 92.6013 329.736 102.186 341.559 102.186Z" fill="#FFB8B8"/>
<path id="Path 2234" d="M329.165 93.171L324.658 117.959L343.812 126.973L348.319 95.425L329.165 93.171Z" fill="#FFB8B8"/>
<path id="Path 2235" d="M326.911 210.35L350.572 227.25C350.572 227.25 360.712 253.164 368.599 248.658C376.486 244.152 359.585 221.617 359.585 221.617L340.431 202.463L326.911 210.35Z" fill="#FFB8B8"/>
<path id="Path 2236" d="M394.514 202.463L396.767 215.984C396.767 215.984 391.133 244.152 384.373 238.518C377.613 232.884 386.626 214.857 386.626 214.857L385.499 203.59L394.514 202.463Z" fill="#FFB8B8"/>
<path id="Path 2237" d="M341.559 120.212L339.306 111.198L325.785 104.438L321.278 110.072L306.631 114.579L323.531 204.716C323.531 204.716 380.994 208.096 382.12 199.082C383.246 190.068 370.852 165.282 370.852 165.282C370.852 165.282 374.232 152.888 373.105 146.128L368.598 119.087L350.571 113.453L346.454 108.472L342.684 114.58L341.559 120.212Z" fill="#D0CDE1"/>
<path id="Path 2238" d="M310.011 116.832L306.631 114.579C306.631 114.579 299.871 115.706 297.617 124.719C295.363 133.732 297.617 174.295 303.251 182.181C308.885 190.067 324.659 213.729 324.659 213.729L346.067 203.589L323.532 177.675L317.898 145L310.011 116.832Z" fill="#D0CDE1"/>
<path id="Path 2239" d="M359.586 121.339L368.6 119.086C368.6 119.086 374.234 121.339 376.487 129.226C378.74 137.113 391.134 176.548 390.008 179.926C388.882 183.304 400.148 205.84 400.148 205.84L384.374 206.967L375.36 183.305L366.35 159.647L359.586 121.339Z" fill="#D0CDE1"/>
<path id="Path 2240" d="M304.45 101.105C308.965 98.626 311.066 93.061 311.215 87.913C311.364 82.765 310.115 77.669 310.015 72.52C309.965 71.4665 310.054 70.4109 310.282 69.381C310.657 68.1026 311.24 66.8949 312.009 65.807C317.88 56.807 328.085 50.483 338.835 50.384C340.388 50.3638 341.93 50.6475 343.374 51.219C344.485 51.664 344.849 51.61 345.062 52.974C347.61 52.1329 350.373 52.2208 352.862 53.222C355.326 54.2239 357.624 55.5927 359.679 57.282C360.9 58.19 362.052 59.1874 363.126 60.266C368.807 66.151 370.115 75.221 368.469 83.234C367.934 85.834 370.501 88.354 372.625 89.954C374.749 91.554 377.202 93.023 378.245 95.469C379.245 97.822 378.697 100.513 378.899 103.063C379.126 105.474 380.022 107.773 381.486 109.701C382.95 111.629 384.924 113.11 387.185 113.976C386.724 114.528 386.122 114.945 385.443 115.184C384.764 115.423 384.033 115.474 383.328 115.332C381.856 115.022 380.478 114.366 379.309 113.419C374.913 110.161 371.767 105.494 370.397 100.196C369.773 103.034 370.015 105.96 370.038 108.866C369.983 112.108 370.581 115.329 371.794 118.336C373.028 121.358 375.289 123.847 378.178 125.366C375.392 126.73 372.321 125.742 369.96 123.729C367.697 121.581 366.062 118.856 365.231 115.849C363.647 111.048 363.004 105.987 363.339 100.943C360.747 105.306 359.8 110.453 360.668 115.453C361.575 120.551 364.237 125.171 368.192 128.513C361.295 128.454 354.513 126.746 348.411 123.531C346.836 122.817 345.447 121.747 344.354 120.406C342.391 117.682 342.854 113.967 343.406 110.655C343.842 108.036 340.569 104.25 342.443 102.369C342.999 101.817 343.743 101.496 344.526 101.469C347.345 101.258 350.077 100.402 352.512 98.9672C354.947 97.5322 357.019 95.5566 358.569 93.193C360.73 89.9433 361.958 86.1625 362.118 82.263C362.116 79.3998 361.497 76.5707 360.301 73.969C359.106 71.3673 357.363 69.0544 355.191 67.1884C353.019 65.3224 350.47 63.9473 347.718 63.1571C344.966 62.3668 342.076 62.1801 339.245 62.6096C336.415 63.0391 333.71 64.0747 331.316 65.6457C328.923 67.2167 326.896 69.286 325.376 71.7122C323.855 74.1383 322.877 76.8642 322.507 79.7034C322.137 82.5426 322.384 85.4282 323.232 88.163C323.908 90.3637 324.393 92.6188 324.68 94.903C325.019 97.5537 325.559 100.175 326.294 102.744C327.712 107.682 330.114 112.72 334.559 115.295C333.005 115.961 331.335 116.314 329.644 116.336C324.066 116.951 318.2 116.815 313.152 114.365C308.104 111.915 304.096 106.705 304.45 101.105Z" fill="#2F2E41"/>
<path id="Path 2241" d="M316.626 79.252C332.645 72.832 348.436 71.462 363.817 79.252V66.311C363.817 64.0755 362.929 61.9315 361.348 60.3508C359.767 58.7701 357.624 57.882 355.388 57.882H323.288C321.522 57.882 319.828 58.5836 318.579 59.8324C317.331 61.0812 316.629 62.7749 316.629 64.541L316.626 79.252Z" fill="#2F2E41"/>
<path id="Ellipse 407" d="M321.611 87.266C322.915 87.266 323.972 85.5746 323.972 83.488C323.972 81.4015 322.915 79.71 321.611 79.71C320.307 79.71 319.25 81.4015 319.25 83.488C319.25 85.5746 320.307 87.266 321.611 87.266Z" fill="#FFB8B8"/>
</g>
<g id="contur">
<path id="Rectangle 424" d="M520 442.01H0V444.01H520V442.01Z" fill="#3F3D56"/>
<path id="Path 2242" d="M887.5 199.52H490.46V0.00500488H887.5V199.52ZM492.46 197.52H885.5V2.005H492.46V197.52Z" fill="#3F3D56"/>
</g>
</g>
</g>
<defs>
<clipPath id="clip0">
<rect width="887.5" height="444.01" fill="white"/>
</clipPath>
</defs>
</svg>
