<svg width="525" height="350" viewBox="0 0 525 350" fill="none" xmlns="http://www.w3.org/2000/svg">
<g id="featureListThirdIllustration.inline">
<g id="background">
<g id="Group 5">
<path id="Path 115" d="M455.774 327.422C455.562 327.826 455.313 328.209 455.032 328.568C452.56 326.825 450.047 325.119 447.492 323.448C447.543 323.341 447.599 323.229 447.659 323.122C448.252 321.975 449.141 321.009 450.234 320.322C450.854 319.888 451.577 319.626 452.33 319.561C453.084 319.496 453.841 319.632 454.526 319.953C455.176 320.343 455.713 320.896 456.084 321.557C456.456 322.217 456.649 322.963 456.646 323.721C456.691 325.01 456.39 326.288 455.774 327.422V327.422Z" fill="#3F3D56"/>
<path id="Ellipse 11" d="M459.225 320.958C460.78 318.024 460.223 314.682 457.982 313.495C455.741 312.308 452.664 313.725 451.11 316.659C449.555 319.594 450.112 322.935 452.353 324.122C454.594 325.31 457.671 323.893 459.225 320.958Z" fill="#3F3D56"/>
<path id="Ellipse 12" d="M462.663 314.462C464.218 311.528 463.661 308.186 461.42 306.999C459.179 305.812 456.102 307.229 454.548 310.163C452.993 313.098 453.55 316.439 455.791 317.626C458.032 318.814 461.109 317.397 462.663 314.462Z" fill="#3F3D56"/>
<path id="Ellipse 13" d="M466.106 307.965C467.661 305.031 467.104 301.689 464.863 300.502C462.622 299.315 459.545 300.732 457.991 303.666C456.436 306.601 456.993 309.942 459.234 311.129C461.475 312.317 464.552 310.9 466.106 307.965Z" fill="#3F3D56"/>
<path id="Ellipse 14" d="M469.55 301.466C471.105 298.532 470.548 295.19 468.307 294.003C466.066 292.816 462.989 294.233 461.435 297.167C459.88 300.102 460.437 303.443 462.678 304.63C464.919 305.818 467.996 304.401 469.55 301.466Z" fill="#3F3D56"/>
<path id="Path 116" d="M473.821 246.776C473.642 245.785 473.53 244.782 473.486 243.776L485.074 247.676L473.486 241.668C473.655 238.666 474.437 235.73 475.782 233.04C477.128 230.351 479.009 227.965 481.31 226.029L492.537 242.253L483.821 224.198C486.382 222.597 489.245 221.541 492.233 221.094C495.22 220.648 498.267 220.821 501.184 221.603C504.101 222.385 506.826 223.759 509.19 225.64C511.553 227.521 513.504 229.868 514.921 232.535C516.338 235.202 517.191 238.133 517.426 241.144C517.662 244.155 517.275 247.182 516.29 250.037C515.305 252.893 513.743 255.515 511.701 257.74C509.659 259.965 507.181 261.747 504.421 262.973C504.705 264.53 504.82 266.113 504.764 267.694L487.104 267.557L504.494 270.42C503.907 274.033 502.428 277.443 500.192 280.341C497.957 283.239 495.034 285.535 491.688 287.02C492.426 291.084 492.006 295.274 490.475 299.11C488.944 302.946 486.364 306.274 483.031 308.714C479.698 311.153 475.745 312.605 471.626 312.903C467.506 313.202 463.385 312.335 459.735 310.402C456.085 308.469 453.052 305.548 450.984 301.973C448.916 298.397 447.895 294.312 448.04 290.184C448.184 286.056 449.487 282.052 451.8 278.63C454.113 275.208 457.342 272.505 461.118 270.832C460.241 265.979 461.02 260.972 463.329 256.614C465.638 252.256 469.343 248.799 473.851 246.799L473.821 246.776Z" fill="#6C63FF"/>
<path id="Path 117" opacity="0.1" d="M502.184 277.2C499.882 281.566 496.173 285.027 491.657 287.019C492.395 291.083 491.975 295.273 490.444 299.109C488.913 302.945 486.333 306.273 483 308.713C479.667 311.152 475.714 312.604 471.594 312.902C467.475 313.201 463.354 312.334 459.704 310.401C456.054 308.468 453.021 305.547 450.953 301.972C448.885 298.396 447.864 294.311 448.009 290.183C448.153 286.055 449.456 282.051 451.769 278.629C454.082 275.207 457.311 272.504 461.087 270.831C460.233 266.14 503.343 275.02 502.184 277.2Z" fill="black"/>
</g>
<g id="Group 6">
<path id="Path 118" d="M441.985 181.905C441.718 182.594 441.395 183.26 441.019 183.896C436.693 181.584 432.314 179.344 427.882 177.175C427.942 176.99 428.011 176.797 428.082 176.613C428.802 174.658 430.032 172.932 431.644 171.613C432.526 170.738 433.641 170.136 434.856 169.878C436.071 169.62 437.335 169.716 438.496 170.157C439.657 170.597 440.668 171.362 441.406 172.361C442.145 173.359 442.58 174.55 442.661 175.789C442.987 177.851 442.753 179.963 441.985 181.905V181.905Z" fill="#6C63FF"/>
<path id="Ellipse 15" d="M446.236 170.795C448.151 165.767 446.589 160.505 442.749 159.042C438.909 157.58 434.243 160.471 432.329 165.5C430.414 170.529 431.975 175.79 435.816 177.253C439.656 178.715 444.321 175.824 446.236 170.795Z" fill="#6C63FF"/>
<path id="Ellipse 16" d="M450.473 159.674C452.388 154.646 450.826 149.384 446.986 147.922C443.146 146.459 438.48 149.35 436.566 154.379C434.651 159.408 436.212 164.669 440.053 166.132C443.893 167.594 448.558 164.703 450.473 159.674Z" fill="#6C63FF"/>
<path id="Ellipse 17" d="M454.703 148.548C456.618 143.52 455.056 138.258 451.216 136.796C447.376 135.333 442.71 138.224 440.796 143.253C438.881 148.282 440.442 153.543 444.283 155.006C448.123 156.468 452.788 153.577 454.703 148.548Z" fill="#6C63FF"/>
<path id="Ellipse 18" d="M458.941 137.431C460.856 132.403 459.294 127.141 455.454 125.678C451.614 124.216 446.948 127.107 445.034 132.136C443.119 137.165 444.68 142.426 448.521 143.889C452.361 145.351 457.026 142.46 458.941 137.431Z" fill="#6C63FF"/>
<path id="Path 119" d="M454.911 48.756C454.422 47.1841 454.042 45.5802 453.774 43.956L473.181 47.909L453.371 40.519C453.046 35.6777 453.711 30.8209 455.328 26.2458C456.944 21.6707 459.477 17.4735 462.771 13.911L484.041 37.743L466.441 10.478C470.239 7.41605 474.626 5.16693 479.329 3.87008C484.032 2.57323 488.951 2.2563 493.782 2.93892C498.612 3.62155 503.251 5.28918 507.411 7.83843C511.57 10.3877 515.162 13.7642 517.963 17.7587C520.764 21.7531 522.714 26.2804 523.694 31.0597C524.673 35.839 524.66 40.7685 523.656 45.5427C522.651 50.3168 520.677 54.8337 517.855 58.8134C515.033 62.793 511.424 66.1506 507.251 68.678C508.013 71.1227 508.511 73.6421 508.736 76.193L480.336 79.493L508.846 80.63C508.623 86.5525 506.927 92.326 503.912 97.4282C500.897 102.53 496.657 106.8 491.576 109.852C493.566 116.232 493.721 123.043 492.023 129.507C490.326 135.971 486.844 141.827 481.976 146.406C477.108 150.984 471.05 154.101 464.494 155.4C457.938 156.699 451.15 156.128 444.903 153.751C438.657 151.374 433.205 147.289 429.171 141.96C425.137 136.632 422.683 130.277 422.09 123.62C421.497 116.963 422.789 110.274 425.817 104.316C428.846 98.3588 433.489 93.3735 439.217 89.93C436.834 82.3041 437.084 74.0985 439.926 66.6317C442.769 59.1649 448.039 52.8705 454.89 48.76L454.911 48.756Z" fill="#6C63FF"/>
<path id="Path 120" opacity="0.1" d="M506.54 91.974C503.711 99.4486 498.439 105.748 491.579 109.849C493.569 116.229 493.724 123.04 492.026 129.504C490.329 135.968 486.847 141.824 481.979 146.403C477.111 150.981 471.053 154.098 464.497 155.397C457.941 156.696 451.153 156.125 444.906 153.748C438.66 151.371 433.208 147.286 429.174 141.957C425.14 136.629 422.686 130.274 422.093 123.617C421.5 116.96 422.792 110.271 425.82 104.313C428.849 98.3558 433.492 93.3704 439.22 89.927C436.933 82.579 507.965 88.24 506.54 91.974Z" fill="#6C63FF"/>
</g>
<g id="Group 7">
<path id="Path 121" d="M76.511 218.903C76.7281 219.755 77.0151 220.587 77.369 221.392C82.805 219.309 88.3026 217.306 93.862 215.384C93.815 215.156 93.768 214.92 93.707 214.684C93.1471 212.268 91.9515 210.046 90.244 208.247C88.021 205.964 85.144 204.847 82.373 205.526C79.602 206.205 77.566 208.526 76.644 211.534C75.9395 213.934 75.8936 216.479 76.511 218.903Z" fill="#3F3D56"/>
<path id="Ellipse 19" d="M84.5132 214.297C89.2588 213.139 91.8763 207.163 90.3595 200.951C88.8428 194.739 83.7662 190.642 79.0206 191.8C74.2751 192.959 71.6576 198.934 73.1743 205.147C74.691 211.359 79.7676 215.456 84.5132 214.297Z" fill="#3F3D56"/>
<path id="Ellipse 20" d="M81.1552 200.551C85.9008 199.393 88.5182 193.417 87.0015 187.205C85.4848 180.992 80.4082 176.896 75.6626 178.054C70.9171 179.213 68.2996 185.188 69.8163 191.401C71.333 197.613 76.4096 201.71 81.1552 200.551Z" fill="#3F3D56"/>
<path id="Ellipse 21" d="M77.8062 186.803C82.5518 185.645 85.1693 179.669 83.6525 173.457C82.1358 167.244 77.0592 163.148 72.3136 164.306C67.5681 165.465 64.9506 171.44 66.4673 177.653C67.984 183.865 73.0606 187.962 77.8062 186.803Z" fill="#3F3D56"/>
<path id="Ellipse 22" d="M74.4472 173.052C79.1927 171.894 81.8102 165.918 80.2935 159.706C78.7768 153.494 73.7002 149.397 68.9546 150.555C64.209 151.714 61.5915 157.689 63.1083 163.902C64.625 170.114 69.7016 174.211 74.4472 173.052Z" fill="#3F3D56"/>
<path id="Path 122" d="M80.889 59.884C81.6998 58.103 82.3851 56.2675 82.94 54.391L59.46 56.191L83.923 50.415C85.0234 44.7476 84.955 38.9151 83.7219 33.2751C82.4888 27.635 80.1171 22.3062 76.752 17.615L48.135 42.601L72.928 13.023C68.902 8.82951 64.056 5.50939 58.6917 3.26924C53.3274 1.0291 47.5594 -0.0831505 41.7468 0.00170683C35.9341 0.0865641 30.2011 1.36671 24.9044 3.76249C19.6078 6.15827 14.8608 9.61843 10.9589 13.9277C7.05705 18.2369 4.0837 23.303 2.22391 28.8108C0.364119 34.3185 -0.342327 40.1501 0.148531 45.9426C0.639389 51.7352 2.31705 57.3647 5.07712 62.481C7.83719 67.5972 11.6206 72.0908 16.192 75.682C14.9312 78.4554 13.9714 81.356 13.329 84.334L46.358 92.406L12.548 89.543C11.9381 96.5629 13.087 103.624 15.8911 110.089C18.6951 116.553 23.0657 122.217 28.608 126.568C25.3159 133.804 24.1262 141.82 25.1751 149.701C26.2239 157.581 29.4689 165.007 34.5391 171.13C39.6093 177.253 46.3001 181.826 53.8465 184.325C61.3929 186.825 69.4905 187.151 77.2134 185.266C84.9364 183.381 91.9731 179.361 97.519 173.665C103.065 167.969 106.896 160.828 108.575 153.058C110.254 145.287 109.713 137.201 107.013 129.724C104.313 122.247 99.5638 115.68 93.308 110.775C97.2414 102.125 98.1526 92.4047 95.8953 83.1748C93.6381 73.945 88.3433 65.7419 80.862 59.884H80.889Z" fill="#6C63FF"/>
<path id="Path 123" opacity="0.1" d="M13.586 103.269C15.825 112.506 21.118 120.716 28.607 126.569C25.3149 133.805 24.1252 141.821 25.1741 149.702C26.2229 157.582 29.4679 165.008 34.5381 171.131C39.6083 177.254 46.2991 181.827 53.8455 184.326C61.3919 186.826 69.4895 187.152 77.2124 185.267C84.9354 183.382 91.9721 179.362 97.518 173.666C103.064 167.97 106.895 160.829 108.574 153.059C110.253 145.288 109.712 137.202 107.012 129.725C104.312 122.248 99.5628 115.681 93.307 110.776C97.12 102.427 12.466 98.651 13.586 103.269Z" fill="black"/>
</g>
<path id="Path 124" d="M476.614 48.76H37.74C37.2248 48.7615 36.7148 48.8644 36.2394 49.0631C35.764 49.2617 35.3324 49.5521 34.9692 49.9176C34.6061 50.2832 34.3186 50.7167 34.1231 51.1935C33.9276 51.6702 33.828 52.1808 33.83 52.696V322.184C33.8231 324.282 34.6497 326.296 36.128 327.784C37.6064 329.273 39.6153 330.113 41.713 330.12H472.641C474.739 330.113 476.748 329.273 478.226 327.784C479.704 326.296 480.531 324.282 480.524 322.184V52.696C480.527 51.6557 480.117 50.6568 479.384 49.9188C478.65 49.1808 477.654 48.764 476.614 48.76V48.76Z" fill="url(#paint0_linear)"/>
<path id="Path 125" d="M478.841 80.259V321.13C478.784 323.148 477.93 325.062 476.464 326.45C474.998 327.839 473.041 328.589 471.023 328.537H43.404C41.3848 328.591 39.4269 327.841 37.9602 326.452C36.4935 325.063 35.6378 323.149 35.581 321.13V80.259H478.841Z" fill="white"/>
<path id="Path 126" d="M89.932 77.341V328.541H42.011C40.0465 328.541 38.1625 327.761 36.7735 326.372C35.3844 324.982 34.604 323.098 34.604 321.134V77.362L89.932 77.341Z" fill="#3F3D56"/>
<path id="Path 127" d="M478.841 53.855V64.555H35.581V53.855C35.609 52.8535 36.0333 51.904 36.7608 51.2152C37.4883 50.5263 38.4595 50.1543 39.461 50.181H474.961C475.963 50.1543 476.934 50.5263 477.661 51.2152C478.389 51.904 478.813 52.8535 478.841 53.855V53.855Z" fill="#D0CDE1"/>
<path id="Ellipse 23" opacity="0.8" d="M42.234 58.979C43.1823 58.979 43.951 58.2103 43.951 57.262C43.951 56.3137 43.1823 55.545 42.234 55.545C41.2857 55.545 40.517 56.3137 40.517 57.262C40.517 58.2103 41.2857 58.979 42.234 58.979Z" fill="#FA5959"/>
<path id="Ellipse 24" opacity="0.8" d="M46.955 58.979C47.9033 58.979 48.672 58.2103 48.672 57.262C48.672 56.3137 47.9033 55.545 46.955 55.545C46.0067 55.545 45.238 56.3137 45.238 57.262C45.238 58.2103 46.0067 58.979 46.955 58.979Z" fill="#FED253"/>
<path id="Ellipse 25" opacity="0.8" d="M51.676 58.979C52.6243 58.979 53.393 58.2103 53.393 57.262C53.393 56.3137 52.6243 55.545 51.676 55.545C50.7277 55.545 49.959 56.3137 49.959 57.262C49.959 58.2103 50.7277 58.979 51.676 58.979Z" fill="#8CCF4D"/>
<path id="Rectangle 19" d="M81.468 89.746H41.126V94.038H81.468V89.746Z" fill="#EDEDF4"/>
<path id="Rectangle 20" d="M81.468 102.784H41.126V107.076H81.468V102.784Z" fill="#EDEDF4"/>
<path id="Rectangle 21" d="M81.468 115.822H41.126V120.114H81.468V115.822Z" fill="#EDEDF4"/>
<path id="Rectangle 22" d="M81.468 128.86H41.126V133.152H81.468V128.86Z" fill="#EDEDF4"/>
<path id="Rectangle 23" d="M81.468 141.899H41.126V146.191H81.468V141.899Z" fill="#EDEDF4"/>
<path id="Ellipse 43" d="M60.641 334.833C66.8227 334.833 71.834 333.87 71.834 332.683C71.834 331.496 66.8227 330.533 60.641 330.533C54.4593 330.533 49.448 331.496 49.448 332.683C49.448 333.87 54.4593 334.833 60.641 334.833Z" fill="#6C63FF"/>
<path id="Ellipse 44" d="M60.456 333.473C61.1767 333.473 61.761 332.71 61.761 331.769C61.761 330.828 61.1767 330.065 60.456 330.065C59.7353 330.065 59.151 330.828 59.151 331.769C59.151 332.71 59.7353 333.473 60.456 333.473Z" fill="#3F3D56"/>
<path id="Ellipse 45" d="M60.456 331.387C61.1767 331.387 61.761 330.624 61.761 329.683C61.761 328.742 61.1767 327.979 60.456 327.979C59.7353 327.979 59.151 328.742 59.151 329.683C59.151 330.624 59.7353 331.387 60.456 331.387Z" fill="#3F3D56"/>
<path id="Ellipse 46" d="M60.456 329.302C61.1767 329.302 61.761 328.539 61.761 327.598C61.761 326.657 61.1767 325.894 60.456 325.894C59.7353 325.894 59.151 326.657 59.151 327.598C59.151 328.539 59.7353 329.302 60.456 329.302Z" fill="#3F3D56"/>
<path id="Ellipse 47" d="M60.456 327.22C61.1767 327.22 61.761 326.457 61.761 325.516C61.761 324.575 61.1767 323.812 60.456 323.812C59.7353 323.812 59.151 324.575 59.151 325.516C59.151 326.457 59.7353 327.22 60.456 327.22Z" fill="#3F3D56"/>
<path id="Ellipse 48" d="M60.456 325.134C61.1767 325.134 61.761 324.371 61.761 323.43C61.761 322.489 61.1767 321.726 60.456 321.726C59.7353 321.726 59.151 322.489 59.151 323.43C59.151 324.371 59.7353 325.134 60.456 325.134Z" fill="#3F3D56"/>
<path id="Ellipse 49" d="M60.456 323.049C61.1767 323.049 61.761 322.286 61.761 321.345C61.761 320.404 61.1767 319.641 60.456 319.641C59.7353 319.641 59.151 320.404 59.151 321.345C59.151 322.286 59.7353 323.049 60.456 323.049Z" fill="#3F3D56"/>
<path id="Ellipse 50" d="M60.456 320.963C61.1767 320.963 61.761 320.2 61.761 319.259C61.761 318.318 61.1767 317.555 60.456 317.555C59.7353 317.555 59.151 318.318 59.151 319.259C59.151 320.2 59.7353 320.963 60.456 320.963Z" fill="#3F3D56"/>
<path id="Path 172" d="M65.331 304.988C65.5096 304.767 65.6718 304.533 65.816 304.288L62.383 303.726L66.083 303.752C66.4376 302.979 66.6311 302.142 66.6517 301.292C66.6724 300.442 66.5197 299.597 66.203 298.808L61.238 301.383L65.817 298.014C65.3902 297.268 64.8139 296.618 64.1242 296.106C63.4346 295.593 62.6464 295.228 61.8092 295.034C60.972 294.84 60.1038 294.821 59.2589 294.979C58.4141 295.136 57.6108 295.466 56.8995 295.948C56.1882 296.431 55.5841 297.055 55.1252 297.781C54.6663 298.508 54.3625 299.321 54.2327 300.171C54.1029 301.02 54.15 301.888 54.371 302.718C54.592 303.549 54.9821 304.324 55.517 304.997C55.24 305.351 55.0013 305.734 54.805 306.139L59.251 308.448L54.53 306.856C54.1961 307.839 54.1127 308.89 54.2873 309.914C54.4619 310.937 54.8891 311.901 55.53 312.718C54.8063 313.638 54.3562 314.744 54.2312 315.908C54.1061 317.072 54.3112 318.248 54.8229 319.302C55.3346 320.355 56.1323 321.243 57.1248 321.864C58.1173 322.485 59.2646 322.815 60.4355 322.815C61.6064 322.815 62.7537 322.485 63.7462 321.864C64.7387 321.243 65.5364 320.355 66.0481 319.302C66.5598 318.248 66.7649 317.072 66.6398 315.908C66.5148 314.744 66.0647 313.638 65.341 312.718C66.2069 311.617 66.6777 310.256 66.6777 308.855C66.6777 307.455 66.2069 306.094 65.341 304.993L65.331 304.988Z" fill="#6C63FF"/>
<path id="Path 173" opacity="0.1" d="M54.186 308.852C54.1833 310.253 54.6537 311.614 55.521 312.714C54.7973 313.634 54.3472 314.74 54.2222 315.904C54.0971 317.068 54.3022 318.244 54.8139 319.298C55.3255 320.351 56.1232 321.239 57.1158 321.86C58.1083 322.481 59.2556 322.811 60.4265 322.811C61.5974 322.811 62.7447 322.481 63.7372 321.86C64.7297 321.239 65.5274 320.351 66.0391 319.298C66.5508 318.244 66.7558 317.068 66.6308 315.904C66.5057 314.74 66.0557 313.634 65.332 312.714C66.168 311.646 54.186 308.148 54.186 308.852Z" fill="black"/>
</g>
<g id="foreground" opacity="0.7">
<path id="Rectangle 25" d="M404.546 100.935H167.645V248.569H404.546V100.935Z" fill="#6C63FF"/>
<path id="Rectangle 26" d="M408.827 269.954H376.21V280.254H408.827V269.954Z" fill="#6C63FF"/>
<path id="Rectangle 27" d="M386.692 113.307H147.645V264.151H386.692V113.307Z" fill="#D7D9E1"/>
<path id="Rectangle 28" d="M385.849 114.894H148.948V262.528H385.849V114.894Z" fill="white"/>
<path id="Path 128" opacity="0.1" d="M283.63 131.8H261.313C260.369 131.8 259.596 132.358 259.596 133.036V134.268C259.607 134.461 259.669 134.648 259.774 134.811C259.879 134.973 260.024 135.105 260.196 135.195H255.308C254.364 135.195 253.591 135.749 253.591 136.431V137.663C253.591 138.341 254.363 138.899 255.308 138.899H255.797C255.761 138.995 255.74 139.096 255.737 139.199V140.435C255.737 141.113 256.509 141.667 257.454 141.667H279.771C280.715 141.667 281.488 141.113 281.488 140.435V139.199C281.488 138.521 280.715 137.967 279.771 137.967H279.282C279.319 137.868 279.339 137.764 279.342 137.658V136.426C279.331 136.233 279.269 136.046 279.164 135.883C279.059 135.721 278.914 135.589 278.742 135.499H283.63C284.574 135.499 285.347 134.945 285.347 134.263V133.031C285.346 132.358 284.574 131.8 283.63 131.8Z" fill="#6C63FF"/>
<path id="Path 129" opacity="0.1" d="M250.278 159.247H227.961C227.017 159.247 226.244 159.805 226.244 160.483V161.715C226.255 161.908 226.317 162.095 226.422 162.258C226.527 162.42 226.672 162.552 226.844 162.642H221.956C221.012 162.642 220.239 163.196 220.239 163.878V165.11C220.239 165.788 221.012 166.346 221.956 166.346H222.445C222.409 166.442 222.388 166.543 222.385 166.646V167.882C222.385 168.56 223.158 169.114 224.102 169.114H246.419C247.363 169.114 248.136 168.56 248.136 167.882V166.646C248.136 165.968 247.363 165.414 246.419 165.414H245.93C245.967 165.315 245.988 165.211 245.99 165.105V163.873C245.979 163.68 245.917 163.493 245.812 163.33C245.707 163.168 245.562 163.036 245.39 162.946H250.278C251.222 162.946 251.995 162.392 251.995 161.71V160.478C251.994 159.805 251.222 159.247 250.278 159.247Z" fill="#6C63FF"/>
<path id="Path 130" opacity="0.1" d="M306.615 164.196H284.298C283.354 164.196 282.581 164.754 282.581 165.432V166.664C282.592 166.857 282.654 167.044 282.759 167.207C282.864 167.369 283.009 167.502 283.181 167.591H278.293C277.349 167.591 276.576 168.145 276.576 168.827V170.059C276.576 170.737 277.349 171.295 278.293 171.295H278.782C278.746 171.391 278.725 171.492 278.722 171.595V172.831C278.722 173.509 279.495 174.063 280.439 174.063H302.756C303.7 174.063 304.473 173.509 304.473 172.831V171.595C304.473 170.917 303.7 170.363 302.756 170.363H302.267C302.304 170.264 302.325 170.16 302.327 170.054V168.822C302.316 168.629 302.254 168.442 302.149 168.279C302.044 168.117 301.899 167.985 301.727 167.895H306.615C307.559 167.895 308.332 167.341 308.332 166.659V165.427C308.331 164.754 307.559 164.196 306.615 164.196Z" fill="#6C63FF"/>
<path id="Ellipse 26" opacity="0.1" d="M262.802 168.733C263.497 167.785 262.813 166.101 261.273 164.97C259.733 163.84 257.921 163.692 257.225 164.64C256.529 165.588 257.213 167.272 258.753 168.403C260.293 169.533 262.106 169.681 262.802 168.733Z" fill="#6C63FF"/>
<path id="Ellipse 27" opacity="0.1" d="M253.812 121.951C254.507 121.003 253.823 119.319 252.283 118.188C250.743 117.058 248.931 116.91 248.235 117.858C247.539 118.806 248.223 120.49 249.763 121.621C251.303 122.751 253.116 122.899 253.812 121.951Z" fill="#6C63FF"/>
<path id="Ellipse 28" opacity="0.1" d="M283.489 152.993C284.184 152.045 283.5 150.361 281.96 149.23C280.42 148.1 278.608 147.952 277.912 148.9C277.216 149.848 277.9 151.532 279.44 152.663C280.98 153.793 282.793 153.941 283.489 152.993Z" fill="#6C63FF"/>
<path id="Path 131" opacity="0.7" d="M203.008 262.524H196.998C197.946 262.112 198.968 261.9 200.002 261.9C201.036 261.9 202.058 262.112 203.006 262.524H203.008Z" fill="#3F3D56"/>
<path id="Path 132" opacity="0.7" d="M209.663 259.086C209.666 260.24 209.543 261.391 209.298 262.519H190.715C190.085 259.591 190.275 256.546 191.264 253.719C191.556 252.902 191.924 252.114 192.364 251.367C194.128 248.367 196.896 246.453 200.007 246.453C203.118 246.453 205.887 248.376 207.65 251.367C208.077 252.092 208.436 252.855 208.723 253.646C209.351 255.391 209.669 257.232 209.663 259.086Z" fill="#3F3D56"/>
<path id="Ellipse 29" opacity="0.7" d="M200.007 256.284C205.34 256.284 209.663 250.625 209.663 243.645C209.663 236.665 205.34 231.006 200.007 231.006C194.674 231.006 190.351 236.665 190.351 243.645C190.351 250.625 194.674 256.284 200.007 256.284Z" fill="#3F3D56"/>
<path id="Ellipse 30" opacity="0.7" d="M200.007 240.834C205.34 240.834 209.663 235.175 209.663 228.195C209.663 221.215 205.34 215.556 200.007 215.556C194.674 215.556 190.351 221.215 190.351 228.195C190.351 235.175 194.674 240.834 200.007 240.834Z" fill="#3F3D56"/>
<path id="Path 133" opacity="0.7" d="M236.156 179.656C241.051 185.881 244.265 193.258 245.493 201.081C246.72 208.903 245.92 216.91 243.167 224.335C240.414 231.76 235.802 238.354 229.771 243.486C223.74 248.617 216.493 252.116 208.724 253.645C207.612 253.864 206.488 254.045 205.351 254.173C201.826 254.6 198.263 254.619 194.733 254.229C193.563 254.106 192.407 253.936 191.265 253.718C183.449 252.251 176.143 248.793 170.053 243.678C163.963 238.564 159.295 231.966 156.498 224.521C153.702 217.077 152.872 209.037 154.089 201.178C155.306 193.319 158.529 185.906 163.446 179.656C158.689 173.607 155.515 166.468 154.213 158.883C152.91 151.299 153.52 143.509 155.987 136.22L191.107 148.009L158.164 130.898C159.614 127.904 161.383 125.076 163.439 122.461C161.582 120.101 159.959 117.566 158.594 114.891H225.877L239.752 117.17C238.674 119.014 237.471 120.782 236.152 122.462C242.579 130.608 246.067 140.686 246.052 151.062V151.414C246.04 153.403 245.897 155.388 245.623 157.358C245.468 158.525 245.268 159.677 245.023 160.813C244.292 164.219 243.176 167.53 241.697 170.684C241.607 170.884 241.512 171.075 241.418 171.268C240.449 173.261 239.337 175.182 238.092 177.015C237.5 177.873 236.882 178.732 236.229 179.56L236.156 179.656Z" fill="#6C63FF"/>
<path id="Path 134" opacity="0.5" d="M153.545 151.06C153.529 161.436 157.017 171.514 163.445 179.66C158.08 186.482 154.742 194.677 153.814 203.307C152.886 211.936 154.405 220.653 158.197 228.46C161.99 236.267 167.902 242.85 175.259 247.455C182.616 252.06 191.121 254.502 199.8 254.502C208.479 254.502 216.984 252.06 224.341 247.455C231.698 242.85 237.61 236.267 241.403 228.46C245.195 220.653 246.714 211.936 245.786 203.307C244.858 194.677 241.52 186.482 236.155 179.66C242.353 171.789 153.545 145.867 153.545 151.06Z" fill="black"/>
<path id="Path 135" opacity="0.7" d="M342.41 262.524H325.41C325.654 261.932 325.941 261.358 326.268 260.807C328.032 257.807 330.8 255.893 333.911 255.893C337.022 255.893 339.791 257.816 341.554 260.807C341.878 261.358 342.162 261.932 342.404 262.524H342.41Z" fill="#3F3D56"/>
<path id="Path 136" opacity="0.7" d="M343.564 253.083C343.591 255.791 342.896 258.457 341.551 260.808C341.195 261.415 340.786 261.99 340.328 262.525H327.487C327.029 261.99 326.62 261.415 326.264 260.808C324.919 258.457 324.225 255.791 324.252 253.083C324.252 246.1 328.574 240.444 333.908 240.444C339.242 240.444 343.564 246.099 343.564 253.083Z" fill="#3F3D56"/>
<path id="Path 137" opacity="0.7" d="M370.129 204.449L370.056 204.549C376.483 212.695 379.971 222.773 379.956 233.149C379.956 233.883 379.956 234.617 379.904 235.342C379.91 235.55 379.899 235.758 379.87 235.964L379.844 236.393C379.835 236.649 379.814 236.904 379.78 237.157C379.754 237.41 379.737 237.706 379.703 237.977C379.669 238.248 379.634 238.642 379.591 238.977V239.084C379.561 239.329 379.527 239.573 379.491 239.814C379.48 239.986 379.455 240.157 379.418 240.325C379.318 240.994 379.195 241.66 379.062 242.316C379.028 242.505 378.985 242.694 378.942 242.882C378.899 243.07 378.865 243.268 378.818 243.461C378.771 243.654 378.718 243.89 378.659 244.122C378.647 244.193 378.63 244.263 378.608 244.332C378.552 244.568 378.492 244.8 378.432 245.032C378.372 245.264 378.338 245.388 378.282 245.568C378.213 245.834 378.136 246.1 378.054 246.368C377.972 246.636 377.895 246.892 377.814 247.153C377.528 248.103 377.199 249.036 376.827 249.953C376.707 250.253 376.587 250.558 376.462 250.859C376.368 251.091 376.269 251.318 376.17 251.541C376.114 251.67 376.058 251.798 375.998 251.927C375.938 252.056 375.861 252.24 375.788 252.395C375.715 252.55 375.603 252.824 375.505 253C375.372 253.283 375.235 253.566 375.076 253.858C374.994 254.021 374.913 254.184 374.827 254.347C374.218 255.534 373.555 256.692 372.84 257.819C372.673 258.085 372.501 258.351 372.325 258.613C372.148 258.885 371.967 259.152 371.784 259.413L371.265 260.168C370.693 260.981 370.082 261.773 369.432 262.546H297.973C297.334 261.769 296.716 260.971 296.128 260.151L295.789 259.675C295.673 259.508 295.553 259.34 295.441 259.169L295.265 258.907C295.119 258.692 294.977 258.478 294.836 258.259L294.682 258.019C294.523 257.77 294.364 257.519 294.21 257.259C293.631 256.315 293.09 255.349 292.579 254.359C292.493 254.196 292.407 254.033 292.33 253.87C292.188 253.591 292.051 253.308 291.901 253.012C291.801 252.812 291.707 252.61 291.618 252.407C291.545 252.253 291.472 252.098 291.408 251.939C291.344 251.78 291.292 251.682 291.236 251.553C291.136 251.33 291.036 251.124 290.944 250.871C290.82 250.571 290.699 250.271 290.579 249.965C290.219 249.047 289.892 248.115 289.592 247.165C289.51 246.903 289.429 246.641 289.352 246.38C289.275 246.119 289.193 245.848 289.125 245.58C289.069 245.4 289.025 245.224 288.975 245.044C288.925 244.864 288.855 244.58 288.799 244.344C288.777 244.275 288.76 244.205 288.747 244.134C288.691 243.915 288.64 243.705 288.588 243.473C288.536 243.241 288.502 243.087 288.464 242.894C288.426 242.701 288.378 242.516 288.344 242.328C288.211 241.671 288.091 241.006 287.988 240.337C287.962 240.17 287.936 239.998 287.915 239.826C287.876 239.586 287.842 239.341 287.815 239.096V238.98C287.772 238.65 287.733 238.315 287.703 237.98C287.673 237.645 287.643 237.435 287.626 237.16C287.609 236.885 287.579 236.649 287.562 236.396L287.536 235.967C287.536 235.761 287.51 235.538 287.502 235.345C287.468 234.62 287.451 233.886 287.451 233.152C287.435 222.776 290.923 212.698 297.351 204.552C297.102 204.239 296.862 203.921 296.621 203.599L296.462 203.384C296.276 203.138 296.096 202.889 295.921 202.637L295.754 202.401C295.548 202.101 295.325 201.801 295.145 201.501C295.114 201.458 295.085 201.414 295.059 201.368C294.849 201.05 294.63 200.733 294.441 200.407L294.312 200.207C294.123 199.894 293.93 199.58 293.745 199.263L293.651 199.1C293.458 198.765 293.269 198.431 293.084 198.091L293.02 197.971C292.853 197.671 292.694 197.362 292.535 197.053C292.14 196.285 291.763 195.504 291.415 194.71C291.209 194.246 290.986 193.783 290.815 193.31L290.746 193.138C290.626 192.838 290.51 192.546 290.398 192.245C290.286 191.944 290.179 191.645 290.072 191.345C289.965 191.045 289.862 190.74 289.763 190.439C289.6 189.939 289.445 189.439 289.295 188.939C289.256 188.81 289.218 188.677 289.183 188.548C289.101 188.256 289.02 187.964 288.943 187.668C288.866 187.372 288.789 187.05 288.716 186.741C288.643 186.432 288.583 186.179 288.516 185.883L288.477 185.703C288.41 185.382 288.346 185.06 288.284 184.737C288.237 184.492 288.19 184.248 288.151 183.999C288.134 183.93 288.121 183.86 288.112 183.789C288.065 183.536 288.026 183.283 287.988 183.029C287.937 182.703 287.889 182.377 287.846 182.051C287.799 181.682 287.752 181.313 287.713 180.944V180.78C287.679 180.441 287.644 180.098 287.623 179.759C287.602 179.42 287.571 179.15 287.554 178.845C287.554 178.618 287.524 178.386 287.515 178.154C287.506 177.922 287.515 177.776 287.494 177.588C287.483 177.402 287.483 177.216 287.494 177.03V175.841C287.504 170.834 288.329 165.863 289.936 161.121L325.055 172.91L292.063 155.79C293.513 152.796 295.281 149.968 297.337 147.353C295.288 144.755 293.525 141.943 292.08 138.967C291.114 136.99 290.293 134.944 289.625 132.847C288.171 128.292 287.432 123.539 287.436 118.757C287.436 117.47 287.49 116.182 287.599 114.894H347.481L339.786 120.546L350.691 114.89H379.791C379.903 116.178 379.954 117.465 379.954 118.753C379.961 125.429 378.517 132.028 375.722 138.091L348.285 137.891L373.657 142.058C372.579 143.902 371.376 145.67 370.057 147.35C376.451 155.485 379.933 165.53 379.946 175.877C379.96 186.224 376.503 196.277 370.13 204.429L370.129 204.449Z" fill="#6C63FF"/>
<path id="Path 138" opacity="0.5" d="M379.953 233.15C379.953 233.884 379.953 234.618 379.901 235.343C379.907 235.551 379.896 235.759 379.867 235.965L379.841 236.394C379.833 236.65 379.811 236.905 379.777 237.158C379.751 237.411 379.734 237.707 379.7 237.978C379.666 238.249 379.631 238.643 379.588 238.978V239.085C379.558 239.33 379.524 239.574 379.488 239.815C379.477 239.987 379.452 240.158 379.415 240.326C379.315 240.995 379.192 241.661 379.059 242.317C379.025 242.506 378.982 242.695 378.939 242.883C378.896 243.071 378.862 243.269 378.815 243.462C378.768 243.655 378.715 243.891 378.656 244.123C378.644 244.194 378.626 244.264 378.605 244.333C378.549 244.569 378.489 244.801 378.429 245.033C378.369 245.265 378.335 245.389 378.279 245.569C378.21 245.835 378.133 246.101 378.051 246.369C377.969 246.637 377.892 246.893 377.811 247.154C377.525 248.104 377.196 249.037 376.824 249.954C376.704 250.254 376.584 250.559 376.459 250.86C376.365 251.092 376.266 251.319 376.167 251.542C376.111 251.671 376.055 251.799 375.995 251.928C375.935 252.057 375.858 252.241 375.785 252.396C375.712 252.551 375.6 252.825 375.502 253.001C375.369 253.284 375.232 253.568 375.073 253.859C374.991 254.022 374.91 254.185 374.824 254.348C374.215 255.535 373.552 256.693 372.837 257.82C372.67 258.086 372.498 258.352 372.322 258.614C372.145 258.886 371.964 259.153 371.781 259.414L371.262 260.169C370.69 260.982 370.079 261.774 369.429 262.547H297.974C297.335 261.77 296.717 260.972 296.129 260.152L295.79 259.676C295.674 259.509 295.554 259.341 295.442 259.17L295.266 258.908C295.12 258.694 294.979 258.479 294.837 258.26L294.683 258.02C294.524 257.771 294.365 257.52 294.211 257.26C293.632 256.316 293.091 255.35 292.58 254.36C292.494 254.197 292.408 254.034 292.331 253.871C292.189 253.592 292.052 253.309 291.902 253.013C291.802 252.813 291.708 252.611 291.619 252.408C291.546 252.254 291.473 252.099 291.409 251.94C291.345 251.781 291.293 251.682 291.237 251.554C291.137 251.331 291.037 251.125 290.945 250.872C290.821 250.572 290.7 250.272 290.58 249.966C290.219 249.048 289.893 248.116 289.593 247.166C289.511 246.904 289.43 246.642 289.353 246.381C289.276 246.12 289.194 245.849 289.125 245.581C289.069 245.401 289.025 245.225 288.975 245.045C288.925 244.865 288.855 244.581 288.799 244.345C288.777 244.276 288.76 244.206 288.747 244.135C288.691 243.916 288.64 243.706 288.588 243.474C288.536 243.242 288.502 243.088 288.464 242.895C288.426 242.702 288.378 242.517 288.344 242.328C288.211 241.671 288.091 241.006 287.988 240.337C287.962 240.17 287.936 239.998 287.915 239.826C287.876 239.586 287.842 239.341 287.815 239.096V238.989C287.772 238.659 287.733 238.324 287.703 237.989C287.673 237.654 287.643 237.444 287.626 237.169C287.609 236.894 287.579 236.658 287.562 236.405L287.536 235.976C287.536 235.77 287.51 235.547 287.502 235.354C287.468 234.629 287.45 233.895 287.45 233.161C287.434 222.785 290.922 212.707 297.35 204.561C297.101 204.248 296.861 203.93 296.62 203.608L296.461 203.393C296.275 203.147 296.095 202.898 295.92 202.646L295.753 202.41C295.547 202.11 295.324 201.81 295.144 201.51C295.113 201.467 295.084 201.423 295.058 201.377C294.848 201.059 294.629 200.742 294.44 200.416L294.311 200.216C294.122 199.903 293.929 199.589 293.744 199.272L293.65 199.109C293.457 198.774 293.268 198.44 293.083 198.1L293.019 197.98C292.852 197.68 292.693 197.371 292.534 197.062C292.139 196.294 291.761 195.513 291.414 194.719C291.208 194.255 290.985 193.792 290.814 193.319L290.745 193.147C290.625 192.847 290.509 192.555 290.397 192.254C290.285 191.953 290.178 191.654 290.071 191.354C289.964 191.054 289.861 190.749 289.762 190.448C289.599 189.948 289.444 189.448 289.294 188.948C289.255 188.819 289.217 188.686 289.182 188.557C289.101 188.265 289.019 187.973 288.942 187.677C288.865 187.381 288.788 187.059 288.715 186.75C288.642 186.441 288.582 186.188 288.515 185.892L288.476 185.712C288.409 185.391 288.345 185.069 288.283 184.746C288.236 184.501 288.189 184.257 288.15 184.008C288.133 183.939 288.12 183.869 288.111 183.798C288.064 183.545 288.025 183.292 287.987 183.038C287.936 182.712 287.888 182.386 287.845 182.06C287.798 181.691 287.751 181.322 287.712 180.953V180.781C287.678 180.442 287.643 180.099 287.622 179.76C287.601 179.421 287.57 179.151 287.553 178.846C287.553 178.619 287.523 178.387 287.514 178.155C287.505 177.923 287.514 177.777 287.493 177.589C287.482 177.403 287.482 177.217 287.493 177.031V175.962C287.484 175.922 287.484 175.882 287.493 175.842C287.729 175.057 290.424 175.134 294.707 175.842C298.107 176.404 302.507 177.366 307.483 178.61C333.121 185.022 373.858 198.948 370.142 204.459L370.069 204.559C376.488 212.705 379.97 222.779 379.953 233.15V233.15Z" fill="black"/>
<path id="Ellipse 31" opacity="0.7" d="M251.576 155.517C253.755 153.338 254.434 150.485 253.093 149.145C251.753 147.804 248.9 148.483 246.721 150.662C244.542 152.841 243.863 155.694 245.204 157.034C246.544 158.375 249.397 157.696 251.576 155.517Z" fill="#6C63FF"/>
<path id="Ellipse 32" opacity="0.7" d="M291.488 139.636C293.667 137.457 294.346 134.604 293.005 133.264C291.665 131.923 288.812 132.602 286.633 134.781C284.454 136.96 283.775 139.813 285.116 141.154C286.456 142.494 289.309 141.815 291.488 139.636Z" fill="#6C63FF"/>
<path id="Ellipse 33" opacity="0.7" d="M382.47 167.962C384.649 165.783 385.328 162.93 383.987 161.59C382.647 160.249 379.794 160.928 377.615 163.107C375.436 165.286 374.757 168.139 376.098 169.479C377.438 170.82 380.291 170.141 382.47 167.962Z" fill="#6C63FF"/>
<path id="Ellipse 34" opacity="0.7" d="M245.494 178.301C246.616 176.773 245.512 174.056 243.028 172.232C240.544 170.409 237.621 170.17 236.499 171.699C235.378 173.227 236.482 175.944 238.965 177.767C241.449 179.591 244.372 179.83 245.494 178.301Z" fill="#6C63FF"/>
<path id="Path 139" opacity="0.7" d="M294.638 259.846C294.535 259.633 294.449 259.412 294.381 259.185C294.321 258.658 294.334 258.125 294.42 257.601V257.589C294.417 257.214 294.376 256.84 294.296 256.473C294.039 255.065 293.785 253.653 293.532 252.246C293.402 251.599 293.305 250.946 293.24 250.289C293.184 249.62 293.189 248.937 293.18 248.263C293.146 246.074 292.751 243.898 292.674 241.714C292.631 240.577 292.541 239.44 292.451 238.306C292.292 236.353 292.121 234.406 291.777 232.478C291.507 230.95 290.738 229.525 290.726 227.972L290.7 225.556C290.746 224.865 290.636 224.173 290.378 223.53C290.076 222.999 289.671 222.535 289.185 222.165L288.824 221.865C287.679 220.881 286.493 219.941 285.266 219.045C285.154 218.955 285.043 218.873 284.931 218.792C285.377 218.879 285.837 218.846 286.266 218.698C286.419 218.628 286.551 218.521 286.65 218.385C286.749 218.25 286.812 218.092 286.832 217.925C286.845 217.812 286.826 217.697 286.776 217.595C286.62 217.353 286.377 217.18 286.098 217.11C285.6 216.961 285.085 216.876 284.566 216.857H284.476C284.527 216.648 284.567 216.436 284.596 216.222C284.668 215.601 284.657 214.973 284.562 214.355C284.564 214.315 284.564 214.275 284.562 214.235C284.416 213.248 284.133 212.269 283.957 211.282C283.936 211.158 283.918 211.033 283.901 210.909C283.821 210.447 283.78 209.978 283.777 209.509C283.777 207.179 284.961 205.037 285.644 202.809C286.185 201.037 286.416 199.184 286.326 197.333C286.33 197.189 286.32 197.046 286.296 196.904C286.178 195.23 285.797 193.585 285.167 192.029C284.429 190.214 283.356 188.514 282.995 186.591C282.969 186.449 282.948 186.316 282.926 186.162V186.089C282.784 184.982 282.836 183.857 282.737 182.746V182.652C282.729 182.434 282.701 182.217 282.655 182.004C282.007 178.163 278.582 175.204 274.818 174.189C271.929 173.524 268.926 173.524 266.037 174.189C263.522 174.657 261.23 173.631 258.737 173.957C257.737 174.019 256.795 174.452 256.098 175.172C255.773 175.645 255.479 176.138 255.218 176.648C254.098 178.399 251.875 178.983 250.034 179.94C248.613 180.639 247.377 181.665 246.429 182.934C245.481 184.203 244.847 185.679 244.579 187.24C244.188 190.14 245.33 193.012 245.502 195.931C245.566 197.143 245.49 198.358 245.275 199.553C244.756 202.019 244.072 204.448 243.228 206.823C242.852 207.798 242.659 208.834 242.657 209.879C242.723 210.589 242.882 211.287 243.129 211.956C243.49 213.056 243.897 214.14 244.365 215.201C243.497 215.554 242.587 215.792 241.657 215.909C240.7 215.898 239.752 216.086 238.872 216.463C238.49 216.703 238.16 217.017 237.902 217.386C237.509 217.934 237.229 218.555 237.078 219.212C236.927 219.869 236.908 220.549 237.022 221.214C236.851 221.322 236.711 221.473 236.614 221.651C236.518 221.829 236.47 222.029 236.473 222.231C236.473 222.631 236.542 223.038 236.559 223.441C236.529 224.205 236.384 224.96 236.13 225.681C235.454 228.155 235.286 230.74 235.636 233.281C235.808 234.543 235.936 235.796 236.036 237.053C236.263 239.853 236.354 242.653 236.465 245.486C236.416 248.177 236.53 250.869 236.808 253.546C236.884 254.451 237.283 255.298 237.932 255.932C238.099 256.048 238.258 256.176 238.408 256.314C238.722 256.789 238.907 257.338 238.944 257.906C239.153 258.669 239.619 259.336 240.263 259.795C240.908 260.254 241.691 260.477 242.48 260.425V260.425L241.759 262.506H286.251C286.204 262.101 286.204 261.692 286.251 261.287V261.313C286.476 261.67 286.591 262.084 286.582 262.506H295.058C295.101 261.6 294.958 260.695 294.638 259.846V259.846Z" fill="url(#paint1_linear)"/>
<path id="Path 140" opacity="0.7" d="M258.923 174.471C257.927 174.524 256.989 174.955 256.301 175.677C255.985 176.148 255.699 176.639 255.443 177.145C254.336 178.883 252.13 179.463 250.293 180.411C248.883 181.107 247.658 182.127 246.716 183.387C245.775 184.646 245.145 186.111 244.877 187.66C244.495 190.54 245.624 193.394 245.796 196.295C246.019 199.995 244.676 203.595 243.539 207.114C243.165 208.082 242.973 209.11 242.972 210.148C243.036 210.855 243.193 211.551 243.44 212.217C244.411 215.413 245.959 218.405 248.006 221.045C250.075 223.695 252.955 225.595 256.206 226.453C257.694 226.757 259.207 226.918 260.725 226.934C263.048 227.02 265.372 227.061 267.695 227.058C268.972 227.094 270.249 227.009 271.51 226.805C274.167 226.29 276.51 224.784 278.784 223.305C281.398 221.588 284.269 219.524 284.664 216.438C284.947 214.206 283.831 212.018 283.831 209.769C283.831 207.456 285.007 205.327 285.685 203.113C286.753 199.599 286.587 195.825 285.213 192.418C284.479 190.618 283.413 188.929 283.067 187.018C282.788 185.518 282.96 183.971 282.711 182.473C282.072 178.653 278.668 175.718 274.93 174.705C272.062 174.046 269.082 174.046 266.214 174.705C263.691 175.18 261.412 174.145 258.923 174.471Z" fill="#3F3D56"/>
<path id="Path 141" opacity="0.7" d="M259.713 206.462C260.271 208.888 259.848 211.436 258.537 213.552C257.843 214.558 256.993 215.446 256.018 216.183C254.538 217.386 252.855 218.317 251.048 218.93C252.175 219.816 253.479 220.449 254.872 220.788C255.943 221.018 257.034 221.151 258.129 221.183C263.632 221.475 269.151 221.274 274.618 220.583C276.467 220.487 278.26 219.92 279.828 218.935C279.959 218.855 280.062 218.734 280.12 218.592C280.227 218.227 279.794 217.952 279.438 217.832C277.674 217.232 275.777 216.884 274.254 215.811C271.919 214.176 270.945 211.167 270.735 208.322C270.525 205.477 270.935 202.61 270.658 199.769C266.89 199.715 263.123 199.825 259.358 200.099C258.929 200.129 257.036 200.022 256.813 200.387C256.59 200.752 257.613 201.795 257.873 202.187C258.747 203.483 259.371 204.932 259.714 206.457L259.713 206.462Z" fill="#FBBEBE"/>
<path id="Ellipse 35" opacity="0.1" d="M264.931 206.552C272.042 206.552 277.806 200.788 277.806 193.677C277.806 186.566 272.042 180.802 264.931 180.802C257.82 180.802 252.056 186.566 252.056 193.677C252.056 200.788 257.82 206.552 264.931 206.552Z" fill="black"/>
<path id="Ellipse 36" opacity="0.7" d="M264.931 206.097C272.042 206.097 277.806 200.333 277.806 193.222C277.806 186.111 272.042 180.347 264.931 180.347C257.82 180.347 252.056 186.111 252.056 193.222C252.056 200.333 257.82 206.097 264.931 206.097Z" fill="#FBBEBE"/>
<path id="Path 142" opacity="0.7" d="M283.004 240.61C281.835 244.902 281.407 249.362 281.738 253.798C282.021 256.605 282.978 259.652 283.098 262.523H251.198C251.198 261.03 251.198 259.489 251.172 257.948V257.034V255.845V252.296C251.209 250.208 251.135 248.119 250.953 246.039C250.547 242.34 249.69 238.705 248.399 235.215C248.309 234.957 248.219 234.7 248.124 234.447C248.112 234.42 248.102 234.393 248.094 234.365C247.994 234.107 247.901 233.85 247.802 233.588C246.248 229.464 244.476 225.176 245.326 220.888C245.506 220.018 245.794 219.175 246.184 218.377C246.89 216.898 247.914 215.593 249.184 214.557L249.308 214.457C249.75 214.112 250.218 213.802 250.708 213.53C250.957 213.39 251.214 213.262 251.476 213.148L251.576 213.105C252.17 212.844 252.808 212.698 253.456 212.676C255.078 212.818 256.62 213.445 257.881 214.476L257.988 214.549L258.168 214.665L258.374 214.802C258.906 215.154 259.447 215.502 259.992 215.841L260.254 216C261.77 216.963 263.401 217.731 265.108 218.287C266.383 218.726 267.732 218.909 269.077 218.825C270.423 218.741 271.739 218.392 272.949 217.798C273.405 217.538 273.836 217.237 274.236 216.898C274.489 216.692 274.731 216.472 274.961 216.241C275.471 215.737 275.948 215.201 276.39 214.636C277.012 215.855 278.373 216.353 279.501 217.142C280.732 218.029 281.722 219.209 282.381 220.575C282.57 220.944 282.737 221.322 282.887 221.704C283.533 223.517 283.965 225.4 284.175 227.313C284.488 229.189 284.613 231.091 284.548 232.991C284.254 235.571 283.738 238.12 283.004 240.61Z" fill="#3F3D56"/>
<path id="Rectangle 29" opacity="0.7" d="M255.114 215.558L256.541 215.221C258.099 214.853 259.064 213.29 258.696 211.732L254.961 195.933C254.593 194.375 253.031 193.41 251.472 193.778L250.045 194.115C248.487 194.484 247.522 196.046 247.89 197.605L251.625 213.403C251.993 214.962 253.555 215.927 255.114 215.558Z" fill="#6C63FF"/>
<path id="Rectangle 30" opacity="0.7" d="M255.013 215.586L255.913 215.373C257.471 215.005 258.436 213.442 258.068 211.884L254.333 196.085C253.965 194.527 252.403 193.562 250.844 193.93L249.944 194.143C248.385 194.511 247.42 196.074 247.789 197.632L251.523 213.431C251.892 214.99 253.454 215.954 255.013 215.586Z" fill="#EDEDF4"/>
<path id="Ellipse 37" opacity="0.7" d="M251.402 200.225C251.749 200.143 251.868 199.396 251.67 198.557C251.471 197.717 251.03 197.103 250.684 197.185C250.338 197.267 250.218 198.014 250.416 198.853C250.615 199.693 251.056 200.307 251.402 200.225Z" fill="#6C63FF"/>
<path id="Path 143" opacity="0.7" d="M263.872 262.524H242.109L242.847 260.378H242.821C242.037 260.431 241.259 260.211 240.619 259.755C239.979 259.3 239.516 258.636 239.31 257.878C239.275 257.312 239.091 256.766 238.778 256.294C238.622 256.152 238.455 256.023 238.278 255.908C237.628 255.281 237.232 254.436 237.166 253.535C236.896 250.875 236.783 248.201 236.827 245.527C236.698 242.527 236.604 239.574 236.342 236.609C236.248 235.54 236.132 234.463 235.986 233.399C235.64 230.875 235.809 228.307 236.48 225.85C236.734 225.135 236.879 224.385 236.909 223.627C236.909 223.227 236.802 222.827 236.823 222.427C236.82 222.226 236.868 222.027 236.964 221.85C237.059 221.672 237.198 221.522 237.368 221.414C237.253 220.755 237.269 220.08 237.417 219.428C237.564 218.776 237.839 218.159 238.226 217.614C238.481 217.246 238.808 216.934 239.187 216.696C240.062 216.329 241.002 216.143 241.951 216.147C242.874 216.033 243.777 215.798 244.638 215.447V215.447C244.938 215.327 245.238 215.198 245.538 215.061C246.585 214.58 247.607 213.997 248.632 213.443L248.847 213.327C249.606 212.902 250.388 212.521 251.19 212.185L251.29 212.146C252.227 211.747 253.218 211.489 254.23 211.378C255.222 211.312 256.217 211.337 257.204 211.451C257.483 211.473 257.753 211.558 257.994 211.7C258.359 211.934 258.661 212.254 258.874 212.631V212.631C258.904 212.683 258.934 212.731 258.964 212.785C259.339 213.557 259.616 214.373 259.788 215.214C259.84 215.424 259.888 215.643 259.93 215.841C260.03 216.347 260.123 216.854 260.196 217.365C260.384 218.654 260.502 219.952 260.548 221.253C260.63 223.128 260.608 225.021 260.6 226.901V227.845C260.603 228.769 260.73 229.689 260.978 230.579C261.535 233.035 261.822 235.545 261.836 238.064C262.122 243.946 262.714 249.809 263.609 255.63C263.776 256.724 263.952 257.814 264.009 258.917C264.075 260.121 264.029 261.328 263.872 262.524V262.524Z" fill="#F86D70"/>
<path id="Path 144" opacity="0.7" d="M259.172 231.043C259.65 231.578 260.082 232.153 260.463 232.761C260.639 233.049 260.781 233.469 260.523 233.688C260.385 233.781 260.221 233.826 260.055 233.817L256.982 233.946C256.521 233.998 256.054 233.956 255.609 233.822C255.022 233.534 254.527 233.088 254.18 232.535L252.82 230.758C252.426 230.316 252.133 229.793 251.962 229.226C251.89 228.941 251.912 228.64 252.024 228.368C252.136 228.096 252.332 227.867 252.584 227.715C253.078 227.555 253.615 227.591 254.084 227.815C255.068 228.053 256.02 228.408 256.921 228.871C257.765 229.493 258.524 230.224 259.178 231.043H259.172Z" fill="#F86D70"/>
<path id="Path 145" opacity="0.1" d="M259.172 231.043C259.65 231.578 260.082 232.153 260.463 232.761C260.639 233.049 260.781 233.469 260.523 233.688C260.385 233.781 260.221 233.826 260.055 233.817L256.982 233.946C256.521 233.998 256.054 233.956 255.609 233.822C255.022 233.534 254.527 233.088 254.18 232.535L252.82 230.758C252.426 230.316 252.133 229.793 251.962 229.226C251.89 228.941 251.912 228.64 252.024 228.368C252.136 228.096 252.332 227.867 252.584 227.715C253.078 227.555 253.615 227.591 254.084 227.815C255.068 228.053 256.02 228.408 256.921 228.871C257.765 229.493 258.524 230.224 259.178 231.043H259.172Z" fill="black"/>
<path id="Path 146" opacity="0.1" d="M257.43 231.25C257.804 229.25 258.317 227.278 258.966 225.35C259.327 224.425 259.586 223.464 259.739 222.483C259.821 221.715 259.739 220.938 259.816 220.165C259.876 219.5 260.039 218.847 260.138 218.187C260.333 216.846 260.252 215.479 259.898 214.17C259.619 213.127 259.898 211.87 259.22 211.02C258.95 210.677 258.585 210.411 258.306 210.076C258.152 209.92 258.039 209.728 257.978 209.517C257.917 209.307 257.91 209.084 257.958 208.87C258.91 209.088 259.894 209.12 260.858 208.964C261.145 208.932 261.421 208.835 261.665 208.681C261.786 208.602 261.882 208.492 261.942 208.361C262.003 208.231 262.026 208.086 262.008 207.943C261.962 207.806 261.889 207.68 261.794 207.572C261.699 207.464 261.583 207.375 261.454 207.312C260.6 206.786 259.641 206.455 258.644 206.345C257.647 206.234 256.638 206.346 255.69 206.672C255.657 206.595 255.654 206.509 255.681 206.43C255.708 206.35 255.763 206.284 255.836 206.243C255.969 206.168 256.114 206.119 256.265 206.097C256.748 205.989 257.197 205.762 257.572 205.438C257.946 205.114 258.234 204.702 258.411 204.239C258.479 204.106 258.494 203.953 258.454 203.81C258.347 203.488 257.892 203.51 257.561 203.587L255.788 204.016C255.444 204.083 255.111 204.196 254.797 204.351C254.411 204.587 254.068 204.886 253.78 205.235C252.788 206.186 251.977 207.308 251.385 208.548C251.158 209.123 251.02 209.733 250.78 210.303C250.566 210.89 250.153 211.384 249.613 211.698C249.335 211.852 249.112 212.089 248.976 212.376C248.839 212.663 248.796 212.985 248.853 213.298C248.991 213.936 249.268 214.535 249.664 215.053C250.323 216.083 251.068 217.055 251.891 217.958C252.491 218.5 253.007 219.129 253.419 219.825C253.672 220.34 253.78 220.911 254.003 221.439C254.126 221.682 254.219 221.938 254.282 222.203C254.31 222.394 254.31 222.587 254.282 222.778C253.909 225.671 251.763 228.031 250.96 230.838C250.91 230.975 250.892 231.122 250.908 231.267C250.941 231.396 250.999 231.518 251.08 231.625C251.16 231.732 251.261 231.822 251.376 231.889C253.004 232.979 254.807 233.781 256.706 234.262C257.025 233.278 257.268 232.271 257.43 231.25V231.25Z" fill="black"/>
<path id="Path 147" opacity="0.7" d="M257.168 231.118C257.542 229.118 258.056 227.147 258.704 225.218C259.067 224.296 259.326 223.336 259.476 222.356C259.558 221.588 259.476 220.807 259.553 220.038C259.613 219.373 259.776 218.72 259.875 218.06C260.072 216.718 259.992 215.349 259.639 214.039C259.356 213 259.639 211.739 258.957 210.889C258.687 210.546 258.326 210.284 258.043 209.949C257.888 209.794 257.775 209.602 257.715 209.391C257.655 209.18 257.65 208.957 257.7 208.743C258.649 208.959 259.632 208.99 260.593 208.833C260.88 208.802 261.156 208.707 261.4 208.554C261.52 208.475 261.616 208.364 261.677 208.234C261.737 208.103 261.76 207.959 261.743 207.816C261.698 207.679 261.626 207.552 261.531 207.444C261.436 207.335 261.319 207.247 261.189 207.185C260.336 206.658 259.377 206.327 258.381 206.216C257.385 206.105 256.377 206.216 255.429 206.541C255.393 206.465 255.387 206.378 255.414 206.298C255.44 206.218 255.496 206.151 255.571 206.112C255.704 206.038 255.85 205.989 256 205.966C256.484 205.857 256.933 205.63 257.307 205.305C257.682 204.98 257.97 204.568 258.146 204.104C258.211 203.971 258.225 203.818 258.185 203.675C258.078 203.357 257.623 203.375 257.292 203.456L255.52 203.885C255.178 203.957 254.845 204.07 254.529 204.22C254.144 204.458 253.801 204.756 253.512 205.104C252.522 206.055 251.712 207.177 251.122 208.417C250.89 208.992 250.753 209.601 250.513 210.172C250.301 210.76 249.888 211.255 249.346 211.567C249.068 211.722 248.845 211.96 248.709 212.248C248.573 212.536 248.53 212.859 248.586 213.172C248.724 213.81 249.001 214.409 249.397 214.927C250.057 215.957 250.804 216.929 251.629 217.832C252.227 218.375 252.741 219.004 253.153 219.699C253.406 220.214 253.513 220.785 253.737 221.308C253.86 221.551 253.954 221.808 254.02 222.072C254.048 222.264 254.048 222.459 254.02 222.651C253.647 225.544 251.505 227.9 250.702 230.707C250.651 230.844 250.632 230.991 250.646 231.136C250.715 231.397 250.883 231.62 251.114 231.758C252.743 232.846 254.545 233.649 256.444 234.131C256.763 233.147 257.005 232.14 257.168 231.118V231.118Z" fill="#FBBEBE"/>
<path id="Path 148" opacity="0.7" d="M258.348 230.388C258.411 230.417 258.463 230.465 258.498 230.525C258.524 230.6 258.524 230.682 258.498 230.757C258.069 232.046 257.505 233.286 256.816 234.457C255.434 233.699 254.082 232.885 252.76 232.015C252.429 231.832 252.149 231.568 251.949 231.247C250.005 227.491 257.056 229.641 258.348 230.388Z" fill="#3F3D56"/>
<path id="Path 149" opacity="0.1" d="M250.58 232.212C250.125 232.821 249.597 233.371 249.147 233.984C248.399 235.124 247.736 236.317 247.164 237.555C246.332 239.144 245.326 240.635 244.164 242.001C242.992 243.379 241.589 244.786 241.464 246.589C241.475 246.846 241.419 247.102 241.301 247.331C241.141 247.494 240.962 247.638 240.769 247.76C240.597 247.919 240.499 248.215 240.669 248.374C239.995 248.443 239.72 249.232 239.592 249.915L239.292 251.439C239.196 251.835 239.147 252.241 239.146 252.649C239.188 253.202 239.321 253.745 239.541 254.254C240.246 256.129 241.165 257.916 242.279 259.58C242.756 260.417 243.462 261.1 244.313 261.55C245.141 261.83 246.022 261.914 246.888 261.795C248.124 261.718 249.566 261.516 250.188 260.439C250.578 259.757 250.518 258.873 250.948 258.207C251.198 257.888 251.47 257.587 251.763 257.307C252.225 256.716 252.567 256.041 252.772 255.32C253.905 252.085 254.811 248.776 255.484 245.415C255.664 244.279 255.966 243.165 256.384 242.093C256.855 241.139 257.408 240.227 258.036 239.368C259.136 237.699 259.323 236.257 260.066 234.407C258.384 234.016 257.607 232.901 256.178 231.956C254.826 231.063 252.831 229.166 251.406 228.48C250.958 229.654 251.353 231.169 250.58 232.212Z" fill="black"/>
<path id="Path 150" opacity="0.1" d="M249.576 231.297C249.121 231.906 248.593 232.46 248.143 233.069C247.395 234.209 246.733 235.404 246.165 236.644C245.329 238.23 244.323 239.721 243.165 241.09C241.989 242.468 240.59 243.875 240.465 245.678C240.476 245.936 240.42 246.192 240.302 246.421C240.146 246.588 239.967 246.733 239.77 246.85C239.598 246.992 239.5 247.305 239.67 247.464C239 247.533 238.722 248.322 238.593 249L238.293 250.524C238.2 250.922 238.151 251.33 238.147 251.739C238.189 252.292 238.322 252.835 238.542 253.344C239.252 255.213 240.175 256.995 241.293 258.653C241.771 259.489 242.477 260.172 243.327 260.623C244.155 260.901 245.036 260.985 245.902 260.868C247.138 260.787 248.584 260.589 249.202 259.512C249.597 258.825 249.532 257.946 249.962 257.28C250.211 256.96 250.483 256.659 250.777 256.38C251.238 255.791 251.581 255.117 251.785 254.397C252.918 251.162 253.825 247.852 254.502 244.492C254.677 243.355 254.976 242.241 255.395 241.17C255.866 240.214 256.419 239.301 257.047 238.441C258.147 236.776 258.086 235.784 258.847 233.935C257.165 233.549 256.62 231.978 255.186 231.029C253.834 230.141 251.838 228.239 250.414 227.557C249.932 228.744 250.327 230.259 249.576 231.297Z" fill="black"/>
<path id="Path 151" opacity="0.7" d="M250.125 231.752C249.67 232.361 249.142 232.915 248.692 233.525C247.944 234.666 247.281 235.861 246.709 237.1C245.877 238.689 244.871 240.18 243.709 241.546C242.537 242.924 241.134 244.331 241.009 246.134C241.02 246.391 240.964 246.647 240.846 246.876C240.686 247.039 240.507 247.183 240.314 247.305C240.142 247.464 240.039 247.76 240.214 247.919C239.544 247.988 239.266 248.777 239.137 249.46L238.837 250.984C238.745 251.381 238.697 251.787 238.695 252.194C238.737 252.747 238.87 253.29 239.09 253.799C239.803 255.675 240.731 257.462 241.854 259.125C242.331 259.962 243.037 260.645 243.888 261.095C244.716 261.376 245.597 261.46 246.463 261.34C247.703 261.258 249.145 261.061 249.763 259.984C250.154 259.297 250.093 258.418 250.523 257.752C250.773 257.433 251.045 257.132 251.338 256.852C251.797 256.26 252.14 255.585 252.347 254.865C253.477 251.631 254.381 248.322 255.052 244.962C255.23 243.826 255.529 242.712 255.945 241.64C256.418 240.686 256.973 239.774 257.602 238.915C258.704 237.245 259.644 235.473 260.409 233.623C258.74 233.199 257.161 232.481 255.744 231.503C254.392 230.61 252.396 228.709 250.972 228.027C250.503 229.197 250.898 230.714 250.125 231.752Z" fill="#F86D70"/>
<path id="Ellipse 38" opacity="0.7" d="M254.451 234.01C254.954 234.01 255.361 233.603 255.361 233.1C255.361 232.597 254.954 232.19 254.451 232.19C253.948 232.19 253.541 232.597 253.541 233.1C253.541 233.603 253.948 234.01 254.451 234.01Z" fill="#3F3D56"/>
<path id="Ellipse 39" opacity="0.7" d="M251.602 238.452C252.105 238.452 252.512 238.045 252.512 237.542C252.512 237.039 252.105 236.632 251.602 236.632C251.099 236.632 250.692 237.039 250.692 237.542C250.692 238.045 251.099 238.452 251.602 238.452Z" fill="#3F3D56"/>
<path id="Ellipse 40" opacity="0.7" d="M248.64 243.01C249.143 243.01 249.55 242.603 249.55 242.1C249.55 241.597 249.143 241.19 248.64 241.19C248.137 241.19 247.73 241.597 247.73 242.1C247.73 242.603 248.137 243.01 248.64 243.01Z" fill="#3F3D56"/>
<path id="Path 152" opacity="0.7" d="M295.022 262.524H286.636C286.656 262.068 286.53 261.617 286.276 261.237V261.314C286.235 261.711 286.244 262.112 286.302 262.507H275.776C275.784 261.297 275.914 260.091 276.162 258.907C276.508 256.997 276.705 255.063 276.75 253.122C276.802 250.727 276.626 248.333 276.613 245.938C276.601 243.564 276.753 241.191 277.068 238.838C277.507 236.697 277.628 234.504 277.429 232.328C277.034 229.92 276.695 227.483 276.39 225.062C276.385 224.974 276.373 224.886 276.356 224.8C276.309 224.352 276.219 223.909 276.086 223.478C275.961 223.113 275.786 222.77 275.627 222.418C275.345 221.808 275.104 221.18 274.906 220.538C274.545 219.346 274.313 218.119 274.215 216.877C274.155 216.169 273.181 215.534 273.151 214.821C273.149 214.807 273.149 214.792 273.151 214.778C274.546 214.495 277.014 214.147 278.365 214.632C279.716 215.117 280.704 216.301 282.052 216.748C282.862 216.956 283.696 217.057 284.533 217.048C285.078 217.062 285.619 217.149 286.142 217.306C286.421 217.371 286.663 217.544 286.816 217.787C286.833 217.818 286.845 217.852 286.85 217.887C286.889 218.09 286.856 218.301 286.757 218.483C286.659 218.665 286.5 218.808 286.309 218.887C285.984 219.012 285.633 219.054 285.288 219.011V219.011L284.988 218.981C286.295 219.937 287.569 220.937 288.808 221.981L289.208 222.324C289.688 222.691 290.088 223.153 290.384 223.68C290.64 224.32 290.75 225.009 290.706 225.697C290.706 226.497 290.706 227.297 290.706 228.097C290.706 229.638 291.483 231.054 291.753 232.573C292.092 234.487 292.259 236.436 292.418 238.362C292.508 239.491 292.598 240.619 292.641 241.748C292.731 243.92 293.109 246.083 293.141 248.258C293.141 248.927 293.141 249.597 293.201 250.266C293.261 250.935 293.373 251.554 293.489 252.21C293.742 253.61 293.995 255.01 294.253 256.41C294.329 256.774 294.37 257.145 294.377 257.517C294.292 258.043 294.278 258.579 294.334 259.109C294.402 259.334 294.488 259.554 294.591 259.766C294.923 260.645 295.067 261.583 295.012 262.521L295.022 262.524Z" fill="#F86D70"/>
<path id="Ellipse 41" opacity="0.7" d="M265.446 187.921C272.241 187.921 277.75 185.779 277.75 183.136C277.75 180.493 272.241 178.351 265.446 178.351C258.651 178.351 253.142 180.493 253.142 183.136C253.142 185.779 258.651 187.921 265.446 187.921Z" fill="#3F3D56"/>
<path id="Path 153" opacity="0.7" d="M277.583 190.84C277.558 190.407 277.457 189.981 277.283 189.583V189.583C277.188 189.369 277.067 189.168 276.923 188.983C275.378 186.992 271.723 187.721 271.723 187.721C271.437 187.607 271.143 187.514 270.843 187.442C270.317 187.295 269.767 187.255 269.226 187.324C268.684 187.393 268.162 187.569 267.689 187.842C266.989 188.269 266.42 188.881 266.045 189.61C265.942 189.88 265.856 190.157 265.787 190.438C265.728 190.674 265.682 190.914 265.65 191.155C265.221 194.408 267.65 196.387 269.195 197.301C269.774 197.641 270.423 197.843 271.093 197.893C271.762 197.943 272.434 197.839 273.057 197.589C274.216 197.141 275.238 196.397 276.022 195.433C276.805 194.468 277.324 193.315 277.525 192.089C277.556 191.854 277.574 191.618 277.577 191.381V191.381C277.593 191.201 277.595 191.02 277.583 190.84V190.84ZM275.969 192.166C275.81 193.177 275.393 194.131 274.758 194.934C274.122 195.736 273.291 196.362 272.343 196.749C271.834 196.959 271.284 197.047 270.735 197.005C270.186 196.963 269.655 196.793 269.184 196.509C267.738 195.651 265.352 193.591 266.609 190.109C266.802 189.697 267.077 189.328 267.415 189.025C267.754 188.721 268.151 188.489 268.581 188.341C269.012 188.194 269.467 188.135 269.921 188.167C270.375 188.2 270.818 188.323 271.223 188.53C271.24 188.527 276.559 187.437 275.97 192.166H275.969Z" fill="#F86D70"/>
<path id="Path 154" opacity="0.7" d="M271.24 188.531C271.24 188.531 276.562 187.437 275.961 192.166C275.802 193.177 275.385 194.131 274.75 194.934C274.114 195.736 273.283 196.362 272.335 196.749C271.908 196.928 271.45 197.02 270.987 197.019V197.019C270.349 197.017 269.723 196.842 269.176 196.512C267.73 195.654 265.344 193.589 266.601 190.105C266.801 189.696 267.08 189.331 267.422 189.03C267.764 188.73 268.162 188.5 268.593 188.353C269.024 188.207 269.48 188.147 269.934 188.178C270.389 188.208 270.832 188.328 271.24 188.531V188.531Z" fill="#3F3D56"/>
<path id="Path 155" opacity="0.1" d="M271.24 188.531C271.24 188.531 276.562 187.437 275.961 192.166C275.802 193.177 275.385 194.131 274.75 194.934C274.114 195.736 273.283 196.362 272.335 196.749C271.908 196.928 271.45 197.02 270.987 197.019V197.019C270.349 197.017 269.723 196.842 269.176 196.512C267.73 195.654 265.344 193.589 266.601 190.105C266.801 189.696 267.08 189.331 267.422 189.03C267.764 188.73 268.162 188.5 268.593 188.353C269.024 188.207 269.48 188.147 269.934 188.178C270.389 188.208 270.832 188.328 271.24 188.531V188.531Z" fill="url(#paint2_radial)"/>
<path id="Path 156" opacity="0.7" d="M264.215 191.149C264.183 190.908 264.137 190.668 264.078 190.432C264.009 190.151 263.923 189.874 263.82 189.604C263.408 188.806 262.765 188.151 261.975 187.724C261.231 187.343 260.385 187.206 259.559 187.333C259.073 187.4 258.598 187.527 258.143 187.711C258.143 187.711 254.491 186.981 252.943 188.973C252.799 189.157 252.677 189.359 252.582 189.573V189.573C252.408 189.971 252.307 190.397 252.282 190.83C252.269 191.006 252.269 191.182 252.282 191.358V191.358C252.288 192.087 252.434 192.808 252.711 193.482V193.512C253.063 194.411 253.596 195.228 254.277 195.912C254.535 196.177 254.813 196.421 255.11 196.642C255.626 197.024 256.189 197.34 256.784 197.582C257.407 197.833 258.079 197.937 258.749 197.887C259.418 197.837 260.067 197.634 260.646 197.294C262.215 196.385 264.644 194.402 264.215 191.149ZM260.679 196.509C260.208 196.793 259.677 196.963 259.128 197.005C258.579 197.047 258.029 196.959 257.52 196.749C256.572 196.362 255.74 195.736 255.103 194.934C254.467 194.131 254.049 193.178 253.889 192.166C253.301 187.445 258.61 188.527 258.61 188.527C259.015 188.321 259.458 188.199 259.912 188.167C260.365 188.135 260.82 188.194 261.251 188.342C261.681 188.489 262.077 188.721 262.416 189.024C262.755 189.327 263.03 189.695 263.224 190.106C264.511 193.59 262.125 195.633 260.678 196.509H260.679Z" fill="#F86D70"/>
<path id="Path 157" opacity="0.7" d="M258.623 188.531C258.623 188.531 253.301 187.437 253.902 192.166C254.062 193.178 254.481 194.131 255.117 194.934C255.753 195.736 256.585 196.362 257.533 196.749C257.96 196.928 258.418 197.02 258.881 197.019V197.019C259.519 197.017 260.146 196.842 260.692 196.512C262.138 195.654 264.524 193.589 263.267 190.105C263.066 189.696 262.786 189.331 262.444 189.031C262.101 188.731 261.703 188.501 261.272 188.355C260.84 188.208 260.384 188.149 259.93 188.179C259.475 188.209 259.031 188.329 258.623 188.531V188.531Z" fill="#3F3D56"/>
<path id="Path 158" opacity="0.1" d="M258.623 188.531C258.623 188.531 253.301 187.437 253.902 192.166C254.062 193.178 254.481 194.131 255.117 194.934C255.753 195.736 256.585 196.362 257.533 196.749C257.96 196.928 258.418 197.02 258.881 197.019V197.019C259.519 197.017 260.146 196.842 260.692 196.512C262.138 195.654 264.524 193.589 263.267 190.105C263.066 189.696 262.786 189.331 262.444 189.031C262.101 188.731 261.703 188.501 261.272 188.355C260.84 188.208 260.384 188.149 259.93 188.179C259.475 188.209 259.031 188.329 258.623 188.531V188.531Z" fill="url(#paint3_radial)"/>
<path id="Rectangle 31" opacity="0.7" d="M266.189 190.437H263.691V191.149H266.189V190.437Z" fill="#F86D70"/>
</g>
<g id="human">
<path id="Ellipse 10" opacity="0.1" d="M95.867 350C124.917 350 148.466 344.045 148.466 336.7C148.466 329.355 124.917 323.4 95.867 323.4C66.8174 323.4 43.268 329.355 43.268 336.7C43.268 344.045 66.8174 350 95.867 350Z" fill="#6C63FF"/>
<path id="Path 159" d="M156.25 306.783C155.241 304.826 153.01 303.856 150.928 303.092C148.846 302.328 146.636 301.592 144.448 300.946C147.047 298.477 149.295 295.665 151.13 292.586C152.294 290.906 153.194 289.057 153.799 287.105C154.401 285.132 154.198 283.001 153.233 281.178C152.55 280.165 151.646 279.319 150.59 278.704C149.533 278.09 148.352 277.722 147.133 277.629C144.691 277.457 142.238 277.671 139.863 278.264C138.146 278.607 136.43 278.965 134.713 279.337C135.717 278.852 136.695 278.315 137.644 277.728C141.131 275.457 144.348 272.797 147.236 269.801C148.167 268.874 149.154 267.784 149.129 266.475C149.075 265.868 148.848 265.289 148.476 264.806C148.104 264.324 147.602 263.957 147.029 263.75C145.865 263.353 144.611 263.304 143.42 263.608C141.807 263.952 140.281 264.62 138.934 265.573C137.588 266.526 136.449 267.742 135.588 269.149C135.085 270.189 134.455 271.163 133.713 272.049C133.277 272.565 132.658 272.891 131.986 272.958C131.314 273.025 130.642 272.828 130.113 272.409C129.737 271.991 129.464 271.492 129.313 270.95L129.369 270.877C130.386 269.273 130.997 267.446 131.152 265.553C131.307 263.66 131 261.758 130.257 260.01C129.039 257.378 127.416 254.954 125.446 252.826C127.121 251.646 128.947 250.696 130.875 250.002C131.408 249.848 131.915 249.612 132.375 249.302C132.794 248.907 133.12 248.424 133.329 247.888C133.538 247.352 133.626 246.776 133.585 246.202C133.499 245.076 133.524 243.945 133.662 242.824C134.815 243.185 136.016 243.369 137.224 243.369C139.494 243.374 141.716 242.719 143.621 241.485C145.525 240.251 147.03 238.49 147.953 236.416C150.099 235.953 152.079 234.916 153.682 233.416C155.57 231.506 156.733 227.798 154.716 225.562C153.958 224.929 153.122 224.396 152.227 223.978C151.027 223.127 149.994 222.061 149.18 220.836C145.193 215.467 139.48 214.476 133.048 215.192C130.143 215.436 127.291 216.122 124.593 217.226C122.558 218.193 120.624 219.358 118.816 220.702C118.524 220.908 118.228 221.131 117.958 221.333C117.439 219.733 116.743 218.166 116.331 216.904C116.118 216.387 116.028 215.827 116.069 215.269C116.337 214.338 116.952 213.546 117.786 213.054L128.691 204.505C129.838 203.553 131.062 202.698 132.352 201.951C136.112 199.917 140.867 199.672 144.017 196.801C144.924 195.966 145.646 194.949 146.135 193.817C146.625 192.685 146.871 191.463 146.858 190.23C146.824 188.457 146 186.47 144.283 185.981C142.483 185.466 140.721 186.792 139.33 188.032C134.87 192.216 130.127 196.087 125.134 199.619C120.319 202.825 115.014 205.387 110.734 209.258C109.952 209.914 109.28 210.69 108.743 211.558C108.216 212.604 107.853 213.724 107.666 214.88L106.778 219.06C106.061 222.425 105.49 226.326 107.529 229.025C107.401 229.28 107.294 229.546 107.211 229.819C106.902 230.862 107.469 231.965 107.211 232.875C106.928 233.896 105.37 235.021 104.675 235.832C103.714 236.948 102.787 238.102 101.903 239.265C98.491 243.895 95.5589 248.86 93.152 254.084C89.6245 261.99 86.5495 270.09 83.942 278.345C83.3802 279.772 83.0458 281.278 82.951 282.808C82.9558 284.198 83.361 285.557 84.118 286.722C83.38 291.069 81.518 295.222 81.453 299.674L80.779 299.974C80.487 304.107 82.496 308.227 84.212 311.991C85.203 314.137 86.396 316.45 88.602 317.33C89.761 317.701 90.9803 317.847 92.194 317.759C93.606 317.759 94.906 317.785 96.194 317.815H96.031C94.486 318.072 92.769 318.673 92.168 320.102C91.9187 320.877 91.8584 321.699 91.992 322.502C92.49 328.141 92.9863 333.781 93.481 339.42C93.4573 340.685 93.8494 341.923 94.597 342.943C95.4617 343.727 96.5657 344.195 97.73 344.273C99.8778 344.603 102.062 344.622 104.215 344.329C105.12 344.266 105.993 343.97 106.751 343.471C107.122 343.217 107.402 342.851 107.548 342.425C107.694 342 107.699 341.539 107.562 341.111C107.062 339.931 105.39 339.763 104.562 338.789C103.472 337.531 104.197 335.609 104.957 334.132C105.073 333.905 105.21 333.664 105.352 333.42C106.108 334.553 107.008 335.583 108.03 336.484C108.402 336.889 108.885 337.174 109.419 337.306C109.952 337.437 110.513 337.408 111.03 337.222C113.407 335.983 115.799 334.767 118.206 333.574L118.764 333.651C123.43 334.289 128.14 334.555 132.849 334.445C133.744 334.479 134.635 334.321 135.463 333.981C135.872 333.806 136.218 333.51 136.455 333.133C136.691 332.755 136.806 332.315 136.785 331.87C136.639 330.81 135.519 330.188 134.506 329.814C132.596 329.118 130.595 328.703 128.566 328.582C131.195 327.329 133.832 326.081 136.476 324.84C139.083 323.506 141.814 322.431 144.63 321.63C148.282 320.716 152.561 320.493 154.93 317.583C156.351 315.823 156.698 313.463 156.848 311.214C157.041 309.71 156.834 308.182 156.25 306.783V306.783ZM119.166 283.076C117.878 283.415 116.424 283.776 114.952 284.209C114.815 283.085 114.6 281.964 114.463 280.844C114.388 280.499 114.42 280.14 114.553 279.814C114.77 279.501 115.077 279.261 115.433 279.127L120.343 276.727C120.345 276.279 120.256 275.834 120.08 275.422C119.905 275.009 119.647 274.636 119.322 274.327C119.798 274.505 120.291 274.632 120.794 274.705C121.291 276.859 122.229 278.886 123.549 280.658C123.833 281.079 124.229 281.413 124.691 281.624L124.768 281.645C122.895 282.104 121.028 282.58 119.165 283.075L119.166 283.076Z" fill="url(#paint4_linear)"/>
<path id="Path 160" d="M124.885 230.521C123.65 230.832 122.364 230.888 121.106 230.686C119.848 230.485 118.645 230.03 117.568 229.349C117.138 229.045 116.657 228.821 116.147 228.688C115.696 228.651 115.243 228.721 114.824 228.892C114.405 229.063 114.032 229.33 113.735 229.671C111.645 231.748 111.405 235.182 112.486 237.92C113.726 240.608 115.625 242.941 118.005 244.701C119.84 246.213 121.781 247.593 123.812 248.83C124.372 247.519 125.186 246.332 126.208 245.338C127.23 244.345 128.439 243.564 129.765 243.041C132.151 242.118 133.898 239.641 135.265 237.462C136.278 235.862 137.183 235.934 136.265 234.273C135.235 232.678 134.02 231.211 132.647 229.9C131.897 229.113 131.243 228.241 130.699 227.3C130.085 226.206 130.223 225.493 129.283 226.36C128.661 226.939 128.39 228.18 127.695 228.86C126.906 229.633 125.942 230.203 124.885 230.521V230.521Z" fill="#FABDBD"/>
<path id="Path 161" d="M117.349 212.009C117.143 211.496 117.056 210.943 117.096 210.391C117.355 209.481 117.947 208.702 118.753 208.207L129.405 199.765C130.525 198.828 131.721 197.985 132.98 197.246C136.654 195.237 141.297 194.997 144.374 192.156C145.262 191.328 145.967 190.323 146.445 189.206C146.922 188.089 147.161 186.885 147.146 185.671C147.112 183.924 146.288 181.963 144.627 181.471C142.867 180.965 141.151 182.278 139.79 183.501C135.439 187.627 130.804 191.443 125.919 194.921C121.198 198.088 116.048 200.621 111.855 204.44C111.091 205.089 110.434 205.855 109.911 206.71C109.397 207.745 109.042 208.852 108.86 209.993L108.002 214.117C107.268 217.593 106.676 221.649 109.019 224.317C109.361 224.744 109.792 225.09 110.282 225.332C110.772 225.574 111.31 225.705 111.856 225.717C112.632 225.627 113.38 225.373 114.049 224.97C115.791 224.07 118.929 223.215 119.461 221.07C120.13 218.335 118.169 214.533 117.349 212.009Z" fill="#FABDBD"/>
<path id="Path 162" d="M134.89 269.453C135.614 268.578 136.23 267.618 136.723 266.595C137.558 265.21 138.667 264.01 139.982 263.069C141.297 262.128 142.791 261.466 144.371 261.123C145.534 260.822 146.76 260.873 147.894 261.269C148.456 261.475 148.948 261.838 149.311 262.314C149.674 262.79 149.894 263.359 149.945 263.956C149.966 265.243 149.005 266.325 148.091 267.239C145.278 270.194 142.138 272.818 138.731 275.063C135.304 277.309 131.375 278.675 127.294 279.041C126.884 279.091 126.469 279.052 126.075 278.929C125.623 278.719 125.238 278.389 124.959 277.976C122.813 275.204 122.049 271.616 121.466 268.152C121.676 269.401 128.689 266.491 129.483 266.864C130.642 267.409 130.53 269.048 131.376 269.83C131.896 270.236 132.553 270.424 133.209 270.354C133.865 270.283 134.468 269.96 134.89 269.453V269.453Z" fill="#FABDBD"/>
<path id="Path 163" d="M81.934 300.173C81.8953 300.609 81.9817 301.047 82.183 301.435C82.659 302.186 83.741 302.195 84.621 302.066C86.6539 301.719 88.6611 301.236 90.629 300.62L108.504 295.47C108.787 295.413 109.051 295.287 109.272 295.101C109.456 294.875 109.578 294.604 109.624 294.316C110.25 291.739 110.384 289.068 110.019 286.441C109.999 286.064 109.874 285.7 109.659 285.39C109.256 285.02 108.725 284.82 108.178 284.832C105.378 284.549 102.564 284.42 99.749 284.446C97.9231 284.525 96.0939 284.487 94.273 284.33C91.921 284.047 89.217 282.699 86.861 282.905C84.814 283.081 84.895 284.677 84.685 286.368C84.097 291.028 81.981 295.427 81.934 300.173Z" fill="#FABDBD"/>
<path id="Path 164" d="M140.331 278.964C142.649 278.375 145.046 278.161 147.431 278.333C148.624 278.427 149.781 278.791 150.812 279.399C151.844 280.006 152.723 280.841 153.384 281.839C154.328 283.641 154.527 285.742 153.938 287.689C153.345 289.613 152.466 291.437 151.333 293.101C149.319 296.57 146.739 299.678 143.698 302.294C142.179 303.504 140.498 304.504 139.033 305.783C135.913 308.508 133.982 312.315 132.128 316.019C130.381 319.508 128.617 323.053 127.896 326.886C127.888 327.034 127.85 327.179 127.785 327.313C127.72 327.446 127.629 327.565 127.518 327.663C127.276 327.775 127 327.794 126.745 327.715L118.162 326.131C117.92 326.145 117.679 326.092 117.465 325.979C117.251 325.865 117.073 325.695 116.949 325.487C116.825 325.279 116.761 325.041 116.763 324.799C116.766 324.557 116.834 324.32 116.962 324.114C118.821 316.116 122.302 308.585 127.189 301.986C124.917 304.132 122.165 305.705 119.163 306.574C116.161 307.444 112.995 307.585 109.928 306.986C108.731 306.811 107.601 306.322 106.653 305.57C104.739 303.853 104.829 300.849 105.253 298.321C105.636 296.063 106.166 293.832 106.841 291.643C108.48 286.394 115.407 284.974 120.115 283.686C126.803 281.9 133.542 280.326 140.331 278.964Z" fill="#3F3D56"/>
<path id="Path 165" opacity="0.1" d="M134.88 297.466C133.656 297.951 132.545 298.681 131.614 299.612C133.159 297.835 137.562 297.007 139.725 296.179C142.399 295.179 145.304 294.166 147.587 292.394C143.234 293.773 138.987 295.468 134.88 297.466Z" fill="black"/>
<path id="Path 166" d="M105.288 334.172C104.541 335.627 103.837 337.524 104.902 338.772C105.726 339.733 107.361 339.897 107.85 341.064C107.982 341.486 107.976 341.94 107.834 342.359C107.691 342.778 107.418 343.14 107.056 343.394C106.318 343.889 105.466 344.184 104.58 344.252C102.477 344.54 100.343 344.521 98.245 344.196C97.1065 344.114 96.0286 343.652 95.185 342.883C94.4538 341.874 94.0711 340.653 94.095 339.407C93.6117 333.842 93.128 328.276 92.644 322.707C92.509 321.912 92.5662 321.097 92.811 320.329C93.39 318.913 95.064 318.329 96.575 318.071C98.2693 317.788 99.9925 317.719 101.704 317.865C102.872 317.873 104.005 318.262 104.931 318.972C105.8 319.952 106.331 321.186 106.446 322.491C106.837 324.474 107.931 327.212 107.699 329.238C107.511 330.859 106.017 332.709 105.288 334.172Z" fill="#6C63FF"/>
<path id="Path 167" d="M125.637 328.774C128.896 328.346 132.21 328.719 135.293 329.86C136.284 330.229 137.374 330.838 137.52 331.886C137.543 332.323 137.432 332.757 137.202 333.13C136.972 333.503 136.634 333.796 136.233 333.972C135.418 334.309 134.539 334.466 133.658 334.431C129.052 334.556 124.444 334.31 119.877 333.697C118.689 333.625 117.536 333.263 116.521 332.641C116.023 332.318 115.648 331.836 115.457 331.274C115.266 330.711 115.271 330.101 115.47 329.541C116.019 328.399 117.521 328.041 118.242 327C118.766 326.249 118.894 325.15 119.714 324.755C120.332 324.558 121.003 324.609 121.585 324.897C122.443 325.197 124.542 325.506 125.147 326.227C125.426 327.05 125.591 327.907 125.637 328.774Z" fill="#6C63FF"/>
<path id="Ellipse 42" d="M138.524 239.19C144.838 239.19 149.957 234.071 149.957 227.757C149.957 221.443 144.838 216.324 138.524 216.324C132.21 216.324 127.091 221.443 127.091 227.757C127.091 234.071 132.21 239.19 138.524 239.19Z" fill="#FABDBD"/>
<path id="Path 168" d="M109.553 224.667C111.496 223.462 113.682 222.702 115.953 222.44C116.271 222.294 116.616 222.217 116.965 222.214C117.315 222.21 117.662 222.28 117.982 222.419C118.303 222.559 118.591 222.764 118.827 223.022C119.063 223.28 119.242 223.584 119.353 223.916C120.052 225.032 120.569 226.252 120.885 227.53C121.03 228.171 121.024 228.837 120.868 229.475C120.712 230.113 120.409 230.706 119.985 231.208C119.307 231.908 118.333 232.26 117.637 232.925C117.184 233.427 116.855 234.028 116.677 234.68C116.499 235.333 116.476 236.017 116.611 236.68C116.889 238.004 117.403 239.268 118.13 240.409C119.812 243.363 121.726 246.179 123.855 248.829C126.074 251.593 128.576 254.245 129.863 257.537C130.59 259.263 130.892 261.139 130.743 263.006C130.593 264.873 129.997 266.677 129.005 268.266C127.956 269.818 126.432 270.989 124.662 271.603C122.892 272.217 120.971 272.242 119.186 271.674C119.504 271.981 119.757 272.349 119.929 272.756C120.1 273.163 120.188 273.601 120.186 274.043L115.396 276.455C115.048 276.589 114.749 276.825 114.538 277.133C114.408 277.456 114.379 277.81 114.452 278.15C114.83 280.079 115.025 282.039 115.036 284.004C115.03 284.989 114.769 285.956 114.278 286.81C113.787 287.665 113.084 288.377 112.236 288.879C110.601 289.664 108.674 289.248 106.897 288.879C102.744 288.041 98.5206 287.6 94.284 287.561C92.1795 287.721 90.0643 287.461 88.061 286.797C86.7586 286.223 85.6492 285.286 84.866 284.098C84.0828 282.909 83.6588 281.52 83.645 280.097C83.7313 278.588 84.0588 277.102 84.615 275.697C87.1487 267.544 90.1582 259.546 93.628 251.745C95.9753 246.592 98.8397 241.69 102.177 237.115C103.036 235.954 103.938 234.82 104.885 233.715C105.559 232.921 107.085 231.805 107.357 230.797C107.606 229.891 107.057 228.81 107.357 227.797C107.734 226.545 108.504 225.447 109.553 224.667Z" fill="#6C63FF"/>
<path id="Path 169" d="M81.659 300.422C86.672 298.109 91.693 295.791 96.907 293.984C100.77 292.658 105.031 291.628 108.807 293.126C109.931 293.555 110.953 294.233 112.052 294.765C115.704 296.537 119.88 296.795 123.919 297.246C132.902 298.249 141.73 300.339 150.21 303.469C152.244 304.22 154.424 305.186 155.41 307.113C155.986 308.498 156.18 310.013 155.972 311.499C155.822 313.718 155.483 316.052 154.097 317.786C151.797 320.661 147.621 320.876 144.054 321.786C141.308 322.581 138.646 323.641 136.106 324.953C127.759 328.931 119.411 332.91 111.214 337.227C110.706 337.414 110.154 337.445 109.629 337.316C109.104 337.187 108.629 336.903 108.266 336.502C105.802 334.209 104.02 331.281 103.116 328.039C102.226 324.812 101.785 321.477 101.807 318.129C98.607 318.129 96 317.983 92.794 317.992C91.6089 318.067 90.4201 317.921 89.288 317.563C87.142 316.705 85.966 314.404 84.996 312.293C83.327 308.551 81.372 304.482 81.659 300.422Z" fill="#3F3D56"/>
<path id="Path 170" opacity="0.1" d="M140.695 312.315C138.433 311.215 135.82 311.186 133.305 311.215C131.773 311.185 130.241 311.3 128.73 311.558C126.415 312.162 124.17 313.004 122.03 314.073C116.688 316.309 110.947 317.434 105.156 317.379" fill="black"/>
<path id="Path 171" d="M153.774 230.395C152.057 231.99 149.92 233.062 147.615 233.485C145.345 234 143.015 234.21 140.748 234.712C137.948 235.33 134.873 236.812 134.242 239.617C134.097 240.74 134.068 241.874 134.156 243.003C134.196 243.568 134.111 244.136 133.907 244.665C133.703 245.193 133.385 245.671 132.976 246.063C132.527 246.367 132.033 246.599 131.512 246.75C126.949 248.499 123.016 251.58 120.226 255.592C117.436 259.605 115.916 264.363 115.865 269.25C114.43 268.416 113.201 267.269 112.271 265.894C111.34 264.52 110.732 262.953 110.492 261.31C110.492 264.34 107.917 267.443 109.355 270.11C107.735 269.06 106.352 267.684 105.295 266.069C104.237 264.454 103.528 262.637 103.213 260.732C102.897 258.828 102.982 256.879 103.463 255.009C103.943 253.14 104.808 251.391 106.003 249.875C107.157 248.407 108.578 247.193 109.823 245.789C111.525 243.816 112.802 241.514 113.575 239.025C114.349 236.537 114.601 233.916 114.316 231.326C114.067 229.12 113.423 226.888 113.887 224.726C114.561 221.726 117.2 219.626 119.711 217.859C121.473 216.531 123.361 215.381 125.35 214.426C127.978 213.325 130.763 212.645 133.603 212.409C139.886 211.701 145.465 212.679 149.358 217.988C150.15 219.197 151.16 220.248 152.336 221.088C153.206 221.508 154.022 222.033 154.765 222.65C156.757 224.849 155.632 228.511 153.774 230.395Z" fill="#3F3D56"/>
</g>
</g>
<defs>
<linearGradient id="paint0_linear" x1="257.177" y1="330.12" x2="257.177" y2="48.76" gradientUnits="userSpaceOnUse">
<stop stop-color="#808080" stop-opacity="0.251"/>
<stop offset="0.54" stop-color="#808080" stop-opacity="0.122"/>
<stop offset="1" stop-color="#808080" stop-opacity="0.102"/>
</linearGradient>
<linearGradient id="paint1_linear" x1="235.458" y1="262.506" x2="317.651" y2="207.343" gradientUnits="userSpaceOnUse">
<stop stop-color="#808080" stop-opacity="0.251"/>
<stop offset="0.54" stop-color="#808080" stop-opacity="0.122"/>
<stop offset="1" stop-color="#808080" stop-opacity="0.102"/>
</linearGradient>
<radialGradient id="paint2_radial" cx="0" cy="0" r="1" gradientUnits="userSpaceOnUse" gradientTransform="translate(212.974 192.595) scale(4.6466 4.65448)">
<stop stop-color="white"/>
<stop offset="1"/>
</radialGradient>
<radialGradient id="paint3_radial" cx="0" cy="0" r="1" gradientUnits="userSpaceOnUse" gradientTransform="translate(-532.795 192.595) rotate(180) scale(4.64895 4.65392)">
<stop stop-color="white"/>
<stop offset="1"/>
</radialGradient>
<linearGradient id="paint4_linear" x1="80.7505" y1="265.201" x2="156.918" y2="265.201" gradientUnits="userSpaceOnUse">
<stop stop-color="#808080" stop-opacity="0.251"/>
<stop offset="0.54" stop-color="#808080" stop-opacity="0.122"/>
<stop offset="1" stop-color="#808080" stop-opacity="0.102"/>
</linearGradient>
</defs>
</svg>
