<svg width="522" height="351" viewBox="0 0 522 351" fill="none" xmlns="http://www.w3.org/2000/svg">
<g id="featureListSecondIllustration.inline">
<g id="foreground">
<path id="Rectangle 89" d="M218.106 0.000823971L168.84 174.219L469.37 259.204L518.636 84.9856L218.106 0.000823971Z" fill="#3F3D56"/>
<path id="Ellipse 94" d="M227.611 19.65C229.149 19.65 230.395 18.4035 230.395 16.866C230.395 15.3284 229.149 14.082 227.611 14.082C226.073 14.082 224.827 15.3284 224.827 16.866C224.827 18.4035 226.073 19.65 227.611 19.65Z" fill="#6C63FF"/>
<path id="Ellipse 95" d="M245.639 25.074C247.177 25.074 248.423 23.8275 248.423 22.29C248.423 20.7524 247.177 19.506 245.639 19.506C244.101 19.506 242.855 20.7524 242.855 22.29C242.855 23.8275 244.101 25.074 245.639 25.074Z" fill="#6C63FF"/>
<path id="Ellipse 96" d="M236.667 22.498C238.205 22.498 239.451 21.2516 239.451 19.714C239.451 18.1764 238.205 16.93 236.667 16.93C235.129 16.93 233.883 18.1764 233.883 19.714C233.883 21.2516 235.129 22.498 236.667 22.498Z" fill="#6C63FF"/>
<path id="Path 359" d="M378.291 94.93C373.791 94.0795 369.163 94.1889 364.708 95.2509C366.005 90.7971 366.332 86.117 365.668 81.5259C361.08 83.1863 356.929 85.8651 353.526 89.361C352.458 84.6008 350.324 80.1448 347.286 76.3279C344.315 79.8926 342.143 84.0528 340.916 88.528C337.678 85.2906 333.794 82.7734 329.516 81.141C329.516 81.141 327.489 91.4519 332.37 99.9129C336.714 107.443 345.061 110.967 346.845 111.652L346.887 111.702L346.909 111.677C347.09 111.746 347.191 111.777 347.191 111.777C347.191 111.777 347.229 111.577 347.282 111.226L347.382 111.102C347.389 111.158 347.395 111.21 347.402 111.26C347.262 111.589 347.191 111.778 347.191 111.778C347.191 111.778 347.291 111.801 347.486 111.838L347.492 111.871L347.554 111.85C349.433 112.201 358.388 113.57 366.033 109.43C374.618 104.775 378.291 94.93 378.291 94.93Z" fill="#6C63FF"/>
<path id="Ellipse 97" d="M361.525 68.1529C365.522 68.1529 368.763 64.9124 368.763 60.9149C368.763 56.9175 365.522 53.6769 361.525 53.6769C357.528 53.6769 354.287 56.9175 354.287 60.9149C354.287 64.9124 357.528 68.1529 361.525 68.1529Z" fill="#6C63FF"/>
<path id="Rectangle 90" d="M450.634 155.818L233.114 94.3069L231.776 99.0394L449.296 160.55L450.634 155.818Z" fill="#6C63FF"/>
<path id="Rectangle 91" d="M292.424 134.595L254.921 123.99L244.316 161.493L281.819 172.099L292.424 134.595Z" fill="#6C63FF"/>
<path id="Rectangle 92" d="M357.344 154.616L319.841 144.011L309.236 181.514L346.739 192.12L357.344 154.616Z" fill="#6C63FF"/>
<path id="Rectangle 93" d="M422.263 174.637L384.76 164.032L374.155 201.535L411.658 212.141L422.263 174.637Z" fill="#6C63FF"/>
<path id="Rectangle 94" d="M275.437 178.638L247.577 170.76L246.668 173.975L274.527 181.853L275.437 178.638Z" fill="#6C63FF"/>
<path id="Rectangle 95" d="M340.5 198.623L312.64 190.745L311.731 193.96L339.59 201.838L340.5 198.623Z" fill="#6C63FF"/>
<path id="Rectangle 96" d="M405.563 218.607L377.703 210.729L376.794 213.944L404.653 221.822L405.563 218.607Z" fill="#6C63FF"/>
</g>
<g id="background">
<path id="Ellipse 98" d="M189.999 272.403C292.903 272.403 376.324 269.319 376.324 265.514C376.324 261.709 292.903 258.625 189.999 258.625C87.0946 258.625 3.67401 261.709 3.67401 265.514C3.67401 269.319 87.0946 272.403 189.999 272.403Z" fill="#D0CDE1"/>
<path id="Ellipse 99" d="M376.818 350.941C456.895 350.941 521.811 347.857 521.811 344.052C521.811 340.247 456.895 337.163 376.818 337.163C296.741 337.163 231.825 340.247 231.825 344.052C231.825 347.857 296.741 350.941 376.818 350.941Z" fill="#D0CDE1"/>
<path id="Path 360" d="M305.705 290.581H347.533V308.074H323.199V325.567H347.533V343.059H305.705V290.581ZM355.905 290.581H397.733V305.792H373.395V308.834H397.733V343.821H355.903V327.847H380.241V324.805H355.901V290.581H355.905ZM406.105 290.581H447.933V305.792H423.594V308.834H447.933V343.821H406.1V327.847H430.438V324.805H406.102V290.581H406.105Z" fill="#3F3D56"/>
<path id="Path 361" d="M76.977 209.942H94.233V226.991H110.019V209.942H127.276V261.57H110.02V244.282H94.234V261.57H76.978V209.942H76.977ZM149.968 227.063H134.779V209.942H182.427V227.063H167.227V261.57H149.971V227.063H149.968ZM189.988 209.942H207.981L219.051 228.083L230.107 209.942H248.107V261.57H230.922V235.98L219.051 254.342H218.751L206.871 235.985V261.575H189.988V209.942ZM256.695 209.942H273.957V244.506H298.224V261.571H256.694V209.942H256.695Z" fill="#3F3D56"/>
</g>
<g id="human">
<path id="Path 362" d="M53.82 245.495L52.404 261.547L63.734 260.602V246.911L53.82 245.495Z" fill="#FFB8B8"/>
<path id="Path 363" d="M43.434 245.495L44.85 261.547L33.52 260.602V246.911L43.434 245.495Z" fill="#FFB8B8"/>
<path id="Path 364" d="M73.178 121.894C73.178 121.894 76.955 144.555 76.955 147.86C76.955 151.165 75.539 172.41 73.178 176.66C70.817 180.91 70.345 182.797 71.29 184.686C72.235 186.575 71.762 186.102 71.29 187.519C70.818 188.936 69.874 188.463 71.29 190.352C71.8683 191.183 72.1783 192.172 72.1783 193.184C72.1783 194.197 71.8683 195.186 71.29 196.017C70.346 197.433 73.178 235.674 69.402 238.507C65.626 241.34 64.681 250.782 64.681 250.782L52.406 249.366V238.978C52.406 238.978 49.573 231.424 51.462 226.703C53.351 221.982 54.295 196.96 54.295 196.96C54.0389 195.714 54.0389 194.429 54.295 193.183C54.4206 192.935 54.4958 192.665 54.5163 192.388C54.5367 192.111 54.5021 191.833 54.4143 191.569C54.3265 191.306 54.1873 191.063 54.0048 190.853C53.8223 190.644 53.6001 190.473 53.351 190.35C52.407 189.878 51.935 187.989 51.935 187.989L50.519 153.525L44.85 187.518C44.85 187.518 50.515 233.785 44.85 239.918V250.777H32.578L34.466 238.977C34.466 238.977 30.687 228.118 32.578 225.758C34.469 223.398 26.913 185.628 27.857 184.212C28.801 182.796 28.329 182.324 27.857 181.379C27.385 180.434 25.969 179.491 26.441 178.546C26.6926 177.618 26.6926 176.641 26.441 175.713C26.441 175.713 17.471 131.335 21.72 127.086C25.969 122.837 73.178 121.894 73.178 121.894Z" fill="#2F2E41"/>
<path id="Path 365" d="M55.236 255.531C55.236 255.531 56.18 251.003 63.736 252.559C63.736 252.559 65.624 256.475 65.624 258.359C65.624 260.243 67.512 272.995 67.512 272.995C67.512 272.995 75.066 285.742 65.624 285.742C56.182 285.742 52.877 282.442 52.405 279.132C51.933 275.822 52.877 274.883 50.989 273.467C49.101 272.051 48.156 272.051 48.628 270.167C49.1 268.283 50.044 258.836 50.044 258.836C50.044 258.836 50.516 251.754 53.113 253.643L55.713 255.531" fill="#2F2E41"/>
<path id="Path 366" d="M42.018 255.531C42.018 255.531 41.074 251.003 33.518 252.559C33.518 252.559 31.63 256.475 31.63 258.359C31.63 260.243 29.742 272.995 29.742 272.995C29.742 272.995 22.188 285.742 31.63 285.742C41.072 285.742 44.377 282.442 44.849 279.132C45.321 275.822 44.377 274.883 46.265 273.467C48.153 272.051 49.098 272.051 48.626 270.167C48.154 268.283 47.21 258.836 47.21 258.836C47.21 258.836 46.738 251.754 44.141 253.643L41.541 255.531" fill="#2F2E41"/>
<path id="Ellipse 100" d="M55.709 34C62.749 34 68.456 28.293 68.456 21.253C68.456 14.213 62.749 8.50598 55.709 8.50598C48.669 8.50598 42.962 14.213 42.962 21.253C42.962 28.293 48.669 34 55.709 34Z" fill="#FFB8B8"/>
<path id="Path 367" d="M45.323 23.142C45.323 23.142 40.13 43.442 39.186 43.915C38.242 44.388 60.903 46.276 60.903 46.276C60.903 46.276 55.238 28.808 60.903 25.976L45.323 23.142Z" fill="#FFB8B8"/>
<path id="Path 368" d="M42.004 35.513L26.437 46.278L29.27 130.786C29.27 130.786 50.043 128.425 54.764 128.898C59.485 129.371 74.593 124.649 74.593 124.649L67.976 45.239C67.8467 43.6874 67.1666 42.2332 66.0587 41.1392C64.9508 40.0453 63.4881 39.3837 61.935 39.274L59.1 39.074C59.1 39.074 56.268 46.087 47.745 42.469C46.3081 41.8439 45.0392 40.8881 44.0419 39.6794C43.0445 38.4707 42.347 37.0435 42.006 35.514L42.004 35.513Z" fill="#D0CDE1"/>
<path id="Path 369" d="M42.382 34.742L23.133 43.915L19.356 98.208C19.356 98.208 11.802 130.784 17.94 140.226C19.8088 143.022 22.2465 145.393 25.0938 147.182C27.9412 148.972 31.1341 150.141 34.464 150.613C34.464 150.613 48.155 96.32 44.378 77.913C40.601 59.506 42.382 34.742 42.382 34.742Z" fill="#575A89"/>
<path id="Path 370" d="M6.13798 117.274V124.356C6.13798 124.356 3.30499 139.936 12.275 139.464C21.245 138.992 16.996 122.464 16.996 122.464L14.163 117.271L6.13798 117.274Z" fill="#FFB8B8"/>
<path id="Path 371" d="M89.229 131.525L88.285 139.551C88.285 139.551 93.006 155.603 84.036 156.075C75.066 156.547 81.577 139.65 81.577 139.65L84.508 130.581L89.229 131.525Z" fill="#FFB8B8"/>
<path id="Path 372" d="M58.816 37.422C67.4182 39.5408 75.3896 43.6845 82.066 49.508L82.148 49.579L75.538 84.515L74.594 97.262C74.594 97.262 92.062 159.581 71.761 150.611C71.761 150.611 54.293 96.318 56.653 71.296C59.013 46.274 58.816 37.422 58.816 37.422Z" fill="#575A89"/>
<path id="Path 373" d="M76.01 49.107C76.482 48.635 82.147 49.763 82.147 49.763C82.147 49.763 92.534 86.404 92.534 92.542C92.534 98.68 93.95 133.616 93.95 133.616L81.488 134.872L71.401 86.331L76.01 49.107Z" fill="#575A89"/>
<path id="Path 374" d="M26.439 43.914H23.139C23.139 43.914 13.697 47.691 13.225 51.94C12.753 56.189 0.00601196 99.151 0.00601196 99.151L3.30601 120.868L15.581 118.98L17.942 94.902L30.217 68.464L26.439 43.914Z" fill="#575A89"/>
<path id="Path 375" d="M53.232 24.806L53.721 21.399C53.835 20.605 54.3 19.561 55.072 19.777C55.729 19.961 57.161 20.523 57.4 20.353C58.3 19.717 59.656 20.829 60.6 20.264C61 20.027 61.253 19.52 61.713 19.486C62.0213 19.5057 62.3119 19.6373 62.53 19.856C63.1427 20.3888 63.8646 20.781 64.645 21.005C65.0366 21.1117 65.4496 21.1116 65.8412 21.0049C66.2328 20.8982 66.5887 20.6886 66.872 20.398C66.9722 20.2433 67.1071 20.1142 67.266 20.021C67.4524 19.9673 67.6513 19.9764 67.832 20.047L70.244 20.704C70.5987 19.4179 70.6716 18.0704 70.4576 16.7535C70.2436 15.4367 69.7477 14.1816 69.004 13.074C68.0255 11.746 66.8393 10.5844 65.491 9.634C63.9977 8.50067 62.4563 7.43201 60.867 6.42801C59.1822 5.23598 57.2697 4.40401 55.249 3.98401C54.2364 3.78651 53.1899 3.85346 52.2107 4.1784C51.2315 4.50334 50.3527 5.07529 49.659 5.839C49.0573 5.40356 48.6049 4.79265 48.364 4.09001C48.2205 4.22055 48.1075 4.38099 48.0328 4.56002C47.9581 4.73906 47.9237 4.9323 47.9319 5.12611C47.9401 5.31992 47.9907 5.50957 48.0802 5.68165C48.1698 5.85374 48.296 6.00406 48.45 6.12201L46.41 4.822C45.837 5.422 46.957 6.51601 46.468 7.18901C46.3203 7.35552 46.1308 7.47947 45.919 7.548C44.8115 7.97953 43.7963 8.61827 42.928 9.43C41.8289 10.6824 41.0243 12.165 40.573 13.769C39.358 17.256 38.473 21.255 40.201 24.519C40.401 24.889 42.981 30.997 43.325 31.235C44.489 32.04 43.731 30.092 44.565 31.235C45.219 32.135 45.097 28.7 46.065 29.453C46.446 29.7256 46.8979 29.882 47.3659 29.9031C47.8339 29.9242 48.298 29.8092 48.702 29.572C49.102 29.293 48.975 27.741 48.758 26.316C48.7164 26.0445 48.742 25.767 48.8326 25.5077C48.9233 25.2484 49.0761 25.0153 49.2778 24.8289C49.4794 24.6424 49.7238 24.5083 49.9893 24.4382C50.2549 24.3681 50.5336 24.3643 50.801 24.427C51.5841 24.6898 52.4061 24.8179 53.232 24.806V24.806Z" fill="#2F2E41"/>
<path id="Path 376" opacity="0.2" d="M77.19 92.371L82.383 135.333H79.083L77.19 92.371Z" fill="black"/>
<path id="Path 377" opacity="0.2" d="M22.421 75.704L19.795 92.228L24.781 75.704H22.421Z" fill="black"/>
</g>
</g>
</svg>
