<svg width="551" height="326" viewBox="0 0 551 326" fill="none" xmlns="http://www.w3.org/2000/svg">
<g id="featureListFirstIllustration">
<g id="background">
<path id="Path 312" opacity="0.2" d="M80.414 0.0370352C76.1472 -0.238719 71.8639 0.177312 67.73 1.26903C56.805 4.62603 51.63 15.61 53.31 25.101C54.99 34.592 61.92 42.862 69.11 50.42C76.3 57.978 84.083 65.451 88.024 74.486C89.989 78.995 90.908 84.046 88.911 88.55C85.83 95.492 76.541 99.369 67.623 100.177C58.705 100.985 49.75 99.412 40.801 98.886C37.066 98.5202 33.2962 98.7804 29.647 99.656C25.9381 100.875 22.5079 102.817 19.555 105.371C7.94598 114.6 -1.34302 127.2 0.159977 140.427C1.85998 155.421 17.018 167.271 33.622 173.627C39.122 175.752 44.935 177.441 49.774 180.447C62.521 188.377 65.384 203.247 64.115 216.373C62.846 229.499 58.522 242.638 60.928 255.645C63.759 270.777 76.288 284.445 93.189 290.833C108.247 296.521 127.089 296.144 140.46 288.119C146.977 284.199 151.906 278.755 156.192 273.125C162.556 264.811 167.814 255.705 171.834 246.037C173.698 241.528 175.451 236.678 179.801 233.545C182.457 231.617 185.901 230.539 189.301 229.7C199.563 227.172 210.371 226.481 220.728 224.229C231.085 221.977 241.506 217.765 247.136 210.276C255.103 199.653 251.385 186.046 251.422 173.553C251.486 145.053 272.195 119.542 279.838 91.758C282.338 82.681 283.264 72.637 277.687 64.537C273.9 59.037 267.51 55.072 260.797 52.008C246.026 45.268 229.237 42.267 212.724 39.346C189.774 35.288 161.905 34.762 144.117 21.633C127.048 9.02903 103.694 0.0370352 80.414 0.0370352Z" fill="#6C63FF"/>
<path id="Ellipse 86" d="M303.279 325.055C439.681 325.055 550.257 295.444 550.257 258.918C550.257 222.392 439.681 192.781 303.279 192.781C166.877 192.781 56.301 222.392 56.301 258.918C56.301 295.444 166.877 325.055 303.279 325.055Z" fill="#F5F5F5"/>
<path id="Path 313" d="M508.392 99.248C508.392 99.248 489.361 118.279 500.106 146.519C510.851 174.759 481.686 221.719 481.686 221.719C481.686 221.719 481.999 221.671 482.578 221.57C521.664 214.67 541.088 169.965 519.354 136.753C511.277 124.413 504.643 109.945 508.392 99.248Z" fill="#6C63FF"/>
<path id="Path 314" d="M508.392 99.248C508.392 99.248 497.647 122.575 508.392 141.606C519.137 160.637 510.235 214.048 481.687 221.722" stroke="#535461" stroke-width="2" stroke-miterlimit="10"/>
<path id="Path 315" d="M542.29 176.225C542.29 176.225 520.572 172.767 518.596 192.225C516.62 211.683 476.838 214.384 476.838 214.384L477.582 214.878C510.427 236.437 541.85 228.613 537.069 200.006C535.332 189.345 535.475 178.652 542.29 176.225Z" fill="#6C63FF"/>
<path id="Path 316" opacity="0.2" d="M542.29 176.225C542.29 176.225 520.572 172.767 518.596 192.225C516.62 211.683 476.838 214.384 476.838 214.384L477.582 214.878C510.427 236.437 541.85 228.613 537.069 200.006C535.332 189.345 535.475 178.652 542.29 176.225Z" fill="#F5F5F5"/>
<path id="Path 317" d="M542.29 176.225C542.29 176.225 525.432 179.943 526.818 195.25C528.204 210.557 501.786 228.95 476.838 214.371" stroke="#535461" stroke-width="2" stroke-miterlimit="10"/>
<path id="Path 322" d="M108.209 284.822C108.209 284.822 101.166 260.922 109.532 243.322C113.093 235.965 114.17 227.65 112.602 219.628C111.827 215.828 110.705 212.107 109.251 208.511" stroke="#535461" stroke-width="2" stroke-miterlimit="10"/>
<path id="Path 323" d="M114.434 197.385C114.434 200.317 109.123 208.81 109.123 208.81C109.123 208.81 103.812 200.31 103.812 197.385C103.812 195.976 104.372 194.625 105.368 193.629C106.364 192.633 107.715 192.073 109.123 192.073C110.532 192.073 111.883 192.633 112.879 193.629C113.875 194.625 114.435 195.976 114.435 197.385H114.434Z" fill="#6C63FF"/>
<path id="Path 324" d="M123.224 213.617C121.631 216.076 112.559 220.325 112.559 220.325C112.559 220.325 112.724 210.308 114.317 207.849C114.68 207.23 115.164 206.691 115.741 206.265C116.318 205.838 116.975 205.533 117.673 205.368C118.371 205.202 119.095 205.179 119.802 205.301C120.509 205.423 121.183 205.687 121.785 206.077C122.388 206.467 122.904 206.975 123.305 207.57C123.705 208.165 123.981 208.835 124.116 209.54C124.25 210.244 124.24 210.969 124.087 211.67C123.934 212.37 123.64 213.033 123.224 213.617V213.617Z" fill="#6C63FF"/>
<path id="Path 325" d="M122.82 241.348C120.201 242.665 110.227 241.757 110.227 241.757C110.227 241.757 115.427 233.195 118.04 231.878C119.288 231.31 120.708 231.248 122.002 231.703C123.295 232.158 124.363 233.096 124.98 234.321C125.598 235.545 125.718 236.961 125.315 238.272C124.913 239.583 124.019 240.687 122.82 241.354V241.348Z" fill="#6C63FF"/>
<path id="Path 326" d="M117.803 262.269C115.448 264.012 105.463 264.798 105.463 264.798C105.463 264.798 109.138 255.482 111.497 253.74C112.632 252.981 114.015 252.687 115.36 252.921C116.705 253.155 117.909 253.898 118.721 254.995C119.533 256.093 119.891 257.461 119.721 258.816C119.55 260.17 118.865 261.407 117.807 262.27L117.803 262.269Z" fill="#6C63FF"/>
<path id="Path 327" d="M101.399 220.894C103.524 222.934 113.291 225.053 113.291 225.053C113.291 225.053 110.891 215.328 108.791 213.288C108.3 212.764 107.707 212.346 107.049 212.057C106.391 211.769 105.682 211.617 104.964 211.611C104.246 211.605 103.534 211.744 102.871 212.021C102.208 212.298 101.608 212.706 101.108 213.221C100.608 213.737 100.217 214.348 99.9595 215.018C99.7021 215.689 99.5833 216.405 99.6104 217.122C99.6375 217.84 99.8099 218.545 100.117 219.194C100.424 219.843 100.86 220.423 101.398 220.899L101.399 220.894Z" fill="#6C63FF"/>
<path id="Path 328" d="M95.844 245.432C98.462 246.749 108.437 245.841 108.437 245.841C108.437 245.841 103.237 237.279 100.624 235.962C99.9986 235.612 99.309 235.393 98.5966 235.317C97.8843 235.241 97.1639 235.31 96.4788 235.52C95.7938 235.729 95.1582 236.075 94.6104 236.537C94.0626 236.999 93.6138 237.566 93.2912 238.206C92.9685 238.846 92.7785 239.544 92.7328 240.259C92.687 240.974 92.7864 241.691 93.0249 242.366C93.2633 243.042 93.636 243.662 94.1205 244.19C94.605 244.717 95.1912 245.142 95.844 245.437V245.432Z" fill="#6C63FF"/>
<path id="Path 329" d="M93.719 270.024C96.077 271.766 106.063 272.552 106.063 272.552C106.063 272.552 102.388 263.236 100.029 261.494C98.8944 260.735 97.5109 260.441 96.1658 260.675C94.8206 260.909 93.6171 261.652 92.8052 262.749C91.9932 263.847 91.6352 265.215 91.8053 266.57C91.9755 267.924 92.6608 269.161 93.719 270.024V270.024Z" fill="#6C63FF"/>
</g>
<g id="foreground">
<path id="Path 318" d="M492.028 223.035H457.908C458.693 221.456 459.101 219.716 459.098 217.952V62.5581C459.098 59.528 457.894 56.622 455.752 54.4794C453.609 52.3368 450.703 51.1331 447.673 51.1331H183.518C182.017 51.1327 180.531 51.4279 179.145 52.0019C177.758 52.5759 176.499 53.4174 175.437 54.4783C174.376 55.5393 173.534 56.7989 172.96 58.1852C172.386 59.5716 172.09 61.0575 172.09 62.5581V217.958C172.087 219.722 172.495 221.462 173.28 223.041H137.952C137.151 223.041 136.382 223.359 135.815 223.926C135.248 224.493 134.93 225.262 134.93 226.063V228.501C134.934 232.981 136.716 237.275 139.885 240.441C143.054 243.608 147.35 245.386 151.83 245.386H478.15C482.632 245.386 486.931 243.606 490.1 240.436C493.269 237.267 495.05 232.968 495.05 228.486V226.048C495.047 225.248 494.728 224.482 494.161 223.918C493.595 223.353 492.828 223.036 492.028 223.036V223.035ZM281.757 232.702L278.846 229.382H351.463L348.223 232.707L281.757 232.702Z" fill="url(#paint0_linear)"/>
<path id="Rectangle 82" d="M432.577 53.337H198.594C185.748 53.337 175.334 63.7509 175.334 76.597V204.284C175.334 217.13 185.748 227.544 198.594 227.544H432.577C445.423 227.544 455.837 217.13 455.837 204.284V76.597C455.837 63.7509 445.423 53.337 432.577 53.337Z" fill="#535461"/>
<path id="Rectangle 83" d="M449.335 78.73H181.234V221.048H449.335V78.73Z" fill="white"/>
<path id="Ellipse 87" d="M315.288 68.693C316.594 68.693 317.652 67.6346 317.652 66.329C317.652 65.0234 316.594 63.965 315.288 63.965C313.982 63.965 312.924 65.0234 312.924 66.329C312.924 67.6346 313.982 68.693 315.288 68.693Z" fill="white"/>
<path id="Path 319" d="M356.685 221.34L347.47 230.789H282.512L274.185 221.34H141.968C141.185 221.34 140.434 221.651 139.88 222.205C139.326 222.759 139.015 223.51 139.015 224.293V226.672C139.015 231.053 140.755 235.254 143.853 238.352C146.951 241.45 151.152 243.19 155.533 243.19H474.453C478.834 243.19 483.035 241.45 486.133 238.352C489.231 235.254 490.971 231.053 490.971 226.672V224.293C490.971 223.51 490.66 222.759 490.106 222.205C489.552 221.651 488.801 221.34 488.018 221.34H356.685Z" fill="#535461"/>
<path id="Path 320" d="M264.724 83.733H151.629C148.881 83.7301 146.244 84.8189 144.299 86.7599C142.354 88.7008 141.259 91.335 141.256 94.083V250.764C141.26 253.512 142.355 256.145 144.3 258.085C146.245 260.026 148.881 261.114 151.629 261.111H264.724C267.471 261.114 270.108 260.026 272.053 258.085C273.998 256.145 275.093 253.512 275.097 250.764V94.083C275.093 91.3357 273.998 88.7026 272.052 86.7625C270.107 84.8223 267.471 83.7341 264.724 83.737V83.733Z" fill="url(#paint1_linear)"/>
<path id="Rectangle 84" d="M253.503 85.858H162.844C151.798 85.858 142.844 94.8123 142.844 105.858V239.539C142.844 250.585 151.798 259.539 162.844 259.539H253.503C264.549 259.539 273.503 250.585 273.503 239.539V105.858C273.503 94.8123 264.549 85.858 253.503 85.858Z" fill="#535461"/>
<path id="Rectangle 85" d="M266.864 102.286H149.483V243.111H266.864V102.286Z" fill="white"/>
<path id="Ellipse 88" d="M207.642 95.4181C208.522 95.4181 209.235 94.7048 209.235 93.8251C209.235 92.9453 208.522 92.2321 207.642 92.2321C206.762 92.2321 206.049 92.9453 206.049 93.8251C206.049 94.7048 206.762 95.4181 207.642 95.4181Z" fill="white"/>
<path id="Ellipse 89" d="M207.642 255.821C210.282 255.821 212.422 253.681 212.422 251.041C212.422 248.401 210.282 246.261 207.642 246.261C205.002 246.261 202.862 248.401 202.862 251.041C202.862 253.681 205.002 255.821 207.642 255.821Z" fill="white"/>
<path id="Path 321" d="M178.52 136.847H120.449C118.926 136.844 117.465 137.447 116.386 138.521C115.307 139.596 114.7 141.055 114.697 142.578V269.742C114.7 271.265 115.307 272.724 116.386 273.799C117.465 274.873 118.926 275.476 120.449 275.473H178.518C179.272 275.475 180.019 275.327 180.716 275.04C181.413 274.753 182.047 274.331 182.581 273.799C183.115 273.267 183.539 272.635 183.829 271.939C184.119 271.242 184.269 270.496 184.27 269.742V142.578C184.269 141.824 184.119 141.078 183.829 140.382C183.539 139.686 183.115 139.053 182.581 138.521C182.047 137.989 181.413 137.567 180.716 137.28C180.019 136.993 179.272 136.846 178.518 136.847H178.52Z" fill="url(#paint2_linear)"/>
<path id="Rectangle 86" d="M172.741 137.909H126.225C120.15 137.909 115.225 142.834 115.225 148.909V263.942C115.225 270.017 120.15 274.942 126.225 274.942H172.741C178.816 274.942 183.741 270.017 183.741 263.942V148.909C183.741 142.834 178.816 137.909 172.741 137.909Z" fill="#535461"/>
<path id="Rectangle 87" d="M178.696 150.657H120.271V262.195H178.696V150.657Z" fill="white"/>
<path id="Ellipse 90" d="M142.578 144.814C142.871 144.814 143.109 144.576 143.109 144.283C143.109 143.99 142.871 143.752 142.578 143.752C142.285 143.752 142.047 143.99 142.047 144.283C142.047 144.576 142.285 144.814 142.578 144.814Z" fill="white"/>
<path id="Rectangle 88" d="M156.388 143.752H145.765C145.472 143.752 145.234 143.99 145.234 144.283C145.234 144.576 145.472 144.814 145.765 144.814H156.388C156.681 144.814 156.919 144.576 156.919 144.283C156.919 143.99 156.681 143.752 156.388 143.752Z" fill="white"/>
<path id="Ellipse 91" d="M149.218 271.224C151.271 271.224 152.936 269.559 152.936 267.506C152.936 265.453 151.271 263.788 149.218 263.788C147.165 263.788 145.5 265.453 145.5 267.506C145.5 269.559 147.165 271.224 149.218 271.224Z" fill="white"/>
</g>
<g id="human">
<path id="Path 330" d="M528.48 208.789C522.6 201.656 515.48 193.46 516.48 183.969C517.287 176.283 515.354 169.177 515.736 161.469C516.267 150.512 514.068 141.934 506.176 134.912C501.566 130.806 493.859 127.582 491.564 128.406C487.017 130.031 482.057 129.406 477.377 130.531C473.824 131.36 471.46 132.656 469.994 134.249C467.046 136.905 466.994 140.623 468.342 144.58C467.169 146.728 466.461 149.098 466.264 151.537C466.067 153.977 466.386 156.43 467.198 158.738C468.011 161.046 469.301 163.158 470.983 164.935C472.665 166.713 474.702 168.116 476.962 169.055C473.685 170.425 470.854 173.58 469.749 179.986C468.981 184.385 467.82 188.706 466.281 192.898C465.589 193.222 464.879 193.507 464.156 193.753C464.315 193.817 464.48 193.859 464.639 193.918C464.294 194.051 463.954 194.184 463.577 194.3C464.205 194.545 464.854 194.734 465.516 194.863C463.125 201.061 459.909 206.908 455.956 212.247C455.956 212.247 446.05 214.435 442.2 210.606C442.2 210.606 442.827 211.339 443.677 212.438C439.911 210.876 433.729 208.327 428.444 206.229C424.609 204.705 423.627 206.229 423.664 208.354C422.728 208.471 421.825 208.775 421.008 209.246C419.875 208.517 418.687 207.878 417.455 207.334C415.255 206.803 408.102 202.957 400.947 216.082C396.783 223.714 386.107 237.646 377.901 247.95C361.94 255.29 341.162 264.585 333.44 266.922H328.49C327.842 265.86 327.39 265.19 327.39 265.19L327.008 265.445L326.843 265.19C326.843 265.19 317.123 271.919 307.255 271.973C305.851 271.954 304.454 271.776 303.091 271.442C299.833 270.489 296.467 269.953 293.074 269.848C290.374 269.8 288.825 270.443 287.89 271.654C287.764 271.813 287.649 271.98 287.545 272.154V272.154C287.44 272.326 287.344 272.503 287.258 272.685V272.685C287.173 272.876 287.088 273.078 287.014 273.285C286.983 273.47 286.995 273.659 287.048 273.839C287.102 274.018 287.195 274.183 287.322 274.321C287.454 274.507 287.598 274.684 287.752 274.852L288.028 275.152C289.981 276.972 292.097 278.609 294.348 280.044C295.161 280.575 296.021 281.159 296.919 281.738L298.619 282.8L300.143 283.751L300.754 284.128L301.434 284.542L302.65 285.28L303.372 285.716L304.737 286.529L305.837 287.182C308.726 288.882 311.605 290.539 314.202 292.005L316.018 293.088L316.193 293.188L317.362 293.841L319.38 294.962L320.766 295.727L321.414 296.083L322.114 296.465L322.252 296.539L323.463 297.198C323.712 297.24 323.967 297.227 324.211 297.162C324.455 297.096 324.682 296.978 324.876 296.816C325.227 295.329 326.082 292.142 327.001 291.898C327.92 291.654 331.901 284.698 333.019 280.048H343.759C345.875 279.867 347.976 279.544 350.048 279.081C347.275 281.057 344.53 282.3 342.394 281.768C337.879 280.647 333.604 283.399 333.173 286.113C333.163 286.172 333.145 286.229 333.12 286.283C333.104 286.341 333.093 286.395 333.083 286.448C333.073 286.501 333.051 286.581 333.04 286.648C333.035 286.705 333.035 286.761 333.04 286.818V287.551C333.05 287.625 333.068 287.698 333.093 287.769C333.114 287.843 333.093 287.869 333.13 287.907C333.164 288.003 333.203 288.097 333.247 288.188L333.273 288.257C333.332 288.373 333.399 288.485 333.473 288.592L333.558 288.704C333.612 288.78 333.67 288.853 333.733 288.922L333.855 289.044C333.919 289.108 333.988 289.171 334.055 289.235L334.204 289.357L334.443 289.532L334.618 289.649L334.905 289.819L335.096 289.919L335.457 290.089L335.638 290.169C335.829 290.249 336.031 290.323 336.249 290.392C336.594 290.504 337.003 290.62 337.465 290.737L337.927 290.849L338.602 291.003L338.958 291.083C339.418 291.182 339.907 291.282 340.424 291.383L341.141 291.516L341.725 291.622L343.069 291.856C343.908 291.999 344.785 292.143 345.725 292.281L348.041 292.631L351.058 293.061L351.727 293.151L352.789 293.3L354.345 293.507L355.407 293.645L358.164 293.995L359.024 294.101L360.761 294.313C363.045 294.589 365.254 294.844 367.289 295.072L369.642 295.338L370.832 295.471L371.363 295.524L372.786 295.678L373.577 295.763L374.554 295.863L375.93 296.006H376.079L376.961 296.096C377.072 296.108 377.183 296.097 377.289 296.063C377.395 296.03 377.493 295.975 377.577 295.901C377.66 295.828 377.727 295.738 377.774 295.637C377.821 295.536 377.846 295.426 377.848 295.315V295.315V295.225C377.929 295.102 377.973 294.958 377.976 294.811C377.999 293.501 378.165 292.197 378.47 290.923C378.528 290.705 378.597 290.482 378.67 290.259L378.755 290.004C378.855 289.733 378.946 289.473 379.055 289.181C379.135 288.983 379.204 288.781 379.262 288.575C379.272 288.506 379.291 288.439 379.32 288.375C379.341 288.306 379.373 288.157 379.394 288.046C380.494 284.27 379.166 277.227 378.783 274.46C378.66 273.577 378.457 272.707 378.177 271.86C378.246 271.867 378.315 271.867 378.384 271.86C378.954 271.65 379.491 271.358 379.977 270.994C388.093 268.099 394.934 264.794 397.096 261.476C400.597 260.552 404.315 260.941 407.549 262.57C411.749 264.657 443.533 275.031 458.331 279.821C460.987 282.11 463.069 283.449 464.221 283.348C464.221 283.348 483.06 286.397 490.634 280.448C491.309 280.915 491.734 281.165 491.734 281.165C491.734 281.165 502.739 275.7 504.391 268.588C504.922 266.283 505.405 262.888 505.899 259.123C508.452 256.551 509.887 253.075 509.893 249.451C510.238 237.511 514.865 223.872 518.293 211.74C522.457 212.069 524.066 211.283 527.885 209.398L527.715 209.18C528.002 209.012 528.241 208.906 528.48 208.789ZM465.386 226.672L463.261 225.966C463.974 225.015 464.588 223.993 465.094 222.917L465.386 226.672ZM453.547 231.697L466.294 239.345L466.406 240.901C466.25 242.085 466.286 243.287 466.512 244.46C460.892 239.467 454.317 233.407 453.542 231.691L453.547 231.697ZM448.342 220.543C446.95 219.969 445.798 219.449 445.006 219.019C446.068 219.093 447.077 219.157 447.959 219.205C448.133 219.636 448.261 220.085 448.341 220.543H448.342ZM414.201 233.009C414.201 233.009 416.401 228.091 421.355 236.291C422.125 237.566 423.543 239.591 425.418 242.107L410.992 240.179C412.508 238.017 413.597 235.585 414.2 233.014L414.201 233.009Z" fill="url(#paint3_linear)"/>
<path id="Path 331" d="M445.889 213.25C445.889 213.25 435.798 209.001 427.83 205.814C419.862 202.627 424.643 213.25 424.643 213.25C424.643 213.25 437.921 216.968 437.921 217.499C437.921 218.03 449.075 218.561 449.075 218.561L445.889 213.25Z" fill="#F7C4A7"/>
<path id="Path 332" opacity="0.05" d="M445.889 213.25C445.889 213.25 435.798 209.001 427.83 205.814C419.862 202.627 424.643 213.25 424.643 213.25C424.643 213.25 437.921 216.968 437.921 217.499C437.921 218.03 449.075 218.561 449.075 218.561L445.889 213.25Z" fill="black"/>
<path id="Path 333" d="M488.908 171.291C488.908 171.291 470.849 161.731 467.663 180.32C465.667 191.637 461.127 202.354 454.386 211.661C454.386 211.661 444.826 213.786 441.108 210.068C441.108 210.068 450.137 220.691 445.888 221.753C445.888 221.753 455.448 228.653 459.698 226.533C463.948 224.413 467.134 210.068 468.727 206.35C470.32 202.632 476.163 170.229 488.908 171.291Z" fill="#575988"/>
<path id="Path 334" opacity="0.1" d="M488.908 171.291C488.908 171.291 470.849 161.731 467.663 180.32C465.667 191.637 461.127 202.354 454.386 211.661C454.386 211.661 444.826 213.786 441.108 210.068C441.108 210.068 450.137 220.691 445.888 221.753C445.888 221.753 455.448 228.653 459.698 226.533C463.948 224.413 467.134 210.068 468.727 206.35C470.32 202.632 476.163 170.229 488.908 171.291Z" fill="black"/>
<path id="Path 335" d="M478.819 164.917C478.819 164.917 489.973 177.664 490.504 188.287C491.035 198.91 503.251 177.133 504.313 176.602C505.375 176.071 493.69 158.012 492.628 152.17C491.566 146.328 478.819 164.917 478.819 164.917Z" fill="#F7C4A7"/>
<path id="Path 336" d="M486.521 170.362L479.483 176.736L482.803 190.147L491.832 181.647L490.77 173.147L486.521 170.362Z" fill="#F7C4A7"/>
<path id="Path 337" d="M339.661 264.771H327.445L332.225 276.456L343.91 273.271L339.661 264.771Z" fill="#F7C4A7"/>
<path id="Path 338" opacity="0.1" d="M330.271 263.087C330.271 263.087 317.619 271.899 306.811 269.158C296.003 266.417 293.065 267.442 291.811 270.98C290.648 274.236 322.001 291.455 326.999 294.175C327.077 294.217 327.163 294.241 327.251 294.245C327.339 294.248 327.427 294.232 327.508 294.196C327.589 294.16 327.66 294.105 327.717 294.037C327.773 293.969 327.813 293.889 327.833 293.803C328.173 292.358 328.996 289.262 329.878 289.023C331.025 288.715 336.252 278.932 335.965 275.086C335.678 271.24 330.271 263.087 330.271 263.087Z" fill="black"/>
<path id="Path 339" d="M329.74 263.087C329.74 263.087 317.088 271.899 306.28 269.158C295.472 266.417 292.534 267.442 291.28 270.98C290.117 274.236 321.47 291.455 326.468 294.175C326.546 294.217 326.632 294.241 326.72 294.245C326.808 294.248 326.896 294.232 326.977 294.196C327.058 294.16 327.129 294.105 327.186 294.037C327.242 293.969 327.282 293.889 327.302 293.803C327.642 292.358 328.465 289.262 329.347 289.023C330.494 288.715 335.721 278.932 335.434 275.086C335.147 271.24 329.74 263.087 329.74 263.087Z" fill="#F3B5B7"/>
<path id="Path 340" d="M434.204 241.932L398.619 237.152C398.619 237.152 340.725 264.771 333.819 265.302L335.412 277.518H346.035C350.284 277.518 391.713 268.489 397.555 259.459C400.935 258.56 404.527 258.939 407.646 260.521C412.957 263.177 463.946 279.642 463.946 279.642L434.204 241.932Z" fill="#575988"/>
<path id="Path 341" opacity="0.1" d="M434.204 241.932L398.619 237.152C398.619 237.152 340.725 264.771 333.819 265.302L335.412 277.518H346.035C350.284 277.518 391.713 268.489 397.555 259.459C400.935 258.56 404.527 258.939 407.646 260.521C412.957 263.177 463.946 279.642 463.946 279.642L434.204 241.932Z" fill="black"/>
<path id="Path 342" d="M370.998 258.397L365.156 265.833L370.998 269.02L379.498 262.646L370.998 258.397Z" fill="#F7C4A7"/>
<path id="Path 343" d="M472.445 249.9C472.445 249.9 453.324 233.53 452.002 230.561C450.68 227.592 419.332 207.409 417.207 206.878C415.082 206.347 408.178 202.629 401.273 215.378C394.368 228.127 368.873 258.931 368.873 258.931C368.873 258.931 376.84 270.085 379.496 269.554C382.152 269.023 411.896 244.06 414.02 231.843C414.02 231.843 416.145 227.063 420.92 235.03C425.695 242.997 456.506 281.239 462.349 280.708C462.349 280.708 485.188 284.426 489.968 275.397C494.748 266.368 472.445 249.9 472.445 249.9Z" fill="#575988"/>
<path id="Path 344" d="M483.333 172.091C483.333 172.091 476.694 175.012 476.163 187.228C475.632 199.444 463.947 220.158 463.947 220.158L465.009 244.59C465.009 244.59 477.756 257.337 478.819 265.304C479.882 273.271 488.91 278.582 488.91 278.582C488.91 278.582 499.533 273.271 501.126 266.366C502.719 259.461 503.782 242.466 506.437 236.091C509.092 229.716 507.499 189.882 507.499 189.882L499.532 176.072L495.283 171.292L484.129 184.039C484.129 184.039 478.022 175.806 483.333 172.091Z" fill="#DDDBE2"/>
<path id="Path 345" opacity="0.1" d="M467.665 236.62C467.665 236.62 466.072 217.499 470.852 213.25L480.412 186.162C480.412 186.162 483.865 173.149 483.333 172.087C482.801 171.025 470.852 182.449 470.852 182.449L462.885 210.599L465.01 240.343L467.665 236.62Z" fill="black"/>
<path id="Path 346" d="M467.134 236.621C467.134 236.621 465.541 217.5 470.321 213.251L479.881 186.163C479.881 186.163 483.599 172.885 483.068 171.822C482.537 170.759 470.321 182.445 470.321 182.445L462.354 210.595L464.479 240.339L467.134 236.621Z" fill="#575988"/>
<path id="Path 347" d="M470.852 228.123C470.852 228.123 444.295 219.623 442.702 217.5C441.109 215.377 424.112 201.566 418.27 211.126C412.428 220.686 440.047 223.342 440.047 223.342L468.197 240.342L470.852 228.123Z" fill="#F7C4A7"/>
<path id="Path 348" opacity="0.1" d="M372.151 265.786L364.29 264.373C364.29 264.373 351.415 280.865 344.707 279.192C337.999 277.519 331.827 284.737 338.912 287.053C345.312 289.146 372.953 292.072 378.212 292.614C378.319 292.625 378.426 292.614 378.528 292.581C378.63 292.549 378.724 292.495 378.805 292.424C378.885 292.354 378.95 292.267 378.995 292.17C379.04 292.073 379.065 291.967 379.067 291.86C379.108 289.807 379.522 287.779 380.289 285.874C381.707 282.395 380.289 274.922 379.896 272.064C379.679 270.389 379.155 268.769 378.35 267.284L372.151 265.786Z" fill="black"/>
<path id="Path 349" d="M372.019 266.301L364.158 264.888C364.158 264.888 351.283 281.38 344.586 279.712C337.889 278.044 331.706 285.257 338.791 287.573C345.191 289.666 372.832 292.592 378.091 293.134C378.197 293.145 378.305 293.134 378.407 293.101C378.509 293.068 378.603 293.015 378.683 292.944C378.764 292.873 378.829 292.787 378.874 292.69C378.919 292.592 378.944 292.487 378.946 292.38C378.972 290.332 379.37 288.305 380.12 286.399C381.538 282.92 380.12 275.447 379.727 272.589C379.51 270.914 378.986 269.294 378.181 267.809L372.019 266.301Z" fill="#F3B5B7"/>
<path id="Ellipse 92" opacity="0.1" d="M483 171.055C492.389 171.055 500 163.444 500 154.055C500 144.666 492.389 137.055 483 137.055C473.611 137.055 466 144.666 466 154.055C466 163.444 473.611 171.055 483 171.055Z" fill="black"/>
<path id="Ellipse 93" d="M481 171.055C490.389 171.055 498 163.444 498 154.055C498 144.666 490.389 137.055 481 137.055C471.611 137.055 464 144.666 464 154.055C464 163.444 471.611 171.055 481 171.055Z" fill="#F7C4A7"/>
<path id="Path 350" d="M497.94 170.76C497.94 170.76 518.123 177.66 518.123 192.005C518.123 206.35 506.969 229.184 506.438 247.774C505.907 266.364 476.694 263.708 476.694 263.708C476.694 263.708 472.445 201.034 476.694 196.254C480.943 191.474 500.062 172.885 497.94 170.76Z" fill="#575988"/>
<path id="Path 351" opacity="0.1" d="M494.222 200.503C494.222 200.503 486.786 233.433 469.259 227.591C469.259 227.591 460.23 240.869 466.603 246.712C466.603 246.712 482.003 250.43 492.098 240.338C502.193 230.246 509.625 226.528 511.219 214.312C512.813 202.096 513.875 185.1 508.563 186.693C503.251 188.286 494.222 200.503 494.222 200.503Z" fill="black"/>
<path id="Path 352" d="M494.753 199.972C494.753 199.972 487.317 232.902 469.79 227.06C469.79 227.06 460.761 240.338 467.134 246.181C467.134 246.181 482.534 249.899 492.628 239.807C502.722 229.715 510.155 225.997 511.749 213.781C513.343 201.565 514.405 184.569 509.093 186.162C503.781 187.755 494.753 199.972 494.753 199.972Z" fill="#575988"/>
<path id="Path 353" d="M380.581 284.689C380.573 284.741 380.557 284.791 380.533 284.838C380.167 285.746 379.888 286.687 379.699 287.648C379.826 287.234 379.975 286.809 380.145 286.384C380.354 285.837 380.5 285.269 380.581 284.689V284.689Z" fill="#DDDBE2"/>
<path id="Path 354" d="M339.179 286.022C336.991 285.305 336.072 284.122 336.035 282.883C335.135 284.615 335.7 286.558 338.792 287.568C345.192 289.661 372.838 292.587 378.092 293.129C378.199 293.14 378.307 293.129 378.41 293.096C378.512 293.063 378.606 293.009 378.687 292.937C378.767 292.866 378.832 292.778 378.877 292.681C378.922 292.583 378.945 292.477 378.947 292.369V292.369C378.951 292.173 378.881 291.984 378.751 291.837C378.621 291.691 378.442 291.598 378.247 291.578C372.486 290.962 345.494 288.083 339.179 286.022Z" fill="#DDDBE2"/>
<path id="Path 355" d="M292.008 270.045C292.149 269.654 292.327 269.277 292.539 268.919C291.967 269.498 291.539 270.204 291.291 270.98C290.128 274.236 321.481 291.455 326.479 294.175C326.557 294.217 326.643 294.241 326.732 294.244C326.821 294.248 326.909 294.23 326.99 294.194C327.07 294.157 327.142 294.103 327.198 294.034C327.254 293.965 327.293 293.885 327.313 293.798V293.798C327.342 293.676 327.331 293.547 327.28 293.432C327.229 293.317 327.142 293.222 327.032 293.161C321.507 290.138 290.861 273.264 292.008 270.045Z" fill="#DDDBE2"/>
<path id="Path 356" d="M330.069 288.093C329.788 288.167 329.511 288.544 329.251 289.06L329.336 289.028C329.57 288.964 329.968 288.497 330.451 287.806C330.348 287.93 330.216 288.029 330.068 288.093H330.069Z" fill="#DDDBE2"/>
<path id="Path 357" opacity="0.1" d="M478.851 168.992C477.351 172.292 477.04 176.019 475.94 179.482C474.866 182.869 473.023 185.961 470.557 188.519C468.09 191.076 465.067 193.03 461.721 194.226C467.239 196.426 473.751 193.737 478.021 189.276C482.291 184.815 484.788 178.876 487.183 173.098C493.376 177.262 492.622 186.833 494.704 194.285C495.598 197.527 497.177 200.539 499.335 203.119C501.492 205.698 504.179 207.784 507.212 209.236C510.235 210.592 513.522 211.261 516.835 211.194C520.147 211.127 523.404 210.326 526.37 208.848C520.692 201.948 512.608 192.42 513.57 183.199C514.351 175.731 508.992 170.027 509.358 162.532C509.889 151.909 505.821 146.513 498.204 139.693C493.753 135.704 500.759 130.079 495.017 131.726C492.76 132.374 490.38 129.957 488.165 130.754C483.778 132.347 478.987 131.731 474.472 132.794C451.004 138.308 481.039 164.169 478.851 168.992Z" fill="black"/>
<path id="Path 358" d="M479.382 168.46C477.882 171.76 477.571 175.487 476.471 178.95C475.397 182.337 473.554 185.429 471.088 187.987C468.621 190.544 465.598 192.498 462.252 193.694C467.77 195.894 474.282 193.205 478.552 188.744C482.822 184.283 485.319 178.344 487.714 172.566C493.907 176.73 493.153 186.301 495.235 193.753C496.129 196.995 497.708 200.007 499.866 202.587C502.023 205.166 504.71 207.252 507.743 208.704C510.766 210.06 514.053 210.729 517.366 210.662C520.678 210.595 523.935 209.794 526.901 208.316C521.223 201.416 513.67 193.481 514.632 184.261C515.413 176.793 514.25 169.118 514.632 161.629C515.163 151.006 509.953 140.745 502.332 133.929C497.881 129.94 490.932 129.429 488.708 130.211C484.321 131.804 479.53 131.188 475.015 132.251C451.535 137.777 481.57 163.638 479.382 168.46Z" fill="#FC6681"/>
</g>
</g>
<defs>
<linearGradient id="paint0_linear" x1="314.99" y1="245.386" x2="314.99" y2="51.1331" gradientUnits="userSpaceOnUse">
<stop stop-color="#808080" stop-opacity="0.251"/>
<stop offset="0.54" stop-color="#808080" stop-opacity="0.122"/>
<stop offset="1" stop-color="#808080" stop-opacity="0.102"/>
</linearGradient>
<linearGradient id="paint1_linear" x1="208.176" y1="261.111" x2="208.176" y2="83.733" gradientUnits="userSpaceOnUse">
<stop stop-color="#808080" stop-opacity="0.251"/>
<stop offset="0.54" stop-color="#808080" stop-opacity="0.122"/>
<stop offset="1" stop-color="#808080" stop-opacity="0.102"/>
</linearGradient>
<linearGradient id="paint2_linear" x1="149.483" y1="275.473" x2="149.483" y2="136.847" gradientUnits="userSpaceOnUse">
<stop stop-color="#808080" stop-opacity="0.251"/>
<stop offset="0.54" stop-color="#808080" stop-opacity="0.122"/>
<stop offset="1" stop-color="#808080" stop-opacity="0.102"/>
</linearGradient>
<linearGradient id="paint3_linear" x1="407.739" y1="297.222" x2="407.739" y2="128.277" gradientUnits="userSpaceOnUse">
<stop stop-color="#808080" stop-opacity="0.251"/>
<stop offset="0.54" stop-color="#808080" stop-opacity="0.122"/>
<stop offset="1" stop-color="#808080" stop-opacity="0.102"/>
</linearGradient>
</defs>
</svg>
