<svg width="554" height="400" viewBox="0 0 554 400" fill="none" xmlns="http://www.w3.org/2000/svg">
<g id="befitsListSecondIllustration.inline">
<g id="foreground">
<path id="Rectangle 317" d="M496.02 17.379H131.443C114.325 17.379 100.448 31.256 100.448 48.374V317.803C100.448 334.921 114.325 348.798 131.443 348.798H496.02C513.138 348.798 527.015 334.921 527.015 317.803V48.374C527.015 31.256 513.138 17.379 496.02 17.379Z" fill="#F2F2F2"/>
<path id="Rectangle 318" d="M481.534 86.4141H192.705C185.586 86.4141 179.815 92.1851 179.815 99.3041V105.022C179.815 112.141 185.586 117.912 192.705 117.912H481.534C488.653 117.912 494.424 112.141 494.424 105.022V99.3041C494.424 92.1851 488.653 86.4141 481.534 86.4141Z" fill="white"/>
<path id="Rectangle 319" d="M521.94 1H115.995C98.8769 1 85 14.8769 85 31.995V367.823C85 384.941 98.8769 398.818 115.995 398.818H521.94C539.058 398.818 552.935 384.941 552.935 367.823V31.995C552.935 14.8769 539.058 1 521.94 1Z" stroke="#3F3D56" stroke-miterlimit="10"/>
<path id="Line 53" d="M85.315 30.608L552.966 31.202" stroke="#3F3D56" stroke-miterlimit="10"/>
<path id="Ellipse 313" d="M137.292 25.882C141.467 25.882 144.851 22.4978 144.851 18.323C144.851 14.1483 141.467 10.764 137.292 10.764C133.117 10.764 129.733 14.1483 129.733 18.323C129.733 22.4978 133.117 25.882 137.292 25.882Z" fill="#6C63FF"/>
<path id="Ellipse 314" d="M152.16 26.197C156.335 26.197 159.719 22.8127 159.719 18.638C159.719 14.4633 156.335 11.079 152.16 11.079C147.985 11.079 144.601 14.4633 144.601 18.638C144.601 22.8127 147.985 26.197 152.16 26.197Z" fill="#6C63FF"/>
<path id="Ellipse 315" d="M172.75 26.512C176.925 26.512 180.309 23.1278 180.309 18.953C180.309 14.7783 176.925 11.394 172.75 11.394C168.575 11.394 165.191 14.7783 165.191 18.953C165.191 23.1278 168.575 26.512 172.75 26.512Z" fill="#6C63FF"/>
<path id="Ellipse 316" d="M139.196 23.362C143.371 23.362 146.755 19.9777 146.755 15.803C146.755 11.6283 143.371 8.24402 139.196 8.24402C135.021 8.24402 131.637 11.6283 131.637 15.803C131.637 19.9777 135.021 23.362 139.196 23.362Z" stroke="#3F3D56" stroke-miterlimit="10"/>
<path id="Ellipse 317" d="M153.977 23.677C158.152 23.677 161.536 20.2927 161.536 16.118C161.536 11.9432 158.152 8.55896 153.977 8.55896C149.802 8.55896 146.418 11.9432 146.418 16.118C146.418 20.2927 149.802 23.677 153.977 23.677Z" stroke="#3F3D56" stroke-miterlimit="10"/>
<path id="Ellipse 318" d="M174.567 23.992C178.742 23.992 182.126 20.6077 182.126 16.433C182.126 12.2583 178.742 8.87402 174.567 8.87402C170.392 8.87402 167.008 12.2583 167.008 16.433C167.008 20.6077 170.392 23.992 174.567 23.992Z" stroke="#3F3D56" stroke-miterlimit="10"/>
<path id="Rectangle 320" d="M486.051 80.9041H199.083C191.964 80.9041 186.193 86.6751 186.193 93.7941V99.5121C186.193 106.631 191.964 112.402 199.083 112.402H486.051C493.17 112.402 498.941 106.631 498.941 99.5121V93.7941C498.941 86.6751 493.17 80.9041 486.051 80.9041Z" stroke="#3F3D56" stroke-miterlimit="10"/>
<path id="Ellipse 319" d="M469.983 100.928C472.767 100.928 475.023 98.6715 475.023 95.888C475.023 93.1045 472.767 90.848 469.983 90.848C467.199 90.848 464.943 93.1045 464.943 95.888C464.943 98.6715 467.199 100.928 469.983 100.928Z" stroke="#3F3D56" stroke-miterlimit="10"/>
<path id="Line 54" d="M473.406 98.708L482.158 107.772" stroke="#3F3D56" stroke-miterlimit="10"/>
<path id="Rectangle 321" d="M265.065 93.627H208.37C205.239 93.627 202.7 96.1653 202.7 99.2965C202.7 102.428 205.239 104.966 208.37 104.966H265.065C268.196 104.966 270.735 102.428 270.735 99.2965C270.735 96.1653 268.196 93.627 265.065 93.627Z" fill="#6C63FF"/>
<path id="Rectangle 322" d="M266.876 90.854H210.181C207.05 90.854 204.511 93.3923 204.511 96.5235C204.511 99.6547 207.05 102.193 210.181 102.193H266.876C270.007 102.193 272.546 99.6547 272.546 96.5235C272.546 93.3923 270.007 90.854 266.876 90.854Z" stroke="#3F3D56" stroke-miterlimit="10"/>
<path id="Rectangle 323" d="M241.523 152.976H184.828C181.697 152.976 179.158 155.514 179.158 158.645C179.158 161.777 181.697 164.315 184.828 164.315H241.523C244.654 164.315 247.193 161.777 247.193 158.645C247.193 155.514 244.654 152.976 241.523 152.976Z" fill="#6C63FF"/>
<path id="Rectangle 324" d="M241.523 184.591H184.828C181.697 184.591 179.158 187.129 179.158 190.261C179.158 193.392 181.697 195.93 184.828 195.93H241.523C244.654 195.93 247.193 193.392 247.193 190.261C247.193 187.129 244.654 184.591 241.523 184.591Z" fill="white"/>
<path id="Rectangle 325" d="M241.523 216.207H184.828C181.697 216.207 179.158 218.745 179.158 221.877C179.158 225.008 181.697 227.546 184.828 227.546H241.523C244.654 227.546 247.193 225.008 247.193 221.877C247.193 218.745 244.654 216.207 241.523 216.207Z" fill="white"/>
<path id="Rectangle 326" d="M241.523 247.822H184.828C181.697 247.822 179.158 250.36 179.158 253.492C179.158 256.623 181.697 259.161 184.828 259.161H241.523C244.654 259.161 247.193 256.623 247.193 253.492C247.193 250.36 244.654 247.822 241.523 247.822Z" fill="white"/>
<path id="Rectangle 327" d="M241.523 279.437H184.828C181.697 279.437 179.158 281.975 179.158 285.107C179.158 288.238 181.697 290.776 184.828 290.776H241.523C244.654 290.776 247.193 288.238 247.193 285.107C247.193 281.975 244.654 279.437 241.523 279.437Z" fill="white"/>
<path id="Rectangle 328" d="M244.541 149.647H187.846C184.715 149.647 182.176 152.185 182.176 155.316C182.176 158.448 184.715 160.986 187.846 160.986H244.541C247.672 160.986 250.211 158.448 250.211 155.316C250.211 152.185 247.672 149.647 244.541 149.647Z" stroke="#3F3D56" stroke-miterlimit="10"/>
<path id="Rectangle 329" d="M244.541 181.263H187.846C184.715 181.263 182.176 183.801 182.176 186.932C182.176 190.064 184.715 192.602 187.846 192.602H244.541C247.672 192.602 250.211 190.064 250.211 186.932C250.211 183.801 247.672 181.263 244.541 181.263Z" stroke="#3F3D56" stroke-miterlimit="10"/>
<path id="Rectangle 330" d="M244.541 212.878H187.846C184.715 212.878 182.176 215.416 182.176 218.548C182.176 221.679 184.715 224.217 187.846 224.217H244.541C247.672 224.217 250.211 221.679 250.211 218.548C250.211 215.416 247.672 212.878 244.541 212.878Z" stroke="#3F3D56" stroke-miterlimit="10"/>
<path id="Rectangle 331" d="M244.541 244.494H187.846C184.715 244.494 182.176 247.032 182.176 250.164C182.176 253.295 184.715 255.833 187.846 255.833H244.541C247.672 255.833 250.211 253.295 250.211 250.164C250.211 247.032 247.672 244.494 244.541 244.494Z" stroke="#3F3D56" stroke-miterlimit="10"/>
<path id="Rectangle 332" d="M244.541 276.109H187.846C184.715 276.109 182.176 278.647 182.176 281.779C182.176 284.91 184.715 287.448 187.846 287.448H244.541C247.672 287.448 250.211 284.91 250.211 281.779C250.211 278.647 247.672 276.109 244.541 276.109Z" stroke="#3F3D56" stroke-miterlimit="10"/>
<path id="Rectangle 333" d="M473.317 152.976H446.063C443.847 152.976 442.051 154.772 442.051 156.988V160.303C442.051 162.519 443.847 164.315 446.063 164.315H473.317C475.533 164.315 477.329 162.519 477.329 160.303V156.988C477.329 154.772 475.533 152.976 473.317 152.976Z" fill="#57B894"/>
<path id="Rectangle 334" d="M473.317 184.591H446.063C443.847 184.591 442.051 186.387 442.051 188.603V191.918C442.051 194.134 443.847 195.93 446.063 195.93H473.317C475.533 195.93 477.329 194.134 477.329 191.918V188.603C477.329 186.387 475.533 184.591 473.317 184.591Z" fill="white"/>
<path id="Rectangle 335" d="M473.317 216.207H446.063C443.847 216.207 442.051 218.003 442.051 220.219V223.534C442.051 225.75 443.847 227.546 446.063 227.546H473.317C475.533 227.546 477.329 225.75 477.329 223.534V220.219C477.329 218.003 475.533 216.207 473.317 216.207Z" fill="white"/>
<path id="Rectangle 336" d="M473.317 247.822H446.063C443.847 247.822 442.051 249.618 442.051 251.834V255.149C442.051 257.365 443.847 259.161 446.063 259.161H473.317C475.533 259.161 477.329 257.365 477.329 255.149V251.834C477.329 249.618 475.533 247.822 473.317 247.822Z" fill="white"/>
<path id="Rectangle 337" d="M473.317 279.437H446.063C443.847 279.437 442.051 281.233 442.051 283.449V286.764C442.051 288.98 443.847 290.776 446.063 290.776H473.317C475.533 290.776 477.329 288.98 477.329 286.764V283.449C477.329 281.233 475.533 279.437 473.317 279.437Z" fill="white"/>
<path id="Rectangle 338" d="M476.342 149.647H449.088C446.872 149.647 445.076 151.443 445.076 153.659V156.974C445.076 159.19 446.872 160.986 449.088 160.986H476.342C478.558 160.986 480.354 159.19 480.354 156.974V153.659C480.354 151.443 478.558 149.647 476.342 149.647Z" stroke="#3F3D56" stroke-miterlimit="10"/>
<path id="Rectangle 339" d="M476.342 181.263H449.088C446.872 181.263 445.076 183.059 445.076 185.275V188.59C445.076 190.806 446.872 192.602 449.088 192.602H476.342C478.558 192.602 480.354 190.806 480.354 188.59V185.275C480.354 183.059 478.558 181.263 476.342 181.263Z" stroke="#3F3D56" stroke-miterlimit="10"/>
<path id="Rectangle 340" d="M476.342 212.878H449.088C446.872 212.878 445.076 214.674 445.076 216.89V220.205C445.076 222.421 446.872 224.217 449.088 224.217H476.342C478.558 224.217 480.354 222.421 480.354 220.205V216.89C480.354 214.674 478.558 212.878 476.342 212.878Z" stroke="#3F3D56" stroke-miterlimit="10"/>
<path id="Rectangle 341" d="M476.342 244.494H449.088C446.872 244.494 445.076 246.29 445.076 248.506V251.821C445.076 254.037 446.872 255.833 449.088 255.833H476.342C478.558 255.833 480.354 254.037 480.354 251.821V248.506C480.354 246.29 478.558 244.494 476.342 244.494Z" stroke="#3F3D56" stroke-miterlimit="10"/>
<path id="Rectangle 342" d="M476.342 276.109H449.088C446.872 276.109 445.076 277.905 445.076 280.121V283.436C445.076 285.652 446.872 287.448 449.088 287.448H476.342C478.558 287.448 480.354 285.652 480.354 283.436V280.121C480.354 277.905 478.558 276.109 476.342 276.109Z" stroke="#3F3D56" stroke-miterlimit="10"/>
</g>
<g id="human">
<path id="Line 55" d="M0 383.411H184.42" stroke="#3F3D56" stroke-miterlimit="10"/>
<path id="Rectangle 343" d="M143.058 184.417H108.44V229.825H143.058V184.417Z" fill="#2F2E41"/>
<path id="Path 1531" d="M85.617 356.31C85.617 356.31 95.283 356.31 98.205 359.457C101.127 362.604 100.005 370.022 103.15 371.146C106.295 372.27 113.49 381.261 107.196 382.386C102.804 383.17 94.032 383.517 89.133 383.654C86.9863 383.713 84.8844 383.033 83.18 381.726C82.016 380.83 80.8031 380 79.547 379.239C76.175 377.216 79.547 363.729 79.547 363.729L85.617 356.31Z" fill="#575A89"/>
<path id="Path 1532" opacity="0.1" d="M85.617 356.31C85.617 356.31 95.283 356.31 98.205 359.457C101.127 362.604 100.005 370.022 103.15 371.146C106.295 372.27 113.49 381.261 107.196 382.386C102.804 383.17 94.032 383.517 89.133 383.654C86.9863 383.713 84.8844 383.033 83.18 381.726C82.016 380.83 80.8031 380 79.547 379.239C76.175 377.216 79.547 363.729 79.547 363.729L85.617 356.31Z" fill="black"/>
<path id="Path 1533" d="M122.931 268.642C122.931 271.115 120.908 283.029 120.908 283.029L100.003 363.053C100.003 363.053 84.717 359.231 83.369 359.453C83.086 359.5 83.169 358.19 83.475 356.074C84.116 351.646 85.739 343.697 87.058 337.304C88.121 332.152 88.989 328.009 88.989 327.532C88.989 326.979 89.481 317.698 90.061 306.932C90.893 291.448 91.911 272.903 91.911 272.903L88.539 223.903L89.439 204.571L94.834 181.418L130.576 191.084L132.264 202.484L132.374 203.224C132.374 203.224 128.998 255.364 127.2 256.938C125.402 258.512 122.931 266.169 122.931 268.642Z" fill="#3F3D56"/>
<path id="Path 1534" d="M79.322 345.745C79.322 345.745 65.835 345.52 64.486 347.094C63.565 348.168 58.455 358.878 55.304 365.569C54.015 368.262 53.7464 371.331 54.548 374.208C55.3495 377.084 57.1669 379.572 59.663 381.21C62.1025 382.746 64.995 383.4 67.858 383.061C79.997 381.937 79.322 374.294 79.322 374.294L82.922 362.605L82.022 347.319L79.322 345.745Z" fill="#575A89"/>
<path id="Path 1535" opacity="0.1" d="M83.474 356.078C84.115 351.65 85.738 343.701 87.057 337.308C86.54 344.892 84.625 356.696 84.043 356.308C83.8597 356.216 83.6695 356.139 83.474 356.078V356.078Z" fill="black"/>
<path id="Path 1536" opacity="0.1" d="M100.228 269.315C100.453 270.664 97.98 274.715 96.407 279.655C94.834 284.595 90.562 315.621 90.562 315.621C90.562 315.621 90.362 317.048 90.062 319.303C90.894 303.819 91.912 285.274 91.912 285.274L88.54 236.274L89.44 216.942L94.835 193.789L130.577 203.455L132.265 214.855L97.758 201.655C97.758 201.655 97.084 213.794 97.084 216.266C97.084 218.738 100.007 267.966 100.228 269.315Z" fill="black"/>
<path id="Path 1537" d="M62.238 157.595C62.238 157.595 51.448 171.982 54.595 187.717C57.742 203.452 61.788 243.017 64.711 246.837C67.634 250.657 64.711 257.852 64.711 257.852C64.711 257.852 59.541 325.739 59.99 327.986C60.439 330.233 61.339 340.799 62.463 342.597C63.587 344.395 62.913 350.24 62.913 350.24C62.913 350.24 81.346 355.86 82.02 356.309C82.694 356.758 85.167 340.799 85.167 334.055C85.167 327.311 88.539 303.255 88.539 303.255C88.539 303.255 92.81 272.234 94.384 267.289C95.958 262.344 98.43 258.297 98.205 256.949C97.98 255.601 95.058 206.371 95.058 203.899C95.058 201.427 95.732 189.288 95.732 189.288L132.277 203.263C132.277 203.263 140.406 165.355 136.277 161.586C132.148 157.817 62.238 157.595 62.238 157.595Z" fill="#3F3D56"/>
<path id="Ellipse 320" d="M92.922 71.7439C108.316 71.7439 120.796 66.8629 120.796 60.8419C120.796 54.8209 108.316 49.9399 92.922 49.9399C77.5276 49.9399 65.048 54.8209 65.048 60.8419C65.048 66.8629 77.5276 71.7439 92.922 71.7439Z" fill="#2F2E41"/>
<path id="Path 1538" d="M76.824 35.837C73.4277 38.7559 70.9538 42.5997 69.704 46.9C69.234 48.554 69.014 50.484 70.127 51.835C70.5477 52.2249 70.9146 52.6692 71.218 53.156C71.4006 53.8749 71.4102 54.6268 71.246 55.35C71.2812 56.7371 71.6507 58.0953 72.323 59.309L76.023 67.459C76.432 66.748 76.437 65.875 76.859 65.171C77.678 63.805 79.637 63.606 81.297 63.571L86.476 63.45C87.8717 63.5209 89.2657 63.2819 90.558 62.75C92.064 61.985 92.969 60.496 94.179 59.35C95.7433 57.9004 97.7524 57.0231 99.879 56.861C99.1383 57.9782 98.235 58.9785 97.199 59.829C100.109 59.5309 102.802 58.1581 104.753 55.979L104.761 58.385C105.622 58.708 106.361 57.426 107.28 57.53C108.372 57.653 108.169 59.17 108.114 60.208C108.128 61.1599 108.505 62.0706 109.168 62.7536C109.831 63.4366 110.73 63.8403 111.681 63.882C112.814 59.04 113.953 54.106 113.501 49.165C113.049 44.224 110.748 39.184 106.339 36.498C104.545 35.4595 102.587 34.7342 100.549 34.353C96.3314 33.6354 92.0475 33.3849 87.775 33.606C85.3266 33.5423 82.8797 33.7814 80.49 34.318C78.1206 34.847 76.0445 36.2652 74.69 38.28" fill="#3F3D56"/>
<path id="Path 1539" d="M80.896 57.017C80.896 57.017 79.772 66.233 78.196 66.233C76.62 66.233 84.94 81.294 84.94 81.294L107.419 83.094L120.906 74.552L114.387 63.537C114.387 63.537 103.822 61.737 105.171 55.669C106.52 49.601 80.896 57.017 80.896 57.017Z" fill="#FBBEBE"/>
<path id="Path 1540" opacity="0.1" d="M80.896 57.017C80.896 57.017 79.772 66.233 78.196 66.233C76.62 66.233 84.94 81.294 84.94 81.294L107.419 83.094L120.906 74.552L114.387 63.537C114.387 63.537 103.822 61.737 105.171 55.669C106.52 49.601 80.896 57.017 80.896 57.017Z" fill="black"/>
<path id="Ellipse 321" d="M93.035 76.251C103.836 76.251 112.592 67.495 112.592 56.694C112.592 45.8929 103.836 37.137 93.035 37.137C82.234 37.137 73.478 45.8929 73.478 56.694C73.478 67.495 82.234 76.251 93.035 76.251Z" fill="#FBBEBE"/>
<path id="Path 1541" d="M94.834 71.4731C94.834 71.4731 108.321 72.1471 112.592 57.0861C112.592 57.0861 125.855 59.786 126.979 66.078C128.103 72.37 144.512 194.658 139.121 200.052C133.73 205.446 78.877 200.052 66.739 200.052C54.601 200.052 47.632 202.525 47.632 202.525L64.042 125.872L65.842 73.4961L68.989 59.5591C68.989 59.5591 78.258 56.774 79.356 59.291C80.454 61.808 83.593 73.9461 94.834 71.4731Z" fill="#575A89"/>
<path id="Path 1542" d="M79.965 54.21C79.965 54.21 74.377 51.962 70.33 54.21C66.283 56.458 54.595 55.559 53.021 58.031C51.447 60.503 37.735 74.441 38.185 76.239C38.635 78.037 49.2 116.027 51.223 117.376C53.246 118.725 48.523 197.851 42.456 207.292C36.389 216.733 35.263 244.832 38.185 248.878C41.107 252.924 38.635 246.405 44.704 243.933C50.773 241.461 56.618 226.624 56.618 226.624C56.618 226.624 60.439 183.464 62.912 174.024C65.385 164.584 86.512 131.089 84.941 109.734C83.37 88.379 72.128 67.024 74.601 64.102C77.074 61.18 81.957 57.582 79.965 54.21Z" fill="#2F2E41"/>
<path id="Path 1543" d="M109.107 53.887C109.107 53.887 118.207 49.504 123.831 54.449C129.455 59.394 151.705 67.262 151.48 72.207C151.255 77.152 135.52 114.468 135.52 114.468C135.52 114.468 136.194 145.268 139.341 154.031C142.488 162.794 162.719 235.405 155.301 240.575C147.883 245.745 138.891 248.443 132.822 249.567C126.753 250.691 133.272 237.653 133.946 231.134C134.62 224.615 142.938 201.234 131.698 187.3C120.458 173.366 100.228 131.1 101.576 107.949C102.924 84.798 105.397 77.602 105.397 77.602C105.397 77.602 112.703 55.46 109.107 53.887Z" fill="#2F2E41"/>
<path id="Path 1544" d="M42.682 78.114H38.723C38.723 78.114 35.264 93.624 31.442 95.872C27.62 98.12 25.597 101.267 25.597 103.065C25.597 104.863 22.897 107.336 20.427 109.809C17.957 112.282 12.784 117.901 13.459 121.273C14.134 124.645 13.009 143.527 18.854 143.527C24.699 143.527 36.837 141.727 38.636 139.027C40.435 136.327 52.573 116.998 52.573 116.998L42.682 78.114Z" fill="#2F2E41"/>
<path id="Path 1546" d="M77.051 27.745C73.8047 30.721 71.4699 34.5574 70.318 38.808C69.873 40.462 69.665 42.392 70.718 43.743C71.1185 44.1362 71.4655 44.5803 71.75 45.064C71.9225 45.7842 71.9314 46.5339 71.776 47.258C71.8074 48.6383 72.1557 49.9928 72.794 51.217L76.294 59.367C76.681 58.656 76.686 57.783 77.085 57.079C77.859 55.713 79.712 55.514 81.285 55.479L86.185 55.358C87.5086 55.4283 88.8303 55.1886 90.045 54.658C91.469 53.893 92.325 52.404 93.469 51.258C94.9185 49.8218 96.8267 48.9408 98.86 48.769C98.1666 49.8781 97.3126 50.8783 96.326 51.737C99.1133 51.4194 101.671 50.0407 103.469 47.887L103.467 50.284C104.281 50.607 104.979 49.325 105.849 49.429C106.881 49.552 106.689 51.069 106.638 52.107C106.628 53.0335 106.971 53.9292 107.597 54.6117C108.224 55.2943 109.087 55.7124 110.011 55.781C111.082 50.939 112.16 46.005 111.732 41.064C111.304 36.123 109.132 31.083 104.96 28.396C103.276 27.3626 101.423 26.6363 99.485 26.251C95.5014 25.5337 91.4477 25.283 87.406 25.504C85.0888 25.4406 82.7732 25.68 80.518 26.216C78.2415 26.7694 76.2718 28.1914 75.03 30.178" fill="#3F3D56"/>
<path id="Rectangle 344" d="M110.549 70.493H53.854C50.7225 70.493 48.184 73.0314 48.184 76.1625C48.184 79.2937 50.7225 81.832 53.854 81.832H110.549C113.68 81.832 116.219 79.2937 116.219 76.1625C116.219 73.0314 113.68 70.493 110.549 70.493Z" fill="#6C63FF"/>
<path id="Rectangle 345" d="M112.439 67.72H55.744C52.6126 67.72 50.074 70.2583 50.074 73.3895C50.074 76.5206 52.6126 79.059 55.744 79.059H112.439C115.57 79.059 118.109 76.5206 118.109 73.3895C118.109 70.2583 115.57 67.72 112.439 67.72Z" stroke="#F2F2F2" stroke-miterlimit="10"/>
<path id="Path 1547" d="M33.915 103.898C33.915 103.898 43.131 93.333 41.783 89.961C40.435 86.589 44.705 61.638 52.573 64.11C60.441 66.582 57.073 91.534 57.073 91.534L44.93 112.215L38.636 109.967L33.915 103.898Z" fill="#FBBEBE"/>
<path id="Path 1548" d="M36.613 93.019L19.304 114.149C19.304 114.149 10.987 136.403 22.226 136.403C33.465 136.403 42.232 121.792 42.232 121.792L51.448 99.5381C51.448 99.5381 44.929 108.754 39.984 103.809C38.5601 102.439 37.5048 100.732 36.9155 98.8461C36.3263 96.9601 36.2222 94.9559 36.613 93.019V93.019Z" fill="#2F2E41"/>
<path id="Rectangle 346" d="M124.643 194.021H97.389C95.1732 194.021 93.377 195.817 93.377 198.033V201.348C93.377 203.564 95.1732 205.36 97.389 205.36H124.643C126.859 205.36 128.655 203.564 128.655 201.348V198.033C128.655 195.817 126.859 194.021 124.643 194.021Z" fill="#57B894"/>
<path id="Rectangle 347" d="M127.793 190.693H100.539C98.3232 190.693 96.527 192.489 96.527 194.705V198.02C96.527 200.236 98.3232 202.032 100.539 202.032H127.793C130.009 202.032 131.805 200.236 131.805 198.02V194.705C131.805 192.489 130.009 190.693 127.793 190.693Z" stroke="#F2F2F2" stroke-miterlimit="10"/>
<path id="Path 1549" d="M125.147 180.436C125.147 180.436 108.752 203.536 118.868 208.259C128.984 212.982 141.797 191.849 141.797 191.849L125.147 180.436Z" fill="#FBBEBE"/>
<path id="Path 1550" d="M137.646 69.3361L146.638 72.708C146.638 72.708 152.033 99.458 153.831 105.752C155.629 112.046 158.102 165.546 152.031 176.336C145.96 187.126 134.273 208.93 134.273 208.93C134.273 208.93 123.483 192.97 116.065 194.094C116.065 194.094 126.405 185.102 127.979 180.382C129.553 175.662 134.273 162.174 134.498 154.531C134.723 146.888 133.769 117.124 128.398 111.887C123.027 106.65 137.646 69.3361 137.646 69.3361Z" fill="#2F2E41"/>
</g>
<g id="background">
<path id="Path 1551" d="M408.273 280.739C408.273 323.717 435.235 358.494 468.555 358.494Z" fill="#46455B"/>
<path id="Path 1552" d="M468.554 358.49C468.554 315.029 498.642 279.861 535.825 279.861Z" fill="#6C63FF"/>
<path id="Path 1553" d="M430.114 284.634C430.114 325.459 447.307 358.493 468.555 358.493Z" fill="#6C63FF"/>
<path id="Path 1554" d="M468.554 358.494C468.554 302.961 503.331 258.024 546.309 258.024Z" fill="#46455B"/>
<path id="Path 1555" d="M455.873 359.042C455.873 359.042 464.422 358.779 466.998 356.942C469.574 355.105 480.149 352.917 480.788 355.859C481.427 358.801 493.635 370.493 483.988 370.571C474.341 370.649 461.562 369.071 458.988 367.501C456.414 365.931 455.873 359.042 455.873 359.042Z" fill="#A8A8A8"/>
<path id="Line 56" d="M407.84 370.738L543.958 370.44" stroke="#3F3D56" stroke-miterlimit="10"/>
</g>
</g>
</svg>
