<svg width="546" height="419" viewBox="0 0 546 419" fill="none" xmlns="http://www.w3.org/2000/svg">
<g id="befitsListFirstIllustration.inline">
<g id="background">
<path id="Path 1" opacity="0.1" d="M31.411 215.125C49.934 238.677 42.738 273.078 30.969 300.636C27.025 309.864 22.569 319.621 24.215 329.514C26.247 341.614 37.043 350.458 48.38 355.145C58.7819 359.343 70.0216 361.051 81.201 360.13C92.3804 359.21 103.19 355.688 112.765 349.845C129.173 339.635 140.926 323.035 157.615 313.293C185.547 296.993 221.096 303.146 251.424 314.379C272.882 322.323 296.341 332.658 317.659 324.355C332.659 318.51 343.03 304.289 348.683 289.211C351.411 281.937 353.39 274.055 358.602 268.283C361.837 264.965 365.662 262.28 369.882 260.365C407.691 241.619 455.44 251.657 492.164 230.865C516.964 216.837 532.841 190.338 539.871 162.718C546.901 135.098 546.106 106.136 544.298 77.6951C543.03 57.4781 540.755 35.9011 527.838 20.2951C514.173 3.79506 490.725 -2.34795 469.531 0.795053C448.337 3.93805 429.123 15.1121 412.221 28.2761C391.1 44.7361 371.507 65.2281 345.575 71.9201C327.909 76.4611 309.335 73.9981 291.119 73.1201C260.667 71.6811 230.204 74.8811 199.919 78.3781C170.927 81.7291 141.727 85.4181 114.106 94.8481C94.565 101.498 78.906 113.615 60.45 122.058C48.422 127.576 35.303 129.098 23.908 136.128C9.87999 144.784 -2.98501 159.841 0.607988 177.46C4.02899 194.223 21.58 202.624 31.411 215.125Z" fill="#6C63FF"/>
<path id="Path 18" d="M103.21 220.56C103.21 220.56 104.893 193.095 91.556 176.22C85.9159 169.178 82.7125 160.496 82.427 151.478C82.3264 147.194 82.6186 142.909 83.3 138.678" stroke="#535461" stroke-width="2" stroke-miterlimit="10"/>
<path id="Path 19" d="M74.956 127.994C75.678 131.148 83.482 138.983 83.482 138.983C83.482 138.983 87.119 128.529 86.376 125.383C86.2053 124.632 85.8884 123.923 85.4434 123.295C84.9985 122.667 84.4342 122.132 83.7827 121.722C83.1313 121.312 82.4054 121.035 81.6467 120.905C80.8879 120.776 80.1111 120.797 79.3605 120.968C78.6099 121.138 77.9003 121.455 77.2722 121.9C76.6441 122.345 76.1098 122.909 75.6998 123.561C75.2898 124.212 75.0121 124.938 74.8826 125.697C74.7531 126.456 74.7743 127.232 74.945 127.983L74.956 127.994Z" fill="#6C63FF"/>
<path id="Path 20" d="M69.521 147.627C71.843 149.882 82.651 152.22 82.651 152.22C82.651 152.22 80.006 141.48 77.684 139.231C76.5656 138.172 75.0751 137.596 73.5352 137.628C71.9954 137.66 70.5302 138.298 69.4568 139.402C68.3834 140.507 67.7883 141.99 67.8003 143.53C67.8123 145.07 68.4305 146.543 69.521 147.631V147.627Z" fill="#6C63FF"/>
<path id="Path 21" d="M76.769 177.384C79.886 178.158 90.418 174.719 90.418 174.719C90.418 174.719 82.713 166.785 79.574 166.011C78.8272 165.827 78.0515 165.791 77.2911 165.907C76.5306 166.023 75.8004 166.287 75.1421 166.685C74.4838 167.082 73.9103 167.606 73.4543 168.225C72.9983 168.845 72.6687 169.548 72.4845 170.295C72.3003 171.041 72.2649 171.817 72.3805 172.577C72.496 173.338 72.7602 174.068 73.158 174.726C73.5557 175.385 74.0792 175.958 74.6987 176.414C75.3181 176.87 76.0212 177.2 76.768 177.384H76.769Z" fill="#6C63FF"/>
<path id="Path 22" d="M87.322 198.655C90.289 199.949 101.222 198.333 101.222 198.333C101.222 198.333 94.987 189.209 92.005 187.942C90.5813 187.322 88.9696 187.293 87.5243 187.861C86.0791 188.429 84.9187 189.548 84.2985 190.972C83.6783 192.395 83.649 194.007 84.2172 195.452C84.7853 196.897 85.9043 198.058 87.328 198.678L87.322 198.655Z" fill="#6C63FF"/>
<path id="Path 23" d="M94.777 150.085C93.021 152.802 83.003 157.485 83.003 157.485C83.003 157.485 83.185 146.428 84.946 143.711C85.3607 143.058 85.9007 142.493 86.5349 142.05C87.169 141.607 87.8847 141.293 88.6407 141.128C89.3966 140.963 90.1778 140.949 90.939 141.088C91.7003 141.226 92.4266 141.514 93.0759 141.935C93.7253 142.356 94.2848 142.901 94.7222 143.539C95.1596 144.177 95.4662 144.896 95.6243 145.654C95.7823 146.411 95.7888 147.192 95.6432 147.952C95.4976 148.712 95.2028 149.436 94.776 150.081L94.777 150.085Z" fill="#6C63FF"/>
<path id="Path 24" d="M106.806 175.123C104.317 177.201 93.354 178.667 93.354 178.667C93.354 178.667 96.835 168.167 99.329 166.104C100.525 165.113 102.066 164.637 103.613 164.781C104.379 164.853 105.123 165.075 105.804 165.434C106.484 165.793 107.087 166.283 107.577 166.876C108.068 167.468 108.438 168.151 108.665 168.886C108.892 169.621 108.972 170.394 108.9 171.16C108.828 171.926 108.607 172.67 108.247 173.35C107.888 174.03 107.398 174.633 106.806 175.124V175.123Z" fill="#6C63FF"/>
<path id="Path 25" d="M115.156 201.065C113.056 203.523 102.499 206.832 102.499 206.832C102.499 206.832 104.156 195.921 106.266 193.443C106.764 192.849 107.374 192.359 108.063 192.002C108.751 191.645 109.503 191.429 110.276 191.365C111.048 191.301 111.826 191.391 112.564 191.63C113.301 191.868 113.984 192.251 114.573 192.756C115.161 193.261 115.644 193.877 115.992 194.57C116.341 195.262 116.548 196.017 116.603 196.79C116.658 197.563 116.559 198.34 116.311 199.075C116.063 199.809 115.673 200.488 115.161 201.07L115.156 201.065Z" fill="#6C63FF"/>
<path id="Path 26" opacity="0.5" d="M74.956 127.994C75.678 131.148 83.482 138.983 83.482 138.983C83.482 138.983 87.119 128.529 86.376 125.383C86.2053 124.632 85.8884 123.923 85.4434 123.295C84.9985 122.667 84.4342 122.132 83.7827 121.722C83.1313 121.312 82.4054 121.035 81.6467 120.905C80.8879 120.776 80.1111 120.797 79.3605 120.968C78.6099 121.138 77.9003 121.455 77.2722 121.9C76.6441 122.345 76.1098 122.909 75.6998 123.561C75.2898 124.212 75.0121 124.938 74.8826 125.697C74.7531 126.456 74.7743 127.232 74.945 127.983L74.956 127.994Z" fill="white"/>
<path id="Path 27" opacity="0.5" d="M69.521 147.627C71.843 149.882 82.651 152.22 82.651 152.22C82.651 152.22 80.006 141.48 77.684 139.231C76.5656 138.172 75.0751 137.596 73.5352 137.628C71.9954 137.66 70.5302 138.298 69.4568 139.402C68.3834 140.507 67.7883 141.99 67.8003 143.53C67.8123 145.07 68.4305 146.543 69.521 147.631V147.627Z" fill="white"/>
<path id="Path 28" opacity="0.5" d="M76.769 177.384C79.886 178.158 90.418 174.719 90.418 174.719C90.418 174.719 82.713 166.785 79.574 166.011C78.8272 165.827 78.0515 165.791 77.2911 165.907C76.5306 166.023 75.8004 166.287 75.1421 166.685C74.4838 167.082 73.9103 167.606 73.4543 168.225C72.9983 168.845 72.6687 169.548 72.4845 170.295C72.3003 171.041 72.2649 171.817 72.3805 172.577C72.496 173.338 72.7602 174.068 73.158 174.726C73.5557 175.385 74.0792 175.958 74.6987 176.414C75.3181 176.87 76.0212 177.2 76.768 177.384H76.769Z" fill="white"/>
<path id="Path 29" opacity="0.5" d="M87.322 198.655C90.289 199.949 101.222 198.333 101.222 198.333C101.222 198.333 94.987 189.209 92.005 187.942C90.5813 187.322 88.9696 187.293 87.5243 187.861C86.0791 188.429 84.9187 189.548 84.2985 190.972C83.6783 192.395 83.649 194.007 84.2172 195.452C84.7853 196.897 85.9043 198.058 87.328 198.678L87.322 198.655Z" fill="white"/>
<path id="Path 30" opacity="0.5" d="M94.777 150.085C93.021 152.802 83.003 157.485 83.003 157.485C83.003 157.485 83.185 146.428 84.946 143.711C85.3607 143.058 85.9007 142.493 86.5349 142.05C87.169 141.607 87.8847 141.293 88.6407 141.128C89.3966 140.963 90.1778 140.949 90.939 141.088C91.7003 141.226 92.4266 141.514 93.0759 141.935C93.7253 142.356 94.2848 142.901 94.7222 143.539C95.1596 144.177 95.4662 144.896 95.6243 145.654C95.7823 146.411 95.7888 147.192 95.6432 147.952C95.4976 148.712 95.2028 149.436 94.776 150.081L94.777 150.085Z" fill="white"/>
<path id="Path 31" opacity="0.5" d="M106.806 175.123C104.317 177.201 93.354 178.667 93.354 178.667C93.354 178.667 96.835 168.167 99.329 166.104C100.525 165.113 102.066 164.637 103.613 164.781C104.379 164.853 105.123 165.075 105.804 165.434C106.484 165.793 107.087 166.283 107.577 166.876C108.068 167.468 108.438 168.151 108.665 168.886C108.892 169.621 108.972 170.394 108.9 171.16C108.828 171.926 108.607 172.67 108.247 173.35C107.888 174.03 107.398 174.633 106.806 175.124V175.123Z" fill="white"/>
<path id="Path 32" opacity="0.5" d="M115.156 201.065C113.056 203.523 102.499 206.832 102.499 206.832C102.499 206.832 104.156 195.921 106.266 193.443C106.764 192.849 107.374 192.359 108.063 192.002C108.751 191.645 109.503 191.429 110.276 191.365C111.048 191.301 111.826 191.391 112.564 191.63C113.301 191.868 113.984 192.251 114.573 192.756C115.161 193.261 115.644 193.877 115.992 194.57C116.341 195.262 116.548 196.017 116.603 196.79C116.658 197.563 116.559 198.34 116.311 199.075C116.063 199.809 115.673 200.488 115.161 201.07L115.156 201.065Z" fill="white"/>
<path id="Path 2" d="M98.607 318.084C98.607 318.084 96.892 267.291 69.412 238.589C57.8092 226.629 50.4 211.227 48.297 194.696C47.3596 186.84 47.144 178.914 47.653 171.019" stroke="#535461" stroke-width="2" stroke-miterlimit="10"/>
<path id="Path 3" d="M30.439 152.845C32.32 158.519 48.039 171.545 48.039 171.545C48.039 171.545 52.855 151.692 50.975 146.024C50.5277 144.675 49.8192 143.428 48.8899 142.353C47.9605 141.279 46.8286 140.397 45.5587 139.76C44.2888 139.123 42.9058 138.742 41.4887 138.639C40.0716 138.536 38.6481 138.713 37.2995 139.161C35.9509 139.608 34.7036 140.316 33.6288 141.246C32.554 142.175 31.6728 143.307 31.0355 144.577C30.3981 145.847 30.0171 147.23 29.9143 148.647C29.8114 150.064 29.9887 151.487 30.436 152.836L30.439 152.845Z" fill="#6C63FF"/>
<path id="Path 4" d="M23.902 189.882C28.578 193.623 48.842 196.023 48.842 196.023C48.842 196.023 42.088 176.742 37.411 173.006C35.1612 171.355 32.3605 170.637 29.594 171.003C26.8275 171.368 24.3093 172.789 22.5654 174.967C20.8215 177.146 19.9869 179.914 20.236 182.693C20.4851 185.473 21.7986 188.048 23.902 189.882Z" fill="#6C63FF"/>
<path id="Path 5" d="M42.425 243.323C48.338 244.196 67.058 236.049 67.058 236.049C67.058 236.049 51.502 222.806 45.589 221.937C42.7504 221.517 39.8613 222.243 37.5575 223.953C35.2536 225.664 33.7236 228.219 33.304 231.058C32.8844 233.897 33.6097 236.786 35.3202 239.09C37.0307 241.393 39.5864 242.923 42.425 243.343V243.323Z" fill="#6C63FF"/>
<path id="Path 6" d="M65.557 280.597C71.236 282.457 91.068 277.573 91.068 277.573C91.068 277.573 77.968 261.898 72.291 260.037C69.5646 259.141 66.594 259.366 64.0328 260.66C61.4716 261.955 59.5296 264.214 58.634 266.94C57.7383 269.666 57.9625 272.637 59.257 275.198C60.5516 277.759 62.8106 279.701 65.537 280.597H65.557Z" fill="#6C63FF"/>
<path id="Path 7" d="M70.753 189.974C67.994 195.274 50.401 205.655 50.401 205.655C50.401 205.655 48.801 185.293 51.56 179.988C52.8964 177.465 55.1763 175.572 57.9025 174.723C60.6287 173.874 63.5801 174.137 66.1131 175.455C68.6462 176.772 70.5554 179.038 71.4246 181.758C72.2938 184.478 72.0524 187.431 70.753 189.974V189.974Z" fill="#6C63FF"/>
<path id="Path 8" d="M97.256 233.907C93.037 238.141 73.148 242.776 73.148 242.776C73.148 242.776 77.715 222.866 81.929 218.631C83.9592 216.624 86.7006 215.5 89.5555 215.506C92.4105 215.511 95.1476 216.645 97.1701 218.66C99.1926 220.675 100.337 223.408 100.353 226.263C100.369 229.118 99.2557 231.863 97.256 233.901V233.907Z" fill="#6C63FF"/>
<path id="Path 9" d="M117.156 280.144C113.716 285.028 94.892 292.962 94.892 292.962C94.892 292.962 96.025 272.569 99.469 267.68C100.265 266.465 101.297 265.423 102.504 264.616C103.711 263.809 105.069 263.253 106.495 262.981C107.922 262.71 109.389 262.728 110.808 263.036C112.227 263.343 113.57 263.933 114.757 264.771C115.943 265.608 116.949 266.676 117.714 267.91C118.479 269.145 118.987 270.521 119.209 271.956C119.431 273.391 119.361 274.856 119.005 276.264C118.648 277.672 118.012 278.993 117.134 280.15L117.156 280.144Z" fill="#6C63FF"/>
</g>
<g id="foreground">
<path id="Path 33" d="M262.127 10.5901V189.3H524.47V10.5901H262.127Z" fill="url(#paint0_linear)"/>
<path id="Rectangle 1" d="M528.691 9.69507H273.019V177.065H528.691V9.69507Z" fill="white"/>
<path id="Rectangle 2" d="M521.691 10.7351H266.019V23.0491H521.691V10.7351Z" fill="#EEEEEE"/>
<path id="Ellipse 1" d="M275.746 19.694C277.396 19.694 278.734 18.3562 278.734 16.706C278.734 15.0558 277.396 13.718 275.746 13.718C274.096 13.718 272.758 15.0558 272.758 16.706C272.758 18.3562 274.096 19.694 275.746 19.694Z" fill="#FF5252"/>
<path id="Ellipse 2" d="M283.96 19.694C285.61 19.694 286.948 18.3562 286.948 16.706C286.948 15.0558 285.61 13.718 283.96 13.718C282.31 13.718 280.972 15.0558 280.972 16.706C280.972 18.3562 282.31 19.694 283.96 19.694Z" fill="#FFFF00"/>
<path id="Ellipse 3" d="M292.169 19.694C293.819 19.694 295.157 18.3562 295.157 16.706C295.157 15.0558 293.819 13.718 292.169 13.718C290.519 13.718 289.181 15.0558 289.181 16.706C289.181 18.3562 290.519 19.694 292.169 19.694Z" fill="#69F0AE"/>
<path id="Rectangle 3" opacity="0.5" d="M371.092 42.7721H275.818V46.7421H371.092V42.7721Z" fill="#6C63FF"/>
<path id="Rectangle 4" opacity="0.5" d="M371.092 50.7111H275.818V54.6811H371.092V50.7111Z" fill="#6C63FF"/>
<path id="Rectangle 5" opacity="0.5" d="M371.092 58.65H275.818V62.62H371.092V58.65Z" fill="#6C63FF"/>
<path id="Rectangle 6" opacity="0.5" d="M371.087 66.5901H308.655V70.5601H371.087V66.5901Z" fill="#6C63FF"/>
<path id="Rectangle 7" opacity="0.5" d="M325.983 74.5341H275.818V78.5041H325.983V74.5341Z" fill="#6C63FF"/>
<path id="Rectangle 8" opacity="0.5" d="M341.497 82.473H302.882V86.443H341.497V82.473Z" fill="#6C63FF"/>
<path id="Rectangle 9" opacity="0.5" d="M495.961 70.5641H383.723V135.163H495.961V70.5641Z" fill="#6C63FF"/>
<path id="Rectangle 10" d="M509.314 76.6951H397.076V141.294H509.314V76.6951Z" fill="#EEEEEE"/>
<path id="Path 34" d="M459.872 141.278H397.072V129.463C412.419 122.293 436.023 118.266 459.872 141.278Z" fill="#6C63FF"/>
<g id="Group 1" opacity="0.1">
<path id="Path 35" opacity="0.1" d="M508.592 139.605V141.278H430.277V140.92C430.277 140.92 468.814 103.417 508.592 139.605Z" fill="black"/>
</g>
<path id="Path 36" d="M509.314 139.605V141.278H430.999V140.92C430.999 140.92 469.536 103.417 509.314 139.605Z" fill="#6C63FF"/>
<path id="Ellipse 4" d="M410.07 94.017C413.258 94.017 415.842 91.4328 415.842 88.245C415.842 85.0572 413.258 82.473 410.07 82.473C406.882 82.473 404.298 85.0572 404.298 88.245C404.298 91.4328 406.882 94.017 410.07 94.017Z" fill="#6C63FF"/>
<path id="Path 37" d="M459.227 83.8701C458.567 83.8701 457.827 83.8701 457.327 83.9121C457.102 83.9245 456.879 83.97 456.667 84.0471L453.267 85.2681C456.01 85.3361 458.873 85.3151 461.679 85.2681L477.443 85.1481C479.049 85.1481 480.743 85.1221 482.083 85.0231C482.983 84.9611 483.642 84.8621 484.468 84.7891C487.451 84.5241 491.804 84.5761 495.691 84.5891C499.578 84.6021 504.269 84.5011 505.636 84.1111H497.297C496.397 84.1111 495.453 84.1111 494.658 84.0641C493.728 84.0121 493.158 83.9081 492.346 83.8351C490.995 83.7211 489.135 83.7051 487.4 83.7001C477.906 83.6941 468.517 83.9191 459.227 83.8701Z" fill="#F4F4F4"/>
<path id="Path 38" d="M468.585 90.88H468.175C468.127 90.8838 468.08 90.8943 468.035 90.911L467.297 91.176H469.116L472.53 91.15C472.878 91.15 473.242 91.15 473.53 91.124L474.05 91.072C474.694 91.015 475.64 91.025 476.482 91.03C477.202 91.0554 477.923 91.022 478.638 90.93H476.258C476.087 90.93 475.936 90.894 475.738 90.883C475.447 90.883 475.038 90.857 474.668 90.852C472.627 90.838 470.595 90.88 468.585 90.88Z" fill="#F4F4F4"/>
<path id="Path 39" d="M444.404 100.98H443.993C443.945 100.984 443.898 100.994 443.853 101.011L443.115 101.276H444.939L448.353 101.25C448.701 101.25 449.065 101.25 449.353 101.224L449.873 101.172C450.517 101.115 451.463 101.125 452.305 101.13C453.025 101.155 453.746 101.122 454.461 101.03H452.081C451.909 101.03 451.759 100.994 451.561 100.983C451.27 100.983 450.861 100.957 450.491 100.952C448.451 100.943 446.414 100.99 444.404 100.98Z" fill="#F4F4F4"/>
<path id="Path 40" d="M430.822 138.093H428.131C428.131 138.093 427.284 108.415 430.843 99.2551H431.524C431.524 99.2551 429.128 132.84 430.822 138.093Z" fill="#6C63FF"/>
<path id="Path 41" d="M428.957 97.733C428.957 97.733 426.757 103.833 427.772 106.566C427.772 106.566 429.3 100.966 431.082 100.123C432.864 99.28 434.719 106.566 434.719 106.566C434.719 106.566 435.758 101.989 433.872 98.253C436.26 99.6649 438.201 101.722 439.472 104.187C439.472 104.187 439.81 101.641 435.404 96.393C437.765 97.061 439.96 98.2169 441.847 99.786C441.847 99.786 442.694 97.921 437.436 94.866C437.436 94.866 438.117 92.666 442.185 93.681C442.185 93.681 442.185 90.797 435.742 91.307C435.742 91.307 435.742 89.442 439.982 89.779C439.982 89.779 439.982 87.405 435.062 88.251C435.524 87.5429 436.095 86.9133 436.756 86.386C435.907 86.3082 435.06 86.5512 434.382 87.067C434.382 87.067 434.554 84.012 432.008 82.827L431.67 87.067C431.67 87.067 428.818 83.705 429.47 84.355C429.879 85.377 430.057 86.4771 429.99 87.576C429.048 86.8895 427.905 86.534 426.739 86.5649C425.574 86.5958 424.452 87.0115 423.547 87.747C423.547 87.747 427.958 88.085 428.634 89.612C428.634 89.612 424.903 88.931 424.057 89.441C424.057 89.441 426.941 90.48 426.769 91.135C426.769 91.135 421.682 91.135 421.002 93C421.002 93 426.26 93.681 426.602 94.185C426.602 94.185 420.502 98.596 420.159 99.785C420.159 99.785 426.436 96.054 427.433 96.054C428.43 96.054 422.856 101.484 423.193 102.84C423.195 102.826 427.772 97.39 428.957 97.733Z" fill="#6C63FF"/>
<path id="Path 42" d="M464.299 136.984H466.377C466.377 136.984 467.026 114.31 464.299 107.311H463.779C463.779 107.311 465.592 132.965 464.299 136.984Z" fill="#6C63FF"/>
<path id="Path 43" d="M465.721 106.144C465.721 106.144 467.404 110.82 466.63 112.898C466.63 112.898 465.466 108.622 464.105 107.972C462.744 107.322 461.32 112.898 461.32 112.898C460.892 110.765 461.119 108.552 461.97 106.549C460.146 107.629 458.664 109.201 457.694 111.085C457.694 111.085 457.434 109.142 460.811 105.125C459.002 105.63 457.323 106.516 455.886 107.725C455.886 107.725 455.236 106.301 459.253 103.968C459.253 103.968 458.733 102.285 455.616 103.059C455.616 103.059 455.616 100.859 460.542 101.246C460.542 101.246 460.542 99.822 457.305 100.082C457.305 100.082 457.305 98.269 461.061 98.918C460.713 98.3737 460.276 97.8922 459.767 97.494C460.415 97.4343 461.062 97.6199 461.58 98.014C461.548 97.3588 461.702 96.7079 462.022 96.1355C462.343 95.5632 462.818 95.0925 463.393 94.777L463.653 98.014C463.653 98.014 465.83 95.447 465.336 95.936C465.025 96.718 464.892 97.5593 464.946 98.399C465.667 97.8746 466.54 97.6031 467.431 97.6266C468.322 97.6501 469.18 97.9674 469.872 98.529C469.872 98.529 466.505 98.789 465.986 99.953C465.986 99.953 468.838 99.433 469.486 99.823C469.486 99.823 467.286 100.602 467.408 101.117C467.408 101.117 471.294 101.117 471.814 102.541C471.814 102.541 467.798 103.061 467.538 103.45C467.538 103.45 472.214 106.817 472.464 107.726C472.464 107.726 467.664 104.874 466.894 104.874C466.124 104.874 470.394 109.031 470.131 110.074C470.128 110.031 466.631 105.884 465.721 106.144Z" fill="#6C63FF"/>
<path id="Path 44" d="M489.102 132.554H490.385C490.385 132.554 490.785 118.526 489.102 114.177H488.78C488.78 114.177 489.902 130.066 489.102 132.554Z" fill="#6C63FF"/>
<path id="Path 45" d="M489.96 113.455C489.96 113.455 490.999 116.344 490.521 117.612C490.521 117.612 489.799 114.962 488.962 114.562C488.125 114.162 487.237 117.612 487.237 117.612C486.972 116.291 487.111 114.92 487.637 113.679C486.507 114.348 485.588 115.322 484.987 116.49C484.987 116.49 484.826 115.285 486.915 112.801C485.795 113.112 484.755 113.66 483.865 114.406C483.865 114.406 483.465 113.523 485.943 112.078C485.943 112.078 485.621 111.039 483.698 111.517C483.698 111.517 483.698 110.15 486.748 110.395C486.748 110.395 486.748 109.512 484.742 109.673C484.742 109.673 484.742 108.551 487.07 108.951C486.855 108.614 486.585 108.315 486.27 108.068C486.671 108.032 487.071 108.147 487.392 108.39C487.373 107.984 487.468 107.581 487.666 107.226C487.864 106.872 488.158 106.58 488.514 106.384L488.675 108.39C488.675 108.39 490.026 106.8 489.714 107.107C489.523 107.59 489.441 108.11 489.475 108.629C489.921 108.304 490.462 108.135 491.013 108.149C491.565 108.163 492.096 108.359 492.525 108.707C492.525 108.707 490.447 108.868 490.119 109.59C490.831 109.433 491.565 109.406 492.286 109.512C492.286 109.512 490.919 109.995 491.002 110.312C491.002 110.312 493.408 110.312 493.73 111.195C492.829 111.283 491.94 111.471 491.08 111.756C491.08 111.756 493.969 113.834 494.13 114.406C493.033 113.719 491.878 113.128 490.68 112.639C490.197 112.639 492.847 115.206 492.686 115.85C492.714 115.861 490.549 113.294 489.96 113.455Z" fill="#6C63FF"/>
<path id="Path 46" d="M442.159 116.677L441.889 115.233C441.889 115.127 441.867 115.022 441.825 114.925C441.783 114.828 441.722 114.74 441.645 114.667L440.393 114.054C440.3 113.942 440.225 113.815 440.17 113.68V113.649C440.24 113.561 440.29 113.459 440.315 113.349C440.317 113.321 440.317 113.294 440.315 113.266C440.433 113.283 440.553 113.254 440.65 113.184C440.747 113.114 440.813 113.009 440.835 112.892V112.861C440.811 112.956 440.757 113.041 440.681 113.104C440.606 113.167 440.512 113.203 440.414 113.209C440.585 113.094 440.726 112.94 440.824 112.759C440.923 112.578 440.976 112.376 440.98 112.17V112.118C441.035 112.084 441.083 112.039 441.12 111.985C441.156 111.931 441.181 111.87 441.193 111.806V111.775C441.178 111.836 441.15 111.894 441.111 111.944C441.073 111.994 441.024 112.035 440.969 112.066C440.96 111.947 440.933 111.83 440.891 111.718H440.922C441.045 111.718 441.162 111.669 441.249 111.583C441.335 111.496 441.384 111.379 441.384 111.256V111.23C441.376 111.347 441.324 111.457 441.238 111.537C441.152 111.617 441.039 111.661 440.922 111.661H440.865C441.001 111.617 441.122 111.536 441.214 111.427C441.306 111.318 441.365 111.185 441.385 111.043V111.012C441.379 111.102 441.346 111.189 441.291 111.261C441.301 111.2 441.299 111.138 441.285 111.078C441.27 111.018 441.244 110.961 441.208 110.911C441.171 110.861 441.125 110.819 441.072 110.787C441.02 110.755 440.961 110.734 440.9 110.725C440.839 110.716 440.776 110.72 440.716 110.735C440.657 110.75 440.601 110.777 440.551 110.815C440.502 110.852 440.461 110.899 440.43 110.952C440.399 111.006 440.379 111.065 440.371 111.126L440.288 111.079C440.314 110.986 440.368 110.903 440.444 110.842C440.52 110.781 440.612 110.746 440.709 110.741H440.678C440.58 110.739 440.484 110.768 440.404 110.824C440.323 110.88 440.263 110.96 440.231 111.053C439.952 110.923 439.635 110.898 439.339 110.983C439.043 111.068 438.788 111.257 438.62 111.515C438.52 111.588 438.397 111.692 438.402 111.78C438.361 111.821 438.325 111.867 438.293 111.915C438.156 112.216 438.106 112.548 438.148 112.876C438.166 113.039 438.145 113.204 438.088 113.358C438.03 113.511 437.936 113.649 437.815 113.759C437.869 113.782 437.928 113.794 437.986 113.794C438.045 113.794 438.104 113.782 438.158 113.759C438.265 113.714 438.366 113.654 438.458 113.582C438.543 113.532 438.616 113.464 438.671 113.382V113.382C438.731 113.422 438.796 113.455 438.863 113.482C438.889 113.7 438.894 113.95 438.801 114.028V113.986C438.568 114.163 438.277 114.247 437.985 114.22C437.812 114.23 437.645 114.283 437.498 114.373C437.351 114.464 437.229 114.59 437.143 114.74L436.753 116.408V116.434V116.46C436.758 116.483 436.77 116.504 436.786 116.521C436.803 116.537 436.824 116.549 436.847 116.554L436.967 116.585C437.007 116.85 437.006 117.12 436.962 117.385C436.88 117.789 436.833 118.199 436.822 118.611C436.853 118.819 436.905 119.889 436.922 120.398C436.88 120.57 436.847 120.743 436.822 120.918L436.24 124.404C436.24 124.404 435.809 127.194 435.83 128.041L435.752 128.529C435.752 128.529 434.573 130.01 434.921 130.218C435.269 130.426 435.799 130.518 436.308 129.73C436.376 129.545 436.486 129.378 436.63 129.242C436.687 129.192 436.731 129.129 436.759 129.059C436.787 128.989 436.798 128.912 436.791 128.837L436.755 128.494H436.855C437.176 127.442 437.351 126.351 437.375 125.252C437.375 125.252 438.45 121.418 439.275 120.815L439.353 120.779L439.53 124.489L439.353 128.583L439.317 128.827C439.317 128.827 438.137 130.308 438.486 130.516C438.835 130.724 439.364 130.816 439.873 130.028C439.941 129.843 440.051 129.676 440.195 129.54C440.252 129.49 440.296 129.427 440.324 129.357C440.352 129.287 440.363 129.21 440.356 129.135L440.304 128.615C440.709 127.383 440.885 126.087 440.823 124.791L441.182 122.344C441.424 121.905 441.532 121.405 441.494 120.905C441.719 119.944 441.835 118.962 441.842 117.975L441.915 116.822H442.133L442.159 116.791V116.765V116.677ZM441.151 119.02C441.119 118.938 441.083 118.859 441.042 118.781H441.011V118.693C441.028 118.654 441.042 118.615 441.053 118.574C441.099 118.499 441.123 118.413 441.121 118.325C441.173 118.554 441.191 118.79 441.173 119.025L441.151 119.02ZM441.042 118.033L440.969 117.259V117.197L441.069 118.179L441.042 118.033ZM437.618 118.133C437.594 118.162 437.576 118.195 437.565 118.231C437.554 118.266 437.551 118.304 437.556 118.341V118.341C437.556 118.42 437.566 118.499 437.587 118.575L437.473 119.058V118.133C437.546 118.035 437.611 117.931 437.665 117.821C437.69 117.925 437.683 118.034 437.644 118.133H437.618Z" fill="url(#paint1_linear)"/>
<path id="Path 47" d="M438.372 112.178C438.24 112.467 438.191 112.788 438.232 113.103C438.251 113.26 438.232 113.42 438.176 113.569C438.12 113.717 438.028 113.85 437.91 113.955C437.962 113.977 438.017 113.988 438.073 113.988C438.13 113.988 438.185 113.977 438.237 113.955C438.341 113.911 438.439 113.854 438.528 113.784C438.609 113.733 438.677 113.665 438.728 113.584C438.778 113.459 438.794 113.323 438.775 113.189C438.776 112.954 438.797 112.72 438.837 112.489C438.837 112.343 438.998 111.969 438.837 111.876C438.676 111.783 438.444 112.068 438.372 112.178Z" fill="#72351C"/>
<path id="Path 48" d="M435.986 127.514L435.877 128.226C435.877 128.226 434.739 129.655 435.077 129.852C435.415 130.049 435.924 130.143 436.412 129.384C436.478 129.206 436.585 129.046 436.724 128.916V128.916C436.779 128.868 436.822 128.808 436.849 128.74C436.876 128.672 436.887 128.599 436.88 128.526L436.771 127.426L435.986 127.514Z" fill="#333333"/>
<path id="Path 49" d="M439.41 127.8L439.301 128.512C439.301 128.512 438.163 129.941 438.501 130.138C438.839 130.335 439.348 130.429 439.836 129.67C439.902 129.492 440.009 129.332 440.148 129.202V129.202C440.203 129.154 440.246 129.094 440.273 129.026C440.3 128.958 440.311 128.885 440.304 128.812L440.195 127.712L439.41 127.8Z" fill="#333333"/>
<path id="Path 50" d="M437.639 119.171C437.195 119.641 436.935 120.255 436.906 120.901L436.345 124.257C436.142 125.46 436.013 126.675 435.96 127.894L436.906 128.216C437.221 127.206 437.396 126.157 437.426 125.099C437.426 125.099 438.564 121.052 439.359 120.766L439.525 124.341L439.348 128.373L440.158 128.534C440.58 127.273 440.77 125.945 440.719 124.616L441.14 121.732C441.412 120.782 441.346 119.766 440.953 118.859L437.639 119.171Z" fill="#4D8AF0"/>
<g id="Group 2" opacity="0.1">
<path id="Path 51" opacity="0.1" d="M439.265 120.817V120.755C438.465 121.041 437.332 125.088 437.332 125.088C437.312 126.134 437.148 127.173 436.844 128.174L436.944 128.21C437.259 127.2 437.434 126.151 437.464 125.093C437.464 125.093 438.474 121.399 439.265 120.817Z" fill="black"/>
<path id="Path 52" opacity="0.1" d="M440.97 118.848H440.861C441.25 119.753 441.314 120.764 441.043 121.711L440.622 124.595C440.677 125.918 440.49 127.239 440.071 128.495H440.171C440.593 127.234 440.783 125.906 440.732 124.577L441.153 121.693C441.418 120.752 441.352 119.749 440.966 118.851L440.97 118.848Z" fill="black"/>
</g>
<path id="Path 53" d="M436.912 116.541C436.911 116.569 436.92 116.596 436.937 116.618C436.955 116.64 436.979 116.655 437.006 116.661C437.267 116.723 437.511 116.84 437.723 117.004C438.123 117.316 437.302 116.381 437.302 116.381L437.027 116.443L436.912 116.541Z" fill="#F55F44"/>
<path id="Path 54" opacity="0.1" d="M436.912 116.541C436.911 116.569 436.92 116.596 436.937 116.618C436.955 116.64 436.979 116.655 437.006 116.661C437.267 116.723 437.511 116.84 437.723 117.004C438.123 117.316 437.302 116.381 437.302 116.381L437.027 116.443L436.912 116.541Z" fill="black"/>
<path id="Path 55" d="M440.819 117.378C441.152 117.139 441.539 116.986 441.946 116.931C441.973 116.931 441.998 116.92 442.017 116.902C442.035 116.883 442.046 116.858 442.046 116.831V116.831C441.93 116.778 441.804 116.751 441.676 116.751C441.549 116.75 441.423 116.777 441.306 116.829C441.19 116.881 441.086 116.957 441.001 117.053C440.917 117.148 440.853 117.26 440.815 117.382L440.819 117.378Z" fill="#F55F44"/>
<path id="Path 56" opacity="0.1" d="M442.05 116.811C441.934 116.758 441.808 116.731 441.68 116.731C441.553 116.73 441.427 116.757 441.31 116.809C441.194 116.861 441.09 116.937 441.005 117.033C440.92 117.128 440.857 117.24 440.819 117.362C441.158 117.097 441.569 116.941 441.998 116.915" fill="black"/>
<path id="Ellipse 5" d="M439.722 113.693C440.402 113.693 440.953 113.142 440.953 112.462C440.953 111.782 440.402 111.231 439.722 111.231C439.042 111.231 438.491 111.782 438.491 112.462C438.491 113.142 439.042 113.693 439.722 113.693Z" fill="#72351C"/>
<path id="Path 57" d="M438.87 113.325C438.87 113.325 439.047 114.047 438.87 114.198C438.693 114.349 438.35 114.619 438.61 114.832C438.87 115.045 439.816 115.404 440.127 115.232C440.438 115.06 440.797 115.107 440.714 114.749C440.631 114.391 439.945 114.463 439.93 112.671L438.87 113.325Z" fill="#FDB797"/>
<path id="Path 58" opacity="0.1" d="M437.13 116.339C437.157 116.73 437.132 117.123 437.057 117.508C436.978 117.896 436.933 118.291 436.922 118.687C436.958 118.947 437.036 120.667 437.036 120.667C437.036 120.667 436.901 122.174 437.636 122.034C438.371 121.894 437.522 120.319 437.522 120.319L437.558 118.241C437.761 117.973 437.89 117.655 437.932 117.321C437.961 116.859 437.13 116.339 437.13 116.339Z" fill="black"/>
<path id="Path 59" d="M437.116 116.339C437.143 116.73 437.118 117.123 437.043 117.508C436.964 117.896 436.919 118.291 436.908 118.687C436.944 118.947 437.022 120.667 437.022 120.667C437.022 120.667 436.887 122.174 437.622 122.034C438.357 121.894 437.508 120.319 437.508 120.319L437.544 118.241C437.747 117.973 437.876 117.655 437.918 117.321C437.95 116.859 437.116 116.339 437.116 116.339Z" fill="#FDB797"/>
<path id="Path 60" opacity="0.1" d="M441.805 116.437L441.705 118.042C441.697 118.992 441.584 119.938 441.367 120.863C441.367 120.863 441.44 122.422 440.707 122.422C439.974 122.422 440.832 120.692 440.832 120.692C441.023 119.936 441.088 119.153 441.024 118.375L440.832 116.447L441.805 116.437Z" fill="black"/>
<path id="Path 61" d="M441.816 116.437L441.716 118.042C441.708 118.992 441.595 119.938 441.378 120.863C441.378 120.863 441.451 122.422 440.718 122.422C439.985 122.422 440.843 120.692 440.843 120.692C441.034 119.936 441.099 119.153 441.035 118.375L440.843 116.447L441.816 116.437Z" fill="#FDB797"/>
<path id="Path 62" opacity="0.1" d="M439.431 114.878C439.431 114.878 440.023 115.153 440.351 114.358L441.562 114.95C441.636 115.02 441.695 115.105 441.735 115.199C441.775 115.293 441.796 115.394 441.796 115.496L442.056 116.888C441.946 116.845 441.828 116.824 441.71 116.827C441.592 116.829 441.475 116.856 441.367 116.904C441.259 116.953 441.162 117.022 441.081 117.109C441 117.195 440.938 117.297 440.897 117.408L440.97 118.193C441.029 118.387 441.016 118.595 440.934 118.78C440.927 118.796 440.924 118.813 440.924 118.83C440.924 118.847 440.927 118.864 440.934 118.88C440.955 118.937 440.963 118.999 440.956 119.06C440.949 119.12 440.927 119.179 440.893 119.229C440.859 119.28 440.814 119.322 440.76 119.352C440.707 119.382 440.647 119.398 440.586 119.4C440.261 119.403 439.936 119.427 439.614 119.473C439.354 119.546 438.575 119.322 438.314 119.473C438.053 119.624 437.503 119.359 437.503 119.359L437.654 118.725C437.654 118.725 437.554 118.413 437.654 118.304C437.749 117.854 437.727 117.388 437.592 116.948C437.592 116.948 437.145 116.527 436.885 116.6L437.259 114.995C437.338 114.846 437.454 114.72 437.596 114.628C437.737 114.537 437.901 114.484 438.069 114.475C438.349 114.501 438.629 114.421 438.854 114.252C438.854 114.252 438.558 114.78 439.431 114.878Z" fill="black"/>
<path id="Path 63" opacity="0.1" d="M439.494 114.853C439.655 114.895 440.094 114.947 440.351 114.292L441.562 114.884C441.636 114.954 441.695 115.039 441.735 115.133C441.775 115.227 441.796 115.328 441.796 115.43L442.056 116.822C441.946 116.779 441.828 116.758 441.71 116.761C441.592 116.764 441.475 116.79 441.367 116.838C441.259 116.887 441.162 116.956 441.081 117.043C441.001 117.129 440.938 117.231 440.897 117.342L440.97 118.127L441.017 118.283C441.038 118.349 441.044 118.419 441.033 118.488C441.023 118.557 440.996 118.622 440.955 118.678C440.942 118.7 440.934 118.725 440.934 118.751C440.934 118.777 440.942 118.802 440.955 118.824C440.977 118.881 440.984 118.943 440.977 119.004C440.971 119.065 440.949 119.123 440.915 119.174C440.881 119.225 440.835 119.267 440.782 119.296C440.728 119.326 440.668 119.342 440.607 119.344C440.282 119.347 439.957 119.371 439.635 119.417C439.375 119.49 438.596 119.266 438.335 119.417C438.074 119.568 437.524 119.303 437.524 119.303L437.675 118.669C437.675 118.669 437.575 118.357 437.675 118.248C437.77 117.798 437.748 117.331 437.613 116.892C437.613 116.892 437.166 116.471 436.906 116.544L437.28 114.939C437.359 114.79 437.475 114.663 437.617 114.572C437.759 114.481 437.922 114.428 438.091 114.419C438.371 114.445 438.651 114.365 438.876 114.196C438.876 114.196 438.585 114.716 439.354 114.845L439.494 114.853Z" fill="black"/>
<path id="Path 64" d="M439.493 114.879C439.654 114.921 440.093 114.973 440.35 114.318L441.561 114.91C441.635 114.98 441.694 115.065 441.734 115.159C441.774 115.253 441.795 115.354 441.795 115.456L442.055 116.848C441.945 116.805 441.827 116.784 441.709 116.786C441.591 116.789 441.474 116.815 441.366 116.864C441.258 116.912 441.161 116.981 441.08 117.068C441 117.154 440.937 117.256 440.896 117.367L440.969 118.152C441.028 118.346 441.015 118.554 440.933 118.739C440.926 118.755 440.923 118.772 440.923 118.789C440.923 118.806 440.926 118.823 440.933 118.839C440.955 118.896 440.962 118.958 440.955 119.019C440.948 119.08 440.927 119.138 440.893 119.189C440.859 119.24 440.813 119.282 440.76 119.311C440.706 119.341 440.646 119.357 440.585 119.359C440.26 119.362 439.935 119.386 439.613 119.432C439.353 119.505 438.574 119.281 438.313 119.432C438.052 119.583 437.502 119.318 437.502 119.318L437.653 118.684C437.653 118.684 437.553 118.372 437.653 118.263C437.748 117.813 437.726 117.346 437.591 116.907C437.591 116.907 437.144 116.486 436.884 116.559L437.258 114.954C437.337 114.805 437.453 114.678 437.594 114.587C437.736 114.496 437.9 114.443 438.068 114.434C438.348 114.46 438.628 114.38 438.853 114.211C438.853 114.211 438.562 114.731 439.331 114.86L439.493 114.879Z" fill="#F55F44"/>
<path id="Path 65" opacity="0.1" d="M439.951 112.728L438.912 113.388C438.939 113.501 438.959 113.616 438.974 113.731C439.095 113.779 439.223 113.804 439.353 113.804C439.612 113.787 439.856 113.676 440.039 113.492C439.986 113.241 439.956 112.985 439.951 112.728V112.728Z" fill="black"/>
<path id="Ellipse 6" d="M439.312 113.74C439.874 113.74 440.33 113.284 440.33 112.722C440.33 112.16 439.874 111.704 439.312 111.704C438.75 111.704 438.294 112.16 438.294 112.722C438.294 113.284 438.75 113.74 439.312 113.74Z" fill="#FDB797"/>
<path id="Ellipse 7" d="M440.819 111.938C441.066 111.938 441.266 111.738 441.266 111.491C441.266 111.244 441.066 111.044 440.819 111.044C440.572 111.044 440.372 111.244 440.372 111.491C440.372 111.738 440.572 111.938 440.819 111.938Z" fill="#72351C"/>
<path id="Path 66" d="M440.902 111.968C440.789 111.968 440.679 111.926 440.596 111.848C440.513 111.771 440.463 111.665 440.455 111.552V111.583C440.455 111.702 440.502 111.815 440.586 111.899C440.67 111.983 440.783 112.03 440.902 112.03C441.021 112.03 441.134 111.983 441.218 111.899C441.302 111.815 441.349 111.702 441.349 111.583V111.552C441.341 111.665 441.291 111.771 441.208 111.848C441.125 111.926 441.015 111.968 440.902 111.968V111.968Z" fill="#72351C"/>
<path id="Path 67" d="M440.647 112.41C440.536 112.39 440.437 112.328 440.369 112.238C440.301 112.147 440.271 112.034 440.283 111.922V111.953C440.27 112.012 440.27 112.073 440.281 112.132C440.292 112.191 440.315 112.247 440.349 112.297C440.382 112.347 440.425 112.39 440.476 112.423C440.526 112.456 440.582 112.478 440.641 112.489C440.701 112.5 440.761 112.499 440.82 112.486C440.879 112.472 440.934 112.448 440.983 112.413C441.032 112.378 441.073 112.333 441.105 112.282C441.136 112.231 441.157 112.174 441.166 112.114V112.083C441.137 112.193 441.068 112.289 440.971 112.35C440.875 112.41 440.759 112.432 440.647 112.41V112.41Z" fill="#72351C"/>
<path id="Path 68" d="M440.299 113.481C440.188 113.461 440.089 113.399 440.021 113.309C439.954 113.218 439.923 113.105 439.935 112.993V113.024C439.918 113.139 439.946 113.257 440.014 113.352C440.082 113.447 440.184 113.511 440.298 113.532C440.413 113.553 440.532 113.529 440.629 113.464C440.726 113.399 440.794 113.299 440.818 113.185V113.154C440.79 113.265 440.72 113.36 440.623 113.421C440.526 113.482 440.41 113.503 440.298 113.481H440.299Z" fill="#72351C"/>
<path id="Path 69" d="M440.902 111.73C440.789 111.73 440.679 111.687 440.596 111.61C440.513 111.533 440.463 111.427 440.455 111.314V111.345C440.455 111.464 440.502 111.577 440.586 111.661C440.67 111.745 440.783 111.792 440.902 111.792C441.021 111.792 441.134 111.745 441.218 111.661C441.302 111.577 441.349 111.464 441.349 111.345V111.314C441.341 111.427 441.291 111.533 441.208 111.61C441.125 111.687 441.015 111.73 440.902 111.73V111.73Z" fill="#72351C"/>
<path id="Path 70" d="M440.278 111.486C440.279 111.373 440.323 111.264 440.401 111.182C440.479 111.1 440.586 111.051 440.699 111.044H440.668C440.549 111.044 440.436 111.091 440.352 111.175C440.268 111.259 440.221 111.373 440.221 111.491C440.221 111.61 440.268 111.723 440.352 111.807C440.436 111.891 440.549 111.938 440.668 111.938H440.699C440.584 111.931 440.476 111.881 440.398 111.796C440.319 111.712 440.277 111.601 440.278 111.486V111.486Z" fill="#72351C"/>
<path id="Path 71" opacity="0.1" d="M440.73 115.71C440.777 115.931 440.777 116.159 440.73 116.38C440.73 116.38 440.668 116.967 440.766 117.066" fill="black"/>
<path id="Path 72" opacity="0.1" d="M437.706 115.819C437.753 116.04 437.753 116.268 437.706 116.489C437.706 116.489 437.644 117.076 437.742 117.175" fill="black"/>
<path id="Path 73" opacity="0.1" d="M437.68 118.246C437.777 118.281 437.883 118.281 437.98 118.246C438.097 118.211 438.221 118.211 438.338 118.246" fill="black"/>
<path id="Path 74" opacity="0.1" d="M437.831 117.378C438.185 117.396 438.538 117.341 438.87 117.217C438.87 117.217 440.138 117.529 440.501 117.305" fill="black"/>
<path id="Rectangle 11" d="M437.454 122.724H437.153C437.019 122.724 436.911 122.832 436.911 122.966C436.911 123.099 437.019 123.207 437.153 123.207H437.454C437.588 123.207 437.696 123.099 437.696 122.966C437.696 122.832 437.588 122.724 437.454 122.724Z" fill="#FDB797"/>
<path id="Path 75" d="M436.912 122.849H437.333L437.697 122.906H437.567L436.912 122.849Z" fill="#F0E4E4"/>
<path id="Path 76" d="M439.733 120.833H440.154L440.518 120.869H440.388L439.733 120.833Z" fill="#F0E4E4"/>
<path id="Path 77" d="M439.733 120.921H440.154L440.518 120.957H440.388L439.733 120.921Z" fill="#F0E4E4"/>
<path id="Path 78" d="M439.733 121.015H440.154L440.518 121.051H440.388L439.733 121.015Z" fill="#F0E4E4"/>
<path id="Path 79" d="M439.733 121.093H440.154L440.518 121.129H440.388L439.733 121.093Z" fill="#F0E4E4"/>
<path id="Path 80" d="M436.912 123.192H437.333L437.697 123.234H437.567L436.912 123.192Z" fill="#F0E4E4"/>
<path id="Path 81" d="M436.912 123.15H437.333L437.697 123.192H437.567L436.912 123.15Z" fill="#F0E4E4"/>
<path id="Path 82" d="M436.912 123.093H437.333L437.697 123.135H437.567L436.912 123.093Z" fill="#F0E4E4"/>
<path id="Path 83" d="M436.912 123.062H437.333L437.697 123.104H437.567L436.912 123.062Z" fill="#F0E4E4"/>
<path id="Path 84" d="M436.912 122.792H437.333L437.697 122.849H437.567L436.912 122.792Z" fill="#F0E4E4"/>
<path id="Path 85" d="M436.912 122.719H437.333L437.697 122.776H437.567L436.912 122.719Z" fill="#F0E4E4"/>
<path id="Path 86" opacity="0.1" d="M439.483 112.068C439.442 112.448 439.49 112.832 439.623 113.19C439.687 113.363 439.714 113.547 439.704 113.732C439.693 113.916 439.644 114.096 439.561 114.26C439.616 114.273 439.674 114.273 439.729 114.26C439.784 114.246 439.835 114.22 439.878 114.182C439.967 114.104 440.044 114.013 440.107 113.912C440.174 113.83 440.221 113.734 440.247 113.632C440.257 113.471 440.232 113.31 440.174 113.159C440.104 112.882 440.054 112.601 440.023 112.317C440.023 112.146 440.023 111.647 439.831 111.6C439.639 111.553 439.519 111.924 439.483 112.068Z" fill="black"/>
<path id="Path 87" d="M439.509 112.057C439.468 112.437 439.516 112.821 439.649 113.179C439.715 113.353 439.744 113.539 439.734 113.726C439.725 113.912 439.676 114.094 439.592 114.26C439.647 114.274 439.705 114.273 439.76 114.26C439.815 114.246 439.866 114.22 439.909 114.182C439.998 114.104 440.075 114.013 440.138 113.912C440.205 113.83 440.253 113.734 440.278 113.631C440.288 113.47 440.263 113.309 440.205 113.158C440.135 112.881 440.085 112.6 440.054 112.316C440.054 112.145 440.054 111.646 439.862 111.599C439.67 111.552 439.561 111.912 439.509 112.057Z" fill="#72351C"/>
<path id="Path 88" opacity="0.1" d="M439.074 112.323C439.157 112.411 439.174 112.546 439.251 112.65C439.317 112.72 439.398 112.775 439.488 112.81C439.578 112.844 439.675 112.858 439.771 112.85C439.822 112.847 439.872 112.858 439.917 112.881C439.995 112.933 440 113.047 440.052 113.125C440.079 113.155 440.112 113.179 440.148 113.195C440.185 113.212 440.225 113.22 440.265 113.22C440.305 113.22 440.345 113.212 440.382 113.195C440.418 113.179 440.451 113.155 440.478 113.125C440.565 113 440.609 112.851 440.603 112.699C440.619 112.526 440.619 112.352 440.603 112.179C440.598 111.973 440.516 111.777 440.374 111.628C440.256 111.541 440.119 111.483 439.974 111.457C439.776 111.387 439.562 111.371 439.356 111.41C439.256 111.443 439.162 111.49 439.075 111.55L438.711 111.794C438.576 111.887 438.327 112.075 438.571 112.178C438.745 112.219 438.943 112.182 439.074 112.323Z" fill="black"/>
<path id="Path 89" d="M439.099 112.311C439.182 112.399 439.199 112.534 439.276 112.638C439.342 112.708 439.423 112.763 439.513 112.798C439.603 112.832 439.7 112.846 439.796 112.838C439.846 112.835 439.896 112.846 439.941 112.869C440.019 112.921 440.024 113.035 440.076 113.113C440.103 113.143 440.136 113.167 440.172 113.183C440.209 113.2 440.249 113.208 440.289 113.208C440.329 113.208 440.369 113.2 440.406 113.183C440.442 113.167 440.475 113.143 440.502 113.113C440.606 112.987 440.663 112.829 440.663 112.666C440.679 112.493 440.679 112.319 440.663 112.146C440.658 111.94 440.577 111.744 440.435 111.595C440.317 111.508 440.18 111.45 440.035 111.424C439.837 111.354 439.624 111.338 439.417 111.377C439.317 111.41 439.223 111.457 439.136 111.517L438.772 111.761C438.637 111.855 438.387 112.042 438.632 112.145C438.8 112.154 438.963 112.212 439.099 112.311V112.311Z" fill="#72351C"/>
<path id="Path 90" d="M439.759 120.833H440.18L440.544 120.869H440.414L439.759 120.833Z" fill="#F0E4E4"/>
<path id="Path 91" d="M439.759 120.921H440.18L440.544 120.957H440.414L439.759 120.921Z" fill="#F0E4E4"/>
<path id="Path 92" d="M439.759 121.015H440.18L440.544 121.051H440.414L439.759 121.015Z" fill="#F0E4E4"/>
<path id="Path 93" d="M439.759 121.093H440.18L440.544 121.129H440.414L439.759 121.093Z" fill="#F0E4E4"/>
<path id="Path 94" d="M439.561 125.888H439.982L440.346 125.924H440.216L439.561 125.888Z" fill="#F0E4E4"/>
<path id="Path 95" d="M439.561 125.972H439.982L440.346 126.008H440.216L439.561 125.972Z" fill="#F0E4E4"/>
<path id="Path 96" d="M439.561 126.06H439.982L440.346 126.096H440.216L439.561 126.06Z" fill="#F0E4E4"/>
</g>
<g id="human">
<path id="Path 15" d="M356.58 270.798C356.58 270.798 348.329 266.579 344.63 270.066C340.931 273.553 340.37 282.466 340.37 282.466C340.37 282.466 353.832 284.312 356.58 270.798Z" fill="#6C63FF"/>
<path id="Path 16" opacity="0.1" d="M356.21 271.112C356.21 271.112 347.959 266.893 344.26 270.38C340.561 273.867 340 282.78 340 282.78C340 282.78 353.462 284.626 356.21 271.112Z" fill="white"/>
<path id="Path 17" d="M340.375 282.461C340.375 282.461 342.542 272.116 356.581 270.797" stroke="#6C63FF" stroke-miterlimit="10"/>
<path id="Path 10" d="M340.095 283.595C340.095 283.595 331.844 280.795 327.875 288.069C326.828 290.04 326.295 292.243 326.326 294.475C326.357 296.706 326.95 298.894 328.052 300.835C330.652 305.547 336.033 311.668 346.237 311.122C354.872 310.66 357.72 304.071 358.509 297.941C358.809 295.642 358.513 293.305 357.65 291.153C356.787 289.001 355.386 287.107 353.582 285.652C351.777 284.196 349.629 283.229 347.343 282.842C345.057 282.455 342.71 282.661 340.527 283.441L340.095 283.595Z" fill="#6C63FF"/>
<path id="Path 11" opacity="0.1" d="M329.796 301.488C328.694 299.547 328.101 297.359 328.07 295.128C328.039 292.896 328.572 290.693 329.619 288.722C333.588 281.448 341.839 284.248 341.839 284.248L342.26 284.097C345.407 282.958 348.867 283.035 351.96 284.315C350.254 283.299 348.344 282.674 346.367 282.486C344.39 282.297 342.396 282.549 340.529 283.224L340.108 283.375C340.108 283.375 331.857 280.575 327.888 287.849C326.841 289.82 326.308 292.023 326.339 294.255C326.37 296.486 326.964 298.674 328.065 300.615C330.108 304.522 333.4 307.631 337.417 309.448C334.196 307.542 331.56 304.789 329.796 301.488V301.488Z" fill="white"/>
<path id="Path 12" opacity="0.2" d="M335.834 287.091C335.834 287.091 338.894 289.497 346.319 287.091Z" fill="black"/>
<path id="Path 13" d="M335.179 269.613C335.179 269.613 340.422 283.813 339.985 287.528L344.141 287.092C344.141 287.092 337.148 274.622 338.899 269.613H335.179Z" fill="#6C63FF"/>
<path id="Path 14" opacity="0.2" d="M335.179 269.613C335.179 269.613 340.422 283.813 339.985 287.528L344.141 287.092C344.141 287.092 337.148 274.622 338.899 269.613H335.179Z" fill="black"/>
<path id="Path 99" d="M135.039 326.028C136.228 326.818 137.576 327.336 138.989 327.543C140.401 327.751 141.841 327.643 143.207 327.228C143.943 326.98 144.654 326.666 145.332 326.288C171.832 326.849 196.37 326.588 197.32 323.737C198.879 319.009 189.007 295.722 184.02 284.468C185.486 283.471 186.725 282.176 187.657 280.668C194.578 288.581 207.457 298.791 215.106 299.3C215.106 299.3 226.277 325.835 238.845 321.642C251.413 317.449 252.811 295.107 246.524 292.317L204.631 265.782V221.75C205.904 219.226 206.507 216.417 206.382 213.593C206.382 213.073 206.408 212.554 206.382 212.034L204.982 199.466C204.982 199.466 204.909 199.05 204.717 198.297C201.6 186.186 194.653 178.034 184.859 176.823C185.336 175.952 185.626 174.991 185.711 174.002C185.911 171.653 184.937 169.258 185.488 166.967C186.132 164.296 188.605 162.567 190.637 160.732C194.975 156.762 197.708 151.38 200.348 146.127C202.863 141.127 205.414 135.99 206.063 130.427C206.712 124.864 205.024 118.695 200.478 115.422C196.945 112.871 191.973 112.201 189.432 108.668C188.294 107.078 187.821 105.119 187.032 103.332C184.772 98.1831 179.898 94.5321 174.609 92.6241C156.05 85.9421 133.282 93.6111 121.441 109.024C117.575 114.053 114.785 119.81 112.026 125.524L102.05 146.146C100.33 149.695 98.668 154.127 100.964 157.332C102.086 158.891 104.009 159.857 104.788 161.618C105.827 163.956 104.528 167.018 106.056 169.074C106.898 170.212 108.356 170.664 109.61 171.329C111.293 172.286 112.757 173.582 113.91 175.137L92.013 192.107C90.4301 193.333 89.1134 194.869 88.1433 196.621C87.1731 198.373 86.5698 200.304 86.37 202.296L84.203 223.89C83.5135 226.342 83.1844 228.882 83.226 231.429C83.045 233.759 83.5031 236.095 84.551 238.184L85.029 238.07C85.549 253.216 86.453 275.006 87.346 279.033C87.866 281.423 91.146 285.633 95.56 289.98L94.001 294.396H94.521L94.001 295.783H95.04C90.634 311.703 78.647 323.7 78.647 323.7C78.647 323.7 106.369 325.207 135.039 326.028ZM108.988 252.467V235.492C111.544 235.887 113.43 236.77 114.033 238.381L108.988 252.467ZM116.388 178.594L116.471 178.719H116.44L116.388 178.594Z" fill="url(#paint2_linear)"/>
<path id="Path 100" d="M179.416 217.136C179.416 217.136 180.741 264.22 182.071 270.19C183.401 276.16 202.636 294.09 212.571 294.75C212.571 294.75 223.181 319.95 235.121 315.969C247.061 311.988 248.386 290.769 242.395 288.115L202.632 262.915V212.515L179.416 217.136Z" fill="#FDB797"/>
<path id="Path 101" d="M180.414 274.855C180.414 274.855 197.659 311.994 195.669 317.98C193.679 323.966 82.922 317.98 82.922 317.98C82.922 317.98 103.482 297.42 99.502 274.855H180.414Z" fill="#565171"/>
<path id="Path 102" d="M167.149 164.768C167.149 164.768 164.494 190.632 169.139 196.602C173.784 202.572 150.569 205.882 148.6 205.882C146.631 205.882 125.391 198.608 121.411 196.597C117.431 194.586 114.137 180.017 114.137 180.017C114.137 180.017 134.031 183.997 140.001 160.793L167.149 164.768Z" fill="#FDB797"/>
<path id="Path 103" d="M174.101 98.4241C179.125 100.232 183.755 103.703 185.901 108.592C186.649 110.292 187.101 112.151 188.177 113.663C190.588 117.03 195.311 117.663 198.667 120.09C202.974 123.207 204.567 129.063 203.967 134.342C203.367 139.621 200.943 144.5 198.558 149.249C196.048 154.242 193.458 159.349 189.336 163.122C187.414 164.883 185.055 166.522 184.442 169.056C183.922 171.233 184.847 173.504 184.65 175.738C184.172 181.251 177.584 183.817 172.082 184.43C169.692 184.695 166.954 184.711 165.27 182.991C164.493 182.03 163.871 180.954 163.426 179.801C162.174 177.269 160.245 175.133 157.854 173.63C155.462 172.128 152.701 171.317 149.876 171.288C147.052 171.259 144.274 172.012 141.852 173.466C139.43 174.919 137.458 177.014 136.154 179.52C134.865 182.004 134.112 185.012 131.764 186.529C128.164 188.852 123.364 186.124 120.718 182.767C118.072 179.41 116.146 175.192 112.369 173.181C111.179 172.547 109.769 172.142 108.997 171.04C107.547 169.086 108.779 166.182 107.797 163.958C107.054 162.285 105.23 161.358 104.16 159.885C101.978 156.84 103.56 152.611 105.199 149.26L114.678 129.671C117.278 124.247 119.952 118.76 123.62 114.001C134.847 99.3591 156.472 92.0741 174.101 98.4241Z" fill="#8F5A6A"/>
<path id="Path 104" opacity="0.1" d="M149.91 201.242C149.91 201.242 124.046 201.242 117.416 177.368L95.646 194.239C94.1435 195.405 92.8938 196.865 91.9729 198.529C91.052 200.193 90.4791 202.027 90.289 203.919L88.21 224.457C88.21 224.457 85.887 232.084 88.543 236.724C88.543 236.724 116.08 229.762 116.73 237.716L97.516 291.435C97.516 291.435 127.36 292.1 135.316 286.795C135.316 286.795 167.81 293.425 175.77 286.13C183.73 278.835 191.684 279.5 185.055 262.921C185.055 262.921 198.32 249.656 192.329 231.087C186.338 212.518 191.997 231.42 191.997 231.42C191.997 231.42 204.929 225.12 204.264 213.183L202.939 201.233C202.939 201.233 202.866 200.838 202.684 200.126C198.642 184.393 187.777 175.706 172.507 181.245C169.555 182.166 166.382 182.083 163.482 181.011C163.482 181.011 168.474 202.588 149.91 201.242Z" fill="black"/>
<path id="Path 105" d="M149.91 199.917C149.91 199.917 124.046 199.917 117.416 176.043L95.646 192.914C94.1442 194.08 92.895 195.538 91.9741 197.201C91.0532 198.864 90.4799 200.697 90.289 202.588L88.21 223.127C88.21 223.127 85.888 230.754 88.543 235.394C88.543 235.394 116.08 228.432 116.73 236.386L97.51 290.105C97.51 290.105 127.354 290.77 135.31 285.465C135.31 285.465 167.804 292.095 175.764 284.8C183.724 277.505 191.679 278.17 185.049 261.591C185.049 261.591 198.314 248.326 192.323 229.757C186.332 211.188 191.99 230.09 191.99 230.09C191.99 230.09 204.922 223.79 204.257 211.853L202.932 199.903C202.932 199.903 202.859 199.508 202.677 198.796C198.635 183.063 187.77 174.376 172.5 179.915C169.548 180.836 166.375 180.754 163.475 179.681C163.475 179.681 168.474 201.242 149.91 199.917Z" fill="#B45181"/>
<path id="Path 106" d="M88.564 222.462C88.564 222.462 89.889 269.546 91.219 275.516C92.549 281.486 111.779 299.39 121.719 300.055C121.719 300.055 132.329 325.255 144.268 321.274C156.207 317.293 157.533 296.074 151.542 293.42L111.753 268.22V217.82L88.564 222.462Z" fill="#FDB797"/>
<path id="Path 107" opacity="0.1" d="M117.077 224.119C117.077 224.119 101.838 234.469 88.563 233.606C88.563 233.606 87.238 215.831 91.218 214.839C95.198 213.847 112.438 214.844 117.077 224.119Z" fill="black"/>
<path id="Path 108" d="M117.077 223.459C117.077 223.459 101.838 233.809 88.563 232.941C88.563 232.941 87.238 215.166 91.218 214.174C95.198 213.182 112.438 214.175 117.077 223.459Z" fill="#B45181"/>
<path id="Path 109" opacity="0.1" d="M138.635 162.113L165.824 166.093C165.824 166.093 165.211 172.078 165.091 178.952C159.807 181.179 154.003 181.872 148.343 180.952C142.684 180.033 137.398 177.537 133.091 173.752C135.759 170.319 137.65 166.348 138.635 162.113V162.113Z" fill="black"/>
<path id="Ellipse 8" d="M154.549 180.017C171.396 180.017 185.053 166.36 185.053 149.513C185.053 132.666 171.396 119.009 154.549 119.009C137.702 119.009 124.045 132.666 124.045 149.513C124.045 166.36 137.702 180.017 154.549 180.017Z" fill="#FDB797"/>
<path id="Path 110" opacity="0.1" d="M146.523 143.653C147.823 144.144 149.216 144.343 150.602 144.235C155.999 144.2 161.39 144 166.776 143.635C170.86 143.36 175.214 142.882 178.362 140.268C182.602 136.751 183.272 130.157 181.085 125.102C178.898 120.047 174.434 116.321 169.722 113.474C167.056 111.784 164.167 110.474 161.139 109.582C152.395 107.208 142.725 110.102 135.779 115.947C128.833 121.792 124.406 130.173 122.062 138.928C121.251 141.957 120.212 145.563 117.214 146.483C119.214 149.803 124.078 150.328 127.579 148.665C132.733 146.213 135.373 136.829 140.002 135.354C145.15 133.729 142.147 141.647 146.523 143.653Z" fill="black"/>
<path id="Path 111" d="M146.523 142.988C147.823 143.479 149.216 143.678 150.602 143.57C155.999 143.535 161.39 143.335 166.776 142.97C170.86 142.695 175.214 142.217 178.362 139.603C182.602 136.085 183.272 129.492 181.085 124.437C178.898 119.382 174.435 115.656 169.722 112.809C167.059 111.129 164.176 109.829 161.154 108.944C152.41 106.57 142.74 109.464 135.794 115.309C128.848 121.154 124.421 129.535 122.077 138.29C121.267 141.319 120.227 144.925 117.229 145.845C119.229 149.165 124.093 149.69 127.595 148.027C132.749 145.575 135.389 136.191 140.018 134.716C145.151 133.069 142.148 140.982 146.523 142.988Z" fill="#8F5A6A"/>
<path id="Path 112" opacity="0.1" d="M185.386 261.258C175.438 258.6 165.183 257.262 154.886 257.278Z" fill="black"/>
<path id="Path 113" opacity="0.1" d="M117.078 225.449C117.078 225.449 127.028 232.723 124.352 236.724Z" fill="black"/>
<path id="Path 114" opacity="0.7" d="M392.065 300.642H66.445V329.109H85.399V418.689H373.783V329.109H392.065V300.642Z" fill="url(#paint3_linear)"/>
<path id="Rectangle 12" d="M370.837 317.221H88.33V418.688H370.837V317.221Z" fill="#E0E0E0"/>
<path id="Rectangle 13" opacity="0.1" d="M370.837 322.526H88.33V338.441H370.837V322.526Z" fill="black"/>
<path id="Rectangle 14" d="M388.747 305.946H69.76V333.135H388.747V305.946Z" fill="#E0E0E0"/>
<path id="Rectangle 15" d="M186.734 299.254H134.341C131.961 299.254 130.031 301.184 130.031 303.564C130.031 305.944 131.961 307.874 134.341 307.874H186.734C189.114 307.874 191.044 305.944 191.044 303.564C191.044 301.184 189.114 299.254 186.734 299.254Z" fill="#535461"/>
<path id="Rectangle 16" opacity="0.7" d="M290.582 203.133H195.385C179.8 203.133 167.165 215.768 167.165 231.353V279.763C167.165 295.349 179.8 307.983 195.385 307.983H290.582C306.167 307.983 318.802 295.349 318.802 279.763V231.353C318.802 215.768 306.167 203.133 290.582 203.133Z" fill="url(#paint4_linear)"/>
<path id="Rectangle 17" d="M286.678 205.071H196.712C181.889 205.071 169.872 217.088 169.872 231.911V281.143C169.872 295.966 181.889 307.983 196.712 307.983H286.678C301.501 307.983 313.518 295.966 313.518 281.143V231.911C313.518 217.088 301.501 205.071 286.678 205.071Z" fill="#3E3F49"/>
<path id="Rectangle 18" d="M288.668 205.071H198.702C183.879 205.071 171.862 217.088 171.862 231.911V281.143C171.862 295.966 183.879 307.983 198.702 307.983H288.668C303.491 307.983 315.508 295.966 315.508 281.143V231.911C315.508 217.088 303.491 205.071 288.668 205.071Z" fill="#535461"/>
<path id="Ellipse 9" d="M250.395 260.458C252.958 260.458 255.035 258.381 255.035 255.818C255.035 253.255 252.958 251.178 250.395 251.178C247.832 251.178 245.755 253.255 245.755 255.818C245.755 258.381 247.832 260.458 250.395 260.458Z" fill="#E0E0E0"/>
</g>
</g>
<defs>
<linearGradient id="paint0_linear" x1="393.299" y1="189.3" x2="393.299" y2="10.5901" gradientUnits="userSpaceOnUse">
<stop stop-color="#808080" stop-opacity="0.251"/>
<stop offset="0.54" stop-color="#808080" stop-opacity="0.122"/>
<stop offset="1" stop-color="#808080" stop-opacity="0.102"/>
</linearGradient>
<linearGradient id="paint1_linear" x1="438.53" y1="130.661" x2="438.53" y2="110.68" gradientUnits="userSpaceOnUse">
<stop stop-color="#808080" stop-opacity="0.251"/>
<stop offset="0.54" stop-color="#808080" stop-opacity="0.122"/>
<stop offset="1" stop-color="#808080" stop-opacity="0.102"/>
</linearGradient>
<linearGradient id="paint2_linear" x1="237.65" y1="327.646" x2="237.65" y2="90.1998" gradientUnits="userSpaceOnUse">
<stop stop-color="#808080" stop-opacity="0.251"/>
<stop offset="0.54" stop-color="#808080" stop-opacity="0.122"/>
<stop offset="1" stop-color="#808080" stop-opacity="0.102"/>
</linearGradient>
<linearGradient id="paint3_linear" x1="229.255" y1="418.689" x2="229.255" y2="300.642" gradientUnits="userSpaceOnUse">
<stop stop-color="#808080" stop-opacity="0.251"/>
<stop offset="0.54" stop-color="#808080" stop-opacity="0.122"/>
<stop offset="1" stop-color="#808080" stop-opacity="0.102"/>
</linearGradient>
<linearGradient id="paint4_linear" x1="242.983" y1="307.983" x2="242.983" y2="203.133" gradientUnits="userSpaceOnUse">
<stop stop-color="#808080" stop-opacity="0.251"/>
<stop offset="0.54" stop-color="#808080" stop-opacity="0.122"/>
<stop offset="1" stop-color="#808080" stop-opacity="0.102"/>
</linearGradient>
</defs>
</svg>
