<svg width="800" height="489" viewBox="0 0 800 489" fill="none" xmlns="http://www.w3.org/2000/svg">
<g id="contactIllustration">
<g id="background">
<path id="Ellipse 353" opacity="0.1" d="M399.573 419.223C620.251 419.223 799.146 415.431 799.146 410.754C799.146 406.077 620.251 402.285 399.573 402.285C178.895 402.285 0 406.077 0 410.754C0 415.431 178.895 419.223 399.573 419.223Z" fill="#6C63FF"/>
<path id="Ellipse 354" opacity="0.1" d="M397.183 488.766C616.541 488.766 794.366 484.974 794.366 480.297C794.366 475.62 616.541 471.828 397.183 471.828C177.825 471.828 0 475.62 0 480.297C0 484.974 177.825 488.766 397.183 488.766Z" fill="#6C63FF"/>
<path id="Ellipse 355" opacity="0.1" d="M399.573 274.086C620.251 274.086 799.146 270.294 799.146 265.617C799.146 260.94 620.251 257.148 399.573 257.148C178.895 257.148 0 260.94 0 265.617C0 270.294 178.895 274.086 399.573 274.086Z" fill="#6C63FF"/>
<path id="Ellipse 356" opacity="0.1" d="M399.573 346.65C620.251 346.65 799.146 342.858 799.146 338.181C799.146 333.504 620.251 329.712 399.573 329.712C178.895 329.712 0 333.504 0 338.181C0 342.858 178.895 346.65 399.573 346.65Z" fill="#6C63FF"/>
<path id="Path 1672" opacity="0.1" d="M636.44 44.868C633.027 44.2235 629.5 44.6096 626.307 45.977C624.391 46.8309 622.316 47.2722 620.218 47.2722C618.12 47.2722 616.045 46.8309 614.129 45.977C611.862 44.9817 609.405 44.491 606.929 44.5388C604.453 44.5866 602.017 45.1719 599.79 46.254C598.521 46.9279 597.107 47.2821 595.67 47.286C589.858 47.286 585.031 41.436 584.027 33.722C585.171 32.8694 586.144 31.8089 586.895 30.596C590.295 25.109 595.565 21.582 601.495 21.582C607.425 21.582 612.622 25.062 616.025 30.491C617.038 32.1322 618.459 33.4831 620.149 34.4119C621.839 35.3407 623.742 35.8158 625.67 35.791H625.823C630.494 35.742 634.5 39.448 636.44 44.868Z" fill="#6C63FF"/>
<path id="Path 1673" opacity="0.1" d="M654.134 20.637L644.747 26.583L650.482 16.221C648.867 14.9353 646.868 14.2255 644.804 14.204H644.651C644.011 14.2129 643.371 14.165 642.739 14.061L639.508 16.0781L640.875 13.5931C638.616 12.8113 636.665 11.3317 635.302 9.36799L629.567 12.9811L633.161 6.44299C629.834 2.44299 625.342 0 620.409 0C614.482 0 609.215 3.518 605.802 9C604.796 10.6406 603.374 11.9859 601.68 12.8991C599.986 13.8124 598.08 14.2612 596.157 14.2H595.842C589.303 14.2 584.008 21.608 584.008 30.747C584.008 39.886 589.308 47.303 595.842 47.303C597.278 47.2936 598.691 46.9397 599.962 46.2711C602.188 45.186 604.624 44.5984 607.1 44.5488C609.576 44.4992 612.033 44.989 614.301 45.984C616.216 46.8438 618.291 47.2884 620.39 47.2884C622.489 47.2884 624.564 46.8438 626.479 45.984C628.728 45.012 631.159 44.5338 633.609 44.5815C636.059 44.6293 638.47 45.2021 640.679 46.261C641.936 46.9188 643.332 47.2662 644.751 47.274C651.289 47.274 656.585 39.856 656.585 30.7181C656.626 27.2054 655.783 23.7389 654.134 20.637Z" fill="#6C63FF"/>
<path id="Path 1674" opacity="0.1" d="M237.316 39.696C234.925 39.2445 232.454 39.5139 230.216 40.47C228.876 41.0687 227.425 41.3781 225.958 41.3781C224.49 41.3781 223.039 41.0687 221.699 40.47C220.113 39.7734 218.395 39.4304 216.663 39.465C214.931 39.4995 213.228 39.9107 211.671 40.67C210.785 41.1322 209.802 41.3778 208.803 41.387C204.74 41.387 201.356 37.296 200.649 31.895C201.46 31.3006 202.151 30.5578 202.685 29.706C205.065 25.882 208.755 23.397 212.904 23.397C217.053 23.397 220.695 25.835 223.075 29.63C223.786 30.7787 224.782 31.724 225.966 32.3739C227.15 33.0239 228.482 33.3563 229.833 33.339H229.938C233.147 33.32 235.947 35.921 237.316 39.696Z" fill="#6C63FF"/>
<path id="Path 1675" opacity="0.1" d="M249.695 22.747L243.128 26.915L247.114 19.66C245.987 18.7579 244.59 18.2597 243.147 18.245H243.032C242.577 18.2532 242.123 18.218 241.675 18.14L239.448 19.554L240.404 17.814C238.825 17.2647 237.46 16.2308 236.504 14.86L232.518 17.384L235.042 12.815C233.982 11.4466 232.631 10.331 231.087 9.54906C229.543 8.76714 227.844 8.33842 226.114 8.29395C221.965 8.29395 218.276 10.76 215.895 14.603C215.19 15.7519 214.193 16.6939 213.006 17.3335C211.819 17.9731 210.485 18.2875 209.137 18.245H208.917C204.338 18.245 200.629 23.426 200.629 29.831C200.629 36.236 204.338 41.417 208.917 41.417C209.918 41.4091 210.901 41.1597 211.785 40.69C213.341 39.9348 215.043 39.5267 216.773 39.4937C218.503 39.4607 220.219 39.8037 221.803 40.499C223.137 41.1189 224.589 41.4449 226.06 41.4547C227.531 41.4645 228.988 41.1581 230.33 40.556C231.904 39.8746 233.607 39.539 235.322 39.5719C237.037 39.6049 238.725 40.0056 240.272 40.747C241.157 41.2103 242.141 41.4528 243.14 41.454C247.709 41.454 251.418 36.263 251.418 29.868C251.456 27.3867 250.863 24.9365 249.695 22.747Z" fill="#6C63FF"/>
<path id="Path 1676" opacity="0.1" d="M121.009 114.649C123.398 114.198 125.867 114.467 128.102 115.423C129.444 116.022 130.896 116.332 132.366 116.332C133.835 116.332 135.287 116.022 136.629 115.423C138.215 114.728 139.933 114.384 141.664 114.417C143.395 114.45 145.099 114.859 146.657 115.614C147.54 116.085 148.524 116.334 149.525 116.341C153.588 116.341 156.972 112.241 157.669 106.841C156.859 106.249 156.17 105.505 155.642 104.652C153.252 100.828 149.562 98.3519 145.423 98.3519C141.284 98.3519 137.632 100.78 135.242 104.585C134.532 105.732 133.538 106.677 132.355 107.327C131.173 107.977 129.842 108.31 128.493 108.294H128.388C125.167 108.312 122.357 110.901 121.009 114.649Z" fill="#6C63FF"/>
<path id="Path 1677" opacity="0.1" d="M108.621 97.73L115.198 101.898L111.198 94.652C112.328 93.7472 113.728 93.246 115.175 93.228H115.28C115.738 93.2331 116.195 93.1997 116.647 93.128L118.874 94.533L117.918 92.803C119.494 92.2527 120.855 91.2189 121.809 89.849L125.795 92.373L123.31 87.794C124.37 86.4268 125.721 85.3126 127.266 84.5322C128.81 83.7518 130.508 83.3247 132.238 83.282C136.377 83.282 140.077 85.748 142.457 89.591C143.162 90.7385 144.157 91.6796 145.342 92.3191C146.527 92.9586 147.86 93.2739 149.206 93.233H149.435C154.004 93.233 157.713 98.424 157.713 104.819C157.713 111.214 154.004 116.405 149.435 116.405C148.435 116.401 147.451 116.155 146.567 115.688C145.01 114.929 143.307 114.517 141.575 114.483C139.843 114.448 138.125 114.791 136.539 115.488C135.196 116.108 133.735 116.434 132.256 116.444C130.794 116.442 129.349 116.136 128.012 115.544C126.439 114.863 124.739 114.527 123.025 114.56C121.312 114.593 119.625 114.994 118.08 115.735C117.195 116.199 116.211 116.441 115.212 116.442C110.633 116.442 106.924 111.261 106.924 104.856C106.882 102.376 107.466 99.925 108.621 97.73Z" fill="#6C63FF"/>
</g>
<g id="extra">
<path id="Path 1678" d="M498.328 408.015C500.823 403.388 497.993 397.729 494.743 393.609C491.493 389.489 487.516 385.197 487.602 379.949C487.726 372.407 495.737 367.943 502.132 363.949C506.881 360.971 511.261 357.442 515.18 353.434C516.819 351.891 518.174 350.073 519.185 348.062C520.514 345.118 520.476 341.753 520.385 338.503C520.111 327.739 519.578 316.982 518.785 306.231" stroke="#3F3D56" stroke-width="4" stroke-miterlimit="10"/>
<path id="Path 1679" d="M530.963 305.689C530.871 303.717 530.284 301.801 529.256 300.115C528.229 298.43 526.794 297.03 525.084 296.044L522.446 301.254L522.532 294.945C520.139 294.241 517.585 294.315 515.237 295.156C512.889 295.998 510.87 297.564 509.47 299.629C508.07 301.693 507.362 304.148 507.449 306.641C507.535 309.134 508.411 311.535 509.951 313.497C511.491 315.459 513.614 316.881 516.015 317.558C518.415 318.235 520.969 318.132 523.307 317.263C525.645 316.395 527.646 314.805 529.022 312.725C530.399 310.645 531.078 308.182 530.963 305.69V305.689Z" fill="#6C63FF"/>
<path id="Path 1680" d="M509.972 385.337C508.788 387.638 506.879 389.484 504.54 390.591C502.201 391.697 499.563 392.002 497.033 391.458C494.504 390.913 492.224 389.55 490.547 387.58C488.87 385.609 487.89 383.141 487.757 380.557C487.669 378.927 487.93 377.298 488.522 375.777C489.389 373.559 490.907 371.656 492.877 370.319C494.847 368.982 497.177 368.273 499.558 368.287C501.939 368.3 504.26 369.035 506.215 370.394C508.169 371.754 509.666 373.674 510.508 375.901L503.157 381.885L511.244 379.973C511.253 381.837 510.817 383.676 509.972 385.337Z" fill="#6C63FF"/>
<path id="Path 1681" d="M504.16 362.49C501.271 362.627 498.433 361.696 496.187 359.874C493.942 358.052 492.445 355.467 491.984 352.612C491.523 349.757 492.13 346.833 493.688 344.396C495.246 341.96 497.647 340.183 500.432 339.404L500.365 344.251L503.032 338.974C504.581 338.894 506.13 339.121 507.591 339.641C509.051 340.161 510.395 340.965 511.544 342.007C512.693 343.048 513.625 344.306 514.287 345.708C514.948 347.111 515.326 348.63 515.398 350.179C515.471 351.728 515.236 353.276 514.709 354.735C514.181 356.193 513.371 357.532 512.324 358.676C511.277 359.82 510.014 360.746 508.608 361.4C507.203 362.055 505.681 362.425 504.132 362.49H504.16Z" fill="#6C63FF"/>
<path id="Path 1682" d="M532.732 343.482C530.908 343.576 529.086 343.244 527.413 342.513C525.739 341.781 524.258 340.67 523.088 339.267C521.918 337.864 521.091 336.207 520.672 334.429C520.253 332.651 520.254 330.8 520.674 329.022C521.095 327.245 521.924 325.589 523.095 324.187C524.266 322.785 525.747 321.675 527.422 320.945C529.096 320.215 530.918 319.884 532.742 319.98C534.566 320.076 536.343 320.595 537.932 321.496L535.858 327.231L540.093 323.044C541.806 324.614 543.016 326.657 543.57 328.914C544.123 331.17 543.996 333.541 543.205 335.726C542.414 337.911 540.993 339.812 539.122 341.191C537.251 342.569 535.014 343.363 532.693 343.472L532.732 343.482Z" fill="#6C63FF"/>
<path id="Path 1683" opacity="0.1" d="M529.377 308.825C526.662 309.125 524.024 309.963 521.29 310.135C518.556 310.307 515.554 309.647 513.853 307.535C513.053 306.304 512.325 305.028 511.673 303.712C510.93 302.552 509.912 301.594 508.71 300.921C507.949 302.412 507.515 304.049 507.437 305.721C507.36 307.393 507.639 309.063 508.258 310.619C508.877 312.174 509.821 313.58 511.026 314.741C512.232 315.903 513.671 316.794 515.248 317.355C516.826 317.916 518.505 318.134 520.173 317.995C521.841 317.855 523.46 317.361 524.923 316.546C526.385 315.73 527.656 314.612 528.652 313.267C529.647 311.921 530.344 310.378 530.696 308.741C530.266 308.749 529.816 308.778 529.377 308.825Z" fill="black"/>
<path id="Path 1684" opacity="0.1" d="M532.732 343.477C530.703 343.573 528.684 343.143 526.87 342.227C525.057 341.311 523.512 339.942 522.385 338.252C521.258 336.562 520.588 334.609 520.439 332.583C520.291 330.557 520.669 328.527 521.538 326.691C522.471 327.321 523.273 328.127 523.899 329.062C524.602 330.402 525.381 331.701 526.231 332.953C528.066 335.104 531.202 335.821 534.041 335.677C536.88 335.533 539.624 334.721 542.453 334.482C542.845 334.482 543.237 334.425 543.638 334.415C543.053 336.906 541.671 339.138 539.703 340.773C537.735 342.409 535.288 343.358 532.732 343.477Z" fill="black"/>
<path id="Path 1685" opacity="0.1" d="M504.16 362.49C502.152 362.584 500.153 362.162 498.355 361.265C496.556 360.367 495.017 359.023 493.885 357.362C492.753 355.701 492.066 353.778 491.888 351.775C491.711 349.773 492.049 347.758 492.871 345.924C493.841 346.562 494.686 347.372 495.366 348.314C496.137 349.687 496.989 351.013 497.918 352.284C499.897 354.492 503.242 355.276 506.244 355.152C509.246 355.028 511.98 354.378 514.844 354.196C514.13 356.508 512.722 358.544 510.81 360.028C508.899 361.512 506.577 362.371 504.16 362.49Z" fill="black"/>
<path id="Path 1686" opacity="0.1" d="M509.972 385.336C508.788 387.637 506.879 389.483 504.541 390.59C502.202 391.696 499.563 392.001 497.034 391.457C494.504 390.913 492.225 389.55 490.548 387.58C488.871 385.609 487.89 383.141 487.757 380.557C487.669 378.927 487.93 377.298 488.522 375.777C489.491 376.412 490.361 377.187 491.103 378.077C492.221 379.434 492.957 380.945 494.257 382.254C496.657 384.615 500.547 385.59 503.998 385.676C505.994 385.683 507.989 385.57 509.972 385.336Z" fill="black"/>
<path id="Path 1696" d="M303.521 260.446C301.026 255.829 303.856 250.17 307.115 246.046C310.374 241.922 314.332 237.634 314.246 232.386C314.131 224.834 306.121 220.38 299.716 216.386C294.969 213.41 290.592 209.88 286.677 205.871C285.03 204.337 283.671 202.52 282.662 200.508C281.343 197.554 281.381 194.199 281.462 190.949C281.749 180.186 282.282 169.428 283.062 158.677" stroke="#3F3D56" stroke-width="4" stroke-miterlimit="10"/>
<path id="Path 1697" d="M270.897 158.134C270.987 156.163 271.572 154.247 272.598 152.561C273.624 150.876 275.057 149.475 276.766 148.489L279.404 153.699L279.328 147.39C280.584 147.025 281.892 146.867 283.199 146.922C285.524 147.03 287.764 147.825 289.637 149.206C291.51 150.587 292.931 152.492 293.722 154.681C294.512 156.87 294.635 159.244 294.076 161.503C293.517 163.762 292.301 165.805 290.581 167.372C288.861 168.94 286.715 169.963 284.414 170.311C282.113 170.659 279.761 170.317 277.654 169.329C275.548 168.34 273.781 166.749 272.579 164.756C271.377 162.764 270.792 160.46 270.899 158.135L270.897 158.134Z" fill="#6C63FF"/>
<path id="Path 1698" d="M291.879 237.781C293.113 240.183 295.134 242.087 297.605 243.174C300.076 244.262 302.846 244.467 305.45 243.755C308.055 243.042 310.335 241.456 311.908 239.262C313.481 237.068 314.253 234.4 314.092 231.705C313.932 229.01 312.849 226.452 311.027 224.461C309.204 222.469 306.752 221.165 304.082 220.766C301.411 220.368 298.685 220.9 296.361 222.273C294.037 223.646 292.255 225.777 291.315 228.308L298.666 234.292L290.579 232.38C290.572 234.259 291.018 236.111 291.879 237.781Z" fill="#6C63FF"/>
<path id="Path 1699" d="M297.689 214.935C300.578 215.074 303.417 214.145 305.664 212.324C307.912 210.503 309.409 207.918 309.872 205.063C310.334 202.207 309.729 199.282 308.171 196.845C306.613 194.408 304.212 192.63 301.427 191.85L301.484 196.696L298.817 191.419C295.7 191.267 292.651 192.358 290.339 194.454C288.027 196.549 286.642 199.477 286.489 202.594C286.422 203.952 286.594 205.311 286.996 206.609C287.701 208.931 289.108 210.977 291.022 212.468C292.937 213.958 295.265 214.82 297.689 214.935Z" fill="#6C63FF"/>
<path id="Path 1700" d="M269.128 195.902C270.952 195.995 272.773 195.662 274.446 194.929C276.119 194.196 277.598 193.084 278.767 191.681C279.936 190.277 280.762 188.621 281.18 186.843C281.598 185.065 281.596 183.214 281.175 181.437C280.754 179.66 279.925 178.005 278.754 176.604C277.582 175.202 276.101 174.093 274.426 173.363C272.752 172.633 270.931 172.303 269.107 172.399C267.283 172.495 265.507 173.015 263.918 173.916L266.002 179.652L261.719 175.552C260.577 176.587 259.651 177.837 258.994 179.232C258.338 180.627 257.964 182.137 257.895 183.677C257.839 184.766 257.94 185.858 258.195 186.918C258.795 189.399 260.186 191.618 262.159 193.239C264.131 194.86 266.577 195.794 269.128 195.902Z" fill="#6C63FF"/>
<path id="Path 1701" opacity="0.1" d="M272.484 161.269C275.199 161.569 277.837 162.406 280.561 162.579C283.285 162.752 286.297 162.092 288.008 159.979C288.805 158.748 289.53 157.471 290.178 156.155C290.925 154.995 291.946 154.036 293.151 153.364C293.913 154.856 294.348 156.493 294.427 158.166C294.506 159.84 294.226 161.511 293.607 163.067C292.988 164.624 292.044 166.03 290.837 167.193C289.631 168.355 288.19 169.246 286.612 169.807C285.033 170.368 283.353 170.585 281.684 170.444C280.015 170.303 278.395 169.808 276.932 168.991C275.47 168.173 274.199 167.053 273.204 165.705C272.21 164.357 271.515 162.812 271.165 161.174C271.595 161.183 272.035 161.222 272.484 161.269Z" fill="black"/>
<path id="Path 1702" opacity="0.1" d="M269.129 195.903C271.157 195.996 273.175 195.564 274.986 194.647C276.798 193.731 278.342 192.362 279.468 190.673C280.595 188.983 281.265 187.032 281.415 185.007C281.565 182.983 281.189 180.953 280.323 179.117C279.387 179.747 278.582 180.552 277.952 181.488C277.249 182.828 276.47 184.127 275.62 185.379C273.794 187.53 270.659 188.247 267.82 188.103C264.981 187.959 262.238 187.147 259.408 186.908C259.016 186.908 258.615 186.851 258.223 186.841C258.807 189.333 260.188 191.566 262.157 193.201C264.125 194.837 266.573 195.785 269.13 195.903H269.129Z" fill="black"/>
<path id="Path 1703" opacity="0.1" d="M297.691 214.935C299.7 215.032 301.7 214.611 303.5 213.714C305.3 212.818 306.84 211.474 307.973 209.812C309.105 208.15 309.792 206.225 309.969 204.222C310.145 202.218 309.805 200.203 308.98 198.369C308.011 199.006 307.169 199.816 306.495 200.759C305.724 202.131 304.872 203.456 303.943 204.726C301.955 206.934 298.619 207.718 295.607 207.594C292.595 207.47 289.872 206.82 287.007 206.638C287.717 208.954 289.124 210.994 291.037 212.479C292.95 213.965 295.275 214.824 297.694 214.938L297.691 214.935Z" fill="black"/>
<path id="Path 1704" opacity="0.1" d="M291.879 237.781C293.26 240.444 295.606 242.48 298.438 243.471C301.269 244.462 304.373 244.334 307.113 243.114C309.854 241.893 312.025 239.672 313.182 236.904C314.339 234.136 314.395 231.03 313.339 228.222C312.366 228.852 311.495 229.628 310.758 230.522C309.64 231.879 308.846 233.39 307.603 234.699C305.194 237.06 301.313 238.035 297.853 238.121C295.857 238.123 293.862 238.01 291.879 237.781Z" fill="black"/>
<path id="Path 1740" d="M662.828 335.467C665.323 330.85 662.493 325.181 659.234 321.061C655.975 316.941 652.017 312.661 652.103 307.401C652.218 299.859 660.228 295.401 666.633 291.401C671.381 288.426 675.758 284.896 679.672 280.886C681.317 279.35 682.676 277.534 683.687 275.523C685.006 272.569 684.968 269.214 684.887 265.964C684.606 255.194 684.073 244.437 683.287 233.692" stroke="#3F3D56" stroke-width="4" stroke-miterlimit="10"/>
<path id="Path 1741" d="M695.448 233.117C695.357 231.147 694.772 229.232 693.746 227.548C692.72 225.864 691.287 224.466 689.579 223.481L686.94 228.691L687.017 222.382C685.763 222.008 684.454 221.849 683.146 221.914C680.821 222.022 678.58 222.817 676.707 224.199C674.834 225.581 673.412 227.487 672.623 229.677C671.833 231.866 671.711 234.241 672.271 236.5C672.831 238.759 674.049 240.802 675.77 242.369C677.491 243.936 679.638 244.957 681.94 245.304C684.241 245.651 686.594 245.307 688.7 244.316C690.807 243.326 692.572 241.732 693.773 239.738C694.973 237.744 695.556 235.439 695.446 233.114L695.448 233.117Z" fill="#6C63FF"/>
<path id="Path 1742" d="M674.466 312.773C673.232 315.174 671.21 317.077 668.739 318.164C666.268 319.25 663.498 319.454 660.895 318.742C658.291 318.029 656.012 316.443 654.439 314.25C652.866 312.056 652.095 309.388 652.255 306.694C652.415 303.999 653.497 301.442 655.319 299.45C657.141 297.458 659.592 296.154 662.262 295.755C664.932 295.356 667.657 295.887 669.982 297.259C672.307 298.631 674.089 300.76 675.03 303.29L667.679 309.274L675.766 307.362C675.774 309.244 675.328 311.1 674.466 312.773Z" fill="#6C63FF"/>
<path id="Path 1743" d="M668.654 289.917C665.765 290.056 662.926 289.127 660.679 287.306C658.431 285.485 656.934 282.9 656.471 280.045C656.009 277.189 656.615 274.264 658.172 271.827C659.73 269.39 662.131 267.611 664.916 266.832L664.859 271.678L667.526 266.411C669.075 266.331 670.624 266.558 672.084 267.078C673.545 267.598 674.889 268.402 676.038 269.444C677.187 270.485 678.119 271.743 678.78 273.145C679.442 274.548 679.82 276.067 679.892 277.616C679.965 279.165 679.73 280.713 679.203 282.171C678.675 283.63 677.865 284.969 676.818 286.113C675.771 287.257 674.508 288.183 673.102 288.837C671.697 289.492 670.175 289.862 668.626 289.927L668.654 289.917Z" fill="#6C63FF"/>
<path id="Path 1744" d="M697.217 270.913C695.393 271.006 693.572 270.673 691.899 269.94C690.226 269.207 688.747 268.095 687.578 266.692C686.409 265.288 685.583 263.632 685.165 261.854C684.747 260.076 684.749 258.225 685.17 256.448C685.591 254.671 686.42 253.016 687.591 251.615C688.763 250.213 690.244 249.104 691.919 248.374C693.593 247.644 695.414 247.314 697.238 247.41C699.062 247.506 700.838 248.026 702.427 248.927L700.343 254.662L704.625 250.552C705.766 251.588 706.691 252.839 707.348 254.233C708.004 255.627 708.378 257.138 708.449 258.677C708.505 259.766 708.404 260.858 708.149 261.918C707.55 264.401 706.159 266.621 704.187 268.243C702.215 269.866 699.768 270.803 697.217 270.913Z" fill="#6C63FF"/>
<path id="Path 1745" opacity="0.1" d="M693.871 236.251C691.156 236.557 688.509 237.398 685.784 237.57C683.059 237.742 680.049 237.083 678.337 234.96C677.537 233.73 676.813 232.453 676.167 231.136C675.421 229.978 674.404 229.02 673.204 228.345C672.442 229.837 672.007 231.474 671.928 233.147C671.849 234.821 672.129 236.492 672.748 238.048C673.367 239.605 674.311 241.011 675.518 242.174C676.724 243.336 678.165 244.227 679.743 244.788C681.322 245.349 683.002 245.566 684.671 245.425C686.34 245.284 687.96 244.789 689.423 243.971C690.885 243.154 692.156 242.034 693.15 240.686C694.145 239.338 694.84 237.793 695.19 236.155C694.751 236.175 694.314 236.206 693.871 236.251Z" fill="black"/>
<path id="Path 1746" opacity="0.1" d="M697.215 270.918C695.187 271.011 693.169 270.579 691.358 269.662C689.546 268.746 688.002 267.377 686.876 265.687C685.749 263.998 685.079 262.047 684.929 260.022C684.779 257.997 685.155 255.968 686.021 254.132C686.956 254.758 687.762 255.56 688.392 256.493C689.091 257.836 689.87 259.135 690.725 260.384C692.551 262.544 695.686 263.252 698.525 263.118C701.364 262.984 704.107 262.162 706.937 261.923C707.329 261.923 707.73 261.856 708.122 261.847C707.538 264.34 706.157 266.574 704.189 268.211C702.221 269.848 699.772 270.798 697.215 270.918Z" fill="black"/>
<path id="Path 1747" opacity="0.1" d="M668.654 289.917C666.643 290.015 664.64 289.595 662.837 288.698C661.035 287.8 659.493 286.454 658.36 284.789C657.227 283.125 656.541 281.197 656.366 279.191C656.192 277.184 656.536 275.167 657.365 273.332C658.33 273.974 659.172 274.783 659.851 275.722C660.807 277.013 661.333 278.504 662.403 279.689C664.391 281.907 667.727 282.681 670.739 282.614C673.751 282.547 676.475 281.83 679.339 281.614C678.629 283.929 677.221 285.969 675.309 287.455C673.397 288.941 671.073 289.801 668.654 289.917Z" fill="black"/>
<path id="Path 1748" opacity="0.1" d="M674.466 312.773C673.062 315.397 670.716 317.393 667.901 318.358C665.085 319.324 662.008 319.187 659.29 317.976C656.571 316.765 654.411 314.569 653.245 311.83C652.08 309.092 651.994 306.013 653.006 303.214C653.977 303.847 654.847 304.622 655.587 305.514C656.715 306.881 657.451 308.382 658.742 309.701C661.151 312.062 665.032 313.028 668.492 313.123C670.489 313.121 672.484 313.003 674.467 312.769L674.466 312.773Z" fill="black"/>
<path id="Path 1749" d="M719.226 478.855C721.721 474.238 718.892 468.569 715.632 464.449C712.372 460.329 708.415 456.049 708.501 450.789C708.616 443.247 716.626 438.789 723.031 434.789C727.779 431.813 732.156 428.284 736.07 424.274C737.715 422.737 739.074 420.922 740.085 418.911C741.404 415.957 741.366 412.602 741.285 409.352C741.011 398.582 740.478 387.825 739.685 377.08" stroke="#3F3D56" stroke-width="4" stroke-miterlimit="10"/>
<path id="Path 1750" d="M751.848 376.504C751.757 374.534 751.172 372.619 750.146 370.935C749.12 369.251 747.687 367.853 745.979 366.868L743.341 372.078L743.417 365.769C742.177 365.4 740.885 365.242 739.593 365.301C737.268 365.409 735.027 366.204 733.154 367.586C731.281 368.968 729.859 370.874 729.07 373.064C728.28 375.253 728.158 377.628 728.718 379.887C729.278 382.146 730.496 384.189 732.217 385.756C733.938 387.323 736.085 388.345 738.387 388.691C740.688 389.038 743.041 388.694 745.147 387.703C747.254 386.713 749.019 385.12 750.22 383.125C751.42 381.131 752.003 378.826 751.893 376.501L751.848 376.504Z" fill="#6C63FF"/>
<path id="Path 1751" d="M730.865 456.161C729.631 458.562 727.609 460.465 725.138 461.552C722.667 462.638 719.897 462.843 717.294 462.13C714.69 461.417 712.411 459.831 710.838 457.638C709.265 455.444 708.494 452.776 708.654 450.082C708.814 447.387 709.896 444.83 711.718 442.838C713.54 440.846 715.991 439.542 718.661 439.143C721.331 438.744 724.056 439.275 726.381 440.647C728.706 442.019 730.488 444.148 731.429 446.678L724.078 452.662L732.165 450.75C732.173 452.632 731.727 454.488 730.865 456.16V456.161Z" fill="#6C63FF"/>
<path id="Path 1752" d="M725.053 433.304C722.164 433.443 719.325 432.514 717.078 430.693C714.83 428.872 713.333 426.287 712.87 423.432C712.408 420.576 713.014 417.651 714.571 415.214C716.129 412.777 718.53 410.999 721.315 410.219L721.258 415.065L723.925 409.798C725.474 409.718 727.023 409.945 728.484 410.465C729.944 410.986 731.288 411.789 732.437 412.831C733.586 413.872 734.518 415.13 735.179 416.532C735.841 417.935 736.219 419.454 736.291 421.003C736.364 422.552 736.129 424.1 735.602 425.559C735.074 427.017 734.263 428.356 733.217 429.5C732.17 430.644 730.907 431.57 729.501 432.224C728.096 432.879 726.574 433.249 725.025 433.314L725.053 433.304Z" fill="#6C63FF"/>
<path id="Path 1753" d="M753.616 414.301C751.792 414.394 749.971 414.061 748.298 413.328C746.625 412.595 745.146 411.483 743.977 410.08C742.808 408.676 741.982 407.02 741.564 405.242C741.146 403.464 741.148 401.613 741.569 399.836C741.99 398.059 742.819 396.404 743.99 395.003C745.162 393.601 746.643 392.492 748.318 391.762C749.992 391.032 751.813 390.703 753.637 390.799C755.461 390.895 757.238 391.414 758.826 392.315L756.742 398.051L761.025 393.941C762.166 394.977 763.091 396.228 763.748 397.622C764.404 399.016 764.778 400.527 764.849 402.066C764.905 403.155 764.804 404.247 764.549 405.307C763.95 407.79 762.559 410.01 760.586 411.632C758.614 413.255 756.168 414.191 753.616 414.301Z" fill="#6C63FF"/>
<path id="Path 1754" opacity="0.1" d="M750.27 379.639C747.555 379.945 744.907 380.786 742.183 380.958C739.459 381.13 736.448 380.471 734.736 378.348C733.936 377.118 733.212 375.841 732.566 374.524C731.82 373.366 730.802 372.408 729.602 371.733C728.84 373.225 728.405 374.862 728.326 376.535C728.247 378.209 728.527 379.88 729.146 381.436C729.765 382.993 730.709 384.399 731.916 385.562C733.122 386.724 734.563 387.615 736.141 388.176C737.72 388.737 739.4 388.954 741.069 388.813C742.738 388.672 744.358 388.177 745.821 387.36C747.283 386.542 748.554 385.422 749.549 384.074C750.543 382.726 751.239 381.181 751.588 379.543C751.149 379.563 750.712 379.594 750.27 379.639Z" fill="black"/>
<path id="Path 1755" opacity="0.1" d="M753.614 414.306C751.586 414.399 749.568 413.967 747.757 413.05C745.945 412.134 744.401 410.765 743.275 409.076C742.148 407.386 741.478 405.435 741.328 403.41C741.178 401.386 741.554 399.356 742.42 397.52C743.355 398.147 744.16 398.948 744.79 399.881C745.489 401.224 746.268 402.523 747.123 403.772C748.949 405.932 752.084 406.64 754.923 406.506C757.762 406.372 760.506 405.55 763.335 405.311C763.727 405.311 764.128 405.244 764.52 405.235C763.936 407.728 762.556 409.962 760.588 411.599C758.619 413.236 756.171 414.186 753.614 414.306Z" fill="black"/>
<path id="Path 1756" opacity="0.1" d="M725.053 433.305C723.042 433.403 721.039 432.983 719.236 432.085C717.434 431.188 715.892 429.842 714.759 428.177C713.626 426.513 712.94 424.585 712.765 422.579C712.591 420.572 712.935 418.555 713.764 416.72C714.728 417.362 715.57 418.171 716.249 419.11C717.205 420.4 717.731 421.892 718.801 423.077C720.789 425.295 724.126 426.069 727.137 426.002C730.148 425.935 732.872 425.218 735.737 425.002C735.027 427.317 733.62 429.357 731.708 430.843C729.796 432.329 727.472 433.189 725.053 433.305Z" fill="black"/>
<path id="Path 1757" opacity="0.1" d="M730.865 456.161C729.461 458.786 727.115 460.781 724.3 461.746C721.484 462.712 718.408 462.575 715.689 461.364C712.97 460.153 710.81 457.957 709.644 455.218C708.479 452.48 708.393 449.401 709.405 446.602C710.376 447.235 711.246 448.01 711.986 448.902C713.114 450.269 713.898 451.77 715.141 453.089C717.55 455.45 721.431 456.416 724.891 456.511C726.887 456.51 728.882 456.393 730.865 456.161Z" fill="black"/>
<path id="Path 2193" d="M73.145 474.572C70.65 469.955 73.48 464.296 76.739 460.172C79.998 456.048 83.956 451.76 83.87 446.512C83.755 438.96 75.745 434.506 69.34 430.512C64.5926 427.536 60.2156 424.006 56.301 419.997C54.6542 418.463 53.2946 416.646 52.286 414.634C50.967 411.68 51.005 408.325 51.086 405.075C51.3727 394.312 51.906 383.554 52.686 372.803" stroke="#3F3D56" stroke-width="4" stroke-miterlimit="10"/>
<path id="Path 2194" d="M40.521 372.259C40.6115 370.288 41.1965 368.372 42.2221 366.686C43.2478 365.001 44.6811 363.6 46.39 362.614L49.028 367.824L48.952 361.515C50.2085 361.15 51.5159 360.992 52.823 361.047C55.1477 361.155 57.3881 361.95 59.2611 363.331C61.134 364.712 62.5554 366.617 63.3456 368.806C64.1357 370.995 64.259 373.369 63.7 375.628C63.141 377.887 61.9247 379.93 60.205 381.497C58.4852 383.065 56.3392 384.088 54.0383 384.436C51.7374 384.784 49.3849 384.442 47.2782 383.454C45.1716 382.465 43.4054 380.874 42.203 378.881C41.0006 376.889 40.416 374.585 40.523 372.26L40.521 372.259Z" fill="#6C63FF"/>
<path id="Path 2195" d="M61.503 451.906C62.7366 454.308 64.7584 456.212 67.2294 457.299C69.7004 458.387 72.4703 458.592 75.0744 457.88C77.6786 457.167 79.9585 455.581 81.532 453.387C83.1054 451.193 83.8766 448.525 83.7161 445.83C83.5556 443.135 82.4733 440.577 80.6507 438.586C78.828 436.594 76.376 435.29 73.7057 434.891C71.0355 434.493 68.3095 435.025 65.985 436.398C63.6605 437.771 61.8789 439.902 60.939 442.433L68.29 448.417L60.203 446.505C60.1965 448.384 60.6423 450.236 61.503 451.906Z" fill="#6C63FF"/>
<path id="Path 2196" d="M67.313 429.06C70.202 429.199 73.0412 428.27 75.2884 426.449C77.5356 424.628 79.0333 422.043 79.4956 419.188C79.9579 416.332 79.3525 413.407 77.7948 410.97C76.2371 408.533 73.8364 406.755 71.051 405.975L71.108 410.821L68.441 405.544C65.3244 405.392 62.2748 406.483 59.9629 408.579C57.6511 410.674 56.2662 413.602 56.113 416.719C56.0459 418.077 56.2175 419.436 56.62 420.734C57.3255 423.056 58.7319 425.102 60.6463 426.593C62.5607 428.083 64.8894 428.945 67.313 429.06Z" fill="#6C63FF"/>
<path id="Path 2197" d="M38.752 410.028C40.5761 410.121 42.3967 409.788 44.0697 409.055C45.7427 408.322 47.2222 407.21 48.3911 405.807C49.5599 404.403 50.386 402.747 50.804 400.969C51.2219 399.191 51.2203 397.34 50.7991 395.563C50.378 393.786 49.5489 392.131 48.3776 390.73C47.2062 389.328 45.7247 388.219 44.0504 387.489C42.376 386.759 40.5548 386.429 38.7309 386.525C36.907 386.621 35.1305 387.141 33.542 388.042L35.626 393.778L31.343 389.678C30.2007 390.713 29.2747 391.964 28.6183 393.358C27.962 394.753 27.5884 396.263 27.519 397.803C27.4632 398.892 27.5643 399.984 27.819 401.044C28.419 403.525 29.8103 405.744 31.7827 407.365C33.7551 408.986 36.2014 409.92 38.752 410.028Z" fill="#6C63FF"/>
<path id="Path 2198" opacity="0.1" d="M42.108 375.395C44.823 375.695 47.461 376.532 50.185 376.705C52.909 376.878 55.921 376.218 57.632 374.105C58.4292 372.874 59.1538 371.597 59.802 370.281C60.5487 369.121 61.5698 368.162 62.775 367.49C63.5373 368.982 63.9724 370.619 64.051 372.292C64.1297 373.966 63.8501 375.637 63.2311 377.193C62.612 378.75 61.6678 380.156 60.4614 381.319C59.255 382.481 57.8144 383.372 56.2358 383.933C54.6572 384.494 52.9772 384.711 51.3079 384.57C49.6386 384.429 48.0187 383.934 46.5563 383.117C45.094 382.299 43.823 381.179 42.8284 379.831C41.8338 378.483 41.1385 376.938 40.789 375.3C41.219 375.309 41.659 375.348 42.108 375.395Z" fill="black"/>
<path id="Path 2199" opacity="0.1" d="M38.753 410.028C40.781 410.121 42.7988 409.689 44.6104 408.772C46.422 407.856 47.9659 406.487 49.0923 404.798C50.2187 403.108 50.8893 401.157 51.0391 399.132C51.1888 397.108 50.8126 395.078 49.947 393.242C49.0111 393.872 48.206 394.677 47.576 395.613C46.873 396.953 46.0944 398.252 45.244 399.504C43.418 401.655 40.283 402.372 37.444 402.228C34.605 402.084 31.862 401.272 29.032 401.033C28.64 401.033 28.239 400.976 27.847 400.966C28.4311 403.458 29.8122 405.691 31.7806 407.326C33.7491 408.962 36.1974 409.91 38.754 410.028H38.753Z" fill="black"/>
<path id="Path 2200" opacity="0.1" d="M67.315 429.06C69.3239 429.157 71.3239 428.737 73.124 427.84C74.9241 426.943 76.464 425.599 77.5965 423.937C78.7291 422.275 79.4164 420.35 79.5928 418.347C79.7692 416.344 79.4287 414.328 78.604 412.494C77.6354 413.131 76.7929 413.941 76.119 414.884C75.3484 416.256 74.4962 417.581 73.567 418.851C71.579 421.059 68.243 421.843 65.231 421.719C62.219 421.595 59.496 420.945 56.631 420.763C57.3406 423.079 58.7481 425.119 60.6609 426.604C62.5738 428.09 64.8987 428.949 67.318 429.063L67.315 429.06Z" fill="black"/>
<path id="Path 2201" opacity="0.1" d="M61.503 451.907C62.8839 454.571 65.23 456.606 68.0617 457.597C70.8934 458.588 73.9968 458.461 76.7373 457.24C79.4779 456.019 81.6487 453.798 82.8059 451.03C83.9631 448.262 84.0192 445.156 82.963 442.348C81.9898 442.978 81.1193 443.754 80.382 444.648C79.264 446.005 78.47 447.516 77.227 448.825C74.818 451.186 70.937 452.161 67.477 452.247C65.4808 452.25 63.4861 452.136 61.503 451.907Z" fill="black"/>
</g>
<g id="foreground">
<g id="Group 188">
<path id="Ellipse 357" d="M608.66 262.596C661.432 262.596 704.213 219.816 704.213 167.043C704.213 114.271 661.432 71.49 608.66 71.49C555.888 71.49 513.107 114.271 513.107 167.043C513.107 219.816 555.888 262.596 608.66 262.596Z" fill="#3F3D56"/>
<path id="Path 1705" d="M649.679 191.687C646.352 188.36 638.351 183.342 634.384 181.468C629.805 179.268 628.123 179.308 624.884 181.65C622.184 183.562 620.439 185.407 617.342 184.728C614.245 184.049 608.108 179.423 602.172 173.506C596.236 167.589 591.628 161.49 590.972 158.345C590.316 155.2 592.129 153.489 594.06 150.793C596.393 147.552 596.46 145.87 594.242 141.293C592.33 137.326 587.369 129.344 584.014 125.998C580.659 122.652 579.932 123.388 578.097 124.086C576.208 124.878 574.394 125.838 572.677 126.954C569.35 129.181 567.486 131.036 566.177 133.827C564.868 136.618 563.386 141.799 571.004 155.364C576.624 165.741 583.743 175.233 592.13 183.535C600.46 191.941 609.984 199.073 620.396 204.699C633.951 212.346 639.141 210.826 641.933 209.526C644.725 208.226 646.579 206.381 648.797 203.026C649.915 201.31 650.875 199.496 651.665 197.606C652.289 195.769 653.039 195.023 649.679 191.687Z" fill="#6C63FF"/>
<path id="Path 1706" opacity="0.1" d="M608.661 71.5001C589.751 71.4906 571.264 77.0897 555.537 87.5891C539.81 98.0885 527.55 113.017 520.308 130.485C513.067 147.953 511.169 167.176 514.854 185.723C518.54 204.271 527.644 221.308 541.014 234.68C554.384 248.052 571.419 257.159 589.966 260.848C608.512 264.536 627.736 262.642 645.206 255.403C662.675 248.164 677.605 235.907 688.107 220.182C698.609 204.457 704.211 185.97 704.205 167.06C704.197 141.721 694.128 117.423 676.212 99.504C658.297 81.5853 634 71.5128 608.661 71.5001ZM608.661 249.893C592.275 249.893 576.257 245.034 562.633 235.931C549.009 226.827 538.39 213.888 532.119 198.75C525.848 183.611 524.207 166.954 527.404 150.883C530.6 134.811 538.49 120.049 550.076 108.462C561.663 96.8756 576.425 88.9847 592.495 85.7875C608.566 82.5903 625.224 84.2304 640.363 90.5004C655.502 96.7705 668.441 107.389 677.545 121.013C686.65 134.637 691.509 150.654 691.51 167.04C691.51 189.013 682.781 210.086 667.244 225.623C651.707 241.16 630.634 249.889 608.661 249.889V249.893Z" fill="black"/>
</g>
<g id="Group 187">
<path id="Ellipse 358" d="M389.134 407.733C441.906 407.733 484.687 364.952 484.687 312.18C484.687 259.408 441.906 216.627 389.134 216.627C336.362 216.627 293.581 259.408 293.581 312.18C293.581 364.952 336.362 407.733 389.134 407.733Z" fill="#3F3D56"/>
<path id="Path 1707" d="M443.478 283.312L414.868 312.42C414.818 312.468 414.778 312.526 414.75 312.59C414.723 312.654 414.709 312.723 414.709 312.793C414.709 312.862 414.723 312.931 414.75 312.995C414.778 313.059 414.818 313.117 414.868 313.165L434.942 334.511C435.59 335.159 435.954 336.037 435.954 336.954C435.954 337.87 435.59 338.748 434.942 339.396C434.294 340.044 433.416 340.408 432.5 340.408C431.583 340.408 430.705 340.044 430.057 339.396L410.088 318.127C409.986 318.027 409.849 317.97 409.706 317.97C409.562 317.97 409.425 318.027 409.323 318.127L404.457 323.04C402.465 325.077 400.085 326.696 397.459 327.801C394.832 328.905 392.011 329.474 389.162 329.473C386.259 329.459 383.389 328.867 380.717 327.731C378.046 326.595 375.628 324.939 373.604 322.858L368.93 318.078C368.828 317.978 368.691 317.921 368.547 317.921C368.404 317.921 368.267 317.978 368.165 318.078L348.244 339.299C347.923 339.62 347.542 339.874 347.123 340.048C346.704 340.221 346.255 340.311 345.802 340.311C345.348 340.311 344.899 340.221 344.48 340.048C344.061 339.874 343.68 339.62 343.359 339.299C343.038 338.978 342.784 338.597 342.61 338.178C342.437 337.759 342.347 337.31 342.347 336.857C342.347 336.403 342.437 335.954 342.61 335.535C342.784 335.116 343.038 334.735 343.359 334.414L363.359 313.114C363.448 313.01 363.497 312.878 363.497 312.741C363.497 312.604 363.448 312.472 363.359 312.368L334.748 283.26C334.674 283.186 334.581 283.135 334.478 283.114C334.376 283.094 334.269 283.104 334.173 283.144C334.076 283.184 333.994 283.252 333.936 283.339C333.878 283.426 333.847 283.528 333.848 283.633V341.881C333.855 344.133 334.753 346.291 336.345 347.884C337.938 349.476 340.096 350.374 342.348 350.381H435.904C438.156 350.374 440.314 349.476 441.907 347.884C443.499 346.291 444.397 344.133 444.404 341.881V283.681C444.409 283.573 444.38 283.465 444.321 283.374C444.262 283.283 444.177 283.212 444.076 283.171C443.976 283.13 443.865 283.121 443.76 283.146C443.654 283.17 443.558 283.227 443.486 283.308L443.478 283.312Z" fill="#6C63FF"/>
<path id="Path 1708" d="M389.135 322.562C391.074 322.581 392.998 322.211 394.791 321.472C396.584 320.733 398.211 319.642 399.574 318.262L441.242 275.848C439.763 274.623 437.905 273.947 435.984 273.936H342.362C340.44 273.942 338.581 274.618 337.104 275.848L378.782 318.262C380.133 319.634 381.745 320.721 383.523 321.46C385.302 322.198 387.21 322.573 389.135 322.562Z" fill="#6C63FF"/>
<path id="Path 1709" opacity="0.1" d="M387.93 216.636C369.02 216.627 350.533 222.226 334.806 232.725C319.078 243.225 306.819 258.153 299.577 275.621C292.336 293.089 290.438 312.312 294.123 330.859C297.809 349.407 306.912 366.444 320.283 379.816C333.653 393.188 350.688 402.295 369.235 405.984C387.781 409.672 407.005 407.778 424.475 400.539C441.944 393.3 456.874 381.043 467.376 365.318C477.878 349.593 483.48 331.106 483.474 312.196C483.465 286.857 473.397 262.559 455.481 244.64C437.566 226.721 413.269 216.649 387.93 216.636ZM387.93 395.029C371.544 395.029 355.526 390.17 341.902 381.066C328.277 371.963 317.658 359.024 311.387 343.885C305.117 328.746 303.476 312.088 306.673 296.017C309.87 279.946 317.76 265.184 329.347 253.597C340.934 242.01 355.696 234.12 371.767 230.923C387.838 227.726 404.496 229.367 419.635 235.638C434.774 241.908 447.713 252.527 456.816 266.152C465.92 279.776 470.779 295.794 470.779 312.18C470.779 323.06 468.636 333.833 464.473 343.885C460.309 353.937 454.206 363.07 446.513 370.763C438.82 378.456 429.687 384.559 419.635 388.723C409.583 392.886 398.81 395.029 387.93 395.029Z" fill="black"/>
</g>
<g id="Group 186">
<path id="Ellipse 359" d="M162.362 336.374C215.134 336.374 257.915 293.594 257.915 240.821C257.915 188.049 215.134 145.268 162.362 145.268C109.59 145.268 66.809 188.049 66.809 240.821C66.809 293.594 109.59 336.374 162.362 336.374Z" fill="#3F3D56"/>
<path id="Path 1710" d="M162.362 195.1L124.269 282.987L127.825 286.543L162.369 271.306L196.919 286.54L200.475 282.984L162.362 195.1Z" fill="#6C63FF"/>
<path id="Path 2202" opacity="0.1" d="M163.054 144.976C144.144 144.967 125.657 150.566 109.93 161.065C94.2025 171.564 81.9428 186.492 74.7013 203.961C67.4597 221.429 65.5617 240.652 69.2473 259.199C72.9329 277.746 82.0365 294.784 95.4066 308.156C108.777 321.528 125.812 330.635 144.359 334.324C162.905 338.012 182.129 336.118 199.599 328.879C217.068 321.64 231.998 309.383 242.5 293.658C253.002 277.933 258.604 259.446 258.598 240.536C258.59 215.197 248.521 190.899 230.605 172.98C212.69 155.061 188.393 144.989 163.054 144.976ZM163.054 323.369C146.668 323.369 130.65 318.51 117.026 309.406C103.401 300.303 92.7822 287.364 86.5115 272.225C80.2409 257.086 78.6002 240.428 81.7969 224.357C84.9937 208.286 92.8843 193.524 104.471 181.937C116.058 170.35 130.82 162.46 146.891 159.263C162.962 156.066 179.62 157.707 194.759 163.978C209.898 170.248 222.837 180.867 231.94 194.492C241.044 208.116 245.903 224.134 245.903 240.52C245.903 251.4 243.76 262.173 239.597 272.225C235.433 282.277 229.33 291.41 221.637 299.103C213.944 306.796 204.811 312.899 194.759 317.063C184.707 321.226 173.934 323.369 163.054 323.369Z" fill="black"/>
</g>
</g>
<g id="humans">
<path id="Path 1758" d="M320.232 345.895C320.244 344.429 319.912 342.98 319.263 341.665C318.614 340.35 317.666 339.206 316.494 338.324C316.48 335.732 315.55 333.229 313.869 331.256C312.189 329.283 309.865 327.967 307.308 327.541C306.913 325.657 306.029 323.91 304.746 322.475C303.462 321.041 301.824 319.969 299.995 319.368C299.551 319.229 299.098 319.124 298.638 319.053H297.022C294.481 319.112 292.044 320.068 290.14 321.752C288.237 323.436 286.991 325.739 286.622 328.253C283.267 327.479 280.198 328.483 279.634 330.605C279.494 331.169 279.529 331.762 279.734 332.305C280.308 333.949 282.172 335.526 284.667 336.305L284.992 336.405L285.479 336.529H285.584C285.052 337.663 284.779 338.9 284.784 340.152C284.776 341.688 285.192 343.197 285.986 344.513C286.78 345.828 287.921 346.899 289.284 347.608L289.064 347.742C288.753 348.025 288.505 348.37 288.337 348.755C287.734 349.822 287.262 350.958 286.932 352.139C286.693 353.152 286.655 354.204 286.358 355.208C285.804 357.053 284.389 358.608 284.226 360.532C284.149 361.392 284.293 362.444 283.681 362.998C283.53 363.129 283.367 363.244 283.193 363.342C282.769 363.641 282.409 364.021 282.132 364.46C281.949 364.858 281.696 365.221 281.386 365.531C280.832 365.942 279.923 365.904 279.656 366.544C279.389 367.184 280.086 367.944 279.924 368.638C279.762 369.332 279.169 369.469 278.739 369.861C278.238 370.399 277.886 371.058 277.716 371.773C276.812 371.946 275.88 371.917 274.988 371.689C274.096 371.461 273.265 371.039 272.554 370.454C272.798 371.071 272.977 371.712 273.089 372.366C272.257 371.73 271.314 371.255 270.307 370.966C269.175 370.451 268.165 369.701 267.344 368.766L268.931 368.546L261.924 357.846L259.85 357.416L261.704 360.982C261.549 361.053 261.412 361.157 261.303 361.288C261.193 361.418 261.115 361.572 261.073 361.737C260.974 362.134 260.952 362.546 261.006 362.951C261.101 363.917 261.261 364.875 261.484 365.819L262.019 368.319C262.067 368.548 262.124 368.787 262.191 369.019C261.492 368.985 260.792 369.062 260.117 369.248C258.727 368.73 257.278 368.386 255.803 368.223C255.488 368.159 255.162 368.159 254.847 368.223C254.49 368.392 254.179 368.645 253.939 368.959C252.733 370.359 251.661 371.87 250.739 373.471C246.915 380.029 241.939 385.755 237.222 391.681C233.972 393 230.693 394.252 227.414 395.505L220.359 398.205C218.984 398.829 217.491 399.155 215.981 399.161C215.312 399.161 214.481 399.018 214.069 399.591C213.885 399.89 213.74 400.211 213.639 400.547L212.912 400.623C212.577 399.475 212 398.413 211.22 397.507C211.048 397.537 210.886 397.608 210.748 397.715C210.609 397.821 210.499 397.96 210.427 398.119C210.255 398.435 210.15 398.779 209.949 399.075C209.576 399.629 208.917 399.897 208.449 400.366C207.981 400.835 207.684 401.561 207.168 402.039C206.464 402.56 205.637 402.889 204.768 402.995C203.458 403.301 202.195 403.78 201.011 404.419C200.578 404.69 200.112 404.905 199.625 405.059C199.086 405.164 198.535 405.183 197.99 405.116L194.262 404.839C193.928 404.798 193.59 404.814 193.262 404.887C192.888 405.04 192.571 405.307 192.359 405.65C192.146 405.994 192.047 406.396 192.077 406.799C192.125 407.204 192.255 407.595 192.459 407.948C192.662 408.301 192.936 408.61 193.262 408.854C193.907 409.33 194.623 409.702 195.384 409.954C198.61 411.21 201.936 412.195 205.326 412.898V413.653C207.698 414.849 210.317 415.471 212.973 415.469C213.17 415.482 213.367 415.446 213.547 415.364C213.791 415.182 213.961 414.917 214.025 414.619C214.818 412.248 215.318 409.789 215.516 407.296C215.983 407.265 216.439 407.148 216.864 406.952C218.145 406.598 219.426 407.478 220.755 407.621C222.39 407.803 223.9 406.847 225.449 406.264L226.118 406.044C225.677 406.611 225.155 407.11 224.569 407.526C223.929 407.985 223.212 408.326 222.59 408.807C222.064 409.283 221.502 409.718 220.908 410.107C220.489 410.302 220.058 410.469 219.618 410.607C218.966 410.849 218.347 411.17 217.773 411.563C217.265 411.866 216.836 412.286 216.521 412.787C216.364 413.043 216.272 413.334 216.254 413.634C216.235 413.934 216.291 414.234 216.416 414.508C216.548 414.731 216.727 414.923 216.939 415.072C217.152 415.22 217.394 415.321 217.649 415.368C218.153 415.444 218.665 415.444 219.169 415.368C221.196 415.215 223.213 415.033 225.23 414.852C226.083 414.798 226.93 414.677 227.763 414.489C228.203 414.384 228.642 414.241 229.082 414.116C229.835 413.926 230.606 413.811 231.382 413.772C231.607 413.755 231.834 413.777 232.051 413.839C232.519 413.992 232.851 414.47 233.332 414.566C233.656 414.607 233.985 414.564 234.288 414.442C235.761 414.125 237.264 413.964 238.771 413.964C239.104 414.005 239.442 413.954 239.748 413.818C240.055 413.682 240.318 413.465 240.511 413.19C240.817 412.578 240.262 411.59 240.011 410.781C239.884 410.261 239.813 409.729 239.801 409.194C239.686 407.877 239.309 406.597 238.692 405.428C238.359 404.883 238.081 404.306 237.86 403.707C240.751 402.609 243.517 401.205 246.11 399.52C247.53 398.492 249.121 397.725 250.81 397.255C252.806 397.017 254.83 397.253 256.718 397.943C261.314 399.275 265.835 400.851 270.263 402.665C272.376 403.535 274.479 404.452 276.663 405.112C277.299 405.965 278.067 406.71 278.938 407.32C280.443 408.167 282.134 408.63 283.861 408.668C286.165 408.878 288.478 408.964 290.791 408.926C292.562 409.003 294.327 408.676 295.953 407.97C296.341 407.776 296.704 407.535 297.033 407.253C297.657 407.306 298.285 407.221 298.872 407.004C299.459 406.788 299.992 406.446 300.433 406.001C301.687 404.927 302.589 403.501 303.024 401.909C303.588 399.73 303.158 397.129 304.496 395.39C304.85 394.912 305.318 394.53 305.672 394.052C306.1 393.397 306.314 392.626 306.284 391.844C306.3 391.813 306.319 391.784 306.341 391.758C306.635 391.055 306.828 390.315 306.915 389.558C307.079 388.964 307.287 388.382 307.536 387.818C308.215 386.132 308.809 384.412 309.314 382.666C309.661 381.503 309.938 380.32 310.142 379.123C310.285 378.167 310.371 377.211 310.448 376.255C310.549 374.749 310.842 373.262 311.318 371.829C312.515 368.419 313.191 364.848 313.325 361.237V361.027C315.086 360.825 316.709 359.972 317.873 358.634C319.037 357.297 319.658 355.573 319.615 353.8C319.616 352.736 319.391 351.683 318.956 350.712C319.802 349.248 320.244 347.585 320.237 345.894L320.232 345.895ZM286.032 387.449C286.137 387.822 286.261 388.185 286.386 388.549C285.822 388.004 285.277 387.44 284.713 386.886C284.933 386.962 285.162 387.029 285.372 387.115C285.593 387.205 285.804 387.317 286.003 387.449H286.032ZM283.327 385.614C280.02 382.746 276.196 380.514 272.812 377.737C274.657 378.645 276.454 379.706 278.232 380.719C280.341 381.924 282.479 383.08 284.646 384.189C284.29 384.744 283.833 385.227 283.298 385.613L283.327 385.614ZM284.732 378.387L284.895 378.224V379.362L284.006 379.056C284.253 378.848 284.487 378.624 284.706 378.387H284.732ZM255.642 386.13C256.999 384.594 258.179 382.91 259.16 381.111C260.47 383.396 262.601 385.049 264.408 386.971C261.49 386.598 258.565 386.283 255.642 386.13Z" fill="url(#paint0_linear)"/>
<path id="Path 1759" d="M260.344 358.294L262.428 358.715L269.528 369.221L266.402 369.642L260.344 358.294Z" fill="#2F2E41"/>
<path id="Path 1760" d="M209.814 400.908C210.379 402.762 211.076 404.573 211.898 406.328C214.251 405.831 216.567 405.169 218.828 404.349C218.382 403.686 217.901 403.048 217.385 402.437C216.824 401.827 216.161 401.319 215.425 400.937C214.642 400.76 213.828 400.76 213.045 400.937C211.974 400.908 210.894 400.927 209.814 400.908Z" fill="#FBBEBE"/>
<path id="Path 1761" d="M215.434 403.709C214.868 403.455 214.364 403.083 213.955 402.617C213.545 402.151 213.241 401.603 213.063 401.009C212.699 399.818 212.082 398.72 211.256 397.788C211.083 397.812 210.918 397.88 210.778 397.985C210.639 398.09 210.528 398.228 210.456 398.388C210.284 398.694 210.179 399.038 209.988 399.344C209.606 399.889 208.936 400.157 208.458 400.615C207.98 401.073 207.693 401.791 207.177 402.259C206.467 402.782 205.634 403.111 204.759 403.215C203.429 403.515 202.143 403.987 200.935 404.62C200.493 404.884 200.021 405.096 199.53 405.251C198.985 405.333 198.431 405.333 197.886 405.251L194.12 404.983C193.803 404.931 193.481 404.931 193.164 404.983C192.78 405.122 192.453 405.386 192.236 405.733C192.019 406.079 191.925 406.489 191.969 406.895C192.014 407.298 192.143 407.687 192.349 408.036C192.555 408.385 192.833 408.687 193.164 408.921C193.818 409.391 194.54 409.759 195.305 410.011C198.584 411.246 201.96 412.205 205.399 412.879V413.625C207.795 414.801 210.429 415.413 213.099 415.413C213.295 415.424 213.492 415.389 213.673 415.313C213.917 415.13 214.087 414.865 214.151 414.567C215.057 411.927 215.588 409.172 215.728 406.384C215.789 405.676 215.734 404.962 215.565 404.271C215.355 403.592 216.065 403.879 215.412 403.611" fill="#2F2E41"/>
<path id="Path 1762" d="M287.664 389.511C276.499 390.18 265.464 386.911 254.283 386.567C252.895 386.476 251.5 386.562 250.134 386.825C248.711 387.212 247.334 387.748 246.024 388.425C240.03 391.216 233.824 393.525 227.632 395.834L220.51 398.482C219.125 399.108 217.623 399.434 216.103 399.438C215.424 399.438 214.593 399.295 214.191 399.859C213.034 401.58 213.579 404.094 214.344 406.025C214.593 406.646 215.013 407.325 215.682 407.392C216.151 407.36 216.611 407.244 217.039 407.048C218.329 406.704 219.62 407.574 220.958 407.717C222.602 407.889 224.132 406.952 225.69 406.379C228.271 405.423 231.081 405.423 233.796 405.002C238.337 404.247 242.552 402.134 246.491 399.735C247.923 398.715 249.525 397.957 251.223 397.498C253.234 397.261 255.272 397.494 257.178 398.177C261.81 399.484 266.37 401.035 270.838 402.823C273.161 403.834 275.542 404.706 277.969 405.433C283.266 406.819 288.867 406.484 293.962 404.477C295.75 403.77 297.69 402.565 297.786 400.596C297.853 399.496 296.993 398.531 296.429 397.585C296.066 396.985 295.693 396.385 295.301 395.797C293.39 393.022 291.053 389.311 287.664 389.511Z" fill="#2F2E41"/>
<path id="Path 1763" opacity="0.1" d="M287.664 389.511C276.499 390.18 265.464 386.911 254.283 386.567C252.895 386.476 251.5 386.562 250.134 386.825C248.711 387.212 247.334 387.748 246.024 388.425C240.03 391.216 233.824 393.525 227.632 395.834L220.51 398.482C219.125 399.108 217.623 399.434 216.103 399.438C215.424 399.438 214.593 399.295 214.191 399.859C213.034 401.58 213.579 404.094 214.344 406.025C214.593 406.646 215.013 407.325 215.682 407.392C216.151 407.36 216.611 407.244 217.039 407.048C218.329 406.704 219.62 407.574 220.958 407.717C222.602 407.889 224.132 406.952 225.69 406.379C228.271 405.423 231.081 405.423 233.796 405.002C238.337 404.247 242.552 402.134 246.491 399.735C247.923 398.715 249.525 397.957 251.223 397.498C253.234 397.261 255.272 397.494 257.178 398.177C261.81 399.484 266.37 401.035 270.838 402.823C273.161 403.834 275.542 404.706 277.969 405.433C283.266 406.819 288.867 406.484 293.962 404.477C295.75 403.77 297.69 402.565 297.786 400.596C297.853 399.496 296.993 398.531 296.429 397.585C296.066 396.985 295.693 396.385 295.301 395.797C293.39 393.022 291.053 389.311 287.664 389.511Z" fill="black"/>
<path id="Path 1764" d="M231.255 401.425C233.001 402.018 234.763 402.566 236.541 403.069C237.497 401.434 239.409 400.297 239.82 398.423C239.844 398.342 239.844 398.256 239.82 398.175C239.773 398.096 239.703 398.032 239.62 397.993C238.342 397.291 236.926 396.877 235.471 396.779C234.324 396.712 233.798 397.907 233.282 398.748C233.081 399.121 231.723 401.606 231.255 401.425Z" fill="#FBBEBE"/>
<path id="Path 1765" d="M233.702 400.259C233.18 400.171 232.681 399.974 232.239 399.683C231.796 399.392 231.419 399.012 231.131 398.567C230.892 398.137 230.624 397.554 230.131 397.611C229.638 397.668 229.471 398.184 229.366 398.634C229.035 400.328 228.552 401.988 227.923 403.595C227.292 405.21 226.223 406.617 224.835 407.657C224.185 408.106 223.468 408.441 222.828 408.919C222.298 409.389 221.732 409.817 221.136 410.2C220.714 410.389 220.28 410.549 219.836 410.678C219.183 410.924 218.561 411.245 217.982 411.634C217.466 411.93 217.03 412.347 216.711 412.848C216.552 413.098 216.46 413.385 216.442 413.681C216.425 413.977 216.483 414.273 216.611 414.54C216.745 414.76 216.924 414.949 217.137 415.094C217.349 415.239 217.59 415.337 217.844 415.381C218.354 415.457 218.873 415.457 219.383 415.381C221.419 415.238 223.455 415.056 225.491 414.874C226.349 414.818 227.202 414.7 228.043 414.52L229.372 414.157C230.131 413.957 230.91 413.841 231.695 413.813C231.924 413.792 232.154 413.815 232.374 413.88C232.842 414.033 233.174 414.502 233.664 414.597C233.988 414.628 234.315 414.586 234.62 414.473C236.106 414.155 237.622 413.998 239.142 414.005C239.477 414.044 239.816 413.994 240.125 413.86C240.434 413.725 240.701 413.511 240.901 413.24C241.283 412.494 240.652 411.663 240.394 410.86C240.271 410.349 240.2 409.827 240.184 409.302C240.07 408.002 239.689 406.739 239.066 405.593C238.55 404.637 237.842 403.586 238.206 402.572C238.387 402.25 238.503 401.896 238.55 401.53C238.405 399.886 234.639 400.469 233.702 400.259Z" fill="#2F2E41"/>
<path id="Path 1766" d="M270.925 371.6C268.944 370.732 267.356 369.158 266.47 367.184C266.288 366.763 266.136 366.314 265.954 365.894C265.371 364.469 264.461 363.202 263.297 362.194C263.174 362.064 263.026 361.96 262.862 361.889C262.697 361.819 262.52 361.783 262.341 361.783C262.163 361.837 262.003 361.936 261.877 362.073C261.751 362.209 261.664 362.376 261.624 362.557C261.517 362.946 261.491 363.353 261.547 363.752C261.644 364.692 261.804 365.624 262.025 366.543L262.57 369.009C262.642 369.387 262.755 369.755 262.905 370.109C263.138 370.522 263.446 370.889 263.813 371.189C264.313 371.648 264.813 372.089 265.323 372.527C265.616 372.782 265.937 373.003 266.279 373.186C266.813 373.442 267.384 373.611 267.971 373.686C270.252 373.983 272.428 374.822 274.318 376.133C274.318 376.133 274.318 374.479 274.318 374.298C274.294 373.817 274.128 373.355 273.84 372.969C272.965 372.331 271.975 371.866 270.925 371.6Z" fill="#FBBEBE"/>
<path id="Path 1767" opacity="0.1" d="M270.925 371.6C268.944 370.732 267.356 369.158 266.47 367.184C266.288 366.763 266.136 366.314 265.954 365.894C265.371 364.469 264.461 363.202 263.297 362.194C263.174 362.064 263.026 361.96 262.862 361.889C262.697 361.819 262.52 361.783 262.341 361.783C262.163 361.837 262.003 361.936 261.877 362.073C261.751 362.209 261.664 362.376 261.624 362.557C261.517 362.946 261.491 363.353 261.547 363.752C261.644 364.692 261.804 365.624 262.025 366.543L262.57 369.009C262.642 369.387 262.755 369.755 262.905 370.109C263.138 370.522 263.446 370.889 263.813 371.189C264.313 371.648 264.813 372.089 265.323 372.527C265.616 372.782 265.937 373.003 266.279 373.186C266.813 373.442 267.384 373.611 267.971 373.686C270.252 373.983 272.428 374.822 274.318 376.133C274.318 376.133 274.318 374.479 274.318 374.298C274.294 373.817 274.128 373.355 273.84 372.969C272.965 372.331 271.975 371.866 270.925 371.6Z" fill="black"/>
<path id="Ellipse 362" d="M293.658 352.731C295.157 352.731 296.373 351.507 296.373 349.997C296.373 348.487 295.157 347.263 293.658 347.263C292.159 347.263 290.943 348.487 290.943 349.997C290.943 351.507 292.159 352.731 293.658 352.731Z" fill="#2F2E41"/>
<path id="Path 1768" d="M291.975 348.352C291.248 348.178 290.483 348.287 289.834 348.658C289.521 348.936 289.27 349.277 289.098 349.658C288.49 350.704 288.015 351.821 287.683 352.984C287.444 353.94 287.406 355.02 287.1 356.005C286.546 357.821 285.121 359.36 284.959 361.253C284.883 362.104 285.026 363.098 284.405 363.672C284.253 363.804 284.09 363.922 283.918 364.026C283.487 364.313 283.123 364.688 282.847 365.126C282.66 365.516 282.404 365.869 282.092 366.168C281.538 366.579 280.62 366.541 280.352 367.124C280.084 367.707 280.782 368.501 280.62 369.189C280.458 369.877 279.855 370.011 279.425 370.389C278.918 370.924 278.562 371.584 278.393 372.301C277.484 372.476 276.549 372.451 275.651 372.228C274.753 372.005 273.914 371.59 273.193 371.01C273.824 372.926 274.099 374.941 274.006 376.956C274.054 377.278 274.036 377.607 273.954 377.922C273.871 378.237 273.727 378.533 273.528 378.791C275.684 378.952 277.82 379.323 279.904 379.9C280.807 380.201 281.783 380.201 282.686 379.9C283.169 379.641 283.603 379.298 283.967 378.887C285.114 377.721 286.319 376.449 286.596 374.834C286.665 373.921 286.681 373.006 286.644 372.091C286.754 370.957 286.988 369.838 287.344 368.755C287.949 366.507 288.355 364.211 288.558 361.892C288.682 360.458 289.925 359.311 290.575 358.068C291.799 355.649 293.06 353.135 293.146 350.421C293.179 349.547 292.873 348.448 291.975 348.352Z" fill="#2F2E41"/>
<path id="Path 1769" opacity="0.1" d="M291.975 348.352C291.248 348.178 290.483 348.287 289.834 348.658C289.521 348.936 289.27 349.277 289.098 349.658C288.49 350.704 288.015 351.821 287.683 352.984C287.444 353.94 287.406 355.02 287.1 356.005C286.546 357.821 285.121 359.36 284.959 361.253C284.883 362.104 285.026 363.098 284.405 363.672C284.253 363.804 284.09 363.922 283.918 364.026C283.487 364.313 283.123 364.688 282.847 365.126C282.66 365.516 282.404 365.869 282.092 366.168C281.538 366.579 280.62 366.541 280.352 367.124C280.084 367.707 280.782 368.501 280.62 369.189C280.458 369.877 279.855 370.011 279.425 370.389C278.918 370.924 278.562 371.584 278.393 372.301C277.484 372.476 276.549 372.451 275.651 372.228C274.753 372.005 273.914 371.59 273.193 371.01C273.824 372.926 274.099 374.941 274.006 376.956C274.054 377.278 274.036 377.607 273.954 377.922C273.871 378.237 273.727 378.533 273.528 378.791C275.684 378.952 277.82 379.323 279.904 379.9C280.807 380.201 281.783 380.201 282.686 379.9C283.169 379.641 283.603 379.298 283.967 378.887C285.114 377.721 286.319 376.449 286.596 374.834C286.665 373.921 286.681 373.006 286.644 372.091C286.754 370.957 286.988 369.838 287.344 368.755C287.949 366.507 288.355 364.211 288.558 361.892C288.682 360.458 289.925 359.311 290.575 358.068C291.799 355.649 293.06 353.135 293.146 350.421C293.179 349.547 292.873 348.448 291.975 348.352Z" fill="black"/>
<path id="Path 1770" d="M289.432 391.866C287.109 390.757 285.408 388.702 283.524 386.934C279.939 383.56 275.552 381.199 271.776 378.015C269.276 375.922 266.996 373.484 264.291 371.725C261.868 370.189 259.124 369.231 256.271 368.925C255.956 368.853 255.63 368.853 255.315 368.925C254.954 369.079 254.64 369.326 254.407 369.642C253.188 371.017 252.103 372.506 251.166 374.087C246.386 382.212 239.59 389.038 233.959 396.587C233.83 396.744 233.735 396.926 233.682 397.122C233.658 397.415 233.732 397.708 233.892 397.954L235.039 400.191C235.68 401.453 236.712 402.915 238.088 402.667C238.709 402.488 239.265 402.133 239.688 401.644L244.831 396.721L250.223 391.569C253.377 388.558 256.589 385.469 258.654 381.608C260.26 384.399 263.118 386.225 265.068 388.777C265.814 389.733 266.425 390.813 267.095 391.845C268.156 393.489 269.37 395.038 270.575 396.625L276.76 404.511C277.544 405.625 278.514 406.595 279.628 407.379C281.153 408.209 282.853 408.665 284.589 408.708C286.912 408.915 289.245 408.998 291.577 408.957C293.363 409.029 295.143 408.702 296.787 408.001C297.607 407.641 298.308 407.054 298.807 406.311C299.306 405.567 299.584 404.697 299.607 403.801C299.512 402.875 299.208 401.983 298.718 401.191C296.477 397.209 293.59 393.844 289.432 391.866Z" fill="#2F2E41"/>
<path id="Ellipse 363" d="M295.33 353.992C296.486 353.992 297.423 353.051 297.423 351.889C297.423 350.728 296.486 349.786 295.33 349.786C294.174 349.786 293.237 350.728 293.237 351.889C293.237 353.051 294.174 353.992 295.33 353.992Z" fill="#E8E8F0"/>
<path id="Path 1771" d="M294.872 350.312C295.339 351.251 295.421 352.335 295.101 353.333C294.771 354.314 294.318 355.248 293.753 356.115C293.267 357.008 292.68 357.842 292.004 358.6C295.235 358.753 298.361 357.491 301.204 355.962C303.498 354.729 305.783 353.209 307.004 350.905C306.639 350.992 306.26 351.002 305.891 350.933C305.522 350.864 305.172 350.718 304.863 350.505C304.247 350.081 303.696 349.569 303.228 348.985L301.613 347.169C301.247 346.769 300.926 346.33 300.657 345.859C300.302 345.215 300.152 344.478 300.227 343.746C299.583 344.418 298.865 345.014 298.086 345.524C296.93 346.279 295.658 346.824 294.492 347.57C294.092 347.838 293.173 348.258 293.412 348.794C293.651 349.33 294.547 349.739 294.872 350.312Z" fill="#FBBEBE"/>
<path id="Path 1772" opacity="0.1" d="M294.872 350.312C295.339 351.251 295.421 352.335 295.101 353.333C294.771 354.314 294.318 355.248 293.753 356.115C293.267 357.008 292.68 357.842 292.004 358.6C295.235 358.753 298.361 357.491 301.204 355.962C303.498 354.729 305.783 353.209 307.004 350.905C306.639 350.992 306.26 351.002 305.891 350.933C305.522 350.864 305.172 350.718 304.863 350.505C304.247 350.081 303.696 349.569 303.228 348.985L301.613 347.169C301.247 346.769 300.926 346.33 300.657 345.859C300.302 345.215 300.152 344.478 300.227 343.746C299.583 344.418 298.865 345.014 298.086 345.524C296.93 346.279 295.658 346.824 294.492 347.57C294.092 347.838 293.173 348.258 293.412 348.794C293.651 349.33 294.547 349.739 294.872 350.312Z" fill="black"/>
<path id="Path 1773" d="M294.909 350.627C294.582 351.088 294.406 351.639 294.406 352.204C294.406 352.769 294.582 353.32 294.909 353.781C295.009 353.896 295.349 354.613 295.492 354.622C295.562 354.616 295.631 354.596 295.693 354.563C295.755 354.531 295.81 354.486 295.855 354.431C296.59 353.664 297.274 352.85 297.901 351.993C298.541 351.139 299.462 350.537 300.501 350.293C301.789 350.244 303.054 350.638 304.086 351.411C304.566 351.63 304.988 351.957 305.319 352.367C305.549 352.789 305.686 353.255 305.719 353.734C306.031 356.619 306.153 359.522 306.082 362.423C306.137 364.518 305.999 366.614 305.671 368.684C305.461 369.745 305.155 370.784 305.011 371.867C304.899 372.819 304.854 373.777 304.877 374.735V378.735C304.851 379.468 304.903 380.202 305.03 380.924C305.221 381.794 305.63 382.606 305.909 383.457C306.195 384.434 306.39 385.436 306.492 386.449L307.037 390.579C307.368 391.869 307.194 393.237 306.549 394.403C306.195 394.871 305.727 395.254 305.364 395.722C304.016 397.481 304.408 399.995 303.882 402.146C303.439 403.72 302.525 405.121 301.263 406.161C300.813 406.606 300.271 406.947 299.674 407.16C299.078 407.374 298.442 407.453 297.812 407.394C296.13 407.079 295.126 405.329 294.667 403.676C294.208 402.023 294.046 400.225 293.052 398.829C292.14 397.773 291.061 396.872 289.859 396.162C288.643 395.441 287.75 394.281 287.364 392.921C287.259 392.321 287.364 391.697 287.259 391.086C287.169 390.316 286.874 389.584 286.405 388.967C285.936 388.35 285.31 387.87 284.592 387.578C283.732 387.243 282.68 387.119 282.183 386.335C283.414 385.565 284.311 384.361 284.697 382.961C285.077 381.571 285.283 380.139 285.309 378.698L285.596 373.918C285.559 371.796 285.946 369.688 286.734 367.718C287.155 366.858 287.69 366.045 288.12 365.194C288.703 363.998 289.199 362.762 289.602 361.494C290.29 359.525 290.978 357.556 291.59 355.567C291.829 354.602 292.195 353.672 292.68 352.804C293.198 351.899 293.944 350.819 294.909 350.627Z" fill="#E8E8F0"/>
<path id="Path 1774" d="M284.251 381.829H285.522L285.79 379.917C285.825 379.533 285.915 379.157 286.058 378.799C286.268 378.419 286.514 378.06 286.794 377.728C288.037 375.96 287.951 373.617 288.257 371.467C288.811 368.625 289.75 365.872 291.048 363.284L293.514 357.784C293.738 357.335 293.918 356.864 294.049 356.379C294.152 355.844 294.204 355.299 294.202 354.754C294.202 353.903 294.47 350.806 294.502 349.974C294.502 349.659 293.802 349.831 293.661 349.553C293.355 348.941 292.934 350.595 292.351 350.958C291.803 351.376 291.404 351.959 291.213 352.621C290.678 353.998 290.353 355.489 289.856 356.856C289.425 358.282 288.633 359.573 287.556 360.603C287.049 361.043 286.466 361.397 285.988 361.874C284.459 363.384 284.306 365.784 284.258 367.944C284.212 369.268 283.964 381.829 284.251 381.829Z" fill="#2F2E41"/>
<path id="Path 1775" d="M302.547 348.343C301.956 348.652 301.444 349.093 301.051 349.632C300.658 350.171 300.395 350.793 300.281 351.45C300.063 352.768 299.677 354.053 299.134 355.274C297.585 357.974 293.634 358.754 292.534 361.674C292.258 362.654 292.11 363.667 292.094 364.685C291.903 366.779 291.215 368.795 291.004 370.879C290.899 372.501 290.937 374.13 291.119 375.745L292.505 392.206C292.77 394.628 292.631 397.076 292.094 399.452C293.515 399.655 294.964 399.415 296.243 398.764C297.533 398.171 298.719 397.359 299.971 396.671C302.112 395.486 304.483 394.654 306.371 393.077C306.708 392.808 306.999 392.485 307.231 392.121C307.519 391.43 307.712 390.704 307.805 389.961C307.968 389.379 308.175 388.811 308.426 388.261C309.117 386.599 309.718 384.901 310.226 383.175C310.571 382.033 310.845 380.871 311.048 379.696C311.201 378.74 311.287 377.784 311.363 376.828C311.463 375.346 311.758 373.884 312.242 372.479C313.441 369.122 314.122 365.602 314.259 362.04C314.296 361.528 314.261 361.013 314.154 360.511C313.944 359.897 313.662 359.31 313.313 358.762C312.74 357.682 312.357 356.497 311.86 355.397C310.505 352.976 308.562 350.935 306.211 349.461C305.1 348.697 303.799 347.894 302.547 348.343Z" fill="#2F2E41"/>
<path id="Path 1776" d="M273.669 375.204C272.688 374.688 271.799 374.012 271.04 373.204C270.696 372.804 270.409 372.353 270.084 371.952C269.198 370.998 268.046 370.332 266.777 370.04C265.522 369.764 264.238 369.639 262.953 369.667C262.091 369.609 261.225 369.713 260.401 369.973C259.99 370.111 259.62 370.349 259.324 370.666C259.029 370.983 258.817 371.369 258.709 371.789C258.674 372.309 258.775 372.829 259.001 373.298C259.227 373.767 259.571 374.169 259.999 374.466C260.745 375.079 261.626 375.505 262.57 375.709C263.338 375.845 264.114 375.938 264.893 375.986C269.462 376.464 273.544 378.949 277.549 381.215C281.067 383.215 284.655 385.076 288.313 386.797C288.455 385.703 288.516 384.6 288.495 383.497C288.495 382.675 288.428 381.413 287.654 380.926C286.553 380.465 285.406 380.122 284.232 379.903C281.873 379.133 279.57 378.2 277.34 377.112C276.079 376.55 274.853 375.913 273.669 375.204Z" fill="#FBBEBE"/>
<path id="Ellipse 364" d="M293.657 349.375C298.155 349.375 301.801 345.707 301.801 341.183C301.801 336.659 298.155 332.991 293.657 332.991C289.159 332.991 285.513 336.659 285.513 341.183C285.513 345.707 289.159 349.375 293.657 349.375Z" fill="#FBBEBE"/>
<path id="Path 1777" d="M304.866 357.625C304.216 358.538 303.686 359.531 303.289 360.579C302.333 362.644 300.708 364.403 299.915 366.592C299.122 368.781 299.115 371.592 297.477 373.379C297.15 373.653 296.902 374.009 296.76 374.411C296.753 374.661 296.728 374.911 296.683 375.157C296.444 375.807 295.383 375.836 295.183 376.505C295.126 376.696 295.183 376.905 295.083 377.098C294.92 377.528 294.347 377.598 293.974 377.853C293.181 378.388 293.343 379.631 292.779 380.405C292.533 380.693 292.215 380.912 291.857 381.037C291.5 381.163 291.115 381.193 290.743 381.122C290.002 380.971 289.289 380.703 288.631 380.329C288.394 380.199 288.134 380.118 287.866 380.09C287.549 380.101 287.243 380.208 286.987 380.396C286.266 380.927 285.688 381.628 285.304 382.437C284.92 383.246 284.742 384.138 284.787 385.032C284.897 386.824 285.324 388.581 286.049 390.223C286.13 390.507 286.27 390.771 286.46 390.997C286.745 391.221 287.089 391.354 287.45 391.382C287.811 391.409 288.172 391.328 288.487 391.15C289.111 390.78 289.775 390.481 290.466 390.261C291.728 390.032 292.961 390.902 294.242 390.825C295.175 390.688 296.053 390.301 296.785 389.707C298.071 388.94 299.226 387.971 300.207 386.839C300.761 386.103 301.163 385.271 301.66 384.487C302.292 383.534 302.979 382.618 303.715 381.743L308.415 376.008C308.882 375.463 309.304 374.881 309.677 374.268C310.095 373.431 310.416 372.549 310.633 371.639C311.136 370.124 311.457 368.555 311.589 366.965C311.618 365.65 311.503 364.336 311.245 363.046C311.102 361.762 310.78 360.503 310.289 359.308C309.277 357.147 306.791 355.393 304.866 357.625Z" fill="#2F2E41"/>
<path id="Path 1778" d="M321.236 346.937C321.243 345.485 320.905 344.052 320.251 342.756C319.596 341.46 318.643 340.337 317.47 339.481C317.432 336.901 316.48 334.419 314.784 332.474C313.088 330.53 310.758 329.25 308.207 328.861C307.717 326.415 306.378 324.22 304.428 322.665C302.477 321.11 300.039 320.294 297.545 320.361C295.051 320.429 292.661 321.375 290.797 323.034C288.933 324.692 287.715 326.956 287.358 329.425C283.974 328.66 280.877 329.654 280.313 331.738C279.749 333.822 282.139 336.518 285.704 337.474C286.829 337.789 287.999 337.905 289.164 337.818C289.994 339.041 291.071 340.077 292.325 340.86C293.58 341.642 294.984 342.152 296.448 342.359C296.882 344.329 297.856 346.14 299.26 347.588C300.665 349.036 302.445 350.065 304.401 350.559C304.946 351.866 305.787 353.028 306.858 353.953V354.746C306.858 356.574 307.584 358.327 308.877 359.619C310.169 360.912 311.922 361.638 313.75 361.638C315.578 361.638 317.331 360.912 318.623 359.619C319.916 358.327 320.642 356.574 320.642 354.746C320.642 353.694 320.417 352.655 319.982 351.697C320.824 350.253 321.257 348.608 321.236 346.937Z" fill="#F86D70"/>
<path id="Path 1779" opacity="0.1" d="M282.607 332.179C283.171 330.095 286.268 329.101 289.652 329.866C290.054 327.358 291.329 325.072 293.254 323.414C295.178 321.755 297.627 320.831 300.167 320.804H300.867C299.894 320.508 298.884 320.357 297.867 320.355C295.327 320.382 292.878 321.306 290.954 322.965C289.029 324.623 287.754 326.909 287.352 329.417C283.968 328.652 280.871 329.646 280.307 331.73C279.743 333.814 282.133 336.509 285.698 337.465C286.367 337.65 287.052 337.769 287.744 337.819C284.328 336.796 282.043 334.31 282.607 332.179Z" fill="black"/>
<path id="Path 1780" opacity="0.1" d="M309.115 355.149C309.101 354.888 309.101 354.626 309.115 354.365C308.037 353.445 307.194 352.282 306.655 350.972C304.696 350.48 302.913 349.451 301.508 348C300.103 346.549 299.131 344.735 298.702 342.761C297.237 342.559 295.83 342.051 294.574 341.27C293.317 340.49 292.239 339.454 291.408 338.23C290.729 338.287 290.046 338.268 289.372 338.173C290.209 339.299 291.261 340.248 292.467 340.965C293.673 341.682 295.009 342.152 296.398 342.35C296.832 344.32 297.806 346.131 299.21 347.579C300.615 349.027 302.395 350.056 304.351 350.55C304.896 351.856 305.737 353.018 306.808 353.943V354.736C306.777 356.589 307.481 358.378 308.765 359.714C310.049 361.05 311.809 361.824 313.662 361.867C312.311 361.342 311.153 360.418 310.34 359.218C309.528 358.017 309.1 356.598 309.115 355.149Z" fill="black"/>
<path id="Ellipse 365" d="M297.395 344.19C297.946 343.772 297.939 342.836 297.38 342.101C296.821 341.365 295.922 341.107 295.371 341.526C294.82 341.944 294.827 342.879 295.386 343.615C295.945 344.351 296.844 344.608 297.395 344.19Z" fill="#FBBEBE"/>
<path id="Path 1712" d="M617.455 361.162C616.588 359.046 615.699 356.937 614.788 354.834C614.037 352.782 612.934 350.877 611.528 349.204C610.994 348.602 610.344 348.114 609.616 347.77C608.816 347.474 607.974 347.305 607.121 347.27C605.821 347.108 604.508 347.074 603.202 347.17C602.695 347.017 602.122 346.816 601.558 346.587C604.387 345.844 606.902 344.211 608.733 341.93C610.564 339.65 611.615 336.841 611.729 333.918V333.335C611.744 329.722 610.324 326.252 607.78 323.686C605.236 321.121 601.778 319.671 598.165 319.656C595.647 319.651 593.178 320.357 591.043 321.692C588.224 321.052 585.271 321.388 582.666 322.643C580.062 323.898 577.96 325.999 576.704 328.603C575.12 330.118 573.869 331.945 573.03 333.969C572.191 335.994 571.782 338.17 571.829 340.361C571.829 340.561 571.829 340.772 571.829 340.961C572.078 348.388 576.876 354.344 582.937 354.946C582.289 355.237 581.695 355.635 581.178 356.122C579.324 357.91 579.018 360.749 578.817 363.33L578.674 365.242L575.462 366.389C575.36 366.426 575.27 366.489 575.201 366.574C575.133 366.658 575.089 366.759 575.074 366.867C575.06 366.974 575.075 367.084 575.118 367.183C575.161 367.283 575.231 367.368 575.319 367.431L578.387 369.62V370.165C578.379 370.374 578.398 370.582 578.444 370.786C577.92 371.248 577.514 371.828 577.259 372.478C576.96 373.482 576.866 374.537 576.982 375.578L577.097 378.245C577.082 380.252 577.356 382.252 577.91 384.181C578.31 385.366 580.051 388.225 581.304 388.244C580.147 393.502 579.841 404.59 579.841 404.59C579.698 404.733 580.099 404.867 580.797 404.982C581.485 410.259 583.732 425.056 587.718 431.566C588.345 433.689 588.846 435.846 589.218 438.028C589.218 438.028 590.356 452.09 591.856 456.267C593.137 459.823 594.15 468.598 594.427 471.141C594.167 471.208 593.931 471.345 593.744 471.537C593.557 471.73 593.426 471.97 593.366 472.231C592.611 474.506 587.717 477.966 587.717 477.966C586.217 478.715 584.8 479.622 583.492 480.671C581.953 482.057 582.01 483.309 588.845 482.526C602.037 481.006 604.293 476.79 604.293 476.79C604.293 476.79 604.083 476.083 603.767 475.165C603.364 473.737 602.783 472.366 602.037 471.083C601.846 470.902 601.655 471.208 601.425 471.683C600.429 465.584 600.127 459.391 600.525 453.224C600.525 453.224 600.898 446.762 599.015 442.202C598.596 439.815 598.596 437.372 599.015 434.985C599.77 431.945 596.004 417.119 596.004 417.119L593.844 406.202C594.138 406.575 594.343 407.009 594.444 407.473L594.501 407.693L594.558 408.008C594.579 408.121 594.632 408.225 594.711 408.308C596.183 414.426 600.217 431.374 600.217 433.86C600.217 436.9 603.983 444.499 603.983 444.499C603.983 444.499 605.483 457.041 608.122 461.973C610.129 465.73 610.177 471.236 610.082 473.664C610.082 473.664 609.633 476.79 608.882 477.545C608.282 478.292 607.801 479.127 607.458 480.021L607.372 480.203C607.372 480.203 606.244 482.488 606.999 482.87C609.871 483.997 612.98 484.388 616.042 484.008C616.042 484.008 617.552 482.096 617.552 481.35C617.52 480.895 617.463 480.442 617.38 479.993C617.103 478.193 616.587 475.366 616.58 475.338C616.895 474.114 615.624 470.711 615.624 470.711L615.241 460.072C615.941 452.868 615.04 445.599 612.603 438.784C612.603 438.784 610.691 431.949 611.103 430.047C611.515 428.145 610.348 408.004 610.348 408.004L610.233 407.717C610.131 406.292 610.17 404.861 610.348 403.444C610.721 398.884 609.22 389.382 608.838 389.01C608.526 387.989 608.347 386.932 608.303 385.865C608.389 385.072 608.647 382.749 609.003 379.865C612.72 379.738 616.427 379.419 620.111 378.909C620.467 378.909 620.809 378.772 621.067 378.527C621.218 378.298 621.295 378.028 621.287 377.753C621.718 372.021 619.629 366.458 617.455 361.162ZM609.875 373.216C610.267 370.492 610.688 367.853 611.108 365.894L611.165 366.066C611.889 368.036 612.495 370.047 612.981 372.088C611.977 372.547 610.938 372.924 609.874 373.216H609.875Z" fill="url(#paint1_linear)"/>
<path id="Path 1713" d="M580.595 403.987C580.595 403.987 582.851 424.281 587.736 432.167C588.363 434.264 588.864 436.396 589.236 438.553C589.236 438.553 590.364 452.453 591.865 456.582C593.366 460.711 594.494 471.991 594.494 471.991C594.494 471.991 599.752 477.991 601.635 473.119C600.452 466.678 600.073 460.115 600.507 453.58C600.507 453.58 600.88 447.195 599.007 442.68C598.588 440.322 598.588 437.908 599.007 435.549C599.753 432.538 595.996 417.893 595.996 417.893L592.996 403.239L580.595 403.987Z" fill="#BE6F72"/>
<path id="Path 1714" d="M604.263 476.875C604.263 476.875 602.007 481.004 588.863 482.505C582.038 483.279 581.99 482.046 583.529 480.67C584.833 479.633 586.243 478.736 587.735 477.993C587.735 477.993 592.62 474.619 593.365 472.363C594.11 470.107 596.749 471.99 596.749 471.99C600.506 477.62 601.261 470.48 602.006 471.235C602.754 472.496 603.336 473.849 603.736 475.259C604.053 476.168 604.263 476.875 604.263 476.875Z" fill="#FF6F61"/>
<path id="Path 1715" opacity="0.1" d="M604.263 476.876C604.263 476.876 602.007 481.006 588.863 482.506C582.038 483.28 581.99 482.047 583.529 480.671C584.6 481.35 586.76 481.627 591.109 479.878C597.37 477.316 601.909 475.834 603.737 475.261C604.053 476.168 604.263 476.876 604.263 476.876Z" fill="black"/>
<path id="Path 1716" opacity="0.1" d="M600.507 453.58C600.507 453.58 600.88 447.195 599.007 442.68C598.588 440.322 598.588 437.908 599.007 435.549C599.753 432.538 595.996 417.893 595.996 417.893L592.996 403.239L590.396 403.392L593.369 417.892C593.369 417.892 597.123 432.541 596.373 435.551C595.954 437.91 595.954 440.324 596.373 442.682C598.285 447.194 597.873 453.582 597.873 453.582C597.439 460.117 597.818 466.68 599.001 473.121C598.797 473.733 598.418 474.272 597.911 474.67C599.311 475.301 600.779 475.27 601.63 473.121C600.449 466.679 600.072 460.115 600.507 453.58Z" fill="black"/>
<path id="Path 1717" d="M598.059 321.529C595.552 321.524 593.095 322.223 590.966 323.546C588.156 322.898 585.209 323.221 582.606 324.462C580.003 325.704 577.898 327.79 576.632 330.381C575.054 331.872 573.806 333.677 572.967 335.68C572.128 337.682 571.718 339.838 571.762 342.009C571.762 350 577.144 356.472 583.778 356.472C588.557 356.472 592.744 353.072 594.666 348.146C595.77 348.438 596.908 348.586 598.05 348.586C601.638 348.586 605.078 347.161 607.615 344.624C610.151 342.088 611.577 338.647 611.577 335.06C611.577 331.472 610.151 328.032 607.615 325.495C605.078 322.958 601.638 321.533 598.05 321.533L598.059 321.529Z" fill="#3F3D56"/>
<path id="Path 1718" d="M609.148 405.87L610.276 408.87C610.276 408.87 611.404 428.782 611.022 430.665C610.64 432.548 612.532 439.265 612.532 439.265C614.961 445.992 615.86 453.177 615.161 460.295L615.534 470.81C615.534 470.81 617.034 474.94 616.289 475.695C615.544 476.45 609.875 475.026 609.875 475.026C609.875 475.026 610.63 467.14 607.963 462.255C605.296 457.37 603.833 444.972 603.833 444.972C603.833 444.972 600.076 437.459 600.076 434.457C600.076 431.455 594.063 407.032 594.063 407.032L609.148 405.87Z" fill="#BE6F72"/>
<path id="Path 1719" d="M579.84 405.497C579.84 405.497 580.223 391.971 581.752 387.841C582.53 385.911 583.091 383.901 583.425 381.847C583.425 381.847 606.166 385.957 608.049 384.457C608.049 384.457 608.422 389.715 608.804 390.087C609.186 390.459 610.716 399.856 610.304 404.368C609.892 408.88 610.304 408.868 610.304 408.868C610.304 408.868 594.895 411.124 594.522 408.868C594.149 406.612 593.022 406.622 593.022 406.622C593.022 406.622 579.094 406.205 579.84 405.497Z" fill="#3F3D56"/>
<path id="Path 1724" d="M596.396 345.196C596.72 345.919 597.211 346.555 597.83 347.05C598.228 347.346 598.69 347.545 599.178 347.633C598.337 348.12 597.419 348.484 596.578 348.971C595.255 349.86 593.978 350.818 592.754 351.839C591.502 352.845 589.969 353.439 588.366 353.539C588.929 352.781 589.282 351.887 589.389 350.949C589.496 350.011 589.355 349.061 588.978 348.195C588.634 347.627 588.406 346.997 588.309 346.34C588.393 345.807 588.604 345.303 588.925 344.87C589.247 344.437 589.668 344.089 590.154 343.855C590.871 343.367 591.607 342.899 592.354 342.431C592.937 342.068 593.817 341.303 594.554 341.331C595.291 341.359 595.376 342.01 595.51 342.679C595.698 343.552 595.996 344.398 596.396 345.196Z" fill="#BE6F72"/>
<path id="Path 1725" opacity="0.1" d="M596.396 345.196C596.72 345.919 597.211 346.555 597.83 347.05C598.228 347.346 598.69 347.545 599.178 347.633C598.337 348.12 597.419 348.484 596.578 348.971C595.255 349.86 593.978 350.818 592.754 351.839C591.502 352.845 589.969 353.439 588.366 353.539C588.929 352.781 589.282 351.887 589.389 350.949C589.496 350.011 589.355 349.061 588.978 348.195C588.634 347.627 588.406 346.997 588.309 346.34C588.393 345.807 588.604 345.303 588.925 344.87C589.247 344.437 589.668 344.089 590.154 343.855C590.871 343.367 591.607 342.899 592.354 342.431C592.937 342.068 593.817 341.303 594.554 341.331C595.291 341.359 595.376 342.01 595.51 342.679C595.698 343.552 595.996 344.398 596.396 345.196Z" fill="black"/>
<path id="Ellipse 360" d="M605.2 367.365C609.972 367.365 613.841 363.496 613.841 358.724C613.841 353.952 609.972 350.083 605.2 350.083C600.428 350.083 596.559 353.952 596.559 358.724C596.559 363.496 600.428 367.365 605.2 367.365Z" fill="#BE6F72"/>
<path id="Path 1726" d="M617.407 481.378C617.407 482.133 615.907 484.007 615.907 484.007C612.855 484.382 609.758 483.994 606.893 482.879C606.138 482.506 607.266 480.25 607.266 480.25L607.352 480.068C607.696 479.183 608.177 478.358 608.776 477.621C609.522 476.875 609.976 473.797 609.976 473.797C612.308 469.973 616.448 475.451 616.448 475.451C616.448 475.451 616.974 478.319 617.248 480.058C617.323 480.495 617.376 480.936 617.407 481.378Z" fill="#FF6F61"/>
<path id="Path 1727" opacity="0.1" d="M617.407 481.377C617.407 482.132 615.907 484.006 615.907 484.006C612.855 484.381 609.758 483.993 606.893 482.878C606.138 482.505 607.266 480.249 607.266 480.249L607.352 480.067C609.912 481.256 612.714 481.832 615.535 481.749L617.246 480.038C617.34 480.679 617.407 481.186 617.407 481.377Z" fill="black"/>
<path id="Ellipse 361" d="M587.917 349.135C592.584 349.135 596.367 345.352 596.367 340.685C596.367 336.018 592.584 332.235 587.917 332.235C583.25 332.235 579.467 336.018 579.467 340.685C579.467 345.352 583.25 349.135 587.917 349.135Z" fill="#BE6F72"/>
<path id="Path 1728" d="M581.102 357.587C579.248 359.355 578.942 362.156 578.751 364.709L578.464 368.447C578.36 369.454 578.338 370.467 578.397 371.477C578.397 372.098 578.55 372.729 578.607 373.389C578.664 374.049 578.683 374.88 578.693 375.635V381.16C578.602 382.3 578.814 383.444 579.305 384.477C579.567 384.977 580.007 385.36 580.538 385.551C581.069 385.742 581.652 385.728 582.173 385.51C582.767 385.052 583.185 384.405 583.358 383.675C584.291 381.433 584.933 379.08 585.27 376.675C585.346 375.843 585.356 375.012 585.433 374.18C585.51 373.348 585.653 372.48 585.777 371.637C586.312 368.119 586.551 364.563 586.79 361.017C586.857 359.966 587.803 355.827 586.427 355.368C585.758 355.148 584.372 355.836 583.727 356.068C582.757 356.393 581.863 356.909 581.098 357.588L581.102 357.587Z" fill="#BE6F72"/>
<path id="Path 1729" opacity="0.1" d="M581.102 357.587C579.248 359.355 578.942 362.156 578.751 364.709L578.464 368.447C578.36 369.454 578.338 370.467 578.397 371.477C578.397 372.098 578.55 372.729 578.607 373.389C578.664 374.049 578.683 374.88 578.693 375.635V381.16C578.602 382.3 578.814 383.444 579.305 384.477C579.567 384.977 580.007 385.36 580.538 385.551C581.069 385.742 581.652 385.728 582.173 385.51C582.767 385.052 583.185 384.405 583.358 383.675C584.291 381.433 584.933 379.08 585.27 376.675C585.346 375.843 585.356 375.012 585.433 374.18C585.51 373.348 585.653 372.48 585.777 371.637C586.312 368.119 586.551 364.563 586.79 361.017C586.857 359.966 587.803 355.827 586.427 355.368C585.758 355.148 584.372 355.836 583.727 356.068C582.757 356.393 581.863 356.909 581.098 357.588L581.102 357.587Z" fill="black"/>
<path id="Path 1730" d="M598.623 346.135C598.623 346.135 592.238 351.02 588.481 352.148C588.481 352.148 586.254 354.691 585.871 355.302C585.488 355.913 584.724 362.663 583.959 364.173C583.194 365.683 581.33 369.058 583.959 372.432C583.959 372.432 584.705 375.816 584.332 376.944C583.959 378.072 582.592 382.201 583.832 382.393C585.072 382.585 588.841 385.203 592.215 384.458C595.589 383.713 608.188 387.326 608.188 387.326C608.188 387.326 610.272 367.969 611.782 364.547L608.398 363.419C608.398 363.419 599.011 357.789 604.641 349.147C604.632 349.146 599.359 348.018 598.623 346.135Z" fill="#FF6F61"/>
<path id="Path 1731" d="M575.309 368.761L583.071 374.261C583.169 374.333 583.288 374.373 583.41 374.373C583.533 374.373 583.652 374.333 583.75 374.261L585.85 372.684C585.915 372.629 585.967 372.56 586.003 372.482C586.039 372.404 586.057 372.32 586.057 372.234C586.057 372.149 586.039 372.064 586.003 371.986C585.967 371.909 585.915 371.84 585.85 371.784L579.876 366.479C579.799 366.408 579.703 366.36 579.601 366.34C579.498 366.32 579.391 366.328 579.293 366.364L575.46 367.741C575.359 367.776 575.27 367.838 575.201 367.92C575.133 368.002 575.089 368.101 575.073 368.206C575.057 368.312 575.071 368.419 575.112 368.518C575.153 368.616 575.221 368.701 575.307 368.764L575.309 368.761Z" fill="#3F3D56"/>
<path id="Path 1732" d="M577.918 385.318C577.37 383.413 577.096 381.44 577.106 379.458L576.991 376.81C576.876 375.782 576.97 374.742 577.268 373.751C577.563 373.072 578.004 372.467 578.561 371.979C579.118 371.491 579.777 371.133 580.489 370.931C581.916 370.535 583.408 370.427 584.877 370.615C585.075 370.616 585.27 370.668 585.441 370.768C585.591 370.907 585.697 371.086 585.747 371.284C585.964 371.708 586.092 372.172 586.121 372.648C586.151 373.123 586.082 373.6 585.919 374.047C585.697 374.411 585.397 374.722 585.04 374.955C583.998 375.701 582.784 376.198 581.799 377.01C581.599 377.145 581.445 377.339 581.359 377.564C581.312 377.761 581.312 377.967 581.359 378.164C581.482 378.69 581.649 379.205 581.859 379.703C581.943 379.954 582.092 380.178 582.289 380.353C582.471 380.506 582.71 380.563 582.901 380.707C583.312 381.042 584.172 381.481 584.125 382.007C583.982 383.919 582.835 386.06 582.385 387.953C581.522 391.656 578.473 386.933 577.918 385.318Z" fill="#BE6F72"/>
<path id="Path 1735" d="M605.496 358.992C605.566 359.37 605.711 359.729 605.923 360.05C606.135 360.37 606.409 360.645 606.729 360.857C607.527 361.526 608.26 362.269 608.918 363.075C609.863 364.403 610.595 365.871 611.088 367.424C611.805 369.369 612.409 371.355 612.895 373.37C608.115 375.588 602.686 375.482 597.6 376.945C595.411 377.522 593.425 378.697 591.865 380.338C591.087 381.163 590.495 382.146 590.131 383.219C589.766 384.293 589.637 385.433 589.752 386.561C589.751 386.658 589.773 386.754 589.814 386.842C589.855 386.93 589.916 387.007 589.991 387.069C590.066 387.13 590.154 387.174 590.248 387.197C590.343 387.219 590.441 387.221 590.536 387.201C591.806 387.2 593.04 386.778 594.044 386.001C595.036 385.225 595.937 384.34 596.73 383.362C597.222 382.721 597.885 382.231 598.642 381.947C601.456 381.27 604.35 380.987 607.242 381.106C611.531 381.022 615.812 380.684 620.061 380.093C620.216 380.112 620.373 380.095 620.521 380.043C620.669 379.992 620.803 379.908 620.913 379.798C621.023 379.688 621.107 379.554 621.159 379.406C621.21 379.258 621.227 379.101 621.208 378.946C621.629 373.306 619.535 367.8 617.384 362.571C616.523 360.474 615.638 358.387 614.727 356.31C613.977 354.28 612.877 352.397 611.477 350.746C610.946 350.146 610.294 349.664 609.565 349.331C608.742 349.034 607.877 348.873 607.003 348.853C605.611 348.665 604.201 348.64 602.803 348.777C602.581 349.481 602.446 350.21 602.403 350.947C602.48 353.528 603.603 355.947 604.716 358.279C604.865 358.629 605.276 358.648 605.496 358.992Z" fill="#BE6F72"/>
<path id="Path 1736" opacity="0.1" d="M590.193 363.829C589.546 364.936 589.216 366.199 589.237 367.481C589.24 367.987 589.32 368.49 589.476 368.972C589.737 369.648 590.146 370.257 590.674 370.753C591.202 371.249 591.834 371.621 592.525 371.84" stroke="black" stroke-miterlimit="10"/>
<path id="Path 1737" d="M595.056 332.427C594.585 332.426 594.117 332.5 593.67 332.647C592.418 330.735 589.47 329.416 586.023 329.416C581.454 329.416 577.754 331.777 577.754 334.683C577.754 337.589 581.454 339.941 586.023 339.941C587.734 339.96 589.428 339.601 590.984 338.89C591.334 339.613 591.872 340.229 592.541 340.675C593.21 341.12 593.986 341.378 594.789 341.421C595.591 341.465 596.39 341.293 597.104 340.924C597.818 340.554 598.419 340 598.846 339.319C599.273 338.638 599.51 337.856 599.532 337.052C599.554 336.249 599.361 335.454 598.972 334.751C598.583 334.048 598.013 333.461 597.321 333.053C596.629 332.644 595.841 332.429 595.037 332.428L595.056 332.427Z" fill="#3F3D56"/>
<path id="Path 1738" opacity="0.1" d="M595.431 340.313C594.583 340.313 593.753 340.074 593.035 339.622C592.318 339.17 591.743 338.525 591.377 337.76C589.821 338.471 588.127 338.83 586.416 338.812C581.856 338.812 578.157 336.46 578.157 333.555C578.142 333.38 578.142 333.204 578.157 333.029C577.885 333.538 577.74 334.106 577.736 334.683C577.736 337.551 581.436 339.941 586.005 339.941C587.716 339.959 589.41 339.6 590.966 338.889C591.377 339.744 592.047 340.447 592.881 340.898C593.715 341.35 594.67 341.526 595.611 341.402C596.551 341.278 597.428 340.86 598.116 340.208C598.805 339.556 599.27 338.703 599.445 337.771C599.081 338.528 598.512 339.168 597.802 339.618C597.093 340.067 596.271 340.308 595.431 340.313Z" fill="black"/>
<path id="Path 1739" opacity="0.1" d="M576.634 332.599C577.9 330.007 580.006 327.92 582.61 326.678C585.214 325.437 588.162 325.115 590.973 325.764C592.94 324.55 595.185 323.86 597.494 323.761C599.804 323.662 602.1 324.157 604.163 325.198C606.227 326.24 607.989 327.793 609.281 329.709C610.573 331.626 611.352 333.842 611.544 336.145V335.017C611.539 332.613 610.892 330.254 609.671 328.183C608.45 326.112 606.699 324.404 604.598 323.235C602.498 322.066 600.123 321.479 597.719 321.533C595.316 321.588 592.971 322.283 590.925 323.546C588.114 322.897 585.166 323.219 582.562 324.461C579.958 325.702 577.852 327.789 576.586 330.381C575.009 331.873 573.762 333.678 572.925 335.681C572.088 337.683 571.679 339.839 571.724 342.009V343.137C571.91 339.115 573.674 335.329 576.634 332.599Z" fill="black"/>
</g>
</g>
<defs>
<linearGradient id="paint0_linear" x1="256.154" y1="415.472" x2="256.154" y2="318.957" gradientUnits="userSpaceOnUse">
<stop stop-color="#808080" stop-opacity="0.251"/>
<stop offset="0.54" stop-color="#808080" stop-opacity="0.122"/>
<stop offset="1" stop-color="#808080" stop-opacity="0.102"/>
</linearGradient>
<linearGradient id="paint1_linear" x1="596.585" y1="484.149" x2="596.585" y2="319.656" gradientUnits="userSpaceOnUse">
<stop stop-color="#808080" stop-opacity="0.251"/>
<stop offset="0.54" stop-color="#808080" stop-opacity="0.122"/>
<stop offset="1" stop-color="#808080" stop-opacity="0.102"/>
</linearGradient>
</defs>
</svg>
