<?xml version="1.0" standalone="no"?>
<!DOCTYPE svg PUBLIC "-//W3C//DTD SVG 20010904//EN"
 "http://www.w3.org/TR/2001/REC-SVG-20010904/DTD/svg10.dtd">
<svg version="1.0" xmlns="http://www.w3.org/2000/svg"
 width="100.000000pt" height="100.000000pt" viewBox="0 0 100.000000 100.000000"
 preserveAspectRatio="xMidYMid meet">
<metadata>
Created by potrace 1.11, written by Peter Selinger 2001-2013
</metadata>
<g transform="translate(0.000000,100.000000) scale(0.100000,-0.100000)"
fill="#000000" stroke="none">
<path d="M60 480 l0 -290 68 0 69 0 0 180 c0 100 3 183 5 185 2 3 26 -47 52
-110 l49 -115 51 0 51 0 45 111 c25 61 48 113 52 115 4 3 7 -77 7 -178 l-1
-183 231 -3 231 -2 0 55 0 55 -140 0 -140 0 132 178 c132 176 133 177 134 235
l2 57 -236 0 -237 0 -14 -32 c-8 -18 -32 -71 -54 -118 -21 -47 -43 -96 -49
-110 -10 -27 -13 -22 -90 150 -11 25 -27 60 -35 78 l-15 32 -84 0 -84 0 0
-290z m710 171 c0 -5 -6 -16 -13 -23 -7 -7 -24 -29 -37 -48 -13 -19 -30 -41
-37 -48 -7 -7 -13 -18 -13 -23 0 -5 -3 -9 -8 -9 -4 0 -7 36 -7 80 l0 80 57 0
c32 0 58 -4 58 -9z"/>
</g>
</svg>
